<svg width="121" height="120" viewBox="0 0 121 120" fill="none" xmlns="http://www.w3.org/2000/svg">
<path d="M55.7046 80.669L55.5982 80.5627L55.5257 80.5732C55.2291 80.4445 54.985 80.1109 54.8458 79.5719L48.4054 14.6993L48.4032 14.6773L48.3978 14.6559C48.2909 14.2298 48.6071 13.7188 49.1727 13.431C49.5189 13.2942 49.8026 13.2718 50.0368 13.3304C50.2705 13.3889 50.4904 13.5369 50.6934 13.8068C50.6938 13.8074 50.6943 13.808 50.6947 13.8086L96.26 76.5001L96.26 76.5002L96.2627 76.5038C96.4692 76.779 96.5562 77.0317 96.5562 77.2664C96.5562 77.4691 96.4913 77.6852 96.3406 77.9176C89.5814 78.2979 79.9511 78.9341 71.5572 79.4887C65.6144 79.8813 60.2913 80.2329 57.0455 80.4239L56.9838 80.4275L56.9286 80.4552C56.5971 80.6216 56.3504 80.7379 56.1205 80.7379C56.0404 80.7379 55.9459 80.7374 55.8557 80.7224C55.7585 80.7062 55.7163 80.6808 55.7046 80.669ZM92.3004 75.8276L92.8492 75.7967L92.5264 75.3518L52.2778 19.8961L51.6314 19.0055L51.7364 20.1009L57.2365 77.5098L57.264 77.7969L57.552 77.7808L92.3004 75.8276Z" fill="#4D666F" stroke="#4D666F" stroke-width="0.6"/>
<circle r="9.10128" transform="matrix(1 0 0 -1 41.903 100.825)" stroke="#4D666F" stroke-width="2"/>
<circle r="9.10128" transform="matrix(1 0 0 -1 82.5881 100.825)" stroke="#4D666F" stroke-width="2"/>
<path d="M29.1363 103.21H26.6649C25.008 103.21 23.6648 101.867 23.6648 100.21V89.7955C23.6648 88.1386 25.008 86.7954 26.6649 86.7954H86.3769C95.4961 86.7954 107 91.4252 107 103.21H95.4961" stroke="#4D666F" stroke-width="1.75" stroke-linecap="round"/>
<path d="M42.5148 84.1857C42.2386 84.1857 41.87 83.9868 41.6864 83.6887L38.8326 78.4217C38.5564 77.9246 38.7407 77.3285 39.2005 77.0304C39.661 76.7323 40.2133 76.9313 40.4894 77.4276L43.3432 82.6947C43.6193 83.1917 43.435 83.7879 42.9752 84.0859C42.7909 84.1857 42.6991 84.1857 42.5148 84.1857H42.5148Z" fill="#4D666F"/>
<path fill-rule="evenodd" clip-rule="evenodd" d="M31.2564 67.9741C30.2093 67.9741 29.0674 68.2596 28.1153 68.8306L28.1162 68.8308C26.6881 69.5924 25.5461 71.1155 25.165 72.8285C24.7846 74.5416 24.9751 76.2552 25.8316 77.6827L30.8904 86.431H33.4681L27.6391 76.3506C26.9725 75.3984 26.8776 74.1609 27.163 73.0188C27.4484 71.8768 28.21 70.9247 29.2571 70.3537C29.923 69.9733 30.6846 69.7827 31.4461 69.7827H42.202C42.3926 69.7827 42.4875 69.7827 42.6781 69.6878L52.0059 64.2619C52.3864 63.9764 52.8624 63.9764 53.3385 64.0714C53.8145 64.2613 54.195 64.5474 54.3855 64.9279C54.671 65.3083 54.671 65.7844 54.5761 66.2604C54.3862 66.7365 54.1 67.1169 53.7196 67.3075L44.0113 72.9225L44.0073 72.9241C43.5326 73.1135 43.0576 73.3029 42.4883 73.3029H34.2074C33.6358 73.3029 33.2553 73.684 33.2553 74.255C33.2553 74.8267 33.6364 75.2071 34.2074 75.2071H42.4883C43.3448 75.2071 44.2013 75.0166 44.9629 74.5405L54.5763 68.9249C55.4327 68.4488 56.0037 67.6879 56.2892 66.7358C56.4798 65.7845 56.3849 64.8323 55.9088 63.9758C55.4327 63.1193 54.6718 62.5483 53.7197 62.2628C52.7677 62.0723 51.8155 62.1679 50.959 62.644L41.8217 67.9741H31.2564Z" fill="#4D666F"/>
<path d="M19.4481 55.5603H24.1878C25.6095 52.0041 29.6859 50.0393 33.4776 51.0687C35.4686 51.63 37.0799 52.9401 38.0275 54.7182C38.9757 56.4964 39.2601 58.5552 38.6914 60.52C37.7432 63.7956 34.6156 65.9476 31.2974 65.9476C30.539 65.9476 29.8758 65.8542 29.1173 65.6669C26.6528 64.9182 24.662 63.0467 23.9034 60.5199C23.7137 60.0518 23.998 59.4905 24.5673 59.3971C25.0414 59.2098 25.6101 59.4905 25.7046 60.0525C26.2733 61.9239 27.6957 63.3281 29.5914 63.8894C32.6252 64.7315 35.848 63.0473 36.7956 60.0525C36.8902 59.8651 36.8902 59.5845 36.9854 59.3971H33.194C32.1512 59.3971 31.2982 58.5551 31.2982 57.5257L19.4482 57.5251C18.8796 57.5251 18.5 57.151 18.5 56.589C18.5 56.0276 18.8796 55.5603 19.4482 55.5603L19.4481 55.5603ZM32.909 52.8462C30.2547 52.0974 27.6006 53.2202 26.2735 55.4664H36.3216C35.5631 54.2503 34.3312 53.3142 32.909 52.8462Z" fill="#4D666F"/>
<path d="M54.9507 103.771H67.9982" stroke="#4D666F" stroke-width="2"/>
</svg>
