<svg width="120" height="120" viewBox="0 0 120 120" fill="none" xmlns="http://www.w3.org/2000/svg">
<path d="M54.6409 24.6284H66.5465C66.5465 25.7643 67.4035 26.6934 68.4512 26.6934H72.2606C71.88 28.965 70.3559 31.0301 68.1655 31.6495C66.6414 32.1659 65.1173 31.9592 63.7838 31.133C62.4505 30.3069 61.4027 28.9643 61.0221 27.4158C60.8314 26.8994 60.3551 26.5897 59.8794 26.6927C59.403 26.8994 59.1173 27.4158 59.2123 27.9315C59.7837 30.1003 61.117 31.8555 62.9269 32.8876C64.0696 33.6108 65.308 33.9205 66.6414 33.9205C67.4035 33.9205 68.0698 33.8175 68.8319 33.6108C72.9271 32.2682 75.2133 27.6219 74.0705 23.2852C72.8321 18.8455 68.5463 16.367 64.546 17.6059C62.26 18.329 60.4508 20.1873 59.5931 22.562H54.8309C54.2595 22.562 53.8782 22.9747 53.8782 23.5949C53.8788 24.2157 54.0695 24.6284 54.6409 24.6284L54.6409 24.6284ZM64.8324 19.5692C67.4992 18.7431 70.1659 19.982 71.4994 22.4604H61.4985C62.1655 21.1179 63.4032 20.085 64.8324 19.5692Z" fill="#4D666F"/>
<path d="M39.8779 53.0239L51.8785 60.5614L43.0204 77.3924C41.9727 79.2506 42.6398 81.7291 44.3538 82.7619C44.9252 83.0716 45.4966 83.2783 46.1637 83.2783H59.2127C63.4036 83.2783 67.4038 81.3162 70.1655 77.9088C75.1184 71.7131 82.2618 68.2025 89.7859 68.2025C90.3573 68.2025 90.7387 67.7898 90.7387 67.1697C90.7387 66.5503 90.358 66.1368 89.7859 66.1368C81.6898 66.1368 73.9751 69.9571 68.6416 76.5655C66.2605 79.5596 62.8317 81.2119 59.2122 81.2119H57.8788V80.7991C57.8788 79.87 57.4024 79.0439 56.7361 78.6304L50.2598 74.6034C49.7834 74.2937 49.212 74.5004 48.9264 75.0161C48.6407 75.5325 48.8314 76.152 49.3071 76.4617L55.7834 80.4887C55.8784 80.5917 55.974 80.6954 55.974 80.9014C55.974 81.1081 55.7834 81.3141 55.5933 81.3141H46.1639C45.8783 81.3141 45.5926 81.2111 45.3069 81.1074C44.4498 80.5909 44.1642 79.4551 44.6399 78.526L54.0693 60.7659C54.1643 60.5592 54.2599 60.2495 54.1643 59.9398C54.0693 59.63 53.9736 59.4233 53.6879 59.3203L40.8295 51.2664C40.1625 50.8536 39.5911 50.2335 39.2104 49.5111C37.9721 47.2395 38.7341 44.2452 40.8295 42.9027L53.6879 34.8487C55.0213 34.0226 56.7361 34.0226 58.1644 34.8487L66.3555 40.0115C66.5461 40.1145 66.6412 40.1145 66.8318 40.1145H76.2612C77.214 40.1145 77.9753 40.9407 77.9753 41.9728C77.9753 43.0056 77.2133 43.831 76.2612 43.831L66.451 43.8339C65.8797 43.8339 65.4033 43.6272 64.9269 43.4212L57.5929 38.8777C57.1166 38.568 56.5452 38.7747 56.2595 39.2904C55.9739 39.8069 56.1645 40.4263 56.6402 40.736L63.9742 45.2794C64.7363 45.7959 65.5933 46.0026 66.4504 46.0026H76.2607C77.7847 46.0026 79.1182 44.9697 79.5946 43.6279C84.1661 44.9704 87.595 48.9974 88.5477 54.1602C88.6428 54.6766 89.0241 54.9863 89.5005 54.9863H89.6911C90.1675 54.8833 90.5482 54.3669 90.4532 53.7475C89.4055 47.7586 85.3103 43.0092 79.881 41.5636C79.5953 39.6016 78.1669 38.1562 76.2615 38.1562H67.0228L59.1175 32.9919C57.117 31.753 54.7359 31.753 52.7361 32.9919L39.8777 41.0459C36.8295 42.9041 35.7825 47.1378 37.5916 50.4424C38.1637 51.4752 38.9257 52.4044 39.8784 53.0238L39.8779 53.0239Z" fill="#4D666F"/>
<path d="M53.6885 48.1709C53.8791 48.1709 53.9741 48.1708 54.1648 48.0679L58.07 45.5895C58.5464 45.2798 58.6414 44.6604 58.4507 44.144C58.165 43.6275 57.5937 43.5245 57.1173 43.7313L53.2121 46.2096C52.7358 46.5193 52.6407 47.1387 52.8314 47.6551C53.0214 48.0679 53.3071 48.1709 53.6885 48.1709L53.6885 48.1709Z" fill="#4D666F"/>
<path d="M53.2121 72.8491C52.9264 73.3655 53.1171 73.985 53.5928 74.2947C53.7834 74.3977 53.8784 74.3977 54.0691 74.3977C54.3548 74.3977 54.7361 74.1909 54.9262 73.8812L60.7361 63.0392C61.5931 61.4906 61.7838 59.6317 61.4031 57.7733C61.0224 55.915 59.8791 54.4687 58.4507 53.6434L46.6402 46.209C46.1638 45.8992 45.5925 46.106 45.3068 46.6217C45.0211 47.1381 45.2118 47.7575 45.6875 48.0672L57.498 55.5017C58.5457 56.1211 59.3078 57.1539 59.5934 58.3928C59.8791 59.6317 59.7841 60.9742 59.117 62.0072L53.2121 72.8491Z" fill="#4D666F"/>
<path d="M102.168 69.3383C94.4533 56.2246 79.1187 50.649 65.6892 56.0187C65.2128 56.2254 64.9271 56.8448 65.1178 57.3612C65.3085 57.8776 65.8799 58.1873 66.3562 57.9806C78.9289 52.9209 93.4057 58.1873 100.644 70.475C101.597 72.0235 101.597 74.0893 100.644 75.6378C95.3108 84.6209 86.2625 90.0933 76.4521 90.0933L46.1626 90.0926C44.8292 90.0926 43.5908 89.5761 42.5431 88.647C40.0669 86.3754 36.4475 86.4783 34.0663 88.8537C32.3523 90.506 29.6847 90.506 28.0658 88.8537C25.6846 86.479 21.8752 86.479 19.4941 88.8537C18.637 89.6799 17.5893 90.0926 16.4459 90.0926C15.8745 90.0926 15.4932 90.5053 15.4932 91.1255C15.4932 91.7449 15.8739 92.1583 16.4459 92.1583C18.065 92.1583 19.589 91.5389 20.7317 90.3001C22.4458 88.6478 25.1133 88.6478 26.7323 90.3001C29.1134 92.6748 32.9229 92.6748 35.304 90.3001C36.9231 88.6478 39.495 88.5448 41.209 90.1971C42.5424 91.4359 44.2572 92.1591 46.0663 92.1591H76.1637C86.7359 92.1591 96.3556 86.377 101.975 76.7738C103.405 74.5014 103.405 71.6102 102.166 69.3386L102.168 69.3383Z" fill="#4D666F"/>
<path d="M19.3048 86.1691C19.4954 86.1691 19.6854 86.0661 19.8761 85.9624C20.2568 85.6527 20.3525 84.9295 20.0668 84.5168C18.352 82.0385 17.3999 79.0443 17.3999 75.9466C17.3999 74.9137 18.162 74.0883 19.114 74.0883H40.7346C41.973 74.0883 43.0206 72.9525 43.0206 71.61C43.0206 70.6809 42.5443 69.8547 41.8779 69.4412L27.4005 60.3545C25.6864 59.2187 23.4002 59.9418 22.4476 61.8001C22.4476 61.9031 22.3526 62.0068 22.3526 62.0068C21.3999 64.1755 20.9242 66.5502 20.9242 68.925C20.9242 69.5444 21.3049 69.9578 21.8769 69.9578C22.4483 69.9578 22.8296 69.5451 22.8296 68.925C22.8296 66.86 23.306 64.7951 24.068 62.9361L24.163 62.8331C24.6394 61.904 25.6871 61.5942 26.5442 62.11L41.0202 71.1974C41.1152 71.3004 41.2109 71.4041 41.2109 71.6101C41.2109 71.8168 41.0202 72.0228 40.8302 72.0228H19.1143C17.1139 72.0228 15.4949 73.7781 15.4949 75.9468C15.4949 79.4573 16.5426 82.9678 18.543 85.7559C18.7337 85.9626 19.0194 86.1693 19.3051 86.1693L19.3048 86.1691Z" fill="#4D666F"/>
</svg>
