<svg width="120" height="120" viewBox="0 0 120 120" fill="none" xmlns="http://www.w3.org/2000/svg">
<path d="M53.3547 44.1542C49.8885 45.0956 46.2064 43.2128 45.1237 39.8646C44.9069 39.3414 44.3652 39.0276 43.8243 39.132C43.2826 39.3414 42.9577 39.8646 43.0658 40.3872C44.1491 44.0492 47.7225 46.4551 51.5135 46.4551C52.3801 46.4551 53.1378 46.3507 54.0044 46.1413C58.2282 44.9904 60.7191 41.0147 60.1781 36.9346H65.1605C65.8102 36.9346 66.2439 36.5164 66.2439 35.8881C66.2439 35.2605 65.811 34.8416 65.1605 34.8416H59.6372C58.0129 30.8659 53.3555 28.6693 49.0235 29.8201C46.2078 30.6572 43.9332 32.7494 43.0665 35.5743C42.9585 35.8881 43.0665 36.2019 43.2834 36.5157C43.5002 36.8295 43.825 36.9339 44.1499 36.9339L51.5135 36.9354C51.5135 38.0862 52.488 39.0275 53.6794 39.0275H58.0112C57.5783 41.4343 55.8453 43.4221 53.3545 44.1541L53.3547 44.1542ZM49.6725 31.9138C52.705 31.0767 55.8463 32.332 57.2536 34.8431H45.7735C46.6401 33.4829 47.9394 32.4371 49.6725 31.9138Z" fill="#4D666F"/>
<path d="M41.9831 68.5304L51.2973 73.7614C51.9471 74.0752 52.5968 74.2846 53.3553 74.2846C53.6802 74.2846 54.1138 74.2846 54.4387 74.1802C55.5221 73.8664 56.3878 73.2388 56.9295 72.2975C58.1209 70.4147 57.3624 67.9035 55.4133 66.8571L48.3739 62.8814L51.6232 57.3366C51.948 56.8134 51.7312 56.1858 51.1903 55.872C50.6486 55.5582 49.9989 55.7676 49.6741 56.2901L45.883 62.6719C45.775 62.8813 45.6662 63.1951 45.775 63.5089C45.883 63.8227 45.9918 64.0322 46.3167 64.1365L54.3314 68.6348C55.306 69.158 55.6308 70.3088 55.0899 71.2502C54.8731 71.6684 54.4402 71.9829 53.8985 72.1916C53.3568 72.296 52.8152 72.296 52.3823 71.9822L43.0681 66.7513C42.2015 66.3331 41.6599 65.6004 41.4438 64.6591C41.227 63.7177 41.3358 62.8806 41.7687 62.0436L47.1839 53.0464C47.8336 51.8955 48.917 51.0584 50.2164 50.7448C51.5159 50.431 52.9241 50.5353 54.0075 51.268C55.1989 51.8956 56.0655 52.9421 56.3902 54.1973L58.3393 61.2068C58.4473 61.73 59.0978 62.0438 59.6387 61.9395C60.1804 61.8351 60.6133 61.2068 60.3972 60.6843L58.4481 53.6748C57.9065 51.8964 56.7151 50.3266 55.0909 49.4904C53.4666 48.549 51.5168 48.3396 49.5675 48.7577C47.7264 49.281 46.1014 50.4318 45.2357 52.0007L39.8205 60.998C39.062 62.2532 38.8459 63.7179 39.2788 65.1824C39.7094 66.647 40.684 67.7978 41.9833 68.5305L41.9831 68.5304Z" fill="#4D666F"/>
<path d="M47.29 75.6445C47.8317 75.3307 47.9397 74.7031 47.5068 74.1799C47.182 73.6567 46.5323 73.5523 45.9906 73.9705L28.1199 86.1064L27.687 85.8977C25.3043 84.5374 22.2718 84.6425 19.8891 86.2115L10.5749 92.489C9.05863 93.4304 8.73377 95.4184 9.81636 96.883C10.1412 97.3012 10.4661 97.6157 10.8997 97.8244L14.257 99.7072C15.1235 100.23 16.0981 100.44 17.0727 100.44C18.2641 100.44 19.3475 100.126 20.322 99.4985L25.5205 95.9416C27.9032 94.3726 29.2027 91.7572 29.2027 89.0366V87.9901L47.29 75.6445ZM27.037 88.9313C27.037 91.0235 25.9536 92.907 24.2213 94.1623L19.0228 97.6147C17.9395 98.3474 16.4233 98.4517 15.2318 97.8241L11.8745 95.9414C11.7665 95.837 11.6577 95.7319 11.5497 95.6276C11.3328 95.1036 11.4416 94.476 11.8745 94.1622L21.1887 87.8847C22.0553 87.2571 23.0298 87.0476 24.1132 87.0476C24.9797 87.0476 25.8462 87.2571 26.604 87.6752L27.0369 87.989L27.037 88.9313Z" fill="#4D666F"/>
<path d="M12.6324 80.2476H32.6688C33.3185 80.2476 33.7521 79.8295 33.7521 79.2012C33.7521 78.5736 33.3192 78.1547 32.6688 78.1547L12.6324 78.1554C11.9827 78.1554 11.441 77.6322 11.441 77.0046C17.8308 76.6908 24.2206 75.7493 30.3943 74.1797C33.6437 73.3426 37.0009 72.715 40.3584 72.1917C40.9001 72.0874 41.3329 71.5641 41.2249 71.0409C41.1169 70.5176 40.5752 70.0995 40.0335 70.2038C36.5674 70.7271 33.2101 71.3547 29.8527 72.1918C23.7878 73.7608 17.614 74.5978 11.3322 74.9117C10.1408 75.016 9.27417 75.8531 9.27417 77.0039C9.27417 78.783 10.7904 80.2476 12.6322 80.2476L12.6324 80.2476Z" fill="#4D666F"/>
<path d="M106.749 70.7274C106.532 70.7274 106.424 70.7274 106.207 70.8318C97.0011 73.2378 86.9291 72.6102 78.0481 69.2628C74.2571 67.7982 70.3581 67.0654 66.3512 67.0654C66.0263 67.0654 65.8095 67.1698 65.5927 67.3792C63.9684 68.9482 62.2354 70.0991 60.1774 70.9361C59.6358 71.1455 59.4189 71.7731 59.6358 72.2964C59.8526 72.8196 60.5023 73.029 61.044 72.8196C63.2099 71.8782 65.1597 70.7274 66.892 69.1576C70.4661 69.1576 74.0404 69.8903 77.3976 71.1455C86.7118 74.7024 97.2174 75.3299 106.857 72.8196C106.857 75.7489 104.366 78.155 101.333 78.155H47.7223C47.0726 78.155 46.6389 78.5731 46.6389 79.2014C46.6389 79.829 47.0718 80.2479 47.7223 80.2479H101.225C105.449 80.2479 108.915 76.8998 108.915 72.8196C108.915 71.6688 107.94 70.7274 106.748 70.7274L106.749 70.7274Z" fill="#4D666F"/>
<path d="M105.666 29.1941C105.016 29.1941 104.366 29.4035 103.825 29.7173L95.2691 35.4716C93.32 36.7268 92.2366 38.924 92.2366 41.2258L92.2358 42.794L78.0481 52.419C77.9401 51.7914 77.7232 51.1638 77.2896 50.5362C75.9902 48.7578 73.3906 48.2346 71.5494 49.5948L64.0762 54.6163L62.668 53.7793C62.1263 53.4655 61.4766 53.6749 61.1518 54.1974C60.8269 54.7207 61.0438 55.3483 61.5847 55.6621L63.6427 56.8129C63.8595 56.9173 63.9675 56.9173 64.1843 56.9173C64.4012 56.9173 64.6172 56.8129 64.8341 56.7078L72.8488 51.2675C73.7153 50.6399 75.0147 50.8493 75.6645 51.7907C76.3142 52.6278 76.0974 53.8829 75.2316 54.5106L58.9859 65.4958C58.4442 65.8096 58.3362 66.4372 58.7691 66.9604C58.9859 67.2742 59.3108 67.3786 59.6356 67.3786C59.8525 67.3786 60.0685 67.2742 60.2853 67.1691L93.6432 44.5714C94.7266 44.9896 95.918 45.199 97.1094 45.199C99.1674 45.199 101.225 44.5714 102.957 43.4206L106.64 40.9096C108.156 39.8631 109.022 38.1897 109.022 36.4113L109.023 32.3327C108.915 30.6594 107.507 29.1947 105.666 29.1947L105.666 29.1941ZM106.749 36.2036C106.749 37.3544 106.207 38.4009 105.232 39.0285L101.55 41.5395C99.3842 43.0041 96.7845 43.3179 94.4018 42.586V41.3308C94.4018 39.7618 95.1603 38.192 96.5677 37.3551L105.123 31.6009C105.34 31.4965 105.556 31.3914 105.773 31.3914C106.423 31.3914 106.856 31.8096 106.856 32.4379L106.857 36.2034L106.749 36.2036Z" fill="#4D666F"/>
</svg>
