<svg width="120" height="120" viewBox="0 0 120 120" fill="none" xmlns="http://www.w3.org/2000/svg">
<path d="M24.3472 54.0094C25.5072 54.7434 26.7643 55.0578 28.1179 55.0578C28.8914 55.0578 29.5678 54.9533 30.3414 54.7434C34.4984 53.3806 36.8191 48.6642 35.6591 44.2619C34.402 39.7553 30.0515 37.2394 25.9908 38.4969C23.6703 39.231 21.8338 41.1173 20.9632 43.5279L16.0325 43.5279C15.4525 43.5279 15.0654 43.9468 15.0654 44.5763C15.0654 45.2051 15.4519 45.6248 16.0325 45.6248L28.1179 45.6248C28.1179 46.7778 28.9878 47.7209 30.0513 47.7209L33.9183 47.7209C33.5319 50.0268 31.9848 52.1231 29.7613 52.7518C28.2142 53.276 26.6671 53.0662 25.3135 52.2276C23.96 51.389 22.8965 50.0261 22.5101 48.4542C22.3165 47.93 21.833 47.6156 21.3501 47.7202C20.8666 47.93 20.5766 48.4542 20.673 48.9777C21.253 51.0746 22.5101 52.8564 24.3471 54.0094L24.3472 54.0094ZM26.4736 40.3833C29.1807 39.5446 31.8876 40.8022 33.2412 43.3181L22.9937 43.3181C23.7666 41.956 24.9272 40.9075 26.4736 40.3833Z" fill="#4D666F"/>
<path d="M34.4023 80.842C35.6594 82.2048 37.2057 82.9381 38.9464 82.9381L56.3492 82.9381L68.6281 96.2498C69.3052 96.9838 70.2716 97.4028 71.2387 97.4028C72.2058 97.4028 73.1722 96.9838 73.8493 96.2498L80.6169 88.9129C81.4869 87.9697 81.4869 86.2925 80.6169 85.3494C80.0369 84.7206 79.167 84.5108 78.3934 84.7206L75.9756 85.3494C75.4921 85.4539 75.2021 86.0834 75.2985 86.6069C75.395 87.1312 75.9756 87.5501 76.4585 87.341L79.0691 86.6069C79.1656 86.6069 79.3591 86.6069 79.4556 86.7115C79.552 86.816 79.552 86.9213 79.552 87.0259C79.552 87.1304 79.552 87.2357 79.4556 87.3403L72.6879 94.6771C72.0108 95.4112 70.8508 95.4112 70.1744 94.6771L57.6055 81.051C57.4119 80.8412 57.219 80.7366 56.9284 80.7366L39.0421 80.7373C37.8821 80.7373 36.7215 80.2131 35.8515 79.27L32.7574 75.9155C32.3709 75.4966 31.7903 75.4966 31.4038 75.9155C31.0174 76.3345 31.0174 76.964 31.4038 77.3829L34.4023 80.842Z" fill="#4D666F"/>
<path d="M28.1178 66.1678C27.5378 66.1678 27.1507 66.5868 27.1507 67.2163L27.1507 87.8648C27.1507 88.9132 26.3771 89.7511 25.4107 89.7511C24.4436 89.7511 23.6708 88.9125 23.6708 87.8648L23.6701 64.0718C23.6701 62.8143 24.1537 61.5561 25.0236 60.6129C26.7636 58.7266 29.6642 58.7266 31.4049 60.6129L38.4625 68.2642C38.849 68.6832 39.4296 68.6832 39.816 68.2642C40.2025 67.8453 40.2025 67.2158 39.816 66.7969L32.7584 59.1456C30.2448 56.4206 26.1843 56.4206 23.67 59.1456C22.413 60.5084 21.7366 62.1848 21.7366 64.0719L21.7366 87.8648C21.7366 90.0663 23.3801 91.848 25.4107 91.848C27.4413 91.848 29.0848 90.0662 29.0848 87.8648L29.0841 67.2163C29.0841 66.6921 28.6977 66.1678 28.1177 66.1678L28.1178 66.1678Z" fill="#4D666F"/>
<path d="M43.6839 73.4002C43.1039 73.4002 42.7168 73.8192 42.7168 74.4487C42.7168 75.0775 43.1032 75.4971 43.6839 75.4971L57.4128 75.4971C58.5728 75.4971 59.7334 76.0214 60.6034 76.9645L72.5922 89.9617C72.7857 90.1716 73.0757 90.2761 73.2693 90.2761C73.4628 90.2761 73.7528 90.1716 73.9464 89.9617C74.3328 89.5428 74.3328 88.9133 73.9464 88.4944L61.9569 75.3918C60.6998 74.0289 59.1534 73.2957 57.4128 73.2957L43.6839 73.2949L43.6839 73.4002Z" fill="#4D666F"/>
<path d="M35.8524 57.1537C35.2724 57.1537 34.8853 57.5726 34.8853 58.2022C34.8853 58.8309 35.2717 59.2506 35.8524 59.2506L45.4241 59.2506C45.7141 59.2506 45.9077 59.1461 46.1012 58.9362L51.9025 52.6469C52.5796 51.9129 53.7397 51.9129 54.4161 52.6469C54.7061 52.9613 54.8996 53.4856 54.8996 54.0098C54.8996 54.534 54.7061 54.9529 54.4161 55.3726L48.2284 62.0807C47.6484 62.7095 46.8749 63.1292 46.0049 63.1292L41.3643 63.1292C40.7843 63.1292 40.3972 63.5481 40.3972 64.1776C40.3972 64.8064 40.7836 65.2261 41.3643 65.2261L45.425 65.2261L36.1431 75.2887C35.7566 75.7076 35.7566 76.3371 36.1431 76.7561C36.3366 76.9659 36.6266 77.0704 36.8202 77.0704C37.0137 77.0704 37.3037 76.9659 37.4973 76.7561L55.1902 57.5749L61.0878 63.9686C61.1843 64.0732 61.1843 64.0732 61.2814 64.0732L61.3778 64.1777C61.4743 64.2823 61.6678 64.2823 61.7643 64.2823C61.8607 64.2823 61.9578 64.2823 62.1507 64.1777C62.1507 64.1777 62.2472 64.1777 62.2472 64.0732C62.3436 64.0732 62.3436 63.9686 62.4407 63.9686L75.106 52.4386C75.4924 52.0197 75.5895 51.3902 75.2024 50.9713C74.816 50.5523 74.2353 50.447 73.8489 50.8667L61.7636 61.7656L56.5423 56.1052L69.4976 42.0602C69.8841 41.6413 69.8841 41.0118 69.4976 40.5928C69.1112 40.1739 68.5305 40.1739 68.1441 40.5928L56.7359 52.8562C56.5424 52.2274 56.2524 51.5986 55.7688 51.179C54.6088 49.9214 52.7718 49.7116 51.3211 50.5502L49.8718 48.8737L59.9264 35.8765C60.3129 35.4575 60.2164 34.7235 59.83 34.4091C59.4436 33.9902 58.7664 34.0947 58.4765 34.5137L47.841 48.2442C47.841 48.2442 47.841 48.3488 47.7446 48.3488C47.7446 48.4533 47.6482 48.4533 47.6482 48.5586L47.6482 48.7684L47.6482 48.9783L47.6482 49.1881C47.6482 49.2927 47.6482 49.2927 47.7446 49.3979C47.7446 49.5025 47.841 49.5025 47.841 49.6078C47.841 49.6078 47.841 49.7123 47.9375 49.7123L49.9682 51.9138L45.134 57.1546L35.8524 57.1537Z" fill="#4D666F"/>
<path d="M97.3426 85.4538L68.8212 77.1738C68.3377 77.0693 67.7577 77.3836 67.6613 77.9079C67.5648 78.4321 67.8548 79.0609 68.3384 79.1654L96.8597 87.4454C97.1497 87.55 97.4397 87.6553 97.6333 87.9696C98.3104 88.7037 98.3104 89.9613 97.6333 90.6946L87.3844 101.805C86.2244 103.062 84.581 103.482 83.0339 103.062L60.9902 96.6687C59.9267 96.3543 58.9595 95.6202 58.3796 94.5726C56.6397 91.5333 52.8684 90.4848 49.9684 92.162C47.9377 93.315 45.3278 92.581 44.0708 90.4848C42.3308 87.4456 38.5595 86.397 35.6596 88.0743C34.6925 88.5985 33.5325 88.8083 32.3725 88.4932C31.889 88.3886 31.309 88.703 31.2125 89.2273C31.1161 89.7515 31.4061 90.3803 31.8896 90.4848C33.4367 90.9037 35.0802 90.6946 36.5302 89.9606C38.5609 88.8076 41.1708 89.5416 42.4279 91.6378C44.1678 94.677 47.9391 95.7256 50.8391 94.0483C52.8698 92.8953 55.4797 93.6294 56.7367 95.7256C57.6067 97.1929 58.9603 98.2413 60.5074 98.7648L82.551 105.159C83.131 105.368 83.6145 105.368 84.1945 105.368C85.838 105.368 87.5787 104.634 88.7386 103.272L99.084 92.0567C100.534 90.4848 100.534 87.9689 99.084 86.397C98.5997 85.9781 98.0197 85.6637 97.3426 85.4539L97.3426 85.4538Z" fill="#4D666F"/>
<path d="M54.9956 27.1768C57.4127 29.4827 60.9898 29.4827 63.4068 27.1768C68.9181 21.8314 77.2321 21.5172 83.1301 26.3382C83.5165 26.6526 84.1936 26.6526 84.4836 26.1283C84.7736 25.7094 84.7736 24.9753 84.2901 24.661C77.6188 19.1058 68.3378 19.5249 62.0531 25.4996C60.4095 27.0715 57.8961 27.0715 56.2518 25.4996C54.4146 23.8224 54.2211 20.7831 55.8653 18.7914L56.0589 18.5816C57.316 17.0097 58.766 15.7514 60.4094 14.8083C60.5059 14.7037 60.603 14.7037 60.6994 14.5984C67.3707 10.6153 75.8789 11.4538 81.7762 17.3234C89.221 24.6603 89.8009 37.1334 83.0333 45.2042C81.5833 46.9859 80.8098 49.292 80.9063 51.7025C81.0027 54.1131 81.9698 56.3146 83.6134 57.8864C85.1605 59.4583 87.1905 60.1923 89.1247 60.1923C91.1553 60.1923 93.1853 59.3537 94.7323 57.7818C99.3728 53.0653 101.983 46.4618 101.983 39.649C102.081 22.7745 89.3182 8.93823 73.6554 8.93823C68.8213 8.93823 64.0837 10.3011 59.8302 12.8162C57.8967 13.9692 56.1561 15.4366 54.6097 17.3229L54.4161 17.6372C52.0955 20.3636 52.3854 24.7658 54.9961 27.1763L54.9956 27.1768ZM100.146 39.6499C100.146 45.9392 97.7293 51.9133 93.4751 56.2107C91.0581 58.6213 87.2874 58.6213 84.8704 56.3153C83.6133 55.0577 82.8397 53.3804 82.8397 51.5988C82.7433 49.817 83.3233 48.0352 84.4832 46.6725C88.0603 42.3749 89.9945 36.7152 89.7037 30.9502C89.4137 25.0808 87.0931 19.7347 83.1297 15.8567C80.9061 13.6552 78.2955 12.0834 75.4921 11.1402C89.221 12.0834 100.146 24.5565 100.146 39.6499L100.146 39.6499Z" fill="#4D666F"/>
</svg>
