<svg width="120" height="120" viewBox="0 0 120 120" fill="none" xmlns="http://www.w3.org/2000/svg">
<path d="M53.4389 26.6001C53.4601 26.5832 53.4812 26.5665 53.5022 26.5498C53.7425 26.3596 53.9705 26.1824 54.1855 26.0184" fill="#4D666F"/>
<path fill-rule="evenodd" clip-rule="evenodd" d="M61.2648 73.3734L56.2811 22.8399V22.8012C56.2811 22.7229 56.2502 22.5948 56.174 22.4805C56.1038 22.3752 56.0186 22.3142 55.9223 22.2902L55.7874 22.2565L55.6719 22.1794C55.6307 22.1519 55.5592 22.1258 55.4245 22.145C55.2834 22.1652 55.1128 22.2321 54.9497 22.3406L54.927 22.3557L54.9032 22.3693C53.8941 22.9452 28.613 39.616 22.5041 75.0544C22.6581 75.6422 22.7665 75.8579 23.0102 75.98L23.0401 75.9949C23.1273 76.0362 23.1651 76.0438 23.1862 76.0473C23.2294 76.0545 23.2806 76.0566 23.4573 76.0566C23.5469 76.0566 23.6767 76.0108 23.9902 75.856L23.9975 75.8505C24.0385 75.8194 24.0928 75.7794 24.1597 75.7315C24.2938 75.6355 24.4836 75.5042 24.7266 75.3455C24.9149 75.2224 25.1356 75.0825 25.3875 74.9293L27.1322 74.8537C26.5 76 27 75.5 27.1466 74.8459L25.3954 74.9246C25.7921 74.6835 26.266 74.4098 26.8124 74.1174C28.6076 73.1566 31.1928 71.9903 34.4084 71.117C40.8387 69.3707 49.7859 68.7991 59.9422 73.3734C56.7623 73.5162 59.7823 73.4377 61.2648 73.3734ZM25.3954 74.9246C25.3927 74.9262 25.3901 74.9277 25.3875 74.9293L22.5041 75.0544L25.3954 74.9246ZM59.4527 71.3101L54.8409 24.5119L53.7001 25.3824C47.5039 30.1109 30.6133 45.5416 24.9278 71.8613L24.5598 73.5648L26.0914 72.7332C31.6062 69.7391 43.4187 65.1696 58.2434 70.847L59.4527 71.3101Z" fill="#4D666F"/>
<path fill-rule="evenodd" clip-rule="evenodd" d="M67.9116 72.9981C67.894 72.9973 67.8784 72.9962 67.8648 72.9949L67.8098 72.9399L67.6303 72.8802C67.533 72.8478 67.3364 72.7022 67.2023 72.2108L60.6062 5.77052L60.5919 5.71345C60.5766 5.6525 60.5793 5.55591 60.6696 5.41549C60.7589 5.27659 60.9138 5.13333 61.1107 5.02888C61.385 4.92424 61.5615 4.92653 61.6724 4.95427C61.7797 4.98114 61.9142 5.05361 62.0681 5.25719L62.0714 5.26157L108.72 69.4435L108.727 69.4533C108.891 69.6713 108.929 69.8288 108.929 69.9383C108.929 70.0397 108.896 70.1823 108.761 70.3761C108.612 70.5128 108.423 70.6241 108.236 70.6789C108.049 70.7339 107.912 70.7212 107.816 70.6802C107.806 70.6748 107.797 70.67 107.789 70.6659C107.784 70.663 107.779 70.6604 107.774 70.6583C107.745 70.6436 107.714 70.6291 107.685 70.6159C107.625 70.5887 107.545 70.5548 107.45 70.5156C107.258 70.4369 106.986 70.3305 106.641 70.2038C105.951 69.9502 104.964 69.6123 103.737 69.2491C101.286 68.523 97.8724 67.6923 93.9759 67.2333C86.2264 66.3205 76.4343 66.8638 68.5628 72.7948C68.2428 72.9532 68.1113 72.9998 68.0209 72.9998L67.9764 72.9997C67.954 72.9995 67.933 72.9991 67.9116 72.9981ZM103.67 67.4887L105.927 68.1612L62.7562 8.52023L68.7977 70.6558L69.8917 69.9758C81.4906 62.7655 96.1564 65.2508 103.67 67.4887Z" fill="#4D666F"/>
<path fill-rule="evenodd" clip-rule="evenodd" d="M105.686 92.3192L105.699 92.3355L105.713 92.351C107.126 93.9402 109.103 95.0322 111.459 95.0322C111.767 95.0322 112.108 95.2609 112.108 95.842C112.108 96.1428 112.011 96.3312 111.9 96.4424C111.789 96.5537 111.6 96.6505 111.299 96.6505C108.482 96.6505 105.978 95.471 104.202 93.2507L104.189 93.2345L104.175 93.2189C102.754 91.6213 100.614 90.5377 98.4284 90.5377C96.2801 90.5377 94.1095 91.4322 92.6549 93.2508C90.8786 95.471 88.3751 96.6505 85.5576 96.6505C82.74 96.6505 80.2365 95.471 78.4603 93.2507L78.4472 93.2345L78.4334 93.2189C77.0127 91.6213 74.8719 90.5377 72.6868 90.5377C70.5384 90.5377 68.3679 91.4322 66.9133 93.2508C65.137 95.471 62.6335 96.6505 59.816 96.6505C56.9984 96.6505 54.4948 95.471 52.7186 93.2507L52.7056 93.2345L52.6918 93.2189C51.2711 91.6213 49.1302 90.5377 46.9451 90.5377C44.7968 90.5377 42.6263 91.4322 41.1716 93.2508C39.3954 95.471 36.8919 96.6505 34.0743 96.6505C31.2568 96.6505 28.7532 95.471 26.977 93.2507L26.964 93.2345L26.9501 93.2189C25.5295 91.6213 23.3886 90.5377 21.2035 90.5377C19.0552 90.5377 16.8846 91.4322 15.43 93.2508C13.6537 95.471 11.1503 96.6505 8.33271 96.6505C8.03143 96.6505 7.84285 96.5536 7.73156 96.4422C7.62021 96.3308 7.52344 96.1421 7.52344 95.8412C7.52344 95.5399 7.62035 95.3513 7.7317 95.2401C7.8431 95.1287 8.03179 95.0319 8.33271 95.0319C10.4811 95.0319 12.6516 94.1375 14.1062 92.3189C15.8825 90.0986 18.386 88.9192 21.2035 88.9192C22.0922 88.9192 23.1324 89.0686 24.0073 89.3606L25.5986 89.8916L22.6023 81.9007C22.5041 81.6005 22.5221 81.3905 22.6737 81.1635C22.9018 80.8217 23.1653 80.7147 23.2955 80.7147H23.3204L108.584 75.4058C108.96 75.4128 109.291 75.5997 109.456 75.928C109.601 76.2189 109.559 76.4957 109.292 76.7666L99.1577 86.2573L99.1484 86.2665C98.9364 86.4785 98.7221 86.6578 98.478 86.8614L98.4685 86.8693C98.2325 87.066 97.9677 87.2867 97.7007 87.5537L96.335 88.9194H98.5885C101.406 88.9194 103.91 90.0989 105.686 92.3192ZM34.075 95.0323C36.2233 95.0323 38.3939 94.1379 39.8485 92.3193C41.6248 90.099 44.1282 88.9195 46.9458 88.9195C49.7633 88.9195 52.2668 90.099 54.043 92.3192C55.5089 94.1521 57.8493 95.0323 59.9769 95.0323C62.1252 95.0323 64.2958 94.1379 65.7504 92.3193C67.5267 90.099 70.0302 88.9195 72.8477 88.9195C75.5261 88.9195 78.1479 90.112 79.5828 92.2633L79.602 92.2922L79.6237 92.3192C80.3423 93.2173 81.2396 93.9333 82.3033 94.4652L82.6224 94.6247L82.9543 94.4939C88.8991 94.4939 91.9746 91.2449 95.1732 87.8656C96.0344 86.9558 96.9046 86.0365 97.8421 85.1686L97.8451 85.1658L106.444 77.3661L24.588 82.3986L26.7314 88.2442L26.7357 88.255C27.7624 90.8214 29.467 92.854 31.4709 94.5247L31.6112 94.6417L31.8037 94.69C32.4426 94.8503 33.168 95.0323 34.075 95.0323Z" fill="#4D666F"/>
<path d="M48.6205 67.2413L41.8963 71.8964L37.2412 72.4137L40.3446 78.1033L30.517 79.1378L28.4481 74.9999L27.4136 72.4137V70.862L28.4481 69.3102L30.517 67.7585H37.7584L40.8618 67.2413L46.0343 66.2068L48.6205 67.2413Z" fill="#D9E3E8"/>
<path d="M40.7829 79.8041C40.5517 79.8041 40.2431 79.6498 40.0893 79.4186L37.7003 75.3338C37.4691 74.9483 37.6234 74.486 38.0083 74.2548C38.3938 74.0237 38.8561 74.1779 39.0873 74.5629L41.4764 78.6477C41.7075 79.0331 41.5533 79.4955 41.1683 79.7267C41.014 79.8041 40.9372 79.8041 40.7829 79.8041H40.7829Z" fill="#4D666F"/>
<path fill-rule="evenodd" clip-rule="evenodd" d="M31.5341 66.7792C30.6863 66.7792 29.7617 67.0104 28.9908 67.4728L28.9915 67.4729C27.8352 68.0896 26.9105 69.3229 26.6019 70.7099C26.2938 72.0971 26.4481 73.4846 27.1417 74.6404L31.2378 81.7241H33.3251L28.6052 73.5618C28.0654 72.7909 27.9886 71.7888 28.2197 70.8641C28.4508 69.9393 29.0675 69.1684 29.9153 68.7061C30.4545 68.398 31.0711 68.2437 31.6878 68.2437H40.397C40.5513 68.2437 40.6282 68.2437 40.7825 68.1668L48.3354 63.7735C48.6434 63.5423 49.0289 63.5423 49.4143 63.6192C49.7998 63.7729 50.1079 64.0046 50.2622 64.3127C50.4933 64.6207 50.4933 65.0062 50.4165 65.3917C50.2627 65.7771 50.031 66.0852 49.7229 66.2395L41.862 70.786L41.8587 70.7874C41.4744 70.9407 41.0898 71.0941 40.6288 71.0941H33.9237C33.4608 71.0941 33.1527 71.4027 33.1527 71.865C33.1527 72.3279 33.4613 72.636 33.9237 72.636H40.6288C41.3223 72.636 42.0158 72.4817 42.6325 72.0962L50.4166 67.5491C51.1101 67.1636 51.5724 66.5475 51.8036 65.7766C51.9579 65.0063 51.881 64.2353 51.4956 63.5418C51.1101 62.8483 50.494 62.3859 49.723 62.1548C48.9522 62.0005 48.1812 62.0779 47.4877 62.4634L40.0891 66.7792H31.5341Z" fill="#4D666F"/>
<circle cx="31.5513" cy="58.9656" r="5.17241" fill="#D9E3E8"/>
<path d="M21.9776 56.6829H25.8312C26.9871 53.7541 30.3014 52.1358 33.3841 52.9836C35.0029 53.446 36.3129 54.5249 37.0834 55.9894C37.8543 57.4539 38.0855 59.1495 37.6231 60.7677C36.8522 63.4655 34.3093 65.2379 31.6116 65.2379C30.9949 65.2379 30.4557 65.161 29.8391 65.0067C27.8353 64.3901 26.2167 62.8487 25.6 60.7676C25.4457 60.3822 25.6769 59.9198 26.1397 59.8429C26.5252 59.6887 26.9875 59.9198 27.0644 60.3827C27.5268 61.924 28.6832 63.0805 30.2245 63.5428C32.6911 64.2363 35.3114 62.8493 36.0818 60.3827C36.1587 60.2284 36.1587 59.9972 36.2361 59.8429H33.1535C32.3057 59.8429 31.6122 59.1494 31.6122 58.3017L21.9777 58.3011C21.5154 58.3011 21.2068 57.9931 21.2068 57.5302C21.2068 57.0678 21.5154 56.6829 21.9777 56.6829L21.9776 56.6829ZM32.9218 54.4476C30.7638 53.8309 28.6059 54.7556 27.5269 56.6056H35.6964C35.0797 55.604 34.0781 54.8331 32.9218 54.4476Z" fill="#4D666F"/>
</svg>
