<svg width="120" height="120" viewBox="0 0 120 120" fill="none" xmlns="http://www.w3.org/2000/svg">
<g clip-path="url(#clip0_265_6224)">
<path d="M48.0425 69.3986C45.1676 68.9683 42.2156 69.9295 40.1895 72.1698C39.7641 72.5607 39.7739 73.2796 40.3056 73.6541C40.694 74.0793 41.411 74.0671 41.7864 73.5326C43.294 71.8767 45.4363 71.1207 47.6405 71.4668C51.1399 72.0787 53.5757 75.3932 53.0496 78.9505C53.0525 79.1902 52.913 79.4802 52.9166 79.7203L49.0663 77.8682C48.0073 77.3588 46.7226 77.8122 46.211 78.8758L34.273 73.1333C33.6955 72.8555 33.1242 73.0566 32.8448 73.6373C32.5658 74.2173 32.7644 74.7896 33.3426 75.0677L38.1559 77.383C38.0395 79.3509 38.5926 81.4035 39.7145 83.0145C40.5438 84.2472 41.656 85.1393 43.0037 85.7876C43.7739 86.1581 44.4938 86.3856 45.3572 86.5626C47.6581 86.9551 49.9456 86.3887 51.7917 85.0143C53.6384 83.6403 54.9504 81.652 55.3494 79.3441C55.9557 74.6336 52.7399 70.2297 48.0428 69.3988L48.0425 69.3986ZM45.5674 84.4005C43.7944 84.1431 42.347 83.2085 41.3714 81.7866C40.6875 80.7434 40.2901 79.5997 40.1305 78.4515L50.3346 83.3599C48.9139 84.3434 47.2938 84.7549 45.5674 84.4005L45.5674 84.4005Z" fill="#4D666F"/>
<path d="M55.9954 42.2682L51.8097 50.97C51.5306 51.55 51.7292 52.1222 52.3074 52.4003C52.8849 52.6781 53.4562 52.4771 53.7355 51.8964L57.9213 43.1946C58.2934 42.421 58.9046 41.6437 59.6151 41.1517C59.9937 40.858 60.2263 40.3744 59.9804 39.8989L54.4571 24.0271C54.2582 23.4555 53.68 23.1774 53.1094 23.3788L30.2645 31.4402C29.2646 31.7931 28.1096 31.2374 27.7618 30.2363L24.2789 20.2268C24.2293 20.0842 24.3224 19.8906 24.3688 19.7942C24.5579 19.6468 24.8434 19.5466 24.9897 19.7358L33.6029 27.2127C34.038 27.5407 34.755 27.5285 35.0837 27.0911C35.4123 26.6537 35.4026 25.9348 34.9675 25.6067L26.3543 18.1298C25.2421 17.2377 23.6656 17.3124 22.6755 18.3842C22.1106 19.0651 21.8849 20.0278 22.1833 20.8856L25.6662 30.8951C26.3628 32.897 28.8654 34.1008 30.8643 33.3955L52.7092 25.687L57.6352 39.8438C56.9282 40.5743 56.4137 41.3981 55.9952 42.2682L55.9954 42.2682Z" fill="#4D666F"/>
<path d="M80.2425 49.5265C79.5459 47.5246 77.0433 46.3208 75.0445 47.0261L52.1997 55.0875C48.4877 56.3974 46.5344 60.4582 47.8276 64.1765C48.4746 66.0358 49.7857 67.4994 51.4221 68.2865C53.0585 69.0737 55.0207 69.1837 56.8767 68.5293C58.5897 67.9248 60.1973 66.5545 60.9878 64.911L61.081 64.7174L61.1741 64.5238C61.2205 64.4274 61.1244 64.3812 61.1244 64.3812C61.1708 64.2848 61.0748 64.2386 61.1215 64.1414C61.1215 64.1414 61.0255 64.0953 61.0719 63.9988C61.0223 63.8562 61.0223 63.8562 60.9256 63.8097C60.8759 63.667 60.6832 63.5743 60.5872 63.5281L60.3945 63.4354L60.2017 63.3427C60.1057 63.2965 60.0593 63.393 59.9626 63.3465L59.6778 63.447C59.6314 63.5434 59.5354 63.4972 59.4886 63.5944L59.3955 63.7879L59.3024 63.9815C58.7444 65.1416 57.7046 66.0706 56.4199 66.524C53.8504 67.4307 50.9622 66.0414 50.0661 63.4676C49.1707 60.8942 50.566 57.9934 53.1358 57.086L75.9807 49.0245C76.9806 48.6717 78.1356 49.2273 78.4834 50.2284C78.8319 51.2299 78.2738 52.39 77.2742 52.7422L55.8577 60.2996C55.287 60.501 55.0077 61.0817 55.2066 61.6532C55.4055 62.2247 55.9836 62.5029 56.5543 62.3015L77.9708 54.7441C79.873 53.9922 80.989 51.6722 80.2425 49.5265L80.2425 49.5265Z" fill="#4D666F"/>
<path d="M36.6119 23.4193L52.7453 17.7257C55.3148 16.819 58.2029 18.2082 59.0991 20.782L67.0603 43.6619C67.3092 44.3771 67.3653 44.9996 67.3287 45.8149C67.2388 46.2476 67.4844 46.7237 67.8692 46.9088C67.9652 46.9549 68.0619 47.0015 68.2043 46.9512C68.7789 46.9892 69.3467 46.5481 69.3866 45.9718C69.5163 44.9629 69.311 43.9115 69.0592 42.9566L61.0979 20.0767C59.8043 16.3591 55.7613 14.4143 52.0486 15.7238L35.9153 21.4175C35.3446 21.6189 35.0653 22.1996 35.2642 22.7711C35.463 23.3427 36.0405 23.6205 36.6119 23.4194L36.6119 23.4193Z" fill="#4D666F"/>
</g>
<defs>
<clipPath id="clip0_265_6224">
<rect width="67" height="72" fill="white" transform="translate(31.2107) rotate(25.6887)"/>
</clipPath>
</defs>
</svg>
