<svg width="120" height="120" viewBox="0 0 120 120" fill="none" xmlns="http://www.w3.org/2000/svg">
<g clip-path="url(#clip0_265_6062)">
<path d="M93.3259 75.1179C93.9193 73.4607 93.1701 71.5996 91.5125 71.0057L83.2508 67.8031L83.5157 65.3384C83.5662 64.8693 83.2516 64.4791 82.7826 64.4287C82.3136 64.3783 81.9233 64.6928 81.8729 65.1618L81.545 68.2126C81.5072 68.5646 81.7043 68.9418 82.0432 69.097L90.8791 72.4798C91.6753 72.8026 92.0564 73.6745 91.7332 74.4711C91.5783 74.8105 91.3056 75.1372 90.9284 75.3343C90.5511 75.5314 90.1343 75.5458 89.7423 75.3256L80.0581 71.5544C78.9222 71.0763 78.2147 69.9322 78.3408 68.7583L78.5678 66.6465C78.6182 66.1775 78.3037 65.7872 77.8347 65.7368C77.3657 65.6864 76.9754 66.0009 76.925 66.4699L76.698 68.5818C76.5719 69.7556 76.9804 70.9267 77.661 71.7712C78.1322 72.356 78.7335 72.8358 79.4775 73.0939L89.1617 76.865C89.9579 77.1878 90.7919 77.1586 91.5985 76.8301C92.4054 76.5028 93.0031 75.9142 93.3259 75.118L93.3259 75.1179Z" fill="#4D666F"/>
<path d="M47.5343 80.9385C47.7022 80.4817 47.4529 80.0397 47.0609 79.8196C46.6041 79.6516 46.162 79.901 45.9419 80.2929L42.7392 88.5546C42.7266 88.6716 42.5965 88.7765 42.4795 88.7639C42.3624 88.7513 42.2445 88.7386 42.1923 88.6738L42.0352 88.4789L40.7807 80.2724C40.7015 79.9078 40.8038 79.5031 41.0243 79.1116C41.297 78.7849 41.622 78.523 42.0388 78.5086L58.3997 75.9346C58.7643 75.8554 59.0893 75.5935 59.0745 75.1762L60.7142 59.921C60.8655 58.5131 61.8383 57.1932 63.1922 56.745C63.622 56.6132 63.8548 56.1041 63.7229 55.6743C63.5911 55.2445 63.0821 55.0117 62.6522 55.1436C60.6736 55.8806 59.351 57.6971 59.0718 59.7441L57.547 74.4776L41.8508 76.945C40.1054 77.1726 38.9124 78.8846 39.2049 80.5778L40.4594 88.7844C40.5387 89.1489 40.6835 89.4613 40.8928 89.7211C40.9976 89.8512 41.1021 89.9808 41.2718 90.0586C41.716 90.3436 42.2376 90.4593 42.7719 90.4571C43.4363 90.3501 44.0858 89.8266 44.3315 89.2002L47.5343 80.9385Z" fill="#4D666F"/>
<path d="M65.7602 53.2814L64.5873 64.1941C64.4989 65.016 64.7627 65.8748 65.2865 66.5248C65.8103 67.1747 66.5934 67.6149 67.4153 67.7033C68.2371 67.7916 69.0959 67.5279 69.7459 67.0041C70.3958 66.4803 70.836 65.6971 70.9244 64.8753L71.819 56.544L77.2357 58.61C77.6925 58.7779 78.1346 58.5286 78.3547 58.1366C78.5226 57.6798 78.2733 57.2378 77.8813 57.0176L71.4988 54.551C71.2117 54.4609 70.9772 54.4353 70.7818 54.5927C70.5869 54.7498 70.4443 54.9717 70.419 55.2066L69.41 64.5945C69.3721 64.9465 69.152 65.3385 68.827 65.6004C68.502 65.8623 68.0722 65.9941 67.7202 65.9563C66.8984 65.8679 66.2701 65.0883 66.3588 64.2669L67.5317 53.3541C67.557 53.1192 67.5821 52.8851 67.7249 52.6624C68.2935 51.2397 69.7901 50.5697 71.2124 51.1378L80.2179 54.5985C81.4709 55.0892 82.4137 56.2591 82.6791 57.6525C82.8654 58.6815 82.6344 59.7252 82.0118 60.5484C81.3892 61.3715 80.4921 61.9876 79.4753 62.0564L73.5615 62.9638C73.0795 63.0308 72.7945 63.475 72.8611 63.9566C72.9281 64.4387 73.3724 64.7236 73.854 64.657L79.7678 63.7496C81.2135 63.549 82.4882 62.7363 83.4484 61.5341C84.4086 60.3318 84.69 58.8184 84.4241 57.4253C84.1038 55.4322 82.7946 53.8078 80.9155 53.0717L71.91 49.611C69.6911 48.7196 67.0756 49.8631 66.2364 52.1467C65.9006 52.525 65.8627 52.877 65.7601 53.2812L65.7602 53.2814Z" fill="#4D666F"/>
<path d="M98.5534 57.8579C98.5557 59.257 97.9999 60.4828 97.0156 61.4004C96.0313 62.318 94.7226 62.8727 93.4285 62.8199C92.9803 62.8556 92.6174 63.1799 92.5733 63.6027C92.609 64.0508 92.9333 64.4137 93.356 64.4579C95.1785 64.4999 96.8799 63.8051 98.1471 62.5383C99.0023 61.7555 99.5633 60.7935 99.91 59.6778C100.108 59.0401 100.202 58.4579 100.24 57.7706C100.282 55.9482 99.5877 54.2468 98.3208 52.9796C97.3237 51.9706 96.0426 51.3105 94.6383 51.0491L95.7775 47.3828C95.926 46.9047 95.7066 46.4866 95.228 46.3379C94.7499 46.1893 94.3318 46.4087 94.1831 46.8874L92.9202 50.9518C91.392 51.089 89.8744 51.7531 88.7611 52.8056C87.4934 54.0723 86.7096 55.7513 86.6677 57.5732C86.6616 59.8433 87.7354 62.0123 89.6892 63.3186C89.9036 63.4724 90.1673 63.4672 90.456 63.3819C90.7446 63.2966 90.8984 63.0823 90.9726 62.8432L92.6564 57.4241L94.2502 57.9193L95.736 53.1372C96.2694 53.3901 96.6979 53.6982 97.077 54.1659C98.0516 55.2551 98.6063 56.5637 98.5534 57.8579L98.5534 57.8579ZM88.4416 57.7752C88.4392 56.376 88.995 55.1503 89.9793 54.2327C90.7051 53.584 91.5407 53.1451 92.4066 52.8893L89.8065 61.2576C88.864 60.3533 88.3893 59.0696 88.4416 57.7751L88.4416 57.7752Z" fill="#4D666F"/>
<path d="M56.684 66.4907C56.617 66.0087 56.1728 65.7237 55.6912 65.7903L45.7914 67.3373C44.4627 67.5505 43.0401 66.982 42.2025 65.9427L35.6036 57.7554C35.2895 57.3655 34.8201 57.3147 34.4298 57.6292C34.04 57.9433 33.9892 58.4127 34.3037 58.803L40.8495 66.9254C42.1064 68.4851 44.1034 69.2339 46.0311 68.9662L55.9309 67.4192C56.4657 67.4167 56.7506 66.9724 56.684 66.4908L56.684 66.4907Z" fill="#4D666F"/>
<path d="M65.6748 69.5344C65.7252 69.0654 65.4107 68.6751 64.9417 68.6247C64.4727 68.5743 64.0824 68.8888 64.032 69.3578L63.2374 76.7509C63.0482 78.5107 61.7104 79.9103 59.9653 80.1384L49.4011 81.7924C48.9191 81.8594 48.6341 82.3036 48.7008 82.7852C48.7408 82.9675 48.793 83.0323 48.8978 83.1624C49.0549 83.3573 49.3947 83.5127 49.694 83.4852L60.2583 81.8312C62.733 81.4443 64.668 79.4565 64.8807 76.927L65.6748 69.5344Z" fill="#4D666F"/>
<path d="M36.1014 54.7823C36.0344 54.3002 35.5901 54.0152 35.1085 54.0819L26.355 55.4557C26.0553 55.4827 25.8059 55.0406 26.0661 54.831L32.4992 49.6466C33.1492 49.1227 34.0876 49.224 34.611 49.8735L44.9796 62.7395C45.1889 62.9992 45.4764 63.0898 45.7758 63.0623L56.6398 61.3813C57.1218 61.3143 57.4068 60.87 57.3402 60.3884C57.2732 59.9064 56.8289 59.6214 56.3473 59.6881L45.9655 61.3021L35.9102 48.8268C34.8103 47.462 32.8156 47.2476 31.4508 48.3474L25.0177 53.5318C24.1728 54.2127 24.0341 55.5035 24.715 56.3484C25.1862 56.9331 25.9302 57.191 26.5945 57.0849L35.348 55.7111C35.831 55.6433 36.116 55.1991 36.1016 54.7823L36.1014 54.7823Z" fill="#4D666F"/>
<path d="M27.6851 71.3843C26.7922 71.4873 25.8486 71.2218 25.1355 70.5877C23.4312 69.0199 20.7046 69.0199 19.0003 70.5877C18.3864 71.1332 17.6363 71.4056 16.8184 71.4056C16.4089 71.4056 16.1365 71.6787 16.1365 72.0877C16.1365 72.4971 16.4094 72.7695 16.8184 72.7695C17.9772 72.7695 19.068 72.2925 19.886 71.5426C21.0448 70.4517 22.9542 70.4517 24.181 71.5426C25.1453 72.4296 26.4367 72.8148 27.6851 72.6982V71.3843Z" fill="#4D666F"/>
<path d="M37.7644 71.3843C36.8716 71.4873 35.9279 71.2218 35.2149 70.5877C33.5106 69.0199 30.784 69.0199 29.0797 70.5877C28.4658 71.1332 27.7156 71.4056 26.8977 71.4056C26.4883 71.4056 26.2158 71.6787 26.2158 72.0877C26.2158 72.4971 26.4887 72.7695 26.8977 72.7695C28.0565 72.7695 29.1474 72.2925 29.9653 71.5426C31.1241 70.4517 33.0335 70.4517 34.2604 71.5426C35.2246 72.4296 36.516 72.8148 37.7644 72.6982V71.3843Z" fill="#4D666F"/>
<path d="M61.3814 40.5835C60.4885 40.6865 59.5449 40.421 58.8318 39.787C57.1275 38.2191 54.4009 38.2191 52.6966 39.787C52.0827 40.3324 51.3326 40.6048 50.5147 40.6048C50.1052 40.6048 49.8328 40.8779 49.8328 41.2869C49.8328 41.6963 50.1057 41.9688 50.5147 41.9688C51.6735 41.9688 52.7643 41.4917 53.5823 40.7418C54.7411 39.651 56.6505 39.651 57.8773 40.7418C58.8415 41.6288 60.133 42.014 61.3814 41.8974V40.5835Z" fill="#4D666F"/>
<path d="M71.4607 40.5835C70.5679 40.6865 69.6242 40.421 68.9112 39.787C67.2069 38.2191 64.4803 38.2191 62.776 39.787C62.1621 40.3324 61.4119 40.6048 60.594 40.6048C60.1846 40.6048 59.9121 40.8779 59.9121 41.2869C59.9121 41.6963 60.185 41.9688 60.594 41.9688C61.7528 41.9688 62.8437 41.4917 63.6616 40.7418C64.8204 39.651 66.7298 39.651 67.9567 40.7418C68.9209 41.6288 70.2123 42.014 71.4607 41.8974V40.5835Z" fill="#4D666F"/>
<path d="M82.2075 40.5835C81.3147 40.6865 80.3711 40.421 79.658 39.787C77.9537 38.2191 75.2271 38.2191 73.5228 39.787C72.9089 40.3324 72.1587 40.6048 71.3408 40.6048C70.9314 40.6048 70.6589 40.8779 70.6589 41.2869C70.6589 41.6963 70.9319 41.9688 71.3408 41.9688C72.4996 41.9688 73.5905 41.4917 74.4084 40.7418C75.5672 39.651 77.4766 39.651 78.7035 40.7418C79.6677 41.6288 80.9591 42.014 82.2075 41.8974V40.5835Z" fill="#4D666F"/>
<path d="M92.2869 40.5835C91.3941 40.6865 90.4504 40.421 89.7373 39.787C88.033 38.2191 85.3064 38.2191 83.6021 39.787C82.9882 40.3324 82.2381 40.6048 81.4202 40.6048C81.0107 40.6048 80.7383 40.8779 80.7383 41.2869C80.7383 41.6963 81.0112 41.9688 81.4202 41.9688C82.579 41.9688 83.6698 41.4917 84.4878 40.7418C85.6466 39.651 87.556 39.651 88.7828 40.7418C89.7471 41.6288 91.0385 42.014 92.2869 41.8974V40.5835Z" fill="#4D666F"/>
<path d="M75.9712 86.7847C75.0784 86.8877 74.1347 86.6222 73.4217 85.9881C71.7174 84.4203 68.9908 84.4203 67.2865 85.9881C66.6725 86.5336 65.9224 86.806 65.1045 86.806C64.6951 86.806 64.4226 87.0791 64.4226 87.488C64.4226 87.8975 64.6955 88.1699 65.1045 88.1699C66.2633 88.1699 67.3542 87.6929 68.1721 86.943C69.3309 85.8521 71.2403 85.8521 72.4672 86.943C73.4314 87.83 74.7228 88.2152 75.9712 88.0985V86.7847Z" fill="#4D666F"/>
<path d="M86.0506 86.7847C85.1577 86.8877 84.2141 86.6222 83.501 85.9881C81.7967 84.4203 79.0701 84.4203 77.3658 85.9881C76.7519 86.5336 76.0018 86.806 75.1838 86.806C74.7744 86.806 74.502 87.0791 74.502 87.488C74.502 87.8975 74.7749 88.1699 75.1838 88.1699C76.3427 88.1699 77.4335 87.6929 78.2514 86.943C79.4102 85.8521 81.3196 85.8521 82.5465 86.943C83.5107 87.83 84.8022 88.2152 86.0506 88.0985V86.7847Z" fill="#4D666F"/>
<path d="M96.7974 86.7847C95.9046 86.8877 94.9609 86.6222 94.2478 85.9881C92.5435 84.4203 89.8169 84.4203 88.1126 85.9881C87.4987 86.5336 86.7486 86.806 85.9307 86.806C85.5212 86.806 85.2488 87.0791 85.2488 87.488C85.2488 87.8975 85.5217 88.1699 85.9307 88.1699C87.0895 88.1699 88.1803 87.6929 88.9983 86.943C90.1571 85.8521 92.0665 85.8521 93.2933 86.943C94.2576 87.83 95.549 88.2152 96.7974 88.0985V86.7847Z" fill="#4D666F"/>
<path d="M106.877 86.7847C105.984 86.8877 105.04 86.6222 104.327 85.9881C102.623 84.4203 99.8963 84.4203 98.192 85.9881C97.5781 86.5336 96.8279 86.806 96.01 86.806C95.6006 86.806 95.3281 87.0791 95.3281 87.488C95.3281 87.8975 95.6011 88.1699 96.01 88.1699C97.1688 88.1699 98.2597 87.6929 99.0776 86.943C100.236 85.8521 102.146 85.8521 103.373 86.943C104.337 87.83 105.628 88.2152 106.877 88.0985V86.7847Z" fill="#4D666F"/>
<circle r="2.65454" transform="matrix(1 0 0 -1 50.311 49.1907)" stroke="#4D666F" stroke-width="1.17529"/>
<circle r="2.24927" transform="matrix(1 0 0 -1 27.1375 83.5964)" stroke="#4D666F" stroke-width="1.17529"/>
</g>
<defs>
<clipPath id="clip0_265_6062">
<rect width="120" height="120" fill="white"/>
</clipPath>
</defs>
</svg>
