<svg width="120" height="120" viewBox="0 0 120 120" fill="none" xmlns="http://www.w3.org/2000/svg">
<path d="M16.8003 33.4924H21.6003C23.04 29.8442 27.1683 27.8286 31.0081 28.8846C33.0245 29.4605 34.6563 30.8044 35.616 32.6286C36.5762 34.4527 36.8642 36.5647 36.2883 38.5804C35.328 41.9407 32.1606 44.1484 28.8003 44.1484C28.0322 44.1484 27.3606 44.0526 26.5925 43.8604C24.0966 43.0924 22.0804 41.1724 21.3123 38.5803C21.1201 38.1001 21.408 37.5242 21.9846 37.4285C22.4647 37.2363 23.0406 37.5242 23.1364 38.1008C23.7123 40.0206 25.1527 41.4611 27.0726 42.037C30.1449 42.9008 33.4087 41.1731 34.3684 38.1008C34.4642 37.9086 34.4642 37.6207 34.5606 37.4285H30.7209C29.6649 37.4285 28.8011 36.5646 28.8011 35.5086L16.8004 35.508C16.2245 35.508 15.8401 35.1243 15.8401 34.5477C15.8401 33.9718 16.2245 33.4924 16.8004 33.4924L16.8003 33.4924ZM30.4323 30.708C27.7443 29.94 25.0565 31.0918 23.7125 33.396H33.8883C33.1202 32.1485 31.8726 31.1882 30.4323 30.708Z" fill="#4D666F"/>
<path d="M40.2243 62.2925C39.9364 62.2925 39.552 62.1003 39.3605 61.8123L36.3846 56.7243C36.0967 56.2442 36.2889 55.6683 36.7683 55.3804C37.2485 55.0924 37.8244 55.2846 38.1123 55.7641L41.0881 60.8521C41.3761 61.3322 41.1839 61.9081 40.7044 62.196C40.5122 62.2925 40.4165 62.2925 40.2243 62.2925H40.2243Z" fill="#4D666F"/>
<path d="M25.5362 46.9324C26.4965 46.3565 27.6482 46.0685 28.7042 46.0685H39.3602L48.5759 40.6927C49.4397 40.2126 50.4 40.1161 51.3602 40.3083C52.3205 40.5963 53.0879 41.1722 53.568 42.036C54.0482 42.8998 54.1439 43.8601 53.9517 44.8196C53.6638 45.7799 53.0879 46.5473 52.2241 47.0275L42.5283 52.6913C41.7602 53.1714 40.8963 53.3636 40.0324 53.3636H31.6806C31.1047 53.3636 30.7203 52.9799 30.7203 52.4033C30.7203 51.8274 31.104 51.4431 31.6806 51.4431H40.0324C40.6083 51.4431 41.0885 51.2509 41.5686 51.0594L51.3601 45.3962C51.7438 45.204 52.0324 44.8203 52.2239 44.3402C52.3197 43.86 52.3197 43.3799 52.0317 42.9962C51.8395 42.6125 51.4558 42.3239 50.9757 42.1324C50.4955 42.0366 50.0154 42.0366 49.6317 42.3245L40.2239 47.7969C40.0317 47.8927 39.9359 47.8927 39.7438 47.8927H28.8956C28.1275 47.8927 27.3594 48.0848 26.6878 48.4685C25.6317 49.0444 24.8636 50.0047 24.5758 51.1565C24.2879 52.3084 24.3836 53.5566 25.0559 54.5169L33.2162 68.6289C33.9843 69.9729 35.5204 70.8367 37.0559 70.8367H54.6239C55.0076 70.8367 55.2962 71.0289 55.4877 71.3169L64.3197 86.6772C64.7999 87.7325 65.8559 88.0205 66.7197 87.5404L74.9757 82.7404C75.0715 82.6446 75.1679 82.5482 75.1679 82.3567C75.1679 82.1645 74.9757 81.973 74.7842 81.973H72.192C71.6161 81.973 71.2318 81.5893 71.2318 81.0127C71.2318 80.4368 71.6155 80.0524 72.192 80.0524H74.7842C75.7445 80.0524 76.6084 80.7247 76.992 81.5886L85.7282 76.5006C90.624 73.7169 95.8084 71.5084 101.184 69.8764C101.76 69.6842 102.432 69.7806 102.912 70.0686C103.488 70.3565 103.872 70.8367 104.064 71.4125C104.064 71.5083 104.159 71.6047 104.159 71.7963V72.3722C104.159 81.492 98.7836 89.6521 90.3353 93.3001C90.2395 93.3959 90.0473 93.3959 89.9515 93.3959H65.7595C63.9354 93.3959 62.2077 92.7236 60.8637 91.5717C59.1361 90.132 56.5439 90.132 54.9119 91.6675C52.5119 93.8753 48.6722 93.8753 46.2722 91.6675C44.5446 90.1313 41.8559 90.1313 40.2241 91.6675C39.0723 92.7235 37.5361 93.3952 35.9042 93.3952C35.3283 93.3952 34.944 93.0115 34.944 92.4349C34.944 91.859 35.3277 91.4746 35.9042 91.4746C37.056 91.4746 38.1121 91.0909 38.9766 90.3228C41.3766 88.115 45.2162 88.115 47.6162 90.3228C49.3439 91.859 52.0326 91.859 53.6644 90.3228C56.0644 88.115 59.7126 88.0186 62.2084 90.1306C63.2644 90.9945 64.5126 91.4746 65.8566 91.4746L89.7606 91.4766C97.3442 88.2128 102.24 80.8206 102.24 72.5646V72.0845C102.24 71.9887 102.144 71.8923 102.048 71.8923C101.952 71.8923 101.856 71.7965 101.76 71.8923C96.4797 73.4284 91.3919 75.5404 86.6876 78.3243L75.9358 84.5639L67.6798 89.3639C67.1039 89.6519 66.4315 89.8441 65.8556 89.8441C64.6074 89.8441 63.3598 89.1717 62.6876 88.0199L54.1436 73.1397L36.9613 73.1404C34.6571 73.1404 32.545 71.8922 31.3933 69.9724L23.233 55.8604C22.3691 54.4207 22.1769 52.6924 22.5606 50.9646C22.945 49.2369 24.0968 47.7007 25.5371 46.9326L25.5362 46.9324Z" fill="#4D666F"/>
<path d="M60.9602 67.4765L69.5042 82.2601C69.7921 82.7403 69.5999 83.3162 69.1204 83.6041C68.9283 83.6999 68.8325 83.6999 68.6403 83.6999C68.3524 83.6999 67.968 83.5077 67.7765 83.2197L59.2325 68.4361C58.4644 67.0921 56.9283 66.2283 55.3928 66.2283H38.3048C37.7289 66.2283 37.3445 65.8445 37.3445 65.268C37.3445 64.6921 37.7282 64.3077 38.3048 64.3077L55.3921 64.3084C57.6958 64.2126 59.8078 65.4602 60.9601 67.4764L60.9602 67.4765Z" fill="#4D666F"/>
</svg>
