<svg width="126" height="126" viewBox="0 0 126 126" fill="none" xmlns="http://www.w3.org/2000/svg">
<path d="M106.283 40.7184H101.775C100.423 37.292 96.5455 35.3989 92.9392 36.3907C91.0455 36.9316 89.5129 38.1938 88.6116 39.9071C87.7097 41.6203 87.4393 43.6039 87.9801 45.497C88.882 48.653 91.8568 50.7264 95.0128 50.7264C95.7342 50.7264 96.365 50.6365 97.0864 50.456C99.4304 49.7346 101.324 47.9314 102.045 45.4969C102.226 45.0459 101.956 44.505 101.414 44.4151C100.963 44.2346 100.422 44.505 100.332 45.0465C99.7914 46.8496 98.4385 48.2026 96.6355 48.7434C93.7499 49.5547 90.6846 47.9321 89.7833 45.0465C89.6933 44.866 89.6933 44.5956 89.6028 44.4151H93.2089C94.2008 44.4151 95.012 43.6038 95.012 42.612L106.283 42.6114C106.824 42.6114 107.185 42.251 107.185 41.7095C107.185 41.1686 106.824 40.7183 106.283 40.7183L106.283 40.7184ZM93.48 38.1033C96.0046 37.382 98.529 38.4637 99.7912 40.6279H90.2342C90.9556 39.4562 92.1273 38.5543 93.48 38.1033Z" fill="#4D666F"/>
<path d="M84.2831 67.7673C84.5535 67.7673 84.9145 67.5868 85.0944 67.3163L87.8892 62.5377C88.1597 62.0868 87.9792 61.5459 87.5289 61.2755C87.0779 61.005 86.537 61.1855 86.2666 61.6358L83.4718 66.4145C83.2013 66.8654 83.3818 67.4063 83.8321 67.6767C84.0126 67.7673 84.1026 67.7673 84.2831 67.7673H84.2831Z" fill="#4D666F"/>
<path d="M98.0784 53.3411C97.1765 52.8002 96.0948 52.5298 95.103 52.5298H85.095L76.4397 47.4808C75.6284 47.0299 74.7265 46.9393 73.8247 47.1198C72.9228 47.3902 72.2021 47.9311 71.7511 48.7424C71.3002 49.5537 71.2103 50.4557 71.3908 51.3568C71.6612 52.2587 72.2021 52.9794 73.0134 53.4304L82.1196 58.7498C82.841 59.2007 83.6523 59.3812 84.4637 59.3812H92.3076C92.8485 59.3812 93.2095 59.0209 93.2095 58.4794C93.2095 57.9385 92.8491 57.5775 92.3076 57.5775H84.4637C83.9228 57.5775 83.4718 57.397 83.0209 57.2171L73.8248 51.8983C73.4645 51.7178 73.1934 51.3574 73.0135 50.9065C72.9236 50.4556 72.9236 50.0046 73.194 49.6443C73.3745 49.2839 73.7349 49.0128 74.1858 48.8329C74.6368 48.743 75.0877 48.743 75.4481 49.0134L84.2838 54.153C84.4643 54.243 84.5543 54.243 84.7348 54.243H94.9233C95.6447 54.243 96.366 54.4235 96.9969 54.7838C97.9887 55.3247 98.7101 56.2266 98.9804 57.3084C99.2508 58.3902 99.1609 59.5625 98.5295 60.4644L90.8654 73.7183C90.144 74.9805 88.7013 75.7919 87.2592 75.7919H70.7595C70.3991 75.7919 70.128 75.9724 69.9482 76.2428L61.6532 90.6691C61.2023 91.6603 60.2105 91.9307 59.3991 91.4798L51.6452 86.9717C51.5552 86.8817 51.4647 86.7912 51.4647 86.6113C51.4647 86.4308 51.6452 86.2509 51.825 86.2509H54.2596C54.8005 86.2509 55.1615 85.8905 55.1615 85.349C55.1615 84.8082 54.8011 84.4472 54.2596 84.4472H51.825C50.9232 84.4472 50.1118 85.0786 49.7515 85.8899L41.5465 81.1113C36.9484 78.4969 32.0793 76.4227 27.0304 74.8899C26.4895 74.7094 25.8581 74.8 25.4078 75.0704C24.8669 75.3409 24.5059 75.7918 24.326 76.3327C24.326 76.4226 24.2361 76.5132 24.2361 76.693V77.2339C24.2361 85.7992 29.285 93.4632 37.2196 96.8893C37.3096 96.9793 37.4901 96.9793 37.58 96.9793H60.3009C62.0142 96.9793 63.6368 96.3478 64.8991 95.266C66.5217 93.9138 68.9562 93.9138 70.489 95.356C72.743 97.4295 76.3492 97.4295 78.6033 95.356C80.2259 93.9132 82.7511 93.9132 84.2837 95.356C85.3654 96.3478 86.8082 96.9786 88.3408 96.9786C88.8817 96.9786 89.2427 96.6182 89.2427 96.0767C89.2427 95.5358 88.8823 95.1748 88.3408 95.1748C87.2591 95.1748 86.2673 94.8144 85.4553 94.093C83.2012 92.0195 79.5951 92.0195 77.341 94.093C75.7184 95.5358 73.1932 95.5358 71.6606 94.093C69.4065 92.0195 65.9802 91.929 63.6362 93.9125C62.6443 94.7239 61.4721 95.1748 60.2098 95.1748L37.7594 95.1767C30.6369 92.1113 26.0387 85.1686 26.0387 77.4147V76.9637C26.0387 76.8738 26.1287 76.7832 26.2192 76.7832C26.3092 76.7832 26.3997 76.6933 26.4897 76.7832C31.4488 78.226 36.2272 80.2096 40.6455 82.8241L50.7435 88.6843L58.4975 93.1925C59.0384 93.4629 59.6698 93.6434 60.2108 93.6434C61.3831 93.6434 62.5548 93.012 63.1861 91.9302L71.2106 77.9548L87.348 77.9554C89.5121 77.9554 91.4958 76.7831 92.5775 74.9801L100.242 61.7262C101.053 60.374 101.233 58.7508 100.873 57.1281C100.512 55.5055 99.4303 54.0627 98.0775 53.3413L98.0784 53.3411Z" fill="#4D666F"/>
<path d="M72.923 41.2594C72.4721 40.9889 71.9312 41.1694 71.6608 41.6197L50.0218 79.0371V58.1195C50.0218 57.5786 49.6614 57.2176 49.1199 57.2176C48.579 57.2176 48.218 57.578 48.218 58.1195V82.4633C48.218 82.9143 48.4885 83.1847 48.8495 83.3652H49.1199C49.4803 83.3652 49.7513 83.1847 49.9312 82.9143L73.1931 42.6116C73.4642 42.0708 73.2837 41.5299 72.9233 41.2595L72.923 41.2594Z" fill="#4D666F"/>
<path d="M70.3081 54.7839C69.1358 56.0462 67.7836 57.128 66.3408 58.1198C65.8899 58.3902 65.8 58.9311 66.0704 59.382C66.2509 59.6524 66.5213 59.7424 66.7918 59.7424C66.9723 59.7424 67.1521 59.6524 67.3326 59.5619C68.8653 58.4801 70.308 57.3078 71.5703 55.9557C71.9307 55.5953 71.9307 55.0538 71.5703 54.6935C71.2099 54.423 70.669 54.423 70.308 54.784L70.3081 54.7839Z" fill="#4D666F"/>
<path d="M49.1204 44.9561C49.3909 44.9561 49.5714 44.8662 49.7519 44.6857L78.6039 15.9239H85.1856C85.0956 17.727 84.5541 19.4402 83.6529 20.9728L75.3579 35.3085C75.0875 35.7594 75.268 36.3003 75.7183 36.5707C76.1692 36.8412 76.7101 36.6606 76.9805 36.2103L85.2755 21.8747C86.4478 19.8011 87.0786 17.4566 87.0786 15.0225C87.0786 14.4816 86.7182 14.1206 86.1767 14.1206H78.3327C78.0623 14.1206 77.8818 14.2105 77.7013 14.391L48.4903 43.4233C48.1299 43.7837 48.1299 44.3252 48.4903 44.6856C48.6708 44.8661 48.9412 44.9567 49.1217 44.9567L49.1204 44.9561Z" fill="#4D666F"/>
<path d="M64.8082 72.6361L56.7838 86.5208C56.5133 86.9717 56.6938 87.5126 57.1441 87.783C57.3246 87.8729 57.4146 87.8729 57.5951 87.8729C57.8655 87.8729 58.2265 87.6924 58.4064 87.422L66.4309 73.5373C67.1522 72.2751 68.5949 71.4637 70.037 71.4637H86.086C86.6268 71.4637 86.9878 71.1034 86.9878 70.5619C86.9878 70.021 86.6275 69.66 86.086 69.66L70.0377 69.6606C67.8741 69.5707 65.8905 70.7424 64.8083 72.636L64.8082 72.6361Z" fill="#4D666F"/>
<path d="M44.0707 67.4066C44.6116 67.4066 44.9726 67.0462 44.9726 66.5047C44.972 51.5383 57.1442 39.3658 72.2017 39.3658C72.562 39.3658 72.9231 39.4558 73.2834 39.5464C74.3652 39.8168 75.267 40.5382 75.808 41.5299C76.349 42.5217 76.5294 43.6035 76.2589 44.6859C76.169 45.1369 76.4394 45.6777 76.8904 45.7677C77.3413 45.8576 77.8822 45.5872 77.9721 45.1362C78.3325 43.6036 78.1526 41.9802 77.3407 40.5381C76.5294 39.1859 75.2671 38.1941 73.6439 37.7432C73.1935 37.5627 72.6527 37.5627 72.2017 37.5627C56.1528 37.5627 43.1694 50.5463 43.1694 66.5049C43.1694 67.0458 43.5298 67.4061 44.0713 67.4061L44.0707 67.4066Z" fill="#4D666F"/>
</svg>
