<svg width="50" height="49" viewBox="0 0 50 49" fill="none" xmlns="http://www.w3.org/2000/svg">
<path d="M28.5257 11.0395H29.8253C29.6238 11.8051 29.0815 12.4543 28.3552 12.6596L28.3552 12.6593L28.3455 12.6626C27.7853 12.8524 27.2284 12.7776 26.7357 12.4723C26.2345 12.1618 25.8441 11.6585 25.7031 11.0851L25.7004 11.0742L25.6965 11.0636C25.5929 10.7831 25.315 10.5761 25.0025 10.6437L24.9833 10.6479L24.9652 10.6557C24.6888 10.7757 24.5214 11.075 24.5773 11.3785L24.5787 11.3859L24.5806 11.3932C24.8251 12.3214 25.3973 13.0788 26.1793 13.5263C26.6782 13.8409 27.2179 13.9743 27.7908 13.9743C28.1208 13.9743 28.4091 13.9293 28.7326 13.8415L28.7327 13.8418L28.7426 13.8385C30.5172 13.2567 31.4889 11.2563 31.001 9.40454L31.001 9.40453L31.0002 9.40176C30.4706 7.50326 28.6251 6.41799 26.8807 6.95823L26.8807 6.95823L26.8796 6.95859C25.9287 7.25937 25.1759 8.00843 24.791 8.96184H22.9948C22.8283 8.96184 22.6764 9.02332 22.5674 9.14148C22.4597 9.25818 22.4079 9.4145 22.4079 9.58126L22.4079 9.58147C22.4081 9.7208 22.4282 9.87335 22.5089 9.99574C22.6001 10.1341 22.7457 10.201 22.9176 10.201H23.3506L23.3506 10.201H27.5706C27.6575 10.6679 28.0422 11.0395 28.5257 11.0395ZM26.0578 8.92059C26.3175 8.56635 26.6942 8.29072 27.1197 8.13624C27.9905 7.86847 28.8657 8.19393 29.4011 8.92059H26.0578Z" fill="#4D666F" stroke="#4D666F" stroke-width="0.4"/>
<path d="M15.8192 20.5805C15.9991 20.9051 16.2261 21.2116 16.5028 21.4601L16.4567 21.4754L16.8162 21.7012L21.5325 24.6635L18.023 31.3317C17.548 32.1777 17.8465 33.3028 18.637 33.7791L18.6369 33.7793L18.6449 33.7836C18.8939 33.9186 19.1593 34.0175 19.4751 34.0175H24.774C26.5394 34.0175 28.2197 33.191 29.3771 31.763L29.3779 31.7619C31.3532 29.291 34.1976 27.8956 37.1891 27.8956C37.3556 27.8956 37.5075 27.8341 37.6166 27.7159C37.7243 27.5992 37.776 27.4429 37.776 27.2762C37.776 27.1096 37.7244 26.9533 37.6167 26.8365C37.5077 26.7183 37.3558 26.6567 37.1891 26.6567C33.8373 26.6567 30.6487 28.2384 28.4473 30.966L28.4464 30.9671C27.5163 32.1366 26.1809 32.7784 24.7738 32.7784H24.432C24.4212 32.3485 24.1981 31.9614 23.8738 31.7601L21.2455 30.1259C20.9331 29.9243 20.5802 30.08 20.422 30.3655L20.422 30.3656C20.2507 30.6752 20.3693 31.0392 20.6425 31.217L20.6424 31.2171L20.646 31.2193L23.2201 32.8199H19.4752C19.4047 32.8199 19.3274 32.7955 19.2151 32.7551C18.9771 32.6002 18.8879 32.2663 19.0337 31.9801C19.0339 31.9797 19.0341 31.9792 19.0344 31.9788L22.862 24.7695L22.8623 24.7697L22.8671 24.7592C22.9127 24.6601 22.9757 24.4781 22.9152 24.2816C22.8953 24.2168 22.8687 24.1385 22.8207 24.0691C22.7717 23.9984 22.7061 23.9444 22.6207 23.9092L17.4152 20.6487L17.4143 20.6481C17.1751 20.5001 16.9672 20.2754 16.8285 20.0122L16.8285 20.0121L16.8272 20.0097C16.3733 19.1772 16.6566 18.0781 17.4161 17.5908L22.6359 14.3214C22.636 14.3213 22.6362 14.3212 22.6363 14.3211C23.1101 14.0278 23.7255 14.0236 24.245 14.3226L27.5679 16.417L27.5677 16.4174L27.5795 16.4238C27.6314 16.4519 27.6807 16.4713 27.7358 16.4813C27.7828 16.4897 27.828 16.4897 27.8619 16.4897L27.868 16.4897H31.6971C31.9585 16.4897 32.1931 16.72 32.1931 17.0443C32.1931 17.3687 31.9583 17.5988 31.6971 17.5988H31.697L27.7133 17.6C27.7133 17.6 27.7133 17.6 27.7133 17.6C27.5329 17.6 27.3789 17.5374 27.1873 17.4547L24.2233 15.6184C23.9108 15.4169 23.558 15.5726 23.3999 15.8581L23.3998 15.8582C23.2286 16.1678 23.3472 16.5318 23.6203 16.7096L23.6203 16.7097L23.6241 16.712L26.5989 18.5549C26.9462 18.7892 27.3338 18.8807 27.7131 18.8807H31.6968C32.3359 18.8807 32.8976 18.4922 33.1632 17.9614C34.8547 18.5304 36.1267 20.063 36.4896 22.0295C36.545 22.3304 36.7795 22.5288 37.0732 22.5288H37.1506H37.172L37.1929 22.5243C37.4988 22.4581 37.7109 22.142 37.6578 21.7954L37.6578 21.7954L37.6571 21.7912C37.2277 19.3366 35.5683 17.3664 33.3418 16.7192C33.1717 15.9069 32.5436 15.2944 31.6972 15.2944H28.0051L24.8447 13.2299L24.8448 13.2298L24.8407 13.2273C23.9638 12.6843 22.9153 12.6843 22.0387 13.2273L22.0379 13.2278L16.8174 16.4977C15.4825 17.3123 15.0369 19.1514 15.8188 20.5796L15.8192 20.5805Z" fill="#4D666F" stroke="#4D666F" stroke-width="0.4"/>
<path d="M22.2326 19.6952C22.3321 19.7491 22.4378 19.7612 22.531 19.7612C22.5329 19.7612 22.535 19.7612 22.537 19.7612C22.5709 19.7612 22.6161 19.7612 22.6632 19.7528C22.7183 19.7428 22.7675 19.7234 22.8194 19.6953L22.8197 19.6957L22.8316 19.6882L24.4174 18.6818L24.4174 18.6818L24.4192 18.6806C24.7162 18.4875 24.7505 18.1222 24.6524 17.8567L24.6472 17.8424L24.6398 17.8291C24.4632 17.5099 24.1099 17.4594 23.8437 17.5749L23.8294 17.5811L23.8162 17.5895L22.2304 18.5959L22.2304 18.5959L22.2285 18.5971C21.9315 18.7902 21.8973 19.1555 21.9953 19.421L21.998 19.4283L22.0013 19.4354C22.054 19.5498 22.129 19.6391 22.2326 19.6952Z" fill="#4D666F" stroke="#4D666F" stroke-width="0.4"/>
<path d="M24.4647 21.7834L19.6687 18.7644C19.4753 18.6386 19.2432 18.7226 19.1272 18.932C19.0112 19.1417 19.0887 19.3932 19.2818 19.519L25.3927 25.5988C25.7408 24.9699 25.8182 24.2151 25.6636 23.4604C25.509 22.7058 25.0447 22.1185 24.4647 21.7834ZM24.4647 21.7834L24.5648 21.6102C24.5659 21.6108 24.567 21.6115 24.5681 21.6121M24.4647 21.7834L24.5712 21.6141L24.5681 21.6121M24.5681 21.6121L19.7764 18.5958C19.4638 18.3937 19.1106 18.5494 18.9523 18.8351L18.9522 18.8352C18.781 19.1448 18.8996 19.5088 19.1727 19.6866L19.1727 19.6866L19.1753 19.6883L23.9713 22.7072L23.9712 22.7073L23.976 22.7101C24.3538 22.9334 24.63 23.3065 24.7338 23.7569L24.7338 23.7569C24.8418 24.225 24.8002 24.7104 24.5673 25.0712L24.5632 25.0775L24.5596 25.084L22.1624 29.4855C22.1623 29.4858 22.1622 29.486 22.162 29.4862C21.9913 29.7956 22.1099 30.1593 22.3829 30.337L22.3897 30.3414L22.3969 30.3453C22.4489 30.3734 22.4981 30.3929 22.5532 30.4028C22.6003 30.4113 22.6455 30.4112 22.6794 30.4112L22.6854 30.4112C22.7876 30.4112 22.8899 30.3758 22.9749 30.3262C23.0613 30.2758 23.1454 30.2015 23.2039 30.1061L23.2042 30.1062L23.2097 30.0959L25.5684 25.6944C25.9431 25.0165 26.0217 24.2119 25.8595 23.4203L25.8595 23.4203C25.6932 22.6085 25.1937 21.9748 24.5681 21.6121Z" fill="#4D666F" stroke="#4D666F" stroke-width="0.4"/>
<path d="M26.9846 23.3623C27.0917 23.6524 27.4298 23.867 27.752 23.7292C32.7583 21.7158 38.5337 23.8094 41.4264 28.7197L41.4264 28.7197L41.4284 28.723C41.7757 29.2876 41.7757 30.0454 41.4284 30.6099L41.4267 30.6126C39.2933 34.2058 35.6812 36.3848 31.7748 36.3848L19.4749 36.3845C18.9887 36.3845 18.5323 36.1972 18.139 35.8489C17.0539 34.8546 15.464 34.9012 14.4229 35.9385C13.802 36.5359 12.8455 36.5298 12.269 35.9414L12.2674 35.9398C11.2229 34.898 9.55052 34.8976 8.50546 35.9385C8.19498 36.2373 7.81974 36.3845 7.40763 36.3845C7.24111 36.3845 7.08925 36.446 6.98021 36.5641C6.8725 36.6808 6.82075 36.8371 6.82075 37.0039C6.82075 37.1705 6.87241 37.3268 6.98004 37.4435C7.08904 37.5617 7.24092 37.6233 7.40763 37.6233C8.11611 37.6233 8.78749 37.352 9.29085 36.8088C9.91181 36.2143 10.8663 36.2213 11.4419 36.8087L11.4435 36.8103C12.4885 37.8525 14.1617 37.8525 15.2067 36.8103L15.2083 36.8087C15.7916 36.2135 16.7103 36.1788 17.3246 36.7709L17.3246 36.7709L17.3272 36.7734C17.9028 37.3082 18.6469 37.6236 19.4358 37.6236H31.6577C36.0262 37.6236 39.9949 35.2342 42.3101 31.2797C42.8782 30.3746 42.9236 29.2481 42.5144 28.3103L42.5376 28.3065L42.3898 28.0552C39.2106 22.6511 32.8817 20.3423 27.33 22.5621L27.3299 22.562L27.3246 22.5644C27.0365 22.6894 26.8694 23.0503 26.9846 23.3623Z" fill="#4D666F" stroke="#4D666F" stroke-width="0.4"/>
<path d="M6.82124 30.8403C6.82124 32.2426 7.22187 33.648 7.99301 34.7914H7.94241L8.04105 34.8616C8.05935 34.8879 8.07784 34.9142 8.09654 34.9402L8.1037 34.9502L8.11203 34.9592C8.20006 35.0546 8.36623 35.1915 8.56848 35.1915H9.19442L8.96483 35.0281C9.0675 34.9257 9.1217 34.7856 9.13883 34.6558C9.15804 34.5104 9.13559 34.3415 9.04226 34.2067C8.36898 33.2336 7.99484 32.0573 7.99484 30.8403C7.99484 30.5158 8.2296 30.2857 8.49089 30.2857H17.2705C17.8988 30.2857 18.3988 29.7194 18.3988 29.0793C18.3988 28.6367 18.1729 28.2353 17.8407 28.0289C17.8405 28.0288 17.8404 28.0287 17.8402 28.0287L11.9642 24.3406C11.1575 23.8078 10.101 24.1572 9.66661 25.0045L9.64459 25.0474V25.0598L9.6362 25.0689L9.6229 25.0992C9.22436 26.0064 9.02597 26.9983 9.02597 27.9889C9.02597 28.1555 9.07763 28.3118 9.18526 28.4285C9.29425 28.5468 9.44614 28.6084 9.61285 28.6084C9.77936 28.6084 9.93123 28.5469 10.0403 28.4287C10.148 28.312 10.1997 28.1557 10.1997 27.9889C10.1997 27.1925 10.3809 26.392 10.6742 25.666L10.6882 25.6508L10.7067 25.6307L10.7192 25.6064C10.8621 25.3275 11.1599 25.2465 11.4035 25.392L17.2257 29.0469H8.49103C7.55331 29.0469 6.82124 29.8648 6.82124 30.8403Z" fill="#4D666F" stroke="#4D666F" stroke-width="0.4"/>
</svg>
