<svg width="41" height="41" viewBox="0 0 41 41" fill="none" xmlns="http://www.w3.org/2000/svg">
<path d="M18.9911 12.2716H20.1862C19.994 12.8946 19.5033 13.3956 18.8261 13.5946L18.8253 13.5949C17.7636 13.8805 16.6462 13.3006 16.3194 12.2901L16.3169 12.2824L16.3139 12.275C16.2081 12.0197 15.9384 11.8557 15.6565 11.9101L15.639 11.9135L15.6223 11.92C15.366 12.0191 15.1856 12.2803 15.2448 12.5669L15.2465 12.5751L15.2489 12.5831C15.639 13.9018 16.9192 14.7562 18.2666 14.7562C18.5748 14.7562 18.8441 14.7188 19.1468 14.6457L19.1469 14.6457L19.1524 14.6442C20.5856 14.2537 21.4632 12.9521 21.3848 11.5714H22.8318C22.9839 11.5714 23.1271 11.5218 23.2334 11.4191C23.3405 11.3158 23.3942 11.1741 23.3942 11.0214C23.3942 10.8689 23.3406 10.7272 23.2336 10.6238C23.1273 10.521 22.984 10.4713 22.8318 10.4713H21.115C20.4875 9.12143 18.8764 8.40129 17.3823 8.79821L17.3823 8.79813L17.3767 8.7998C16.3773 9.09689 15.5625 9.84178 15.2506 10.8549C15.1859 11.0476 15.2628 11.2204 15.3489 11.345C15.4699 11.5201 15.6513 11.5712 15.8033 11.5712C15.8033 11.5712 15.8033 11.5712 15.8033 11.5712L18.0896 11.5717C18.184 11.9753 18.5577 12.2716 18.9911 12.2716ZM17.7063 9.88404C18.5065 9.66408 19.3207 9.9196 19.8022 10.4718H16.7519C16.9977 10.2067 17.315 10.0026 17.7063 9.88404Z" fill="#4D666F" stroke="#4D666F" stroke-width="0.4"/>
<path d="M14.9942 22.0911L14.9804 22.1151C14.504 21.8464 14.142 21.421 13.9821 20.8775C13.821 20.3323 13.9019 19.7844 14.1839 19.3178C14.1839 19.3177 14.1839 19.3177 14.184 19.3176L15.9934 16.3113C16.314 15.7328 16.9056 15.3204 17.561 15.1341L17.5737 15.1305L17.5738 15.1309C18.2636 14.9829 18.9665 15.054 19.5594 15.396C20.1551 15.7045 20.5836 16.2756 20.7778 16.9131L20.7792 16.9177L20.7791 16.9178L21.4284 19.2525C21.4879 19.4097 21.4494 19.5689 21.3757 19.6855C21.3005 19.8043 21.1746 19.9031 21.0226 19.9324L14.9942 22.0911ZM14.9942 22.0911L14.9806 22.1152L18.0964 23.8651L18.0963 23.8654L18.1074 23.8708C18.3414 23.9838 18.5891 24.0657 18.8828 24.0657C18.8865 24.0657 18.8904 24.0657 18.8943 24.0657C18.9951 24.0658 19.1649 24.0659 19.3034 24.0222C19.7065 23.9048 20.0398 23.6669 20.2497 23.3044C20.7112 22.5704 20.4119 21.6068 19.6678 21.2059L17.4917 19.9769L18.4748 18.2994C18.6518 18.0113 18.5176 17.6834 18.2589 17.5333L18.2588 17.5333C17.9724 17.3673 17.6398 17.4861 17.4815 17.7406L17.4815 17.7406L17.4794 17.7441L16.2112 19.8789L16.2109 19.8787L16.2054 19.8894C16.1615 19.9745 16.0944 20.1424 16.1579 20.3261C16.1769 20.3813 16.2037 20.4522 16.2525 20.515C16.3022 20.5789 16.3664 20.6248 16.4458 20.6541L19.1114 22.1502L19.1114 22.1502L19.1147 22.152C19.342 22.274 19.4141 22.5344 19.2897 22.751L19.2895 22.7509L19.2855 22.7586C19.2455 22.8358 19.1558 22.913 19.009 22.9725C18.854 23 18.7482 22.9869 18.6747 22.9336L18.6653 22.9268L18.6552 22.9211L15.5394 21.1713L15.5396 21.1709L15.5284 21.1655C15.2983 21.0545 15.1531 20.8624 15.0931 20.601L15.0931 20.6009C15.0316 20.3341 15.061 20.1041 15.1816 19.8683L16.9897 16.8642L16.9898 16.8643L16.9925 16.8594C17.1833 16.5215 17.5002 16.2772 17.8797 16.1856L17.8797 16.1856C18.2775 16.0895 18.6863 16.1272 18.9889 16.3319L18.998 16.338L19.0078 16.3432C19.3606 16.529 19.611 16.8352 19.7044 17.1962L19.7044 17.1962L19.7053 17.1997L20.3558 19.5389C20.3908 19.6953 20.5016 19.8057 20.6185 19.8684C20.7373 19.9322 20.8835 19.9592 21.0226 19.9324L14.9942 22.0911ZM19.101 16.1662C18.7385 15.9211 18.2675 15.8862 17.8328 15.9912L19.101 16.1662ZM19.101 16.1662C19.4995 16.3761 19.7894 16.7262 19.898 17.1461L19.101 16.1662Z" fill="#4D666F" stroke="#4D666F" stroke-width="0.4"/>
<path d="M7.57774 27.6885L7.57773 27.6885L7.57596 27.6897L4.46313 29.7876C3.85254 30.1693 3.73155 30.9681 4.15737 31.5442L4.15732 31.5443L4.16026 31.5481C4.27756 31.699 4.40731 31.8292 4.58794 31.9176L5.70313 32.543C6.02976 32.7394 6.39228 32.8152 6.7456 32.8152C7.18141 32.8152 7.58161 32.6998 7.94086 32.4684L7.9409 32.4685L7.94551 32.4653L9.68305 31.2765C10.5384 30.7125 11.0033 29.7737 11.0033 28.8006V28.5561L16.9612 24.4896C17.0947 24.4097 17.1867 24.2833 17.2101 24.1326C17.2331 23.9844 17.1863 23.8362 17.0889 23.7136C17.0047 23.5848 16.876 23.501 16.7287 23.4796C16.5802 23.4581 16.4292 23.5022 16.3023 23.5983L10.4241 27.5901L10.3893 27.5734C9.52593 27.0836 8.43386 27.1247 7.57774 27.6885ZM7.28731 31.5035L7.28731 31.5035L7.28591 31.5044C6.98421 31.7085 6.55708 31.7381 6.22519 31.5644L5.12707 30.9485L5.07094 30.8943C5.04416 30.7969 5.07718 30.7129 5.12208 30.6786L8.23427 28.5811L8.23434 28.5812L8.23981 28.5772C8.48486 28.3997 8.76503 28.3352 9.10077 28.3352C9.35499 28.3352 9.6073 28.3958 9.82692 28.5146L9.87883 28.5522L9.87886 28.7653C9.87886 28.7654 9.87886 28.7654 9.87886 28.7654C9.87885 29.3913 9.55584 29.9633 9.02283 30.3509L7.28731 31.5035Z" fill="#4D666F" stroke="#4D666F" stroke-width="0.4"/>
<path d="M5.23979 26.0604L5.24062 26.0606H5.26011H11.9627C12.1147 26.0606 12.2579 26.011 12.3643 25.9083C12.4713 25.8049 12.5251 25.6632 12.5251 25.5105C12.5251 25.358 12.4714 25.2163 12.3645 25.113C12.2581 25.0102 12.1149 24.9605 11.9627 24.9605L5.26011 24.9607C5.2601 24.9607 5.2601 24.9607 5.2601 24.9607C5.24592 24.9607 5.23218 24.9593 5.219 24.9566C7.25339 24.8351 9.28457 24.5246 11.2511 24.0246L11.2517 24.0244C12.3302 23.7466 13.4464 23.5378 14.5658 23.3633L14.5658 23.3635L14.5729 23.3621C14.8359 23.3114 15.0847 23.0502 15.0208 22.7403C14.9657 22.4738 14.6937 22.2483 14.393 22.3035C13.2302 22.4791 12.1019 22.69 10.9723 22.9717L10.9723 22.9717L10.9706 22.9721C8.95697 23.493 6.90541 23.7714 4.81518 23.8759L4.81517 23.8757L4.80771 23.8764C4.32167 23.9189 3.93672 24.2717 3.93672 24.7755C3.93672 25.4809 4.52878 26.0498 5.23979 26.0604Z" fill="#4D666F" stroke="#4D666F" stroke-width="0.4"/>
<path d="M26.8549 23.0026C29.921 24.1733 33.3677 24.4069 36.5573 23.6377L36.7443 22.4757L36.744 22.4757L36.7387 22.4757C36.7069 22.4757 36.6653 22.4756 36.622 22.4826C36.5778 22.4897 36.5374 22.5028 36.4953 22.5216C33.4619 23.3103 30.1423 23.1022 27.2146 21.9989C25.924 21.5004 24.5955 21.2507 23.2304 21.2507C23.064 21.2507 22.9431 21.31 22.8377 21.4118C22.3121 21.9196 21.7541 22.2899 21.0912 22.5597C20.7927 22.6763 20.6898 23.0132 20.7992 23.2771C20.9219 23.5733 21.267 23.6627 21.5271 23.5621L21.5272 23.5623L21.5347 23.559C22.2501 23.2481 22.9027 22.8674 23.4873 22.3509C24.6304 22.361 25.7753 22.599 26.8549 23.0026Z" fill="#4D666F" stroke="#4D666F" stroke-width="0.4"/>
<path d="M35.6543 8.79106L32.7939 10.7149C32.0804 11.1752 31.6894 11.9761 31.6894 12.8067C31.6894 12.8068 31.6894 12.8068 31.6894 12.8068L31.6892 13.2254L27.2662 16.2259C27.2183 16.087 27.1503 15.9472 27.0539 15.8077L27.0539 15.8076L27.0508 15.8034C26.5566 15.1269 25.5655 14.9205 24.854 15.4428L22.4626 17.0497L22.1003 16.8343L22.1003 16.8343L22.0984 16.8332C21.8119 16.6672 21.4793 16.786 21.3211 17.0405L21.321 17.0406C21.1418 17.3293 21.276 17.6586 21.5354 17.8091L21.5354 17.8091L21.5381 17.8106L22.2265 18.1956L22.2264 18.1959L22.2374 18.2013C22.2865 18.2249 22.3323 18.2409 22.383 18.2491C22.4264 18.256 22.468 18.256 22.4998 18.256C22.5017 18.256 22.5035 18.2559 22.5054 18.2559C22.6254 18.2559 22.7351 18.2024 22.799 18.1712C22.8028 18.1693 22.8065 18.1675 22.8099 18.1659L22.823 18.1595L22.835 18.1514L25.5161 16.3315L25.5162 16.3315L25.5211 16.328C25.7182 16.1852 26.0261 16.2301 26.1811 16.4546L26.1809 16.4548L26.1877 16.4636C26.3305 16.6476 26.2883 16.9384 26.0859 17.0872L20.6595 20.7565C20.5258 20.8363 20.4337 20.9628 20.4102 21.1137C20.387 21.2634 20.435 21.4132 20.5344 21.5365C20.6554 21.7058 20.8339 21.7555 20.9837 21.7555C21.1038 21.7555 21.2135 21.7019 21.2774 21.6707C21.2812 21.6688 21.2848 21.6671 21.2883 21.6654L21.3013 21.6591L21.3132 21.651L32.3873 14.149C32.7468 14.274 33.1339 14.336 33.5195 14.336C34.2479 14.336 34.9747 14.114 35.5864 13.7076L35.5864 13.7076L35.5884 13.7063L36.8202 12.8663L36.8211 12.8657C37.3821 12.4785 37.7046 11.8573 37.7046 11.1963C37.7046 11.1963 37.7046 11.1963 37.7046 11.1963L37.7048 9.83195L37.7053 9.83195L37.7044 9.81902C37.6663 9.22885 37.2192 8.70452 36.6049 8.60076L36.6071 8.58198H36.3818C36.123 8.58198 35.8714 8.66474 35.6657 8.78396L35.6654 8.78357L35.6543 8.79106ZM36.5803 10.927L36.5439 10.927V11.1268C36.5439 11.4471 36.3946 11.7323 36.1285 11.9036L36.1284 11.9036L36.1241 11.9065L34.8929 12.7461C34.8928 12.7462 34.8927 12.7462 34.8926 12.7463C34.263 13.1719 33.5156 13.2848 32.8137 13.1099V12.842C32.8137 12.3776 33.0385 11.923 33.4405 11.6839L33.4406 11.6842L33.4499 11.678L36.2998 9.76119C36.3743 9.72574 36.4007 9.71703 36.4177 9.71703C36.4829 9.71703 36.521 9.73735 36.5414 9.75713C36.5613 9.77628 36.5801 9.80959 36.5801 9.8671V9.86714L36.5803 10.927Z" fill="#4D666F" stroke="#4D666F" stroke-width="0.4"/>
</svg>
