<svg width="41" height="42" viewBox="0 0 41 42" fill="none" xmlns="http://www.w3.org/2000/svg">
<path d="M10.4086 16.9487C10.2046 17.7283 9.65285 18.39 8.91324 18.5992L8.91317 18.5989L8.90347 18.6022C8.33398 18.7952 7.76772 18.719 7.26686 18.4087C6.75752 18.0931 6.36061 17.5816 6.21733 16.9987L6.21464 16.9878L6.21073 16.9772C6.10598 16.6935 5.82508 16.4846 5.50974 16.5529L5.49051 16.5571L5.47245 16.5649C5.1931 16.6861 5.02392 16.9886 5.08042 17.2953L5.08201 17.3039L5.08435 17.3124C5.33213 18.2082 5.87128 18.9749 6.66276 19.4717L6.73801 19.5189L6.7394 19.5185C7.22474 19.8055 7.74721 19.928 8.3003 19.928C8.63495 19.928 8.92737 19.8824 9.25558 19.7934L9.25565 19.7937L9.26552 19.7904C11.0653 19.2004 12.051 17.1714 11.556 15.2931L11.556 15.2931L11.5553 15.2903C11.0181 13.3646 9.14631 12.2642 7.37739 12.812L7.37739 12.812L7.37624 12.8123C6.41137 13.1176 5.64748 13.878 5.25728 14.846L3.39272 14.846C3.22445 14.846 3.07113 14.9081 2.96106 15.0274C2.85234 15.1452 2.8 15.3031 2.8 15.4717C2.8 15.6402 2.85224 15.7981 2.96089 15.9159C3.07091 16.0353 3.22426 16.0975 3.39272 16.0975L8.11849 16.0975C8.20553 16.5714 8.59551 16.9487 9.08544 16.9487L10.4086 16.9487ZM6.58976 14.7608C6.86814 14.394 7.23631 14.1151 7.69429 13.9593C8.58214 13.6854 9.47461 14.0183 10.0189 14.7608L6.58976 14.7608Z" fill="#4D666F" stroke="#4D666F" stroke-width="0.4"/>
<path d="M10.7009 30.3295L10.701 30.3294L9.48525 28.9269C9.25995 28.6802 9.26072 28.3082 9.48752 28.0623C9.60083 27.9395 9.75102 27.8703 9.90935 27.8703C10.0677 27.8703 10.2179 27.9395 10.3312 28.0623L11.5877 29.4245C11.9064 29.77 12.3257 29.9559 12.7362 29.9559C12.7362 29.9559 12.7362 29.9559 12.7362 29.9559L19.9995 29.9556C20.0839 29.9556 20.1634 29.9711 20.2385 30.0073C20.3122 30.0428 20.3711 30.0932 20.4214 30.1477L25.5254 35.681L25.5254 35.681C25.7209 35.8931 26.0563 35.8932 26.2521 35.681L28.947 32.7594L27.9956 33.0269C27.8251 33.0945 27.6516 33.0505 27.5254 32.9669C27.3965 32.8815 27.2929 32.7408 27.2625 32.5756M10.7009 30.3295L27.4592 32.5394M10.7009 30.3295L10.7051 30.334C11.249 30.9237 11.9285 31.2496 12.6974 31.2496L19.6767 31.2496L10.7009 30.3295ZM27.2625 32.5756L27.4592 32.5394M27.2625 32.5756C27.2625 32.5756 27.2625 32.5757 27.2625 32.5757L27.4592 32.5394M27.2625 32.5756C27.2344 32.423 27.2626 32.2614 27.3303 32.1291C27.3971 31.9989 27.516 31.8731 27.6873 31.8343M27.4592 32.5394C27.42 32.3269 27.5378 32.0712 27.7341 32.0288M27.6873 31.8343L27.6838 31.8352L27.7341 32.0288M27.6873 31.8343L28.6636 31.5804M27.6873 31.8343C27.6888 31.834 27.6903 31.8336 27.6919 31.8333L27.7341 32.0288M27.7341 32.0288L28.6636 31.5804M28.6636 31.5804L28.7159 31.7735L28.6656 31.5799L28.6646 31.5801C28.6643 31.5802 28.6639 31.5803 28.6636 31.5804ZM28.9903 32.5394L28.9903 32.7016M28.9903 32.5394L28.9864 32.7167L28.9864 32.7096L28.9864 32.6965L28.9861 32.6892C28.9861 32.6879 28.986 32.6873 28.986 32.6873C28.986 32.6873 28.9861 32.6885 28.9866 32.6905C28.9873 32.6935 28.9884 32.6974 28.9903 32.7016M28.9903 32.5394L29.0321 32.6881L29.0382 32.7096L29.0445 32.732L29.0358 32.7344L29.0251 32.7374M28.9903 32.7016C28.9909 32.703 28.9915 32.7043 28.9923 32.7057C28.9928 32.7067 28.9933 32.7077 28.9938 32.7086L28.9903 32.7016Z" fill="#4D666F" stroke="#4D666F" stroke-width="0.4"/>
<path d="M6.69415 23.3885L6.69443 33.0503C6.69443 33.3808 6.93367 33.6162 7.20098 33.6162C7.4681 33.6162 7.70753 33.381 7.70753 33.0503L7.70753 24.6654C7.70753 24.4967 7.75987 24.3388 7.86859 24.221C7.97866 24.1017 8.13198 24.0396 8.30025 24.0396L8.30025 24.0396M6.69415 23.3885L8.30025 24.0396M6.69415 23.3885C6.69415 23.3885 6.69415 23.3885 6.69415 23.3885C6.69416 22.9277 6.87182 22.4653 7.1908 22.1195C7.81812 21.4394 8.8604 21.4393 9.48805 22.1195C9.48806 22.1195 9.48807 22.1195 9.48808 22.1195L12.354 25.2265C12.4673 25.3493 12.6175 25.4185 12.7758 25.4185C12.9342 25.4185 13.0844 25.3493 13.1977 25.2265C13.4252 24.9798 13.4252 24.6062 13.1977 24.3594C13.1977 24.3594 13.1977 24.3594 13.1977 24.3594L10.3317 21.2524C9.23179 20.06 7.44731 20.06 6.34714 21.2524L6.34712 21.2524C5.80333 21.8419 5.50898 22.5708 5.50898 23.3885L5.50898 33.0503C5.50898 34.0392 6.25102 34.8677 7.20096 34.8677C8.15089 34.8677 8.89293 34.0391 8.89293 33.0503L8.89266 24.6654C8.89266 24.3714 8.6734 24.0396 8.30025 24.0396M6.69415 23.3885L8.30025 24.0396" fill="#4D666F" stroke="#4D666F" stroke-width="0.4"/>
<path d="M14.4212 26.9338L14.4212 27.0084C14.333 27.0381 14.2539 27.0882 14.1896 27.1579C14.0809 27.2757 14.0285 27.4336 14.0285 27.6023C14.0285 27.7708 14.0808 27.9287 14.1894 28.0465C14.2994 28.1658 14.4528 28.2281 14.6212 28.2281L20.1962 28.2281C20.6068 28.2281 21.0261 28.414 21.3448 28.7595L26.2132 34.0374C26.3305 34.1645 26.5019 34.2295 26.6352 34.2295C26.7684 34.2295 26.9399 34.1645 27.0572 34.0374C27.2846 33.7908 27.2847 33.4174 27.0574 33.1706C27.0573 33.1705 27.0572 33.1704 27.0572 33.1703L22.189 27.8503L22.1885 27.8497C21.6446 27.26 20.9652 26.9341 20.1962 26.9341C20.1962 26.9341 20.1962 26.9341 20.1962 26.9341L14.6212 26.9338L14.4212 26.9338Z" fill="#4D666F" stroke="#4D666F" stroke-width="0.4"/>
<path d="M11.4411 20.3793L11.4411 20.3793C11.2728 20.3793 11.1195 20.4414 11.0094 20.5606C10.9007 20.6785 10.8483 20.8364 10.8483 21.005C10.8483 21.1735 10.9006 21.3314 11.0092 21.4492C11.1193 21.5685 11.2726 21.6308 11.4411 21.6308L15.3279 21.6308C15.4123 21.6308 15.4917 21.6152 15.5668 21.5791C15.6405 21.5436 15.6995 21.4934 15.7499 21.4387L18.1057 18.8848C18.3015 18.6725 18.6369 18.6726 18.8323 18.8847L18.8324 18.8848C18.9108 18.9698 18.9757 19.1317 18.9757 19.3026C18.9757 19.4556 18.9228 19.5835 18.8226 19.731L16.3197 22.4444C16.1132 22.6683 15.8494 22.8058 15.5638 22.8058L13.6793 22.8058C13.5111 22.8058 13.3577 22.8679 13.2477 22.9871C13.1389 23.105 13.0866 23.2629 13.0866 23.4315C13.0866 23.6 13.1388 23.7579 13.2475 23.8757C13.3575 23.995 13.5109 24.0573 13.6793 24.0573L14.8717 24.0573L11.4121 27.8079C11.1845 28.0546 11.1845 28.4282 11.4121 28.6749C11.5294 28.8021 11.7008 28.867 11.8341 28.867C11.9673 28.867 12.1388 28.8021 12.256 28.6749L19.2937 21.0453L21.5416 23.4823L21.5434 23.4842C21.5515 23.493 21.5622 23.5046 21.5723 23.5144C21.5833 23.5252 21.6038 23.5441 21.6328 23.5598C21.644 23.5658 21.6553 23.5707 21.6664 23.5745C21.7285 23.6373 21.8053 23.6576 21.8494 23.6655C21.8967 23.6741 21.9412 23.674 21.961 23.674L21.9633 23.674L21.9656 23.674C21.9862 23.674 22.0237 23.6741 22.0693 23.6642C22.1082 23.6558 22.1471 23.6417 22.1885 23.6214C22.2025 23.6172 22.2184 23.6111 22.2351 23.6021C22.2574 23.59 22.2818 23.5721 22.3033 23.5467L22.3154 23.5467L22.3726 23.4945L27.5157 18.8125L27.5221 18.8066L27.5281 18.8002C27.7318 18.5793 27.8167 18.2032 27.5672 17.9331C27.4619 17.819 27.3213 17.7377 27.167 17.7209C27.0099 17.7039 26.8518 17.756 26.7304 17.8833L21.9759 22.1711L20.1149 20.1535L25.2507 14.5857C25.4782 14.339 25.4782 13.9654 25.2507 13.7187C25.1374 13.5958 24.9872 13.5267 24.8288 13.5267C24.6706 13.5267 24.5205 13.5957 24.4073 13.7184C24.4072 13.7185 24.4071 13.7186 24.407 13.7187L19.9937 18.4627C19.9158 18.2968 19.8117 18.1366 19.6683 18.0095C19.1689 17.475 18.4066 17.358 17.771 17.648L17.3923 17.2099L21.3705 12.0675C21.4898 11.9336 21.5277 11.7604 21.5143 11.6077C21.5013 11.4588 21.437 11.3025 21.3152 11.1974C21.0627 10.9367 20.6493 11.0104 20.4672 11.2669L16.1784 16.8038L16.0702 16.8038L16.0702 16.9533C16.0674 16.9577 16.0646 16.9623 16.0619 16.9672C16.042 17.0035 16.0311 17.0447 16.0311 17.089L16.0311 17.1742L16.0311 17.2594L16.0311 17.3446C16.0311 17.3451 16.031 17.3459 16.031 17.347C16.0307 17.3604 16.0292 17.4162 16.0542 17.4706C16.0638 17.4915 16.0768 17.5107 16.0891 17.5264C16.0927 17.5351 16.0968 17.5436 16.1013 17.5518C16.1065 17.5612 16.1121 17.5698 16.1175 17.5773C16.1207 17.5899 16.1255 17.6046 16.1327 17.62C16.1454 17.6477 16.1684 17.6838 16.2088 17.713C16.2173 17.7191 16.226 17.7246 16.235 17.7294L16.9011 18.4515L15.1225 20.3796L11.4411 20.3793ZM16.1772 17.5151L16.1772 17.515L16.3094 17.515C16.2488 17.515 16.2066 17.515 16.1772 17.5151Z" fill="#4D666F" stroke="#4D666F" stroke-width="0.4"/>
<path d="M37.2487 32.3029C37.0513 32.1321 36.8208 32.0015 36.5594 31.9097L36.5576 31.9055L36.4665 31.8791L24.8846 28.5167L24.8847 28.5163L24.8711 28.5133C24.5819 28.4508 24.2238 28.63 24.1611 28.9707C24.133 29.1234 24.1612 29.285 24.229 29.4174C24.2954 29.5468 24.4132 29.6717 24.5828 29.7113L36.1527 33.0702C36.2711 33.113 36.3214 33.1375 36.3585 33.1976L36.3686 33.2141L36.3818 33.2284C36.5861 33.4499 36.586 33.8425 36.3818 34.0636L36.3818 34.0637L32.2199 38.5753L32.3669 38.7109L32.2199 38.5753C31.8014 39.029 31.2124 39.1798 30.6543 39.029L21.7055 36.4334C21.7054 36.4334 21.7052 36.4333 21.705 36.4333C21.3217 36.3198 20.9727 36.0547 20.7637 35.6772L20.7637 35.6772L20.7623 35.6747C20.0034 34.349 18.3515 33.8831 17.0737 34.6216C16.3503 35.0319 15.4093 34.7756 14.9508 34.0129C14.1917 32.6893 12.542 32.224 11.265 32.9607C10.9116 33.1516 10.4942 33.2248 10.0803 33.1123L10.0804 33.1121L10.0701 33.1099C9.78089 33.0473 9.42279 33.2265 9.36011 33.5672L9.55681 33.6034L9.36011 33.5672C9.33202 33.7199 9.36015 33.8816 9.42799 34.0139C9.49464 34.1439 9.6132 34.2693 9.78389 34.3083C10.4623 34.4908 11.1786 34.3975 11.8065 34.0797L11.8066 34.0799L11.815 34.0751C12.5385 33.6643 13.4799 33.9206 13.9386 34.6835C14.698 36.0077 16.3489 36.4729 17.6261 35.7347C18.3499 35.3242 19.2916 35.581 19.7498 36.3447C20.1286 36.9833 20.7174 37.4387 21.3887 37.6659L21.3886 37.6661L21.3971 37.6685L30.3425 40.2631C30.6083 40.358 30.8331 40.358 31.0619 40.358L31.0716 40.358C31.7935 40.358 32.5557 40.0374 33.0665 39.4395L37.2649 34.888C37.9243 34.1731 37.9243 33.0334 37.2649 32.3185L37.2572 32.3103L37.2487 32.3029Z" fill="#4D666F" stroke="#4D666F" stroke-width="0.4"/>
<path d="M18.9251 8.40643L18.9288 8.40293C17.9351 7.33181 17.8616 5.5502 18.8169 4.41479L18.8876 4.29996L18.8947 4.28845L18.9033 4.27801C19.5462 3.49378 20.2708 2.88281 21.0754 2.40298L21.0761 2.4026C22.8322 1.36419 24.7909 0.8 26.792 0.8C33.2769 0.8 38.535 6.52293 38.4953 13.4714C38.4953 13.4717 38.4953 13.4719 38.4953 13.4721L38.2953 13.4709C38.2953 16.2375 37.2352 18.919 35.3508 20.8343C34.7226 21.4726 33.8983 21.8131 33.0737 21.8131C32.2883 21.8131 31.4639 21.5151 30.8357 20.8767L18.9251 8.40643ZM18.9251 8.40643L19.0321 8.50854C19.0418 8.51787 19.0515 8.52713 19.0613 8.53633L19.0766 8.55097C20.1354 9.56108 21.7095 9.56108 22.7683 8.55097L22.7683 8.55098L22.7695 8.54983C24.9343 6.45023 28.1961 6.32683 30.5129 8.22057L30.5132 8.22087C30.6337 8.31886 30.7947 8.36576 30.9495 8.34976C31.1068 8.33351 31.2642 8.25074 31.3591 8.08606C31.4428 7.9607 31.4801 7.80017 31.4668 7.64914C31.4533 7.49619 31.3849 7.33012 31.2304 7.22423C28.442 4.90893 24.564 5.08826 21.9427 7.58024L21.9423 7.58066C21.3522 8.14501 20.4534 8.14505 19.8629 7.58062L19.863 7.58058L19.8596 7.57748C19.1965 6.97212 19.1199 5.86238 19.7187 5.13262L19.7934 5.05155L19.7938 5.05189L19.8026 5.04086C20.2984 4.42086 20.8684 3.92687 21.5126 3.55715L21.5393 3.54186L21.5568 3.52284C21.5587 3.52173 21.562 3.51986 21.5673 3.51702C21.568 3.5166 21.5689 3.51615 21.5697 3.51569C21.5871 3.50632 21.6192 3.48895 21.6533 3.45834C24.2816 1.90084 27.6251 2.23422 29.9486 4.54679L29.9493 4.54749C32.8977 7.45315 33.1285 12.4003 30.4469 15.5983L30.445 15.6005C29.8248 16.3626 29.4954 17.347 29.5365 18.3736C29.5776 19.4 29.9895 20.3431 30.6953 21.0192L18.9251 8.40643ZM28.9587 2.30169C33.7271 3.36464 37.3493 7.97346 37.3493 13.4713L37.3493 13.5162C37.3378 16.0027 36.3774 18.3591 34.6987 20.0551C33.7952 20.9556 32.3895 20.9561 31.4859 20.0957C31.0096 19.6184 30.7215 18.9873 30.7215 18.3235L30.7218 18.3235L30.7212 18.3127C30.6847 17.6387 30.9044 16.9658 31.3412 16.4527L31.3426 16.451C32.8271 14.6675 33.6291 12.3201 33.5086 9.92871C33.3885 7.49878 32.4273 5.27935 30.7796 3.66696C30.2249 3.1178 29.6121 2.6627 28.9587 2.30169Z" fill="#4D666F" stroke="#4D666F" stroke-width="0.4"/>
</svg>
