<svg width="41" height="41" viewBox="0 0 41 41" fill="none" xmlns="http://www.w3.org/2000/svg">
<path d="M25.1055 33.6102C25.3644 31.5992 23.9979 29.719 21.9969 29.3531L21.994 29.3519L21.9696 29.3482C20.7419 29.1645 19.4781 29.5736 18.6084 30.5309C18.3564 30.7707 18.3629 31.1963 18.6658 31.425C18.9087 31.6714 19.3307 31.6563 19.555 31.3511C20.1213 30.7344 20.92 30.4543 21.744 30.5832C23.0584 30.8139 23.973 32.0599 23.7754 33.3955L23.7731 33.4113L23.7733 33.4272C23.7733 33.4321 23.7729 33.4377 23.772 33.4446L22.4424 32.8051C21.9736 32.5796 21.4184 32.7309 21.1196 33.1357L16.4352 30.8824C16.2768 30.8062 16.105 30.7898 15.9466 30.8456C15.7884 30.9014 15.6647 31.0219 15.5884 31.1806C15.5121 31.339 15.4951 31.5109 15.5502 31.6693C15.6053 31.8279 15.7254 31.952 15.884 32.0283L17.7201 32.9115C17.7017 33.7113 17.9372 34.5327 18.3931 35.1881C18.7525 35.7217 19.2332 36.1054 19.8072 36.3815C20.1371 36.5401 20.4454 36.6372 20.8094 36.7118L20.8094 36.7119L20.8159 36.7131C21.8049 36.8818 22.7889 36.638 23.5819 36.0476C24.3694 35.4617 24.9327 34.6106 25.1043 33.6187L25.1044 33.6187L25.1055 33.6102ZM19.3971 34.4651C19.2132 34.1841 19.0836 33.8837 19.002 33.5763L22.4505 35.2352C22.0697 35.4304 21.661 35.5185 21.2328 35.4801L21.2332 35.4792L20.9637 35.44C20.3009 35.3438 19.7625 34.9966 19.3971 34.4651Z" fill="#4D666F" stroke="#4D666F" stroke-width="0.4"/>
<path d="M24.9026 18.6223L24.9025 18.6223L24.9892 18.442C25.1488 18.1102 25.3443 17.7887 25.6069 17.4962L23.7122 12.0509L15.0309 15.1144L14.9644 14.9258L15.0309 15.1144C14.5669 15.2781 14.0545 15.2177 13.624 15.0106C13.1934 14.8035 12.8264 14.4409 12.6647 13.9761L11.2503 9.91152L11.4392 9.84579L11.2503 9.91152C11.1036 9.48981 11.2162 9.02656 11.4851 8.70231L11.492 8.69409L11.4922 8.69428C11.9685 8.17872 12.7279 8.14545 13.2581 8.5707L13.2642 8.57557L13.2641 8.57568L16.7571 11.6079C16.8989 11.7181 16.9614 11.883 16.9701 12.0362C16.979 12.1912 16.9351 12.3561 16.8377 12.4858C16.7278 12.632 16.561 12.6971 16.4055 12.7066C16.2505 12.716 16.0856 12.6724 15.9561 12.5747L15.9451 12.5664L15.9454 12.5661L12.5013 9.57637L13.8934 13.5772L13.8934 13.5773C13.9983 13.879 14.3527 14.0496 14.6543 13.9432L23.931 10.6696C24.2672 10.5509 24.6166 10.719 24.7337 11.0557L24.7337 11.0557L24.7337 11.0557M24.9026 18.6223L24.5449 11.1215L24.7337 11.0557M24.9026 18.6223L23.2896 21.9757C23.2133 22.1341 23.1963 22.306 23.2514 22.4644C23.3066 22.623 23.4266 22.7471 23.5852 22.8234C23.7436 22.8996 23.9155 22.916 24.0738 22.8602C24.232 22.8044 24.3558 22.6839 24.4321 22.5252L26.1318 18.9917C26.2706 18.7032 26.4979 18.4166 26.7533 18.2398L26.7534 18.2401L26.762 18.2334C26.9555 18.0833 27.1216 17.7951 26.9724 17.4887M24.9026 18.6223L26.9724 17.4887M24.7337 11.0557L26.9724 17.4887M24.7337 11.0557L26.9724 17.4887" fill="#4D666F" stroke="#4D666F" stroke-width="0.4"/>
<path d="M35.2619 21.6089L35.2725 21.6056L35.2046 21.4106C35.0429 20.9459 34.6759 20.5833 34.2454 20.3762C33.8148 20.1691 33.3024 20.1086 32.8384 20.2724L32.9049 20.461L32.8384 20.2724L23.5616 23.5459C21.9504 24.1145 21.1026 25.8772 21.6639 27.4911L21.6639 27.4911C21.9434 28.2944 22.5115 28.931 23.2257 29.2746C23.94 29.6182 24.7921 29.6643 25.5939 29.3816L25.594 29.3815C26.3357 29.1198 27.0315 28.5288 27.3771 27.8103L27.4149 27.7317L27.4527 27.6531C27.4725 27.6119 27.4824 27.5639 27.4754 27.5134C27.4719 27.4882 27.4647 27.466 27.4559 27.4469L27.5181 27.3176L27.4127 27.2669C27.4099 27.2592 27.4069 27.2512 27.4039 27.2438C27.3977 27.2287 27.3865 27.2035 27.3666 27.1778C27.3518 27.1585 27.3347 27.1431 27.3185 27.131C27.2873 27.0881 27.2503 27.0588 27.2251 27.0411C27.1844 27.0124 27.1425 26.9923 27.123 26.9829L27.1209 26.9818L27.0426 26.9442L26.9643 26.9065C26.9441 26.8968 26.9221 26.8894 26.8986 26.8853C26.875 26.8811 26.8528 26.8808 26.8328 26.8826C26.8278 26.8831 26.8229 26.8837 26.8182 26.8845L26.7924 26.872L26.714 26.8997L26.5983 26.9405L26.5204 26.968L26.5081 26.9936C26.5037 26.9962 26.4992 26.9989 26.4947 27.0019C26.478 27.013 26.4611 27.0271 26.4455 27.045C26.4299 27.0629 26.4175 27.0822 26.4078 27.1023L26.37 27.1809L26.3322 27.2595C26.1293 27.6813 25.7489 28.0229 25.2754 28.19C24.3365 28.5213 23.2782 28.0123 22.9507 27.0718C22.6233 26.1308 23.1352 25.0665 24.0749 24.7346L33.3517 21.4611C33.6533 21.3547 34.0077 21.5253 34.1125 21.827L34.1125 21.8271C34.2179 22.1298 34.0459 22.4871 33.7439 22.5935L33.7439 22.5935L25.0471 25.6624C24.7115 25.7809 24.5434 26.1304 24.6603 26.4664C24.7775 26.8032 25.1268 26.9712 25.4631 26.8526L34.1598 23.7837L34.1599 23.7838L34.1668 23.7811C34.9821 23.4588 35.4725 22.5204 35.2619 21.6089Z" fill="#4D666F" stroke="#4D666F" stroke-width="0.4"/>
<path d="M30.6677 18.7573L30.6657 18.7499L30.6632 18.7426L27.4303 9.45159C26.8686 7.83728 25.1123 6.99247 23.5002 7.56108L23.5002 7.5611L16.9488 9.87316C16.6132 9.99158 16.4451 10.3411 16.562 10.6772C16.6792 11.014 17.0283 11.1817 17.3646 11.0633L17.3965 11.0521L17.3966 11.052L23.9162 8.7512C24.8551 8.41988 25.9134 8.92891 26.2409 9.86947L29.4737 19.1604C29.5627 19.4162 29.5852 19.6392 29.5724 19.946C29.5267 20.2081 29.6722 20.4817 29.9044 20.5934C29.9057 20.594 29.907 20.5947 29.9084 20.5954C29.9478 20.6144 30.0353 20.6568 30.1508 20.6313C30.4664 20.6332 30.7791 20.3934 30.8063 20.0528C30.8628 19.6046 30.7708 19.1484 30.6677 18.7573Z" fill="#4D666F" stroke="#4D666F" stroke-width="0.4"/>
</svg>
