<svg width="41" height="41" viewBox="0 0 41 41" fill="none" xmlns="http://www.w3.org/2000/svg">
<g clip-path="url(#clip0_265_6348)">
<path d="M34.6879 21.3197L34.6876 21.3204L34.6876 21.3204L34.685 21.3275L34.6849 21.3275C34.5329 21.7023 34.2496 21.9802 33.8733 22.1329L33.7981 21.9475M34.6879 21.3197L28.2089 17.4428C28.0185 17.4224 27.86 17.5501 27.8395 17.7405L27.6407 17.7192L27.6407 17.7192L27.5485 18.5767C27.491 19.1115 27.6766 19.6389 27.9827 20.0188C28.1918 20.2783 28.4642 20.4983 28.8069 20.618L32.7348 22.1476C33.1109 22.2997 33.5033 22.2836 33.8736 22.1328L33.7981 21.9475M34.6879 21.3197C34.9611 20.5567 34.6211 19.6789 33.8332 19.395L30.6235 18.1508L30.7147 17.3024C30.747 17.0021 30.5398 16.745 30.2396 16.7128C29.9393 16.6805 29.6822 16.8877 29.6499 17.1879C29.6499 17.1879 29.6499 17.1879 29.6499 17.1879L29.5168 18.4268C29.4927 18.6508 29.6148 18.8885 29.8346 18.9892L29.8345 18.9895L29.8464 18.9941L33.4325 20.367C33.6535 20.4576 33.7548 20.6935 33.6691 20.9105C33.6216 21.0124 33.5402 21.107 33.4334 21.1629L33.526 21.3401L33.4334 21.1629C33.335 21.2143 33.2377 21.2158 33.1423 21.1622L33.13 21.1554L33.1169 21.1502L29.187 19.6199C28.8027 19.4569 28.5723 19.073 28.6133 18.6912C28.6133 18.6912 28.6133 18.6912 28.6133 18.6912L28.7055 17.8336C28.7378 17.5333 28.5306 17.2762 28.2303 17.244L34.6879 21.3197ZM33.7981 21.9475C34.1258 21.8146 34.3685 21.5756 34.4996 21.2523L27.7474 18.5981C27.6961 19.0747 27.862 19.5503 28.1384 19.8933C28.3297 20.1307 28.5739 20.3256 28.876 20.4304L32.8086 21.9617C33.1319 22.0928 33.4706 22.081 33.7981 21.9475Z" fill="#4D666F" stroke="#4D666F" stroke-width="0.4"/>
<path d="M16.091 23.6882L16.091 23.6882L16.0922 23.6849C16.2035 23.3821 16.0294 23.1102 15.8102 22.9871L15.7963 22.9793L15.7813 22.9738C15.4785 22.8625 15.2066 23.0366 15.0835 23.2558L15.0765 23.2682L15.0714 23.2814L13.8401 26.4576L13.3597 23.3151L13.3601 23.3151L13.3575 23.3029C13.3402 23.2233 13.3578 23.1158 13.4264 22.9881C13.5206 22.8791 13.6007 22.8317 13.6798 22.829L13.692 22.8286L13.704 22.8267L20.3478 21.7815L20.3478 21.7818L20.3592 21.7793C20.5567 21.7364 20.7929 21.5777 20.7909 21.2847L21.4554 15.1025C21.5093 14.6015 21.8567 14.1374 22.3239 13.9819C22.6157 13.8908 22.751 13.5636 22.6695 13.298C22.5795 13.0046 22.2512 12.8682 21.9849 12.9499L21.9848 12.9496L21.9737 12.9537C21.0948 13.2811 20.5138 14.085 20.3915 14.9823L20.3914 14.9822L20.3907 14.9887L19.7873 20.8186L13.568 21.7962C12.744 21.9052 12.1888 22.708 12.3247 23.5014L12.8339 26.8321L12.8335 26.8322L12.8361 26.8444C12.8741 27.0193 12.9452 27.1755 13.0518 27.3078C13.0536 27.3099 13.0554 27.3121 13.0572 27.3145C13.0958 27.3625 13.16 27.4425 13.2642 27.4945C13.482 27.6308 13.7299 27.6821 13.9714 27.6811L13.987 27.6811L14.0024 27.6786C14.342 27.6239 14.6645 27.364 14.7901 27.0438L14.7904 27.043L16.091 23.6882Z" fill="#4D666F" stroke="#4D666F" stroke-width="0.4"/>
<path d="M25.6017 17.1143L25.6017 17.1143L25.9372 13.9891L27.8944 14.7356L27.8944 14.7356L27.8967 14.7365C28.1995 14.8478 28.4714 14.6736 28.5945 14.4545L28.6023 14.4405L28.6078 14.4255C28.7191 14.1228 28.545 13.8508 28.3258 13.7277L28.3133 13.7207L28.3 13.7156L25.7082 12.7139L25.7083 12.7135L25.6959 12.7096C25.5722 12.6708 25.3843 12.6288 25.2194 12.7617C25.1094 12.8503 25.0159 12.9852 24.9987 13.1453L24.589 16.9576C24.5799 17.0417 24.5213 17.1546 24.4256 17.2317C24.3299 17.3088 24.2072 17.3421 24.123 17.3331L24.123 17.3331C23.8991 17.309 23.7235 17.091 23.7477 16.8674L23.7477 16.8673L24.224 12.4358C24.2348 12.3356 24.2429 12.2868 24.2719 12.2415L24.2822 12.2255L24.2893 12.2078C24.4805 11.7293 24.9739 11.5118 25.4456 11.7002L25.4456 11.7002L25.448 11.7012L29.1038 13.106C29.1039 13.1061 29.1041 13.1061 29.1043 13.1062C29.5445 13.2788 29.8835 13.6944 29.9795 14.1965C30.0454 14.5619 29.9628 14.9281 29.7456 15.2152L29.7456 15.2152C29.5167 15.5179 29.2007 15.7258 28.8617 15.7487L28.8532 15.7493L28.8448 15.7506L26.4446 16.1188C26.1235 16.1643 25.9515 16.4606 25.9912 16.7473L25.9912 16.7474C26.0359 17.0695 26.3327 17.2421 26.6199 17.2024L26.6199 17.2024L26.6228 17.202L29.0229 16.8337C29.6686 16.7437 30.229 16.3815 30.6448 15.861C31.0745 15.3229 31.1985 14.6487 31.0817 14.0331C30.9396 13.1552 30.361 12.4379 29.5329 12.1136L29.5329 12.1136L29.5317 12.1131L25.8762 10.7083C24.8821 10.3099 23.717 10.8109 23.3243 11.8211C23.1932 11.9825 23.156 12.1448 23.1269 12.2723C23.1218 12.2945 23.1169 12.3157 23.1119 12.3356L23.0891 12.4254L23.0988 12.439L22.6306 16.795C22.5888 17.1836 22.713 17.5847 22.9576 17.8883C23.2023 18.1918 23.5678 18.3984 23.9564 18.4402L23.9778 18.2413L23.9565 18.4402C24.3451 18.482 24.7462 18.3577 25.0497 18.1131C25.3533 17.8685 25.5599 17.5029 25.6017 17.1143Z" fill="#4D666F" stroke="#4D666F" stroke-width="0.4"/>
<path d="M36.422 14.1036L36.4223 14.2436C36.4231 14.7549 36.2214 15.1999 35.8614 15.5355C35.4946 15.8775 35.0135 16.0774 34.5493 16.0584L34.5373 16.0579L34.5253 16.0589C34.2597 16.08 34.0242 16.2758 33.995 16.5553L33.993 16.5736L33.9945 16.592C34.0157 16.8575 34.2115 17.0931 34.491 17.1223L34.499 17.1232L34.5071 17.1233C35.3008 17.1416 36.043 16.8392 36.5956 16.2884C36.9709 15.9437 37.2149 15.5219 37.3642 15.0416C37.4502 14.7646 37.4906 14.5117 37.507 14.2191L37.5071 14.2191L37.5073 14.2125C37.5256 13.4175 37.2221 12.6742 36.6697 12.1213C36.2875 11.7348 35.8107 11.4667 35.2878 11.3305L35.686 10.0489C35.7297 9.90847 35.723 9.76174 35.656 9.63421C35.589 9.50665 35.4718 9.41795 35.3312 9.37427C35.1908 9.33064 35.0441 9.33726 34.9165 9.40429C34.789 9.47133 34.7003 9.58846 34.6566 9.72906L34.1825 11.2548C33.565 11.3389 32.9616 11.6179 32.5084 12.0463L32.5084 12.0462L32.5045 12.0502C31.9564 12.5977 31.6141 13.3274 31.5958 14.1231L31.5958 14.1231L31.5958 14.1271C31.5931 15.1114 32.0587 16.0556 32.9091 16.6254C33.0693 16.7385 33.2504 16.7197 33.3908 16.6782C33.5897 16.6195 33.6911 16.4681 33.7349 16.327L34.3593 14.3175L34.8155 14.4592L35.0065 14.5186L35.0658 14.3276L35.596 12.6212C35.6975 12.6893 35.7856 12.7691 35.8673 12.87L35.8672 12.8701L35.8737 12.8774C36.2082 13.2512 36.4023 13.6822 36.422 14.1036ZM33.8128 12.5601L32.9881 15.2145C32.8235 14.9655 32.7304 14.6718 32.7164 14.3688L32.7161 14.2093C32.7152 13.6988 32.9164 13.2543 33.2754 12.9189C33.4412 12.771 33.6225 12.6521 33.8128 12.5601Z" fill="#4D666F" stroke="#4D666F" stroke-width="0.4"/>
<path d="M19.8222 17.7606L19.823 17.757L19.8181 17.7213C19.7733 17.3993 19.4766 17.2266 19.1894 17.2664L19.1894 17.2663L19.186 17.2669L15.1659 17.895L15.165 17.8952C14.6984 17.9701 14.1915 17.7686 13.8951 17.4008L13.8951 17.4008L11.2155 14.0761C11.2155 14.0761 11.2155 14.0761 11.2154 14.0761C11.1232 13.9616 10.9977 13.8854 10.8544 13.8699C10.7112 13.8545 10.5722 13.9023 10.4576 13.9947C10.3431 14.087 10.2668 14.2125 10.2514 14.3557C10.2359 14.499 10.2837 14.6379 10.3761 14.7526L13.0342 18.0509C13.59 18.7405 14.4712 19.0703 15.3216 18.9522L15.3216 18.9522L15.325 18.9517L19.3317 18.3256C19.4931 18.3203 19.6296 18.2482 19.7182 18.131C19.7989 18.0243 19.8318 17.8915 19.8222 17.7606Z" fill="#4D666F" stroke="#4D666F" stroke-width="0.4"/>
<path d="M20.9267 23.0926L20.9267 23.0926C21.5413 23.0123 22.0153 22.5193 22.0825 21.894L22.4052 18.8918C22.4052 18.8918 22.4052 18.8918 22.4052 18.8918C22.4374 18.5915 22.6945 18.3844 22.9948 18.4166L20.9267 23.0926ZM20.9267 23.0926L20.9217 23.0933L16.6334 23.7648C16.3125 23.8104 16.1406 24.1066 16.1802 24.3932L16.1813 24.401L16.183 24.4086C16.1942 24.4598 16.2095 24.5046 16.2343 24.5486C16.2553 24.5858 16.2806 24.6172 16.2992 24.6402C16.3004 24.6416 16.3015 24.6431 16.3027 24.6444C16.36 24.7156 16.4403 24.7688 16.5208 24.8027C16.6022 24.8369 16.7001 24.8583 16.7999 24.8492L16.8 24.8496L16.8126 24.8476L21.1025 24.176C21.1025 24.176 21.1025 24.176 21.1025 24.176C22.1942 24.0053 23.0523 23.1275 23.1478 22.006M20.9267 23.0926L23.1478 22.006M23.1478 22.006L23.47 19.0063C23.47 19.0063 23.47 19.0063 23.47 19.0063C23.5022 18.706 23.2951 18.4489 22.9948 18.4166L23.1478 22.006Z" fill="#4D666F" stroke="#4D666F" stroke-width="0.4"/>
<path d="M10.8313 12.5118L10.8313 12.5118L10.8277 12.5124L7.47528 13.0385L9.92463 11.0646C10.1025 10.9212 10.3577 10.9488 10.501 11.1265L14.7114 16.3511C14.8451 16.5169 15.0317 16.5721 15.2087 16.5559L15.2088 16.5563L15.221 16.5544L19.6313 15.8719C19.9523 15.8264 20.1243 15.5302 20.0846 15.2435L20.0846 15.2434C20.0398 14.9213 19.7431 14.7487 19.4559 14.7884L19.4559 14.7884L19.4526 14.7889L15.3508 15.4266L11.34 10.4505C11.34 10.4505 11.34 10.4505 11.34 10.4505C10.824 9.81025 9.8881 9.70968 9.24791 10.2256L6.63557 12.3309C6.20648 12.6767 6.13663 13.3268 6.48241 13.7558C6.71959 14.0501 7.09352 14.181 7.43259 14.1269C7.4327 14.1269 7.43281 14.1269 7.43292 14.1269L10.9856 13.5693C11.2995 13.5243 11.4706 13.2398 11.4619 12.9875L11.4565 12.8326L11.4205 12.8246C11.321 12.5952 11.0728 12.4784 10.8313 12.5118Z" fill="#4D666F" stroke="#4D666F" stroke-width="0.4"/>
<mask id="path-8-outside-1_265_6348" maskUnits="userSpaceOnUse" x="2.15454" y="17.9351" width="11" height="3" fill="black">
<rect fill="white" x="2.15454" y="17.9351" width="11" height="3"/>
<path fill-rule="evenodd" clip-rule="evenodd" d="M7.84417 20.2687C8.19318 20.2034 8.51449 20.0347 8.77014 19.8003C9.24071 19.3573 10.0161 19.3573 10.5143 19.8003C10.9058 20.1605 11.4302 20.3169 11.9372 20.2695V19.736C11.5746 19.7778 11.1914 19.67 10.9019 19.4126C10.2098 18.7759 9.10259 18.7759 8.41051 19.4126C8.18244 19.6152 7.90808 19.725 7.60871 19.7423C7.32124 19.7246 7.03619 19.6147 6.80885 19.4126C6.11677 18.7759 5.00957 18.7759 4.31749 19.4126C4.06819 19.634 3.76358 19.7447 3.43144 19.7447C3.26518 19.7447 3.15454 19.8556 3.15454 20.0216C3.15454 20.1879 3.26537 20.2985 3.43144 20.2985C3.90201 20.2985 4.34498 20.1048 4.67712 19.8003C5.14769 19.3573 5.92305 19.3573 6.42125 19.8003C6.68862 20.0463 7.01795 20.1972 7.36136 20.2531C7.40559 20.2824 7.46099 20.2985 7.52446 20.2985C7.62979 20.2985 7.73374 20.2888 7.83537 20.2703C7.8383 20.2701 7.84124 20.2698 7.84417 20.2695V20.2687Z"/>
</mask>
<path fill-rule="evenodd" clip-rule="evenodd" d="M7.84417 20.2687C8.19318 20.2034 8.51449 20.0347 8.77014 19.8003C9.24071 19.3573 10.0161 19.3573 10.5143 19.8003C10.9058 20.1605 11.4302 20.3169 11.9372 20.2695V19.736C11.5746 19.7778 11.1914 19.67 10.9019 19.4126C10.2098 18.7759 9.10259 18.7759 8.41051 19.4126C8.18244 19.6152 7.90808 19.725 7.60871 19.7423C7.32124 19.7246 7.03619 19.6147 6.80885 19.4126C6.11677 18.7759 5.00957 18.7759 4.31749 19.4126C4.06819 19.634 3.76358 19.7447 3.43144 19.7447C3.26518 19.7447 3.15454 19.8556 3.15454 20.0216C3.15454 20.1879 3.26537 20.2985 3.43144 20.2985C3.90201 20.2985 4.34498 20.1048 4.67712 19.8003C5.14769 19.3573 5.92305 19.3573 6.42125 19.8003C6.68862 20.0463 7.01795 20.1972 7.36136 20.2531C7.40559 20.2824 7.46099 20.2985 7.52446 20.2985C7.62979 20.2985 7.73374 20.2888 7.83537 20.2703C7.8383 20.2701 7.84124 20.2698 7.84417 20.2695V20.2687Z" fill="#4D666F"/>
<path d="M7.84417 20.2687L7.77062 19.8755L7.44417 19.9366V20.2687H7.84417ZM8.77014 19.8003L9.04048 20.0952L9.04432 20.0916L8.77014 19.8003ZM10.5143 19.8003L10.7851 19.5059L10.7801 19.5014L10.5143 19.8003ZM11.9372 20.2695L11.9744 20.6678L12.3372 20.6339V20.2695H11.9372ZM11.9372 19.736H12.3372V19.2872L11.8913 19.3387L11.9372 19.736ZM10.9019 19.4126L10.631 19.707L10.6361 19.7115L10.9019 19.4126ZM8.41051 19.4126L8.67622 19.7116L8.68132 19.7069L8.41051 19.4126ZM7.60871 19.7423L7.58418 20.1415L7.60794 20.143L7.6317 20.1416L7.60871 19.7423ZM6.80885 19.4126L6.538 19.707L6.54306 19.7115L6.80885 19.4126ZM4.31749 19.4126L4.5832 19.7116L4.5883 19.7069L4.31749 19.4126ZM4.67712 19.8003L4.94747 20.0952L4.9513 20.0916L4.67712 19.8003ZM6.42125 19.8003L6.6921 19.5059L6.68704 19.5014L6.42125 19.8003ZM7.36136 20.2531L7.582 19.9195L7.51039 19.8721L7.42564 19.8583L7.36136 20.2531ZM7.83537 20.2703L7.8 19.8719L7.7818 19.8735L7.76381 19.8768L7.83537 20.2703ZM7.84417 20.2695L7.88138 20.6678L8.24417 20.6339V20.2695H7.84417ZM7.91772 20.6619C8.34494 20.582 8.73335 20.3767 9.04046 20.0951L8.49982 19.5055C8.29563 19.6927 8.04142 19.8249 7.77062 19.8755L7.91772 20.6619ZM9.04432 20.0916C9.35662 19.7976 9.89736 19.787 10.2485 20.0992L10.7801 19.5014C10.1348 18.9276 9.1248 18.9171 8.49596 19.5091L9.04432 20.0916ZM10.2435 20.0947C10.7244 20.5372 11.3632 20.7249 11.9744 20.6678L11.9 19.8713C11.4973 19.9089 11.0872 19.7839 10.7851 19.5059L10.2435 20.0947ZM12.3372 20.2695V19.736H11.5372V20.2695H12.3372ZM11.8913 19.3387C11.6356 19.3682 11.3674 19.2913 11.1677 19.1136L10.6361 19.7115C11.0154 20.0488 11.5137 20.1875 11.983 20.1334L11.8913 19.3387ZM11.1727 19.1182C10.3275 18.3407 8.98486 18.3407 8.1397 19.1182L8.68132 19.7069C9.22032 19.2111 10.0921 19.2111 10.6311 19.7069L11.1727 19.1182ZM8.14483 19.1135C7.98584 19.2548 7.7976 19.3307 7.58571 19.3429L7.6317 20.1416C8.01857 20.1193 8.37905 19.9756 8.67618 19.7116L8.14483 19.1135ZM7.63323 19.343C7.42996 19.3305 7.23127 19.2529 7.07464 19.1136L6.54306 19.7115C6.84111 19.9765 7.21252 20.1187 7.58418 20.1415L7.63323 19.343ZM7.07967 19.1182C6.2345 18.3407 4.89184 18.3407 4.04668 19.1182L4.5883 19.7069C5.1273 19.2111 5.99904 19.2111 6.53804 19.7069L7.07967 19.1182ZM4.05182 19.1135C3.87878 19.2673 3.6698 19.3447 3.43144 19.3447V20.1447C3.85736 20.1447 4.2576 20.0008 4.58316 19.7116L4.05182 19.1135ZM3.43144 19.3447C3.25733 19.3447 3.08122 19.4045 2.94768 19.5382C2.81418 19.6718 2.75454 19.8478 2.75454 20.0216H3.55454C3.55454 20.0294 3.55022 20.0669 3.51361 20.1036C3.47695 20.1403 3.43929 20.1447 3.43144 20.1447V19.3447ZM2.75454 20.0216C2.75454 20.1957 2.8143 20.3718 2.94794 20.5053C3.08155 20.6389 3.2576 20.6985 3.43144 20.6985V19.8985C3.43921 19.8985 3.47681 19.9029 3.51349 19.9395C3.55019 19.9762 3.55454 20.0139 3.55454 20.0216H2.75454ZM3.43144 20.6985C4.01208 20.6985 4.54923 20.4602 4.94744 20.0951L4.4068 19.5055C4.14073 19.7494 3.79193 19.8985 3.43144 19.8985V20.6985ZM4.9513 20.0916C5.2636 19.7976 5.80435 19.787 6.15546 20.0992L6.68704 19.5014C6.04176 18.9276 5.03178 18.9171 4.40295 19.5091L4.9513 20.0916ZM6.15044 20.0947C6.47884 20.3968 6.88129 20.5802 7.29707 20.6479L7.42564 19.8583C7.15461 19.8142 6.89841 19.6957 6.69206 19.5059L6.15044 20.0947ZM7.14071 20.5868C7.25827 20.6645 7.39254 20.6985 7.52446 20.6985V19.8985C7.52943 19.8985 7.5529 19.9002 7.582 19.9195L7.14071 20.5868ZM7.52446 20.6985C7.6544 20.6985 7.7823 20.6866 7.90694 20.6639L7.76381 19.8768C7.68518 19.8911 7.60518 19.8985 7.52446 19.8985V20.6985ZM7.87074 20.6688C7.87428 20.6685 7.87783 20.6681 7.88138 20.6678L7.80696 19.8713C7.80464 19.8715 7.80233 19.8717 7.8 19.8719L7.87074 20.6688ZM8.24417 20.2695V20.2687H7.44417V20.2695H8.24417Z" fill="#4D666F" mask="url(#path-8-outside-1_265_6348)"/>
<mask id="path-10-outside-2_265_6348" maskUnits="userSpaceOnUse" x="16" y="5.42773" width="19" height="3" fill="black">
<rect fill="white" x="16" y="5.42773" width="19" height="3"/>
<path fill-rule="evenodd" clip-rule="evenodd" d="M21.6896 7.7614C22.0386 7.69611 22.36 7.52737 22.6156 7.29298C23.0862 6.85 23.8615 6.85 24.3597 7.29298C24.7091 7.61436 25.1642 7.77351 25.6183 7.77044C25.6526 7.78398 25.6915 7.79121 25.7339 7.79121C26.2045 7.79121 26.6475 7.59751 26.9796 7.29298C27.4502 6.85 28.2255 6.85 28.7237 7.29298C28.9911 7.53894 29.3204 7.68988 29.6639 7.7458C29.7081 7.77505 29.7635 7.79121 29.8269 7.79121C29.9323 7.79121 30.0362 7.7815 30.1379 7.76302C30.1408 7.76276 30.1437 7.7625 30.1467 7.76222V7.7614C30.4957 7.69611 30.817 7.52737 31.0726 7.29298C31.5432 6.85 32.3186 6.85 32.8168 7.29298C33.2083 7.65318 33.7327 7.80959 34.2397 7.76222V7.2287C33.8771 7.27052 33.4939 7.1627 33.2044 6.90523C32.5123 6.26857 31.4051 6.26857 30.713 6.90523C30.4849 7.10786 30.2106 7.21769 29.9112 7.23493C29.6237 7.21727 29.3387 7.10737 29.1113 6.90523C28.4193 6.26857 27.3121 6.26857 26.62 6.90523C26.3829 7.11585 26.0958 7.22621 25.7826 7.23654V7.2287C25.4201 7.27052 25.0369 7.1627 24.7473 6.90523C24.0552 6.26857 22.948 6.26857 22.256 6.90523C22.0279 7.10786 21.7535 7.21769 21.4542 7.23493C21.1667 7.21727 20.8817 7.10737 20.6543 6.90523C19.9622 6.26857 18.855 6.26857 18.1629 6.90523C17.9136 7.12673 17.609 7.23734 17.2769 7.23734C17.1106 7.23734 17 7.34824 17 7.51431C17 7.68057 17.1108 7.79121 17.2769 7.79121C17.7475 7.79121 18.1904 7.59751 18.5226 7.29298C18.9931 6.85 19.7685 6.85 20.2667 7.29298C20.5341 7.53894 20.8634 7.68988 21.2068 7.7458C21.251 7.77505 21.3064 7.79121 21.3699 7.79121C21.4752 7.79121 21.5792 7.7815 21.6808 7.76302L21.6896 7.76222V7.7614Z"/>
</mask>
<path fill-rule="evenodd" clip-rule="evenodd" d="M21.6896 7.7614C22.0386 7.69611 22.36 7.52737 22.6156 7.29298C23.0862 6.85 23.8615 6.85 24.3597 7.29298C24.7091 7.61436 25.1642 7.77351 25.6183 7.77044C25.6526 7.78398 25.6915 7.79121 25.7339 7.79121C26.2045 7.79121 26.6475 7.59751 26.9796 7.29298C27.4502 6.85 28.2255 6.85 28.7237 7.29298C28.9911 7.53894 29.3204 7.68988 29.6639 7.7458C29.7081 7.77505 29.7635 7.79121 29.8269 7.79121C29.9323 7.79121 30.0362 7.7815 30.1379 7.76302C30.1408 7.76276 30.1437 7.7625 30.1467 7.76222V7.7614C30.4957 7.69611 30.817 7.52737 31.0726 7.29298C31.5432 6.85 32.3186 6.85 32.8168 7.29298C33.2083 7.65318 33.7327 7.80959 34.2397 7.76222V7.2287C33.8771 7.27052 33.4939 7.1627 33.2044 6.90523C32.5123 6.26857 31.4051 6.26857 30.713 6.90523C30.4849 7.10786 30.2106 7.21769 29.9112 7.23493C29.6237 7.21727 29.3387 7.10737 29.1113 6.90523C28.4193 6.26857 27.3121 6.26857 26.62 6.90523C26.3829 7.11585 26.0958 7.22621 25.7826 7.23654V7.2287C25.4201 7.27052 25.0369 7.1627 24.7473 6.90523C24.0552 6.26857 22.948 6.26857 22.256 6.90523C22.0279 7.10786 21.7535 7.21769 21.4542 7.23493C21.1667 7.21727 20.8817 7.10737 20.6543 6.90523C19.9622 6.26857 18.855 6.26857 18.1629 6.90523C17.9136 7.12673 17.609 7.23734 17.2769 7.23734C17.1106 7.23734 17 7.34824 17 7.51431C17 7.68057 17.1108 7.79121 17.2769 7.79121C17.7475 7.79121 18.1904 7.59751 18.5226 7.29298C18.9931 6.85 19.7685 6.85 20.2667 7.29298C20.5341 7.53894 20.8634 7.68988 21.2068 7.7458C21.251 7.77505 21.3064 7.79121 21.3699 7.79121C21.4752 7.79121 21.5792 7.7815 21.6808 7.76302L21.6896 7.76222V7.7614Z" fill="#4D666F"/>
<path d="M22.6156 7.29298L22.8859 7.58784L22.8898 7.58423L22.6156 7.29298ZM21.6896 7.7614L21.6161 7.36822L21.2896 7.42929V7.7614H21.6896ZM24.3597 7.29298L24.6306 6.99856L24.6255 6.99406L24.3597 7.29298ZM25.6183 7.77044L25.7652 7.39838L25.6931 7.36992L25.6156 7.37045L25.6183 7.77044ZM26.9796 7.29298L27.25 7.58784L27.2538 7.58423L26.9796 7.29298ZM28.7237 7.29298L28.9946 6.99856L28.9895 6.99406L28.7237 7.29298ZM29.6639 7.7458L29.8845 7.41216L29.8129 7.3648L29.7281 7.351L29.6639 7.7458ZM30.1379 7.76302L30.1025 7.36459L30.0843 7.36621L30.0663 7.36948L30.1379 7.76302ZM30.1467 7.76222L30.1839 8.16049L30.5467 8.12659V7.76222H30.1467ZM30.1467 7.7614L30.0731 7.36822L29.7467 7.42929V7.7614H30.1467ZM31.0726 7.29298L31.343 7.58784L31.3468 7.58423L31.0726 7.29298ZM32.8168 7.29298L33.0876 6.99856L33.0826 6.99406L32.8168 7.29298ZM34.2397 7.76222L34.2769 8.16049L34.6397 8.12659V7.76222H34.2397ZM34.2397 7.2287H34.6397V6.77991L34.1938 6.83134L34.2397 7.2287ZM33.2044 6.90523L32.9335 7.19966L32.9386 7.20416L33.2044 6.90523ZM30.713 6.90523L30.9787 7.20431L30.9838 7.19962L30.713 6.90523ZM29.9112 7.23493L29.8867 7.63418L29.9104 7.63564L29.9342 7.63427L29.9112 7.23493ZM29.1113 6.90523L28.8405 7.19966L28.8456 7.20416L29.1113 6.90523ZM26.62 6.90523L26.8857 7.20431L26.8908 7.19962L26.62 6.90523ZM25.7826 7.23654H25.3826V7.64995L25.7958 7.63632L25.7826 7.23654ZM25.7826 7.2287H26.1826V6.77991L25.7368 6.83134L25.7826 7.2287ZM24.7473 6.90523L24.4765 7.19966L24.4815 7.20416L24.7473 6.90523ZM22.256 6.90523L22.5217 7.20431L22.5268 7.19962L22.256 6.90523ZM21.4542 7.23493L21.4296 7.63418L21.4534 7.63564L21.4772 7.63427L21.4542 7.23493ZM20.6543 6.90523L20.3835 7.19966L20.3885 7.20416L20.6543 6.90523ZM18.1629 6.90523L18.4287 7.20431L18.4338 7.19962L18.1629 6.90523ZM18.5226 7.29298L18.7929 7.58784L18.7968 7.58423L18.5226 7.29298ZM20.2667 7.29298L20.5376 6.99856L20.5325 6.99406L20.2667 7.29298ZM21.2068 7.7458L21.4275 7.41216L21.3558 7.3648L21.2711 7.351L21.2068 7.7458ZM21.6808 7.76302L21.6445 7.36467L21.6268 7.36629L21.6093 7.36948L21.6808 7.76302ZM21.6896 7.76222L21.7259 8.16057L22.0896 8.12744V7.76222H21.6896ZM22.3453 6.99815C22.1411 7.18536 21.8869 7.31756 21.6161 7.36822L21.7632 8.15458C22.1904 8.07466 22.5788 7.86939 22.8859 7.58781L22.3453 6.99815ZM24.6255 6.99406C23.9802 6.4203 22.9703 6.40977 22.3414 7.00173L22.8898 7.58423C23.2021 7.29024 23.7428 7.27971 24.0939 7.5919L24.6255 6.99406ZM25.6156 7.37045C25.2553 7.37289 24.9001 7.24654 24.6305 6.9986L24.0889 7.58736C24.5181 7.98218 25.0731 8.17414 25.621 8.17043L25.6156 7.37045ZM25.7339 7.39121C25.737 7.39121 25.7485 7.39178 25.7652 7.39838L25.4715 8.1425C25.5568 8.17618 25.646 8.19121 25.7339 8.19121V7.39121ZM26.7093 6.99815C26.4432 7.2421 26.0944 7.39121 25.7339 7.39121V8.19121C26.3146 8.19121 26.8517 7.95292 27.2499 7.58781L26.7093 6.99815ZM28.9895 6.99406C28.3442 6.4203 27.3343 6.40977 26.7054 7.00173L27.2538 7.58423C27.5661 7.29024 28.1068 7.27971 28.458 7.5919L28.9895 6.99406ZM29.7281 7.351C29.4571 7.30687 29.2009 7.18842 28.9946 6.9986L28.4529 7.58736C28.7813 7.88947 29.1838 8.0729 29.5996 8.1406L29.7281 7.351ZM29.4432 8.07944C29.5608 8.15719 29.695 8.19121 29.8269 8.19121V7.39121C29.8319 7.39121 29.8554 7.39291 29.8845 7.41216L29.4432 8.07944ZM29.8269 8.19121C29.9569 8.19121 30.0848 8.17923 30.2094 8.15657L30.0663 7.36948C29.9877 7.38377 29.9077 7.39121 29.8269 7.39121V8.19121ZM30.1094 7.36396C30.1071 7.36417 30.1048 7.36438 30.1025 7.36459L30.1732 8.16146C30.1768 8.16114 30.1803 8.16082 30.1839 8.16049L30.1094 7.36396ZM29.7467 7.7614V7.76222H30.5467V7.7614H29.7467ZM30.2202 8.15458C30.6474 8.07466 31.0358 7.86939 31.343 7.58781L30.8023 6.99815C30.5981 7.18536 30.3439 7.31756 30.0731 7.36822L30.2202 8.15458ZM31.3468 7.58423C31.6591 7.29024 32.1999 7.27971 32.551 7.5919L33.0826 6.99406C32.4373 6.4203 31.4273 6.40977 30.7985 7.00173L31.3468 7.58423ZM32.5459 7.58736C33.0269 8.02983 33.6657 8.2176 34.2769 8.16049L34.2025 7.36396C33.7998 7.40159 33.3897 7.27653 33.0876 6.9986L32.5459 7.58736ZM34.6397 7.76222V7.2287H33.8397V7.76222H34.6397ZM34.1938 6.83134C33.9381 6.86084 33.6699 6.78394 33.4702 6.60631L32.9386 7.20416C33.3179 7.54146 33.8162 7.68021 34.2855 7.62607L34.1938 6.83134ZM33.4752 6.61085C32.63 5.83336 31.2873 5.83336 30.4422 6.61085L30.9838 7.19962C31.5228 6.70377 32.3945 6.70377 32.9335 7.19962L33.4752 6.61085ZM30.4473 6.60621C30.2883 6.74747 30.1001 6.82339 29.8882 6.83559L29.9342 7.63427C30.3211 7.61199 30.6815 7.46825 30.9787 7.20426L30.4473 6.60621ZM28.8456 7.20416C29.1436 7.46917 29.515 7.61135 29.8867 7.63418L29.9357 6.83568C29.7325 6.8232 29.5338 6.74558 29.3771 6.60631L28.8456 7.20416ZM26.8908 7.19962C27.4298 6.70377 28.3015 6.70377 28.8405 7.19962L29.3822 6.61085C28.537 5.83336 27.1943 5.83336 26.3492 6.61085L26.8908 7.19962ZM25.7958 7.63632C26.1993 7.62302 26.5765 7.47893 26.8857 7.20426L26.3543 6.60621C26.1893 6.75277 25.9924 6.8294 25.7695 6.83676L25.7958 7.63632ZM25.3826 7.2287V7.23654H26.1826V7.2287H25.3826ZM24.4815 7.20416C24.8609 7.54146 25.3591 7.68021 25.8285 7.62607L25.7368 6.83134C25.4811 6.86084 25.2129 6.78394 25.0131 6.60631L24.4815 7.20416ZM22.5268 7.19962C23.0658 6.70377 23.9375 6.70377 24.4765 7.19962L25.0181 6.61085C24.173 5.83336 22.8303 5.83336 21.9852 6.61085L22.5268 7.19962ZM21.4772 7.63427C21.864 7.61199 22.2245 7.46825 22.5216 7.20426L21.9903 6.60621C21.8313 6.74747 21.6431 6.82339 21.4312 6.83559L21.4772 7.63427ZM20.3885 7.20416C20.6866 7.46917 21.058 7.61135 21.4296 7.63418L21.4787 6.83568C21.2754 6.8232 21.0767 6.74558 20.9201 6.60631L20.3885 7.20416ZM18.4338 7.19962C18.9728 6.70377 19.8445 6.70377 20.3835 7.19962L20.9251 6.61085C20.08 5.83336 18.7373 5.83336 17.8921 6.61085L18.4338 7.19962ZM17.2769 7.63734C17.7028 7.63734 18.1031 7.49351 18.4286 7.20426L17.8973 6.60621C17.7242 6.75994 17.5153 6.83734 17.2769 6.83734V7.63734ZM17.4 7.51431C17.4 7.52207 17.3957 7.55962 17.3591 7.59627C17.3224 7.63296 17.2848 7.63734 17.2769 7.63734V6.83734C17.1028 6.83734 16.9267 6.89717 16.7931 7.03083C16.6596 7.16444 16.6 7.34048 16.6 7.51431H17.4ZM17.2769 7.39121C17.2847 7.39121 17.3223 7.39554 17.3589 7.4322C17.3957 7.46888 17.4 7.50653 17.4 7.51431H16.6C16.6 7.68835 16.6598 7.86445 16.7934 7.99802C16.927 8.13156 17.1031 8.19121 17.2769 8.19121V7.39121ZM18.2523 6.99815C17.9862 7.2421 17.6374 7.39121 17.2769 7.39121V8.19121C17.8575 8.19121 18.3947 7.95292 18.7929 7.58781L18.2523 6.99815ZM20.5325 6.99406C19.8872 6.4203 18.8772 6.40977 18.2484 7.00173L18.7968 7.58423C19.1091 7.29024 19.6498 7.27971 20.0009 7.5919L20.5325 6.99406ZM21.2711 7.351C21.0001 7.30687 20.7439 7.18842 20.5375 6.9986L19.9959 7.58736C20.3243 7.88946 20.7267 8.0729 21.1425 8.1406L21.2711 7.351ZM21.3699 7.39121C21.3749 7.39121 21.3984 7.39291 21.4275 7.41216L20.9862 8.07944C21.1037 8.15719 21.238 8.19121 21.3699 8.19121V7.39121ZM21.6093 7.36948C21.5306 7.38377 21.4506 7.39121 21.3699 7.39121V8.19121C21.4999 8.19121 21.6278 8.17923 21.7524 8.15657L21.6093 7.36948ZM21.6533 7.36387L21.6445 7.36467L21.7171 8.16137L21.7259 8.16057L21.6533 7.36387ZM21.2896 7.7614V7.76222H22.0896V7.7614H21.2896Z" fill="#4D666F" mask="url(#path-10-outside-2_265_6348)"/>
<mask id="path-12-outside-3_265_6348" maskUnits="userSpaceOnUse" x="23" y="24.189" width="19" height="3" fill="black">
<rect fill="white" x="23" y="24.189" width="19" height="3"/>
<path fill-rule="evenodd" clip-rule="evenodd" d="M28.6896 26.5226C29.0386 26.4573 29.36 26.2886 29.6156 26.0542C30.0862 25.6112 30.8615 25.6112 31.3597 26.0542C31.7091 26.3756 32.1642 26.5347 32.6183 26.5317C32.6526 26.5452 32.6915 26.5524 32.7339 26.5524C33.2045 26.5524 33.6475 26.3587 33.9796 26.0542C34.4502 25.6112 35.2255 25.6112 35.7237 26.0542C35.9911 26.3002 36.3204 26.4511 36.6639 26.507C36.7081 26.5363 36.7635 26.5524 36.8269 26.5524C36.9323 26.5524 37.0362 26.5427 37.1379 26.5243C37.1408 26.524 37.1437 26.5237 37.1467 26.5235V26.5226C37.4957 26.4573 37.817 26.2886 38.0726 26.0542C38.5432 25.6112 39.3186 25.6112 39.8168 26.0542C40.2083 26.4144 40.7327 26.5708 41.2397 26.5235V25.9899C40.8771 26.0318 40.4939 25.9239 40.2044 25.6665C39.5123 25.0298 38.4051 25.0298 37.713 25.6665C37.4849 25.8691 37.2106 25.9789 36.9112 25.9962C36.6237 25.9785 36.3387 25.8686 36.1113 25.6665C35.4193 25.0298 34.3121 25.0298 33.62 25.6665C33.3829 25.8771 33.0958 25.9874 32.7826 25.9978V25.9899C32.4201 26.0318 32.0369 25.9239 31.7473 25.6665C31.0552 25.0298 29.948 25.0298 29.256 25.6665C29.0279 25.8691 28.7535 25.9789 28.4542 25.9962C28.1667 25.9785 27.8817 25.8686 27.6543 25.6665C26.9622 25.0298 25.855 25.0298 25.1629 25.6665C24.9136 25.888 24.609 25.9986 24.2769 25.9986C24.1106 25.9986 24 26.1095 24 26.2755C24 26.4418 24.1108 26.5524 24.2769 26.5524C24.7475 26.5524 25.1904 26.3587 25.5226 26.0542C25.9931 25.6112 26.7685 25.6112 27.2667 26.0542C27.5341 26.3002 27.8634 26.4511 28.2068 26.507C28.251 26.5363 28.3064 26.5524 28.3699 26.5524C28.4752 26.5524 28.5792 26.5427 28.6808 26.5243L28.6896 26.5235V26.5226Z"/>
</mask>
<path fill-rule="evenodd" clip-rule="evenodd" d="M28.6896 26.5226C29.0386 26.4573 29.36 26.2886 29.6156 26.0542C30.0862 25.6112 30.8615 25.6112 31.3597 26.0542C31.7091 26.3756 32.1642 26.5347 32.6183 26.5317C32.6526 26.5452 32.6915 26.5524 32.7339 26.5524C33.2045 26.5524 33.6475 26.3587 33.9796 26.0542C34.4502 25.6112 35.2255 25.6112 35.7237 26.0542C35.9911 26.3002 36.3204 26.4511 36.6639 26.507C36.7081 26.5363 36.7635 26.5524 36.8269 26.5524C36.9323 26.5524 37.0362 26.5427 37.1379 26.5243C37.1408 26.524 37.1437 26.5237 37.1467 26.5235V26.5226C37.4957 26.4573 37.817 26.2886 38.0726 26.0542C38.5432 25.6112 39.3186 25.6112 39.8168 26.0542C40.2083 26.4144 40.7327 26.5708 41.2397 26.5235V25.9899C40.8771 26.0318 40.4939 25.9239 40.2044 25.6665C39.5123 25.0298 38.4051 25.0298 37.713 25.6665C37.4849 25.8691 37.2106 25.9789 36.9112 25.9962C36.6237 25.9785 36.3387 25.8686 36.1113 25.6665C35.4193 25.0298 34.3121 25.0298 33.62 25.6665C33.3829 25.8771 33.0958 25.9874 32.7826 25.9978V25.9899C32.4201 26.0318 32.0369 25.9239 31.7473 25.6665C31.0552 25.0298 29.948 25.0298 29.256 25.6665C29.0279 25.8691 28.7535 25.9789 28.4542 25.9962C28.1667 25.9785 27.8817 25.8686 27.6543 25.6665C26.9622 25.0298 25.855 25.0298 25.1629 25.6665C24.9136 25.888 24.609 25.9986 24.2769 25.9986C24.1106 25.9986 24 26.1095 24 26.2755C24 26.4418 24.1108 26.5524 24.2769 26.5524C24.7475 26.5524 25.1904 26.3587 25.5226 26.0542C25.9931 25.6112 26.7685 25.6112 27.2667 26.0542C27.5341 26.3002 27.8634 26.4511 28.2068 26.507C28.251 26.5363 28.3064 26.5524 28.3699 26.5524C28.4752 26.5524 28.5792 26.5427 28.6808 26.5243L28.6896 26.5235V26.5226Z" fill="#4D666F"/>
<path d="M29.6156 26.0542L29.8859 26.3491L29.8898 26.3455L29.6156 26.0542ZM28.6896 26.5226L28.6161 26.1295L28.2896 26.1905V26.5226H28.6896ZM31.3597 26.0542L31.6306 25.7598L31.6255 25.7553L31.3597 26.0542ZM32.6183 26.5317L32.7652 26.1596L32.6931 26.1312L32.6156 26.1317L32.6183 26.5317ZM33.9796 26.0542L34.25 26.3491L34.2538 26.3455L33.9796 26.0542ZM35.7237 26.0542L35.9946 25.7598L35.9895 25.7553L35.7237 26.0542ZM36.6639 26.507L36.8845 26.1734L36.8129 26.126L36.7281 26.1122L36.6639 26.507ZM37.1379 26.5243L37.1025 26.1258L37.0843 26.1274L37.0663 26.1307L37.1379 26.5243ZM37.1467 26.5235L37.1839 26.9217L37.5467 26.8878V26.5235H37.1467ZM37.1467 26.5226L37.0731 26.1295L36.7467 26.1905V26.5226H37.1467ZM38.0726 26.0542L38.343 26.3491L38.3468 26.3455L38.0726 26.0542ZM39.8168 26.0542L40.0876 25.7598L40.0826 25.7553L39.8168 26.0542ZM41.2397 26.5235L41.2769 26.9217L41.6397 26.8878V26.5235H41.2397ZM41.2397 25.9899H41.6397V25.5411L41.1938 25.5926L41.2397 25.9899ZM40.2044 25.6665L39.9335 25.9609L39.9386 25.9654L40.2044 25.6665ZM37.713 25.6665L37.9787 25.9655L37.9838 25.9608L37.713 25.6665ZM36.9112 25.9962L36.8867 26.3954L36.9104 26.3969L36.9342 26.3955L36.9112 25.9962ZM36.1113 25.6665L35.8405 25.9609L35.8456 25.9654L36.1113 25.6665ZM33.62 25.6665L33.8857 25.9655L33.8908 25.9608L33.62 25.6665ZM32.7826 25.9978H32.3826V26.4112L32.7958 26.3976L32.7826 25.9978ZM32.7826 25.9899H33.1826V25.5411L32.7368 25.5926L32.7826 25.9899ZM31.7473 25.6665L31.4765 25.9609L31.4815 25.9654L31.7473 25.6665ZM29.256 25.6665L29.5217 25.9655L29.5268 25.9608L29.256 25.6665ZM28.4542 25.9962L28.4296 26.3954L28.4534 26.3969L28.4772 26.3955L28.4542 25.9962ZM27.6543 25.6665L27.3835 25.9609L27.3885 25.9654L27.6543 25.6665ZM25.1629 25.6665L25.4287 25.9655L25.4338 25.9608L25.1629 25.6665ZM25.5226 26.0542L25.7929 26.3491L25.7968 26.3455L25.5226 26.0542ZM27.2667 26.0542L27.5376 25.7598L27.5325 25.7553L27.2667 26.0542ZM28.2068 26.507L28.4275 26.1734L28.3558 26.126L28.2711 26.1122L28.2068 26.507ZM28.6808 26.5243L28.6445 26.1259L28.6268 26.1275L28.6093 26.1307L28.6808 26.5243ZM28.6896 26.5235L28.7259 26.9218L29.0896 26.8887V26.5235H28.6896ZM29.3453 25.7594C29.1411 25.9466 28.8869 26.0788 28.6161 26.1295L28.7632 26.9158C29.1904 26.8359 29.5788 26.6306 29.8859 26.349L29.3453 25.7594ZM31.6255 25.7553C30.9802 25.1815 29.9703 25.171 29.3414 25.763L29.8898 26.3455C30.2021 26.0515 30.7428 26.0409 31.0939 26.3531L31.6255 25.7553ZM32.6156 26.1317C32.2553 26.1341 31.9001 26.0078 31.6305 25.7598L31.0889 26.3486C31.5181 26.7434 32.0731 26.9354 32.621 26.9317L32.6156 26.1317ZM32.7339 26.1524C32.737 26.1524 32.7485 26.153 32.7652 26.1596L32.4715 26.9037C32.5568 26.9374 32.646 26.9524 32.7339 26.9524V26.1524ZM33.7093 25.7594C33.4432 26.0033 33.0944 26.1524 32.7339 26.1524V26.9524C33.3146 26.9524 33.8517 26.7141 34.2499 26.349L33.7093 25.7594ZM35.9895 25.7553C35.3442 25.1815 34.3343 25.171 33.7054 25.763L34.2538 26.3455C34.5661 26.0515 35.1068 26.0409 35.458 26.3531L35.9895 25.7553ZM36.7281 26.1122C36.4571 26.0681 36.2009 25.9496 35.9946 25.7598L35.4529 26.3486C35.7813 26.6507 36.1838 26.8341 36.5996 26.9018L36.7281 26.1122ZM36.4432 26.8407C36.5608 26.9184 36.695 26.9524 36.8269 26.9524V26.1524C36.8319 26.1524 36.8554 26.1541 36.8845 26.1734L36.4432 26.8407ZM36.8269 26.9524C36.9569 26.9524 37.0848 26.9405 37.2094 26.9178L37.0663 26.1307C36.9877 26.145 36.9077 26.1524 36.8269 26.1524V26.9524ZM37.1094 26.1252C37.1071 26.1254 37.1048 26.1256 37.1025 26.1258L37.1732 26.9227C37.1768 26.9224 37.1803 26.922 37.1839 26.9217L37.1094 26.1252ZM36.7467 26.5226V26.5235H37.5467V26.5226H36.7467ZM37.2202 26.9158C37.6474 26.8359 38.0358 26.6306 38.343 26.349L37.8023 25.7594C37.5981 25.9466 37.3439 26.0788 37.0731 26.1295L37.2202 26.9158ZM38.3468 26.3455C38.6591 26.0515 39.1999 26.0409 39.551 26.3531L40.0826 25.7553C39.4373 25.1815 38.4273 25.171 37.7985 25.763L38.3468 26.3455ZM39.5459 26.3486C40.0269 26.7911 40.6657 26.9788 41.2769 26.9217L41.2025 26.1252C40.7998 26.1628 40.3897 26.0378 40.0876 25.7598L39.5459 26.3486ZM41.6397 26.5235V25.9899H40.8397V26.5235H41.6397ZM41.1938 25.5926C40.9381 25.6221 40.6699 25.5452 40.4702 25.3675L39.9386 25.9654C40.3179 26.3027 40.8162 26.4414 41.2855 26.3873L41.1938 25.5926ZM40.4752 25.3721C39.63 24.5946 38.2873 24.5946 37.4422 25.3721L37.9838 25.9608C38.5228 25.465 39.3945 25.465 39.9335 25.9608L40.4752 25.3721ZM37.4473 25.3674C37.2883 25.5087 37.1001 25.5846 36.8882 25.5968L36.9342 26.3955C37.3211 26.3732 37.6815 26.2295 37.9787 25.9655L37.4473 25.3674ZM35.8456 25.9654C36.1436 26.2304 36.515 26.3726 36.8867 26.3954L36.9357 25.5969C36.7325 25.5844 36.5338 25.5068 36.3771 25.3675L35.8456 25.9654ZM33.8908 25.9608C34.4298 25.465 35.3015 25.465 35.8405 25.9608L36.3822 25.3721C35.537 24.5946 34.1943 24.5946 33.3492 25.3721L33.8908 25.9608ZM32.7958 26.3976C33.1993 26.3842 33.5765 26.2402 33.8857 25.9655L33.3543 25.3674C33.1893 25.514 32.9924 25.5906 32.7695 25.598L32.7958 26.3976ZM32.3826 25.9899V25.9978H33.1826V25.9899H32.3826ZM31.4815 25.9654C31.8609 26.3027 32.3591 26.4414 32.8285 26.3873L32.7368 25.5926C32.4811 25.6221 32.2129 25.5452 32.0131 25.3675L31.4815 25.9654ZM29.5268 25.9608C30.0658 25.465 30.9375 25.465 31.4765 25.9608L32.0181 25.3721C31.173 24.5946 29.8303 24.5946 28.9852 25.3721L29.5268 25.9608ZM28.4772 26.3955C28.864 26.3732 29.2245 26.2295 29.5216 25.9655L28.9903 25.3674C28.8313 25.5087 28.6431 25.5846 28.4312 25.5968L28.4772 26.3955ZM27.3885 25.9654C27.6866 26.2304 28.058 26.3726 28.4296 26.3954L28.4787 25.5969C28.2754 25.5844 28.0767 25.5068 27.9201 25.3675L27.3885 25.9654ZM25.4338 25.9608C25.9728 25.465 26.8445 25.465 27.3835 25.9608L27.9251 25.3721C27.08 24.5946 25.7373 24.5946 24.8921 25.3721L25.4338 25.9608ZM24.2769 26.3986C24.7028 26.3986 25.1031 26.2547 25.4286 25.9655L24.8973 25.3674C24.7242 25.5212 24.5153 25.5986 24.2769 25.5986V26.3986ZM24.4 26.2755C24.4 26.2833 24.3957 26.3209 24.3591 26.3575C24.3224 26.3942 24.2848 26.3986 24.2769 26.3986V25.5986C24.1028 25.5986 23.9267 25.6584 23.7931 25.7921C23.6596 25.9257 23.6 26.1017 23.6 26.2755H24.4ZM24.2769 26.1524C24.2847 26.1524 24.3223 26.1568 24.3589 26.1934C24.3957 26.2301 24.4 26.2678 24.4 26.2755H23.6C23.6 26.4496 23.6598 26.6257 23.7934 26.7593C23.927 26.8928 24.1031 26.9524 24.2769 26.9524V26.1524ZM25.2523 25.7594C24.9862 26.0033 24.6374 26.1524 24.2769 26.1524V26.9524C24.8575 26.9524 25.3947 26.7141 25.7929 26.349L25.2523 25.7594ZM27.5325 25.7553C26.8872 25.1815 25.8772 25.171 25.2484 25.763L25.7968 26.3455C26.1091 26.0515 26.6498 26.0409 27.0009 26.3531L27.5325 25.7553ZM28.2711 26.1122C28.0001 26.0681 27.7439 25.9496 27.5375 25.7598L26.9959 26.3486C27.3243 26.6507 27.7267 26.8341 28.1425 26.9018L28.2711 26.1122ZM28.3699 26.1524C28.3749 26.1524 28.3984 26.1541 28.4275 26.1734L27.9862 26.8407C28.1037 26.9184 28.238 26.9524 28.3699 26.9524V26.1524ZM28.6093 26.1307C28.5306 26.145 28.4506 26.1524 28.3699 26.1524V26.9524C28.4999 26.9524 28.6278 26.9405 28.7524 26.9178L28.6093 26.1307ZM28.6533 26.1251L28.6445 26.1259L28.7171 26.9226L28.7259 26.9218L28.6533 26.1251ZM28.2896 26.5226V26.5235H29.0896V26.5226H28.2896Z" fill="#4D666F" mask="url(#path-12-outside-3_265_6348)"/>
<circle r="0.816579" transform="matrix(1 0 0 -1 17.0322 10.7237)" stroke="#4D666F"/>
<circle r="0.652007" transform="matrix(1 0 0 -1 7.62198 24.6952)" stroke="#4D666F"/>
</g>
<defs>
<clipPath id="clip0_265_6348">
<rect width="40" height="40" fill="white" transform="translate(0.729248 0.364746)"/>
</clipPath>
</defs>
</svg>
