<svg width="41" height="41" viewBox="0 0 41 41" fill="none" xmlns="http://www.w3.org/2000/svg">
<path d="M37.5883 14.6007V14.6007C37.9424 14.6007 38.1545 14.8987 38.1545 15.2032C38.1545 15.3586 38.1018 15.5036 37.9951 15.6102C37.8885 15.7168 37.7435 15.7694 37.5883 15.7694C37.5883 15.7694 37.5883 15.7694 37.5883 15.7694L33.1897 15.7697C33.0977 16.1874 32.7238 16.5019 32.2792 16.5019H31.08C31.4143 17.5661 32.5472 18.1666 33.6148 17.8674C34.2782 17.6678 34.7748 17.1733 34.977 16.5114C35.0404 16.1803 35.374 16.0061 35.6648 16.1084C35.9956 16.176 36.1669 16.5145 36.0569 16.8059C35.7421 17.8581 34.9224 18.6353 33.9126 18.9461L33.9024 18.9492L33.9023 18.9489C33.5961 19.0255 33.3236 19.0647 33.0117 19.0647C31.6462 19.0647 30.3558 18.1686 29.9636 16.7961L29.9636 16.7961C29.7286 15.9737 29.8472 15.1154 30.2353 14.3781L37.5883 14.6007ZM37.5883 14.6007H35.8904C35.2597 13.1923 33.6319 12.4338 32.1166 12.8505L32.1166 12.8505L32.1147 12.851C31.2927 13.0858 30.6265 13.6345 30.2353 14.3781L37.5883 14.6007ZM31.4709 14.5639C31.7292 14.2788 32.0688 14.0572 32.4484 13.9299C33.2568 13.7006 34.0621 13.969 34.5668 14.5639H31.4709Z" fill="#4D666F" stroke="#4D666F" stroke-width="0.4"/>
<path d="M29.1507 25.7125L29.1505 25.7123C29.0922 25.7999 29.01 25.8661 28.9278 25.9104C28.8466 25.9541 28.75 25.9847 28.6545 25.9847L29.1507 25.7125ZM29.1507 25.7125L29.1566 25.7025M29.1507 25.7125L29.1566 25.7025M29.1566 25.7025L30.291 23.7629M29.1566 25.7025L30.291 23.7629M30.291 23.7629C30.4655 23.4706 30.3373 23.1343 30.0755 22.977L30.0754 22.977C29.7829 22.8016 29.4459 22.9298 29.2885 23.1919L29.2885 23.1919L29.2873 23.1939L28.1529 25.1335C27.9784 25.4258 28.1066 25.7621 28.3684 25.9194L28.3749 25.9233L28.3817 25.9267C28.4313 25.9516 28.478 25.9686 28.5299 25.9773C28.5742 25.9847 28.6167 25.9847 28.6488 25.9847C28.6507 25.9847 28.6526 25.9847 28.6545 25.9847L30.291 23.7629Z" fill="#4D666F" stroke="#4D666F" stroke-width="0.4"/>
<path d="M34.7498 20.0242C35.1583 20.3736 35.465 20.8748 35.5865 21.4208L35.5865 21.4209C35.7418 22.1202 35.6667 22.8329 35.3072 23.433C35.3069 23.4334 35.3066 23.4339 35.3064 23.4343L32.1958 28.8137L32.1941 28.8164C31.7198 29.6071 30.8501 30.1218 29.8991 30.1218L23.4618 30.1215L20.2609 35.6962L20.2602 35.6974C19.967 36.1999 19.4243 36.4923 18.8792 36.4923C18.6205 36.4923 18.3333 36.4077 18.0941 36.2881L18.0828 36.2824L18.083 36.2821L14.9344 34.4515L14.9343 34.4514L10.8339 32.0718L10.8324 32.0709C9.07599 31.0316 7.17646 30.239 5.20277 29.6591V29.7022C5.20277 32.7568 7.00579 35.4933 9.80372 36.7149L18.8789 36.7141C19.3409 36.7141 19.7725 36.5499 20.1423 36.2478C21.1719 35.3777 22.6758 35.4185 23.6642 36.3277L23.6659 36.3292C24.2087 36.8403 25.116 36.8459 25.7014 36.3264C26.6929 35.4157 28.2731 35.4157 29.2645 36.3264C29.5559 36.5848 29.9104 36.7142 30.3022 36.7142C30.4576 36.7142 30.6026 36.7668 30.7093 36.8735C30.8159 36.9802 30.8685 37.1252 30.8685 37.2804C30.8685 37.4358 30.8158 37.5808 30.7091 37.6874C30.6024 37.794 30.4575 37.8466 30.3022 37.8466C29.6249 37.8466 28.9919 37.5682 28.5196 37.1351L28.5176 37.1333C27.9748 36.6223 27.0675 36.6167 26.4821 37.1361C25.4902 38.0474 23.909 38.047 22.9176 37.1349L22.9159 37.1334C22.3723 36.6219 21.4985 36.6161 20.9121 37.104C20.3648 37.5726 19.6605 37.8469 18.9159 37.8469H9.68942H9.68723C9.66884 37.8469 9.62748 37.847 9.58344 37.8396C9.5502 37.8341 9.49304 37.8211 9.43926 37.7834C6.15858 36.3555 4.07075 33.1785 4.07075 29.6288V29.4091C4.07075 29.3364 4.08982 29.2818 4.10324 29.2482L4.10727 29.2383V29.2304L4.11749 29.1997C4.20523 28.9359 4.38336 28.7105 4.65032 28.5748C4.87929 28.44 5.19145 28.3957 5.46599 28.4863C7.52918 29.1128 9.51929 29.9607 11.399 31.0294L11.4008 31.0304L11.4008 31.0305L14.5576 32.869C14.7593 32.5748 15.0939 32.3579 15.474 32.3579H16.4626C16.618 32.3579 16.763 32.4106 16.8697 32.5173C16.9763 32.6239 17.0289 32.7689 17.0289 32.9241C17.0289 33.0795 16.9762 33.2245 16.8695 33.3312C16.7628 33.4378 16.6178 33.4904 16.4626 33.4904H15.6395L18.6484 35.2397C18.7668 35.305 18.8912 35.3149 18.999 35.2789C19.1062 35.2433 19.2122 35.1571 19.283 35.0017L19.2869 34.993L19.2916 34.9848L22.66 29.1266L22.6665 29.1153L22.6669 29.1155C22.7707 28.9594 22.939 28.8432 23.1628 28.8432H29.863C30.3789 28.8432 30.8974 28.5504 31.1538 28.1019L31.1543 28.101L34.2665 22.7189L34.2708 22.7114L34.2758 22.7043C34.4898 22.3987 34.5289 21.9868 34.4287 21.586C34.3332 21.2037 34.0778 20.8822 33.7215 20.6879L33.718 20.686L33.718 20.686C33.4937 20.5578 33.2353 20.4927 32.9752 20.4927H28.8379L28.8322 20.4927C28.8001 20.4927 28.7577 20.4927 28.7135 20.4854C28.6618 20.4768 28.6152 20.4599 28.5656 20.4352L28.554 20.4294L28.5542 20.429L24.9662 18.342L24.9561 18.3361L24.9467 18.329C24.8727 18.2735 24.7672 18.2599 24.6115 18.2884C24.4641 18.3503 24.3722 18.4312 24.3303 18.5148L24.3222 18.5309L24.3114 18.5453C24.2559 18.6193 24.2422 18.7249 24.2708 18.8805C24.3327 19.0279 24.4136 19.1199 24.4972 19.1617L24.5079 19.1671L24.5077 19.1674L28.2295 21.32C28.4102 21.3919 28.5562 21.4467 28.7278 21.4467H31.9131C32.0685 21.4467 32.2135 21.4994 32.3201 21.6061C32.4267 21.7128 32.4793 21.8577 32.4793 22.013C32.4793 22.1684 32.4266 22.3134 32.3199 22.42C32.2133 22.5266 32.0683 22.5792 31.9131 22.5792H28.7278C28.3698 22.5792 28.0027 22.4996 27.6725 22.294L23.979 20.1364C23.6005 19.9254 23.3506 19.5883 23.2276 19.1781L23.2249 19.1691L23.2231 19.1599C23.1421 18.7554 23.1809 18.3394 23.3907 17.9618C23.6017 17.5823 23.9392 17.3318 24.3501 17.2085L24.3591 17.2058L24.3683 17.204C24.7732 17.123 25.1892 17.1621 25.5666 17.3719L25.5703 17.3739L25.5702 17.374L29.0382 19.397H33.0482C33.4845 19.397 33.9598 19.5153 34.3593 19.7549L34.7498 20.0242ZM34.7498 20.0242L34.7928 20.0149L34.5242 19.8538C34.4705 19.8183 34.4156 19.7853 34.3595 19.755L34.7498 20.0242Z" fill="#4D666F" stroke="#4D666F" stroke-width="0.4"/>
<path d="M23.3557 15.0665L14.9417 29.6157V21.8668C14.9417 21.7116 14.8892 21.5666 14.7825 21.46C14.6759 21.3533 14.5309 21.3006 14.3755 21.3006C14.2203 21.3006 14.0753 21.3532 13.9686 21.4598C13.862 21.5664 13.8093 21.7114 13.8093 21.8668V31.7523C13.8093 32.0405 13.9929 32.2058 14.1762 32.2974L14.2185 32.3186H14.2657H14.3755C14.5994 32.3186 14.7676 32.2024 14.8715 32.0462L14.8718 32.0464L14.8782 32.0354L24.3243 15.6694L24.3246 15.6696L24.3299 15.6591C24.4837 15.3523 24.3846 15.0278 24.1616 14.8604L24.1373 14.8422L24.1255 14.838C23.8375 14.6789 23.5114 14.8072 23.3574 15.0637L23.3574 15.0637L23.3557 15.0665Z" fill="#4D666F" stroke="#4D666F" stroke-width="0.4"/>
<path d="M22.8382 20.3711L22.9354 20.4682L22.8331 20.3764C22.3715 20.8734 21.8366 21.3024 21.2599 21.6991C20.9722 21.8759 20.9312 22.2223 21.0873 22.4825L21.0871 22.4826L21.0925 22.4907C21.2131 22.6714 21.3959 22.726 21.5518 22.726C21.6741 22.726 21.7856 22.6696 21.8499 22.6371C21.8538 22.6351 21.8575 22.6332 21.8611 22.6314L21.8745 22.6247L21.8867 22.6161C22.5152 22.1725 23.1119 21.6883 23.6363 21.1271C23.8581 20.9025 23.8572 20.5579 23.6336 20.3343L23.6236 20.3243L23.6122 20.3158C23.3922 20.1506 23.0603 20.149 22.8382 20.3711Z" fill="#4D666F" stroke="#4D666F" stroke-width="0.4"/>
<path d="M14.3762 16.7218L14.3762 16.7216C14.4542 16.7215 14.5282 16.7083 14.5987 16.677C14.6686 16.646 14.725 16.6017 14.7735 16.5532L26.4309 4.93227H28.8053C28.7426 5.55362 28.5414 6.14502 28.2261 6.68114L28.2254 6.68236L24.8577 12.5025C24.6836 12.7947 24.8118 13.1308 25.0735 13.2879L25.0736 13.288C25.3661 13.4634 25.7031 13.3352 25.8605 13.0731L25.8605 13.0731L25.8621 13.0703L29.2305 7.24892L29.2305 7.24892L29.2315 7.24718C29.7243 6.37547 29.9896 5.38954 29.9896 4.36623C29.9896 4.211 29.937 4.06604 29.8304 3.95937C29.7238 3.85268 29.5788 3.8 29.4234 3.8H26.2381C26.1599 3.8 26.0858 3.81323 26.0151 3.84462C25.9453 3.8756 25.8889 3.91982 25.8404 3.96827C25.8404 3.96831 25.8403 3.96836 25.8403 3.9684L13.9788 15.7573L13.9788 15.7573L13.9783 15.7578C13.7539 15.9822 13.7539 16.3287 13.9783 16.5532C14.0914 16.6663 14.2532 16.7218 14.3762 16.7218Z" fill="#4D666F" stroke="#4D666F" stroke-width="0.4"/>
<path d="M17.531 34.084L17.5377 34.0881L17.5448 34.0916C17.5943 34.1163 17.6409 34.1332 17.6927 34.1418C17.7369 34.1492 17.7793 34.1491 17.8114 34.1491C17.8133 34.1491 17.8152 34.1491 17.8171 34.1491C17.9126 34.1491 18.0092 34.1186 18.0904 34.0748C18.1726 34.0305 18.2548 33.9643 18.3131 33.8767L18.3134 33.877L18.3197 33.8661L21.5782 28.2278L21.5787 28.227C21.835 27.7785 22.3536 27.4857 22.8695 27.4857H29.3866C29.5418 27.4857 29.6868 27.4331 29.7934 27.3265C29.9001 27.2199 29.9528 27.0749 29.9528 26.9195C29.9528 26.7642 29.9002 26.6193 29.7936 26.5126C29.687 26.4059 29.542 26.3532 29.3866 26.3532L22.8738 26.3535C21.917 26.3153 21.0458 26.8345 20.5725 27.6625L20.5717 27.664L17.3152 33.2987C17.1411 33.5908 17.2693 33.9269 17.531 34.084Z" fill="#4D666F" stroke="#4D666F" stroke-width="0.4"/>
<path d="M11.9185 25.6788C11.9253 25.6857 11.9323 25.6923 11.9394 25.6986L11.7714 25.8382H12.3252C12.4805 25.8382 12.6254 25.7856 12.7321 25.679C12.797 25.6141 12.8419 25.5351 12.8671 25.4481L12.8793 25.438H12.87C12.8843 25.385 12.8915 25.3292 12.8915 25.272C12.8912 19.3053 17.7441 14.4515 23.7486 14.4515C23.866 14.4515 23.9884 14.4809 24.1391 14.5188L24.1393 14.5188C24.5216 14.6144 24.8431 14.8698 25.0374 15.226C25.236 15.59 25.2983 15.9781 25.2021 16.3634L25.2019 16.3633L25.2 16.3727C25.1717 16.5147 25.2003 16.6634 25.2671 16.7836C25.3342 16.9043 25.4512 17.0149 25.6134 17.0473C25.7554 17.0756 25.9041 17.0469 26.0243 16.9801C26.1441 16.9135 26.2539 16.7979 26.2872 16.6376C26.4433 15.9704 26.365 15.2606 26.0097 14.6294L26.0097 14.6294L26.0069 14.6246C25.653 14.0348 25.102 13.6009 24.3979 13.4027C24.1813 13.3191 23.9342 13.3192 23.7628 13.3193L23.7486 13.3193C17.1214 13.3193 11.7592 18.6808 11.7592 25.272C11.7592 25.4273 11.8118 25.5722 11.9185 25.6788Z" fill="#4D666F" stroke="#4D666F" stroke-width="0.4"/>
</svg>
