<svg width="114" height="76" viewBox="0 0 114 76" fill="none" xmlns="http://www.w3.org/2000/svg">
<path d="M49.2861 0.305105C51.8275 -0.046144 54.4019 -0.0908536 56.9539 0.171896C56.9535 12.114 56.9532 24.0563 56.9532 35.999C54.5758 36.1608 52.4616 37.4252 49.9941 37.4077C37.6349 37.32 25.2748 37.3571 12.9151 37.3673C12.0029 37.368 11.0908 37.5023 10.1786 37.5744C8.85351 36.163 6.94398 35.6874 5.41479 34.5652C0.439575 30.914 -1.19451 25.6586 0.876035 19.8292C2.93786 14.0245 7.10578 10.3205 12.4934 7.73739C20.6667 3.81871 29.4334 2.21511 38.3238 1.12569C41.5973 0.679058 44.8946 0.428733 48.198 0.376089C48.2657 0.458252 48.352 0.52313 48.4498 0.565389C48.5475 0.607648 48.6539 0.626094 48.7602 0.619161C48.8665 0.612229 48.9696 0.580133 49.061 0.525533C49.1524 0.470933 49.2296 0.395373 49.2861 0.305105Z" fill="#F3F4F7"/>
<path d="M56.9531 35.999C56.9535 24.0564 56.9539 12.114 56.9543 0.171767C61.9257 -0.310323 66.8577 0.330645 71.7884 0.766005C79.06 1.29767 86.2525 2.61659 93.2395 4.69966C98.8156 6.45108 104.282 8.49488 108.413 12.9077C112.389 17.1555 114.473 22.0518 113.202 27.9922C113.16 28.293 113.143 28.5968 113.149 28.9005C112.661 29.9364 112.056 30.9135 111.346 31.8129C110.173 32.8937 108.999 33.9743 107.825 35.0547L107.819 35.0367C106.892 35.3969 106.031 35.9072 105.27 36.5469L105.272 36.5207C104.862 36.7614 104.452 37.0022 104.047 37.2415C103.446 37.33 102.84 37.4199 102.235 37.5097C101.571 37.4551 100.907 37.3535 100.243 37.353C89.8664 37.3441 79.4898 37.3448 69.1132 37.3551C66.9804 37.3579 64.8477 37.4324 62.715 37.4739C62.0368 37.3128 61.3586 37.1518 60.6804 36.9907L60.6157 36.9281L56.9531 35.999Z" fill="#DADADF"/>
<path d="M102.718 49.2173C103.242 50.9084 103.66 52.6303 103.971 54.3731C104.74 60.7533 102.129 65.5172 96.3867 68.5041C92.3301 70.6141 87.9095 71.6185 83.506 72.6292C74.7064 74.7704 65.6567 75.7057 56.6052 75.4095C56.7566 74.8203 56.8395 74.2157 56.8523 73.6075C56.5081 68.8484 56.5004 64.0709 56.8291 59.3107C56.9283 57.7843 57.061 56.3168 54.6531 56.0077C53.5285 55.8142 52.4536 55.399 51.4909 54.7863C50.5283 54.1736 49.6971 53.3756 49.0457 52.4386C48.6146 51.8472 48.041 51.3744 47.3782 51.0641C46.7154 50.7539 45.9849 50.6162 45.2547 50.664C33.7371 50.7249 22.2191 50.703 10.7012 50.7076C10.8133 47.6353 10.9252 44.5634 11.0369 41.4917C11.1504 41.4409 11.2646 41.3891 11.3789 41.3373C23.1275 41.3443 34.8762 41.3514 46.6249 41.3587C47.5407 41.4933 48.4743 41.2938 49.2552 40.7969C46.8122 45.0337 47.2878 49.6687 50.4824 52.7581C51.922 54.2479 53.8391 55.1846 55.899 55.4048C57.9589 55.6251 60.0308 55.1148 61.7528 53.9631C65.5009 51.5424 66.904 47.0884 65.2492 42.4745C64.7969 41.2135 65.2845 41.2004 66.2778 41.2059C73.0072 41.243 79.7367 41.2541 86.4664 41.2392C91.6652 41.2297 96.8638 41.1764 102.063 41.1426C102.526 42.64 102.127 44.1807 102.291 45.6891C102.419 46.866 101.854 48.1311 102.718 49.2173Z" fill="#002531"/>
<path d="M10.7006 50.7072C22.2184 50.7026 33.7365 50.7245 45.254 50.6635C45.9843 50.6158 46.7148 50.7535 47.3776 51.0637C48.0404 51.374 48.614 51.8468 49.045 52.4382C49.6964 53.3752 50.5277 54.1732 51.4903 54.7859C52.453 55.3986 53.5279 55.8138 54.6525 56.0073C57.0603 56.3163 56.9277 57.7839 56.8285 59.3103C56.4997 64.0705 56.5075 68.848 56.8516 73.6071C56.8389 74.2153 56.756 74.8199 56.6046 75.4091C53.1837 76.0487 49.7589 75.4994 46.3771 75.2035C38.5142 74.5412 30.7397 73.076 23.1751 70.8309C19.1962 69.6377 15.4895 68.0576 12.5758 64.9427C10.9482 62.9905 9.90792 60.6165 9.57597 58.0966C9.24402 55.5767 9.63399 53.0143 10.7006 50.7072Z" fill="#04434F"/>
<path d="M11.3784 41.337C11.2642 41.3888 11.15 41.4406 11.0364 41.4914C10.6272 40.2116 11.1812 38.7209 10.1777 37.5735C11.0911 37.5022 12.0032 37.368 12.9154 37.3673C25.2751 37.3571 37.6352 37.32 49.9944 37.4077C52.4619 37.4252 54.5761 36.1608 56.9535 35.999C58.1739 36.3088 59.3947 36.6186 60.6158 36.9284C59.2491 37.3252 57.7847 36.2703 56.4544 37.2087L56.4514 37.2085C54.9714 36.5967 53.6171 37.1919 52.2481 37.646C52.2072 37.6882 52.16 37.7238 52.1082 37.7516C51.8499 37.9076 51.592 38.0636 51.3343 38.2197C50.6255 38.035 49.9021 37.9114 49.1721 37.8503C36.9782 37.8241 24.7843 37.8413 12.5905 37.7997C11.5293 37.7961 11.1624 38.1851 11.1842 39.1474C10.9917 39.4893 10.9072 39.8815 10.9419 40.2723C10.9766 40.6632 11.1288 41.0343 11.3784 41.337Z" fill="#04434F"/>
<path d="M102.717 49.217C101.853 48.1308 102.418 46.8657 102.29 45.6888C102.126 44.1804 102.525 42.6398 102.062 41.1424C102.198 40.8511 102.26 40.5308 102.242 40.2099C102.224 39.889 102.128 39.5774 101.961 39.3028C102.123 39.0368 102.23 38.7414 102.277 38.4337C102.324 38.126 102.309 37.812 102.235 37.5099C102.84 37.42 103.446 37.3302 104.047 37.2417C102.957 37.6328 103.006 38.4915 102.995 39.4477C102.955 42.7048 102.817 45.9607 102.717 49.217Z" fill="#04434F"/>
<path d="M111.347 31.8133C112.056 30.9139 112.661 29.9368 113.15 28.9009C113.072 29.4861 112.871 30.0483 112.56 30.5503C112.249 31.0523 111.836 31.4827 111.347 31.8133Z" fill="#04434F"/>
<path d="M49.2863 0.305359C49.2298 0.395629 49.1527 0.471186 49.0613 0.525788C48.9698 0.58039 48.8667 0.612482 48.7605 0.619416C48.6542 0.62635 48.5478 0.607932 48.4501 0.565674C48.3523 0.523417 48.266 0.458536 48.1982 0.376374C48.3358 0.227115 48.5255 0.136478 48.7281 0.123261C48.9306 0.110044 49.1305 0.175244 49.2863 0.305359Z" fill="#DADADF"/>
<path d="M105.273 36.521L105.271 36.5472L105.273 36.521Z" fill="#04434F"/>
<path d="M107.818 35.0371L107.825 35.0551L107.818 35.0371Z" fill="#04434F"/>
<path d="M101.961 39.3029C102.128 39.5775 102.225 39.8891 102.242 40.21C102.26 40.5309 102.198 40.8512 102.062 41.1424C96.8633 41.1762 91.6646 41.2295 86.4659 41.239C79.7363 41.2513 73.0068 41.2402 66.2773 41.2057C65.2839 41.2002 64.7964 41.2133 65.2487 42.4743C66.9035 47.0882 65.5004 51.5422 61.7523 53.9629C60.0302 55.1146 57.9584 55.6249 55.8985 55.4046C53.8386 55.1844 51.9215 54.2477 50.4818 52.758C47.2872 49.6685 46.8117 45.0335 49.2547 40.7964L49.2898 40.7327C49.6692 39.6496 51.0875 39.4114 51.3334 38.2197C51.5916 38.0637 51.8499 37.9078 52.1045 37.7552C52.3117 38.0668 52.4305 37.8594 52.554 37.6779L52.2481 37.6461C53.6171 37.1921 54.9714 36.5968 56.4513 37.209C55.4146 38.1731 54.1863 39.0863 55.1596 40.7584C55.9106 42.0488 55.488 42.4365 54.1372 42.2091C53.5404 42.1087 52.9108 42.1673 52.8871 42.8841C52.8607 43.6852 53.4949 43.8882 54.1796 43.7174C55.4164 43.4088 55.7041 44.0823 55.6979 45.1003C55.6893 46.5073 55.6886 47.9145 55.6545 49.3209C55.6431 49.7898 55.7417 50.3722 55.1692 50.5958C54.9292 50.658 54.6758 50.646 54.4427 50.5613C54.2096 50.4765 54.0077 50.3231 53.8636 50.1211C52.9029 49.1553 51.9858 48.1461 50.9328 47.0278C50.9454 49.2671 51.4501 50.8949 52.7639 51.8529C54.0188 52.7678 55.8161 54.3072 56.7702 53.9513C58.2721 53.3909 60.1172 52.8104 61.2549 51.3216C61.6941 50.7978 62.0211 50.1894 62.2156 49.534C62.4101 48.8787 62.468 48.1904 62.3857 47.5118C61.3834 48.5323 60.6421 49.4201 59.7667 50.1462C58.5572 51.1495 57.8657 50.8639 57.7644 49.3201C57.6769 47.9849 57.8529 46.6328 57.7725 45.2965C57.6996 44.0855 57.9627 43.3773 59.3537 43.5502C59.8393 43.6106 60.4525 43.6038 60.4466 42.9212C60.4406 42.2118 59.8088 42.3333 59.3338 42.3302C58.6116 42.3255 57.6964 42.1986 58.177 41.2776C59.3136 39.0996 58.0306 38.1357 56.4544 37.2087C57.7847 36.2703 59.2492 37.3253 60.6158 36.9285L60.6805 36.9905C61.0699 37.2458 61.4592 37.5014 61.8484 37.7572C62.3877 38.7439 63.0823 39.8605 64.276 39.5904C65.6484 39.3461 67.044 39.2569 68.4364 39.3247C79.6112 39.2989 90.7861 39.2917 101.961 39.3029Z" fill="#B79F42"/>
<path d="M101.961 39.303C90.7861 39.3061 79.6112 39.3134 68.4363 39.325C67.044 39.2572 65.6484 39.3463 64.276 39.5907C63.0822 39.8608 62.3876 38.7442 61.8457 37.7582C62.1507 37.7163 62.5242 37.8753 62.7149 37.4744C64.8476 37.4329 66.9803 37.3583 69.1131 37.3555C79.4897 37.3419 89.8663 37.3412 100.243 37.3534C100.907 37.3539 101.571 37.4555 102.235 37.5101C102.309 37.8122 102.324 38.1262 102.277 38.4339C102.23 38.7416 102.123 39.037 101.961 39.303Z" fill="#002531"/>
<path d="M62.7151 37.4743C62.5244 37.8752 62.151 37.7162 61.8459 37.7581C61.4593 37.5017 61.0708 37.2459 60.6807 36.9907C61.3587 37.1521 62.0368 37.3133 62.7151 37.4743Z" fill="#04434F"/>
<path d="M11.3788 41.3373C11.1292 41.0347 10.977 40.6636 10.9422 40.2728C10.9075 39.8821 10.9917 39.4899 11.1839 39.1479C18.6264 39.1745 26.0692 39.2005 33.5125 39.2261C38.2726 39.2402 43.0327 39.2405 47.7928 39.2544C48.7598 39.2572 49.7659 39.2536 49.2902 40.7329L49.2551 40.7967C48.4742 41.2938 47.5406 41.4933 46.6247 41.3588C34.8761 41.351 23.1274 41.3438 11.3788 41.3373Z" fill="#B79F42"/>
<path d="M56.4543 37.209C58.0305 38.136 59.3135 39.0999 58.1769 41.2779C57.6963 42.1989 58.6115 42.3258 59.3337 42.3304C59.8087 42.3334 60.4404 42.212 60.4465 42.9214C60.4523 43.604 59.8391 43.6108 59.3535 43.5504C57.9626 43.3776 57.6995 44.0858 57.7723 45.2968C57.8527 46.633 57.6767 47.9851 57.7643 49.3204C57.8655 50.8642 58.557 51.1497 59.7665 50.1465C60.642 49.4204 61.3833 48.5326 62.3855 47.5121C62.4679 48.1907 62.41 48.879 62.2155 49.5343C62.021 50.1896 61.694 50.798 61.2547 51.3218C60.117 52.8106 58.2719 53.3911 56.7701 53.9515C55.816 54.3075 54.0186 52.768 52.7638 51.8531C51.4499 50.8951 50.9452 49.2673 50.9326 47.028C51.9857 48.1463 52.9027 49.1556 53.8635 50.1214C54.0075 50.3233 54.2095 50.4767 54.4426 50.5615C54.6757 50.6462 54.929 50.6583 55.1691 50.596C55.7415 50.3724 55.6429 49.79 55.6543 49.3212C55.6885 47.9148 55.6892 46.5075 55.6977 45.1006C55.704 44.0826 55.4163 43.409 54.1795 43.7176C53.4947 43.8884 52.8606 43.6854 52.887 42.8844C52.9107 42.1676 53.5403 42.1089 54.1371 42.2094C55.4878 42.4368 55.9105 42.049 55.1595 40.7587C54.1862 39.0865 55.4145 38.1733 56.4511 37.2093L56.4543 37.209ZM56.958 40.6387C57.5007 40.4837 58.0765 40.2112 58.01 39.4586C58.0056 39.319 57.9708 39.1821 57.9081 39.0573C57.8454 38.9325 57.7563 38.8229 57.6469 38.7361C57.5375 38.6493 57.4105 38.5874 57.2747 38.5546C57.139 38.5219 56.9977 38.5192 56.8608 38.5466C56.7221 38.5432 56.5842 38.5683 56.4556 38.6203C56.327 38.6723 56.2105 38.7501 56.1131 38.8489C56.0158 38.9478 55.9397 39.0655 55.8897 39.1949C55.8396 39.3243 55.8166 39.4625 55.8221 39.6011C55.833 40.2533 56.221 40.5855 56.958 40.6387Z" fill="#DADADF"/>
<path d="M49.2898 40.7327C49.7654 39.2534 48.7594 39.257 47.7923 39.2542C43.0323 39.2403 38.2721 39.24 33.5121 39.2259C26.069 39.2037 18.6261 39.1777 11.1835 39.1477C11.1623 38.1852 11.5292 37.7962 12.5905 37.7998C24.7842 37.8414 36.9782 37.8242 49.172 37.8504C49.902 37.9115 50.6254 38.0351 51.3343 38.2198C51.0874 39.4114 49.6691 39.6496 49.2898 40.7327Z" fill="#002531"/>
<path d="M52.2481 37.646L52.554 37.6779C52.4305 37.8593 52.3116 38.0667 52.1045 37.7552C52.1575 37.726 52.2058 37.6892 52.2481 37.646Z" fill="#002531"/>
<path d="M56.9579 40.6387C56.2209 40.5855 55.8329 40.2533 55.8221 39.6011C55.8166 39.4625 55.8396 39.3242 55.8896 39.1949C55.9397 39.0655 56.0157 38.9478 56.1131 38.849C56.2104 38.7501 56.327 38.6723 56.4556 38.6203C56.5842 38.5683 56.722 38.5432 56.8607 38.5465C56.9976 38.5191 57.1389 38.5219 57.2747 38.5546C57.4104 38.5873 57.5374 38.6493 57.6468 38.7361C57.7562 38.8229 57.8453 38.9325 57.908 39.0572C57.9707 39.182 58.0055 39.319 58.0099 39.4585C58.0764 40.2112 57.5006 40.4837 56.9579 40.6387Z" fill="#B79F42"/>
</svg>
