<svg width="172" height="104" viewBox="0 0 172 104" fill="none" xmlns="http://www.w3.org/2000/svg">
<path d="M58.9769 9.46771C60.1538 8.95017 61.3151 8.47541 62.467 8.02275C56.8212 4.6538 47.336 0.000291824 37.9891 0.000291824C23.3414 0.000291824 7.98007 18.9344 10.1236 21.4351C12.2672 23.9358 29.0577 12.5037 29.0577 12.5037C29.0577 12.5037 19.4121 21.4351 21.5549 23.9358C23.6992 26.4365 40.1326 12.1466 40.1326 12.1466C40.1326 12.1466 32.2727 22.5072 34.4162 23.2215C36.5598 23.9358 46.2054 14.2902 46.2054 14.2902C46.2054 14.2902 41.9019 19.7299 42.1379 22.123C46.1106 17.3241 51.5433 12.7354 58.9769 9.46771Z" fill="#B79F42"/>
<path d="M38.3461 36.7971C69.6945 14.0221 111.225 11.3432 115.512 13.2187C119.799 15.0942 125.693 48.3182 128.104 47.7822C129.708 47.4257 137.826 39.8445 143.56 34.9607C141.597 28.1159 136.8 12.3276 133.464 9.19965C129.176 5.18058 115.512 7.8595 111.761 7.59218C108.01 7.32414 109.617 5.44864 106.133 3.84044C102.819 2.31065 85.1805 -0.9086 62.4669 8.02274C61.3149 8.47541 60.1537 8.95017 58.9767 9.4677C51.5431 12.7354 46.1105 17.324 42.1377 22.123C36.1448 29.362 33.4901 37.0701 32.3823 41.4655C34.2814 39.868 36.2667 38.3076 38.3461 36.7971Z" fill="#04434F"/>
<path d="M90.337 51.1902C88.7295 50.6099 87.5169 53.3473 88.2426 53.9126C89.1315 54.6062 89.7895 53.4471 90.1274 54.1221C90.7575 55.3839 91.8732 51.7448 90.337 51.1902Z" fill="#351B0A"/>
<path d="M88.2424 44.2785C85.9705 43.711 85.1001 48.8864 87.4041 49.3055C89.708 49.724 92.4311 45.3257 88.2424 44.2785Z" fill="#351B0A"/>
<path d="M93.4784 50.5615C96.4104 50.9807 96.4103 47.0015 94.7351 45.7448C92.6964 44.2157 90.5457 50.1431 93.4784 50.5615Z" fill="#351B0A"/>
<path d="M102.484 59.149C103.112 57.6826 101.856 55.3787 100.39 55.3787C98.9236 55.3787 98.9236 58.7298 98.9236 58.7298C98.9236 58.7298 94.3998 62.0097 89.7891 65.2489C84.7991 61.7637 79.4584 57.8922 79.4584 57.8922C79.4584 57.8922 79.4584 54.5411 77.9928 54.5411C76.5265 54.5411 75.2697 56.845 75.8977 58.3114C76.5264 59.777 72.3377 60.4057 72.9658 61.4529C73.5938 62.5001 77.9928 61.4529 79.4584 61.4529C80.1613 61.4529 83.9444 63.908 87.8544 66.6019C84.288 69.0812 81.0509 71.2504 80.2832 71.5063C78.3977 72.1343 75.4657 71.0872 75.0466 72.3439C74.6281 73.6007 76.9321 73.6007 76.9321 75.9046C76.9321 78.2085 77.5601 79.2557 78.8169 77.999C80.0736 76.7422 79.6545 75.4855 81.1208 74.2287C81.8401 73.6128 85.7857 70.7279 89.792 67.9484C93.3562 70.4463 96.6147 72.8365 97.2612 73.3911C98.7276 74.6479 98.3091 75.9046 99.5652 77.1614C100.822 78.4181 101.451 77.3709 101.451 75.067C101.451 72.7631 103.755 72.7631 103.335 71.5063C102.916 70.2496 99.9843 71.2967 98.0996 70.6687C97.4202 70.442 94.8069 68.7169 91.7452 66.6061C95.194 64.2601 98.2942 62.2905 98.9236 62.2905C100.39 62.2905 104.788 63.3377 105.416 62.2905C106.045 61.2433 101.856 60.6153 102.484 59.149Z" fill="#FFF985"/>
<path d="M94.7349 45.7445C96.4101 47.0013 96.4101 50.9804 93.4782 50.5613C90.5455 50.1428 92.6962 44.2155 94.7349 45.7445ZM90.127 54.122C89.7891 53.4469 89.1312 54.606 88.2423 53.9124C87.5166 53.3471 88.7292 50.6098 90.3366 51.19C91.8728 51.7446 90.7572 55.3838 90.127 54.122ZM87.404 49.3053C85.1 48.8861 85.9704 43.7108 88.2423 44.2782C92.431 45.3254 89.7079 49.7237 87.404 49.3053ZM85.5192 41.7647C81.406 44.4094 81.9584 51.3996 84.2624 52.6557C86.5663 53.9124 85.5191 54.122 85.1 55.5883C84.6815 57.0547 90.5455 59.149 92.431 58.3114C94.3158 57.4731 93.059 55.5883 94.3158 55.1692C95.5725 54.7507 98.5045 54.122 99.1332 49.3053C99.7613 44.4878 94.3158 36.1096 85.5192 41.7647Z" fill="#FFF985"/>
<path d="M115.512 13.2186C111.225 11.3431 69.6947 14.022 38.3462 36.7969C36.2668 38.3075 34.2815 39.8679 32.3825 41.4654C6.91363 62.8852 -2.50176 90.9959 0.55567 96.2076C0.708221 96.4664 0.889299 96.6724 1.10315 96.8149C1.10315 96.8149 19.0543 63.8583 46.9197 42.4235C74.7852 20.9887 107.206 25.8112 109.617 26.8833C112.028 27.9547 116.315 56.0882 125.426 56.8923C134.535 57.6957 146.592 44.8351 147.396 44.299C148.2 43.7629 160.525 52.3372 162.133 70.289C163.709 87.8886 159.366 93.3818 161.215 95.3579L161.329 95.4748C163.472 97.3503 173.654 85.5611 171.243 65.1978C168.831 44.8351 150.879 31.4384 149.272 30.9024C148.733 30.7227 146.448 32.5013 143.56 34.9606C137.826 39.8444 129.708 47.4256 128.104 47.782C125.694 48.3181 119.799 15.0941 115.512 13.2186Z" fill="#B79F42"/>
<path fill-rule="evenodd" clip-rule="evenodd" d="M89.2085 40.334H91.9595C91.1114 40.1733 90.1924 40.1606 89.2085 40.334ZM146.841 44.6333C147.644 44.0972 159.969 52.6714 161.577 70.623C162.519 81.1416 161.346 87.3359 160.646 91.0395C160.174 93.5327 159.916 94.897 160.66 95.6919C154.498 103.558 150.51 100.638 143.357 95.2729C135.855 89.6465 99.9512 89.1103 73.4263 90.9863C60.2207 91.9199 45.2227 95.709 32.5308 98.9155C19.7281 102.15 9.27201 104.791 5.37016 103.311C0.934613 101.628 -0.00728198 98.7251 4.22405e-05 96.5415C0.152874 96.8003 0.333538 97.0063 0.547406 97.1489C0.547406 97.1489 18.4986 64.1924 46.3643 42.7578C74.2295 21.3227 106.65 26.1455 109.062 27.2173C109.849 27.5674 110.836 30.8027 112.126 35.0298C114.787 43.748 118.735 56.685 124.87 57.2266C132.761 57.9224 142.864 48.3652 145.948 45.4477C146.424 44.9971 146.733 44.7051 146.841 44.6333Z" fill="#002531"/>
<path d="M87.503 76.8061C87.0456 76.6244 86.5673 76.309 86.2461 77C85.9178 76.6136 85.4806 76.3342 84.991 76.1978C84.5015 76.0613 83.9821 76.0742 83.5 76.2348C83.4504 75.3667 82.6287 75.4373 82.1299 75.1965C74.9144 71.7139 70.9445 65.9766 71.0006 58.0268C71.0559 50.1869 75.0662 44.561 82.1878 41.1697C82.5854 40.9803 82.9528 40.728 83.3341 40.5051C94.2914 38.3942 103.01 42.9933 106.165 52.5486C107.392 56.5286 107.264 60.801 105.799 64.7006C104.334 68.6002 101.614 71.9082 98.0644 74.1092C94.7254 76.2005 91.1697 76.4894 87.503 76.8061ZM79.4423 45.2494C79.195 45.2383 78.9512 45.3109 78.7506 45.4553C78.55 45.5998 78.4044 45.8075 78.3375 46.0448C75.4655 48.4514 73.5617 51.8083 72.9755 55.4996C71.3395 64.7506 78.6165 74.3593 87.4935 74.5682C88.4981 74.9635 89.5946 75.0676 90.6562 74.8686C93.3956 74.5055 96.0042 73.4809 98.2546 71.8839C100.505 70.287 102.329 68.1662 103.567 65.7066C104.805 63.247 105.42 60.5232 105.358 57.7728C105.296 55.0224 104.559 52.3287 103.211 49.9269C98.024 40.9991 86.4778 38.7071 79.3908 45.1985L79.4423 45.2494Z" fill="#DADADF"/>
<path d="M99.8821 59.7741C100.219 61.913 99.8303 64.0998 98.7751 66.008C97.7199 67.9163 96.0544 69.4437 94.0271 70.3625C93.4649 70.6682 92.8556 70.8847 92.2223 71.0036C90.6698 71.1552 90.161 73.818 88.2962 72.7465C83.9831 70.2683 78.7583 68.5494 78.1431 62.5963C78.0747 61.9351 77.6757 61.0761 78.609 60.7444C79.3798 60.4705 79.6866 61.2729 80.0495 61.731C81.2982 63.6045 82.9919 65.1629 84.9897 66.2765C86.2356 66.8618 86.9281 66.6122 86.9307 65.1822C86.9368 61.9849 86.9416 58.7876 86.9452 55.5904C86.9452 53.8201 85.7855 53.8489 84.4811 54.1329C83.4368 54.3603 82.4394 54.3886 81.7979 53.376C81.6514 53.1461 81.5799 52.8789 81.5928 52.6092C81.6056 52.3394 81.7023 52.0797 81.8701 51.8637C82.5836 50.8765 83.539 50.9503 84.5701 51.3324C85.2738 51.5932 86.1126 51.7909 86.625 51.1655C87.2904 50.3535 86.5136 49.7014 86.06 49.0566C85.7392 48.6719 85.5014 48.2292 85.3607 47.7543C85.2199 47.2794 85.179 46.7821 85.2404 46.2917C85.3018 45.8013 85.4643 45.3278 85.7183 44.899C85.9722 44.4703 86.3124 44.0951 86.7189 43.7955C88.3146 42.3804 90.1565 43.0911 91.52 44.0885C93.353 45.4294 93.1151 47.3372 92.0025 49.1015C91.5675 49.7914 90.8588 50.4418 91.4528 51.242C92.1236 52.1455 93.1073 51.7903 93.9604 51.438C94.3265 51.2428 94.7539 51.1842 95.1617 51.2732C95.5695 51.3622 95.9294 51.5926 96.1731 51.9208C96.3573 52.1242 96.4662 52.3811 96.4825 52.6509C96.4988 52.9207 96.4215 53.1881 96.263 53.4108C96.0323 53.748 95.6833 53.9935 95.2803 54.1021C94.8772 54.2107 94.4472 54.175 94.0691 54.0018C91.8747 53.3665 91.008 54.1878 91.0793 56.3595C91.1697 59.1099 91.0729 61.8657 91.0937 64.6188C91.0995 65.3848 90.8528 66.3481 91.8221 66.7304C92.6757 67.067 93.4342 66.5142 94.0988 66.0556C96.355 64.2671 98.3065 62.1475 99.8821 59.7741ZM91.1247 46.7929C91.0432 45.6514 90.6125 44.8154 89.333 44.8861C88.8238 44.8675 88.3273 45.0419 87.9493 45.372C87.5712 45.7021 87.3415 46.1617 87.3092 46.6531C87.1794 47.9341 88.1739 48.3339 89.1981 48.437C89.4422 48.4847 89.6945 48.477 89.935 48.4147C90.1755 48.3524 90.3979 48.237 90.5845 48.0778C90.7712 47.9185 90.9171 47.7196 91.0108 47.4966C91.1046 47.2737 91.1436 47.0328 91.1247 46.7929Z" fill="#B79F42"/>
</svg>
