<svg width="114" height="81" viewBox="0 0 114 81" fill="none" xmlns="http://www.w3.org/2000/svg">
<path d="M56.6464 0.0654297C60.2976 0.23426 63.6998 1.50363 67.1524 2.50735C77.9248 5.63911 88.4877 9.33495 98.2437 14.9819C103.682 18.1295 108.761 21.7355 111.762 27.5447C112.599 29.1108 113.214 30.7857 113.589 32.5212C113.993 34.081 113.85 35.732 113.185 37.1995C112.52 38.667 111.373 39.8625 109.934 40.587C107.62 41.8547 105.012 42.4877 102.374 42.4217C89.0497 42.4091 75.7254 42.398 62.4015 42.3885C60.5106 42.3878 58.6197 42.4441 56.7288 42.474L56.3629 42.3394C56.9715 41.0707 57.1818 39.6475 56.9662 38.2569C56.9177 36.9245 56.3969 35.506 54.4666 35.4705C53.551 35.3958 52.6583 35.1452 51.8376 34.7324C49.0237 33.4908 47.9847 30.7921 46.951 28.2453C46.3887 26.9442 46.121 25.5347 46.1672 24.118C46.2134 22.7013 46.5724 21.3123 47.2183 20.0506C48.0096 18.5582 49.1218 17.2596 50.4749 16.2484C51.828 15.2371 53.3883 14.5382 55.0437 14.202C56.8395 13.8969 57.5558 13.157 56.6468 11.3559C56.4794 11.0242 56.6548 10.5268 56.6467 10.1064C56.5823 6.75937 57.0932 3.41228 56.6464 0.0654297ZM66.3126 24.9911C66.3176 23.7002 66.0679 22.4211 65.5778 21.2269C65.0876 20.0327 64.3667 18.9469 63.4562 18.0318C62.5458 17.1167 61.4637 16.3903 60.272 15.8941C59.0803 15.3979 57.8024 15.1417 56.5116 15.1402C51.8326 15.079 47.2796 19.8831 47.3093 24.8497C47.3406 30.0979 51.6405 34.7609 56.4663 34.7801C57.7566 34.7879 59.0358 34.5404 60.2302 34.0519C61.4246 33.5634 62.5106 32.8435 63.4257 31.9337C64.3408 31.024 65.067 29.9422 65.5624 28.7507C66.0579 27.5592 66.3128 26.2815 66.3126 24.9911Z" fill="#002531"/>
<path d="M56.6469 0.0653246C57.0936 3.41217 56.5828 6.75927 56.6472 10.1063C56.6552 10.5268 56.4799 11.0242 56.6473 11.3558C57.5563 13.1569 56.84 13.8968 55.0442 14.2019C53.3888 14.5381 51.8284 15.237 50.4754 16.2483C49.1223 17.2595 48.0101 18.5581 47.2188 20.0505C46.5729 21.3123 46.2139 22.7012 46.1677 24.1179C46.1215 25.5347 46.3891 26.9441 46.9515 28.2453C47.9851 30.792 49.0241 33.4908 51.8381 34.7323C52.6588 35.1451 53.5514 35.3957 54.4671 35.4704C56.3974 35.5059 56.9181 36.9244 56.9667 38.2569C57.1823 39.6474 56.9719 41.0706 56.3634 42.3393C42.0527 42.3562 27.742 42.3748 13.4313 42.3954C12.6403 42.3968 11.8495 42.4792 11.0586 42.5239C8.97652 42.4231 6.92774 41.9617 5.00342 41.1604C0.626529 39.2994 -0.93647 35.6193 0.54277 31.0914C2.86218 23.9919 8.07967 19.5307 14.1659 15.8158C23.6046 10.0546 33.9226 6.38479 44.4124 3.14099C47.8036 2.09231 51.2505 1.224 54.6698 0.265566C55.294 0.00272706 55.9827 -0.0670275 56.6469 0.0653246Z" fill="#04434F"/>
<path d="M60.7637 80.4512C59.5389 80.4488 58.3143 80.4465 57.0896 80.4441C56.9149 79.8628 56.7972 79.2658 56.7383 78.6617C56.714 71.8642 56.7133 65.0666 56.7361 58.269C56.7486 55.7809 56.8081 55.7765 54.1949 55.7763C40.5997 55.7756 27.0044 55.7707 13.4092 55.7616C12.6651 55.7604 11.792 56.1097 11.1983 55.2941C11.1752 55.1555 11.1521 55.0169 11.1289 54.8782C11.5545 54.9119 11.9803 54.9751 12.4061 54.9753C26.8338 54.982 41.2614 54.9823 55.689 54.9761C56.1721 54.9454 56.6527 54.8823 57.1274 54.7873C57.5437 54.8655 57.9645 54.9174 58.3873 54.9426C72.6177 54.9491 86.8482 54.9486 101.079 54.941C101.564 55.0231 102.062 54.9401 102.495 54.7051C105.237 58.349 104.6 66.1378 101.293 69.7776C99.5094 71.817 97.2527 73.3874 94.7208 74.351C84.4016 78.0708 73.5524 80.1106 62.5868 80.3927C62.3315 80.1708 62.0018 80.0535 61.6638 80.0644C61.3257 80.0752 61.0042 80.2134 60.7637 80.4512Z" fill="#002531"/>
<path d="M11.199 55.2943C11.7927 56.1099 12.6658 55.7606 13.4099 55.7618C27.0051 55.7836 40.6003 55.7885 54.1956 55.7765C56.8088 55.7767 56.7493 55.7811 56.7368 58.2691C56.7028 65.0666 56.7035 71.8641 56.739 78.6618C56.7979 79.266 56.9155 79.8629 57.0902 80.4443C54.1631 81.0495 51.2296 80.5008 48.328 80.3179C39.0323 79.7618 29.8489 77.9945 21.0108 75.0606C19.7309 74.6441 18.4889 74.1193 17.2982 73.4919C10.4912 69.8257 7.9801 63.4193 10.4122 56.0933C10.5493 55.6804 10.5933 55.2243 11.199 55.2943Z" fill="#04434F"/>
<path d="M11.1416 49.1901C11.1415 48.4321 11.1413 47.6743 11.1412 46.9166C11.2727 46.7592 11.3686 46.5752 11.4221 46.3771C11.4756 46.1791 11.4856 45.9719 11.4513 45.7696C24.9573 45.7674 38.4633 45.7686 51.9693 45.7733C53.6146 45.7753 55.2597 45.9186 56.9048 45.9965C56.4407 47.855 57.1206 49.8126 56.4153 51.6502C50.969 51.6839 45.5228 51.7438 40.0765 51.7456C30.5269 51.7488 20.9773 51.7165 11.4277 51.699L11.0947 51.3282C11.1012 50.7183 11.1077 50.1085 11.1142 49.4988C11.1462 49.4704 11.2073 49.4387 11.2047 49.4135C11.1909 49.3371 11.1698 49.2623 11.1416 49.1901Z" fill="#F3F4F7"/>
<path d="M56.415 51.6499C57.1203 49.8123 56.4404 47.8548 56.9032 45.9972C70.7882 45.9875 84.674 45.9735 98.5608 45.9552C99.84 45.9526 101.119 45.7951 102.398 45.7095C103.004 47.7515 102.52 49.8286 102.597 51.8888C101.32 51.8341 100.042 51.7327 98.7647 51.7295C84.6482 51.6942 70.5316 51.6677 56.415 51.6499Z" fill="#DADADF"/>
<path d="M102.398 45.7097C101.119 45.7954 99.8402 45.9529 98.561 45.9555C84.6747 45.9838 70.7888 45.9977 56.9034 45.9974C55.2596 45.9187 53.6145 45.7753 51.9693 45.7733C38.4633 45.7572 24.9573 45.7561 11.4513 45.7699C11.4075 45.7265 11.3542 45.6939 11.2956 45.6746C11.237 45.6554 11.1747 45.6501 11.1137 45.6591C11.0992 45.2408 11.0847 44.8226 11.0703 44.4045C12.9592 44.3964 14.8479 44.3883 16.7365 44.38L16.8186 44.4239L16.8942 44.3696C19.2743 44.3982 21.6544 44.4545 24.0345 44.4504C33.6223 44.4339 43.2102 44.4073 52.7981 44.3705C53.6491 44.4229 54.5001 44.5219 55.3511 44.5206C67.0402 44.5025 78.7293 44.4783 90.4184 44.448C94.3954 44.444 98.3725 44.5093 102.35 44.543L102.398 45.7097Z" fill="#B79F42"/>
<path d="M56.4151 51.6499C70.5316 51.6741 84.6482 51.7006 98.7648 51.7295C100.042 51.7327 101.32 51.8341 102.597 51.8888C102.573 52.2588 102.551 52.6293 102.528 53.0002C101.557 53.042 100.584 53.121 99.6119 53.1215C86.5344 53.1286 73.4569 53.1318 60.3795 53.1312C59.2852 53.1321 58.191 53.2402 57.0968 53.2984C56.4677 53.0551 55.7883 52.9709 55.1188 53.0533C40.4584 53.0401 25.798 53.029 11.1376 53.02C11.1161 52.6124 11.0946 52.2047 11.0732 51.7969L11.4275 51.6988C20.9771 51.7162 30.5266 51.7485 40.0762 51.7453C45.5225 51.7435 50.9688 51.6836 56.4151 51.6499Z" fill="#B79F42"/>
<path d="M102.349 44.543C98.3719 44.5094 94.3948 44.444 90.4178 44.448C78.7287 44.4598 67.0396 44.484 55.3505 44.5207C54.4996 44.522 53.6485 44.4229 52.7959 44.3705C53.674 43.7259 54.6827 44.0703 55.6293 44.0401C56.7823 44.0034 57.2462 43.6186 56.729 42.4742C58.6199 42.4443 60.5107 42.388 62.4016 42.3887C75.7257 42.3931 89.05 42.4042 102.374 42.4219C102.591 43.1138 102.582 43.8565 102.349 44.543Z" fill="#DADADF"/>
<path d="M56.729 42.4739C57.2462 43.6183 56.7824 44.0031 55.6294 44.0399C54.6828 44.07 53.6741 43.7257 52.796 44.3702C43.2097 44.3985 33.6224 44.4252 24.034 44.4502C21.654 44.4543 19.2738 44.398 16.8949 44.3693L16.8103 44.2602L16.736 44.3798C14.8474 44.388 12.9586 44.3961 11.0699 44.4043C11.0661 43.7773 11.0623 43.1505 11.0586 42.5237C11.8493 42.4792 12.6401 42.3967 13.4311 42.3954C27.7417 42.3709 42.0524 42.3522 56.3632 42.3394L56.729 42.4739Z" fill="#F3F4F7"/>
<path d="M11.1372 53.02C25.7977 53.0304 40.4581 53.0415 55.1185 53.0533C55.7878 52.971 56.4671 53.055 57.0961 53.2981C57.1063 53.7943 57.1167 54.2907 57.1274 54.7874C56.6527 54.8824 56.1721 54.9455 55.689 54.9762C41.2614 54.9848 26.8338 54.9845 12.4061 54.9754C11.9803 54.9752 11.5545 54.9119 11.1289 54.8783C11.1318 54.259 11.1346 53.6396 11.1372 53.02Z" fill="#F3F4F7"/>
<path d="M57.1279 54.7877C57.1174 54.2911 57.107 53.7947 57.0967 53.2984C58.1912 53.2404 59.2854 53.1324 60.3797 53.1314C73.4572 53.1208 86.5346 53.1176 99.6121 53.1218C100.585 53.1212 101.557 53.0423 102.529 53.0005C102.722 53.5545 102.71 54.1594 102.495 54.7054C102.063 54.9404 101.564 55.0235 101.079 54.9413C86.8488 54.9472 72.6183 54.9477 58.3879 54.9429C57.965 54.9177 57.5442 54.8659 57.1279 54.7877Z" fill="#DADADF"/>
<path d="M60.7637 80.4515C61.0042 80.2137 61.3257 80.0755 61.6638 80.0647C62.0019 80.0538 62.3316 80.1711 62.5868 80.393C62.3203 80.5761 62.0069 80.6789 61.6838 80.6892C61.3607 80.6996 61.0413 80.6171 60.7637 80.4515Z" fill="#04434F"/>
<path d="M11.1133 45.6591C11.1743 45.65 11.2366 45.6554 11.2952 45.6746C11.3538 45.6938 11.4071 45.7264 11.4509 45.7699C11.4852 45.9721 11.4752 46.1793 11.4216 46.3773C11.3681 46.5753 11.2723 46.7593 11.1407 46.9166C11.1316 46.4972 11.1225 46.078 11.1133 45.6591Z" fill="#DADADF"/>
<path d="M11.1416 49.1899C11.1698 49.2622 11.191 49.337 11.2048 49.4133C11.2073 49.4385 11.1462 49.4702 11.1142 49.4986C11.0937 49.4488 11.0854 49.3947 11.0902 49.3409C11.0949 49.2872 11.1126 49.2354 11.1416 49.1899Z" fill="#DADADF"/>
<path d="M11.4275 51.699L11.0732 51.7972C11.0802 51.6412 11.0873 51.485 11.0945 51.3286C11.2055 51.4518 11.3165 51.5753 11.4275 51.699Z" fill="#DADADF"/>
<path d="M66.313 24.9911C66.3132 26.2815 66.0583 27.5593 65.5629 28.7508C65.0674 29.9423 64.3412 31.024 63.4261 31.9338C62.511 32.8436 61.425 33.5635 60.2306 34.0519C59.0363 34.5404 57.7571 34.7879 56.4667 34.7801C51.641 34.761 47.3411 30.0979 47.3097 24.8498C47.2801 19.8831 51.8331 15.0791 56.512 15.1402C57.8029 15.1417 59.0808 15.3979 60.2725 15.8941C61.4641 16.3903 62.5462 17.1168 63.4567 18.0319C64.3671 18.947 65.0881 20.0327 65.5782 21.2269C66.0684 22.4211 66.3181 23.7003 66.313 24.9911ZM56.3259 16.4226C55.9996 16.1917 55.6077 16.0717 55.2081 16.0806C54.8085 16.0895 54.4223 16.2267 54.1066 16.472C52.1206 17.8432 50.0176 18.9206 48.925 21.4331C47.272 25.2344 48.7581 30.7687 52.3925 32.7364C53.0031 33.1285 53.6556 33.4513 54.3378 33.6988C55.2914 33.9615 56.4507 34.7985 57.0776 33.175C57.6778 32.4886 58.4565 31.9822 59.3272 31.7119C60.4833 31.2702 61.4437 30.4304 62.0359 29.3437C62.628 28.257 62.8129 26.9946 62.5574 25.7837C61.7825 27.0539 60.7991 28.1844 59.6486 29.1278C58.6811 29.7689 57.9424 29.9899 57.9697 28.3728C57.9965 26.7844 57.9775 25.1949 57.9575 23.6062C57.9445 22.5775 58.3399 22.0804 59.4077 22.4371C59.8857 22.5968 60.3517 22.8035 60.7129 22.2697C60.8285 22.124 60.8914 21.9434 60.8915 21.7574C60.8916 21.5714 60.8289 21.3908 60.7134 21.2449C60.3295 20.7609 59.8661 20.9416 59.385 21.1108C58.9903 21.2496 58.51 21.4149 58.1916 21.0212C57.8653 20.6177 58.1976 20.2402 58.3874 19.8572C59.4604 17.6922 58.8073 16.6145 56.3259 16.4226V16.4226Z" fill="#DADADF"/>
<path d="M16.7363 44.3798L16.8103 44.2598L16.8953 44.3688L16.8183 44.4238L16.7363 44.3798Z" fill="#DADADF"/>
<path d="M57.0777 33.1749C56.4508 34.7984 55.2915 33.9614 54.3378 33.6987C53.6556 33.4512 53.0032 33.1284 52.3925 32.7363C48.7581 30.7686 47.2721 25.2343 48.9251 21.433C50.0176 18.9205 52.1207 17.843 54.1067 16.4719C54.4224 16.2267 54.8086 16.0894 55.2083 16.0805C55.6079 16.0716 55.9999 16.1915 56.3262 16.4224C54.8684 17.2882 54.3759 18.3887 55.4591 19.8961C55.7037 20.2365 56.0096 20.6328 55.6266 21.0395C55.4624 21.1799 55.2583 21.2654 55.0429 21.2839C54.8276 21.3025 54.6119 21.2531 54.426 21.1428C53.9354 20.9562 53.4737 20.8858 53.099 21.3424C53.0032 21.463 52.9498 21.6118 52.9471 21.7658C52.9445 21.9197 52.9927 22.0703 53.0843 22.1941C53.4142 22.7456 53.8757 22.621 54.3641 22.4427C55.5504 22.0097 55.8938 22.5538 55.8585 23.6767C55.8144 25.079 55.8938 26.4851 55.8526 27.8876C55.8357 28.463 56.1197 29.2691 55.4659 29.5557C54.7887 29.8526 54.1586 29.2863 53.7018 28.8256C52.7792 27.895 51.9493 26.8726 50.7952 25.5639C51.1085 28.2643 51.7555 30.3333 53.9349 31.4329C55.0176 31.9478 56.0673 32.5295 57.0777 33.1749Z" fill="#F3F4F7"/>
<path d="M57.0774 33.1747C56.067 32.5294 55.0173 31.9477 53.9346 31.4328C51.7552 30.3332 51.1083 28.2643 50.7949 25.5638C51.949 26.8726 52.7789 27.895 53.7015 28.8255C54.1583 29.2863 54.7885 29.8525 55.4657 29.5556C56.1194 29.269 55.8354 28.4629 55.8523 27.8875C55.8935 26.4851 55.8141 25.0789 55.8582 23.6766C55.8936 22.5537 55.5501 22.0096 54.3639 22.4426C53.8754 22.6209 53.4139 22.7455 53.084 22.1941C52.9924 22.0702 52.9442 21.9197 52.9469 21.7657C52.9495 21.6117 53.0029 21.4629 53.0987 21.3423C53.4734 20.8858 53.9351 20.9561 54.4258 21.1427C54.6116 21.2531 54.8273 21.3024 55.0427 21.2839C55.258 21.2653 55.4621 21.1799 55.6264 21.0394C56.0094 20.6328 55.7034 20.2364 55.4588 19.8961C54.3756 18.3886 54.8681 17.2881 56.3259 16.4224C58.807 16.6144 59.4602 17.6921 58.3872 19.857C58.1974 20.24 57.8651 20.6176 58.1914 21.021C58.5098 21.4148 58.9901 21.2494 59.3848 21.1106C59.8659 20.9414 60.3293 20.7607 60.7132 21.2447C60.8287 21.3906 60.8914 21.5712 60.8913 21.7572C60.8912 21.9433 60.8283 22.1238 60.7127 22.2696C60.3515 22.8033 59.8855 22.5967 59.4075 22.437C58.3397 22.0803 57.9443 22.5774 57.9573 23.6061C57.9773 25.1948 57.9963 26.7843 57.9695 28.3727C57.9422 29.9898 58.6809 29.7688 59.6484 29.1277C60.7989 28.1843 61.7823 27.0538 62.5572 25.7836C62.8127 26.9945 62.6278 28.2568 62.0357 29.3435C61.4435 30.4303 60.4831 31.27 59.327 31.7118C58.4563 31.982 57.6776 32.4884 57.0774 33.1747ZM57.9416 18.4464C57.8349 17.8735 57.5516 17.4372 56.8975 17.4109C56.7605 17.3916 56.621 17.403 56.4889 17.4442C56.3569 17.4855 56.2357 17.5555 56.134 17.6493C56.0324 17.7431 55.9528 17.8584 55.9012 17.9867C55.8495 18.115 55.827 18.2532 55.8353 18.3912C55.8113 19.0863 56.1762 19.6017 56.9093 19.5469C57.1901 19.5323 57.4545 19.4095 57.6469 19.2044C57.8393 18.9993 57.9449 18.7276 57.9416 18.4464Z" fill="#04434F"/>
<path d="M57.942 18.4465C57.9453 18.7277 57.8397 18.9993 57.6473 19.2044C57.4549 19.4096 57.1905 19.5323 56.9097 19.5469C56.1766 19.6017 55.8117 19.0863 55.8357 18.3913C55.8274 18.2532 55.8499 18.115 55.9016 17.9867C55.9532 17.8584 56.0328 17.7432 56.1344 17.6494C56.236 17.5556 56.3573 17.4855 56.4893 17.4443C56.6213 17.4031 56.7609 17.3917 56.8979 17.411C57.5519 17.4372 57.8353 17.8736 57.942 18.4465Z" fill="#DADADF"/>
</svg>
