<svg width="110" height="86" viewBox="0 0 110 86" fill="none" xmlns="http://www.w3.org/2000/svg">
<path d="M104.285 43.9174C104.153 44.9329 104.913 45.0816 105.616 45.346C106.856 45.7376 107.926 46.5375 108.653 47.6153C109.38 48.6932 109.72 49.9854 109.618 51.2814C109.633 52.618 109.165 53.915 108.3 54.9346C107.436 55.9541 106.233 56.6278 104.912 56.8321C103.641 57.0633 103.599 57.6276 103.796 58.5554C104.229 60.5928 104.589 62.6517 105.15 64.6537C105.381 65.3152 105.4 66.0321 105.205 66.705C105.01 67.3779 104.61 67.9733 104.061 68.4085C101.293 71.0091 98.6095 73.7008 95.908 76.372C95.3078 76.9909 94.5321 77.4107 93.6856 77.5747C81.898 79.8395 70.1598 82.3617 58.3244 84.3779C57.9784 84.0844 57.7581 84.2313 57.5973 84.586C56.669 84.911 55.6864 85.0527 54.7041 85.0032C54.6945 76.7399 54.6558 68.476 54.7002 60.2125C54.7089 58.5861 54.2039 57.9941 52.5043 57.8885C50.3058 57.7519 48.1364 57.8959 45.9515 57.9138C36.0354 57.9952 26.1183 57.9305 16.2018 57.9729C14.7335 57.9792 13.3446 57.418 11.8312 57.6822C9.91693 58.0163 7.95752 58.0916 6.01754 58.2785C5.91935 57.9255 5.72616 57.6063 5.45904 57.3555C5.19192 57.1047 4.8611 56.932 4.50262 56.8563C3.24403 56.5519 2.12159 55.8394 1.31045 54.8301C0.499311 53.8208 0.0450921 52.5713 0.0186706 51.2767C-0.184039 48.57 1.28191 46.8037 3.53881 45.5891C4.22463 45.2199 4.81406 44.848 4.66702 43.9388C20.4696 43.9474 36.2722 43.9545 52.0749 43.9603C52.9295 43.9605 53.7842 43.9 54.639 43.8677C71.188 43.8842 87.7368 43.9008 104.285 43.9174ZM11.6325 53.1808C12.1962 53.9089 12.9954 53.5757 13.6804 53.5769C26.6059 53.6 39.5314 53.6043 52.457 53.5898C53.1855 53.5894 53.9138 53.4917 54.6423 53.4393C55.189 53.4733 55.7358 53.5368 56.2826 53.537C69.3762 53.5433 82.4698 53.5452 95.5634 53.5429C97.8761 53.5428 97.8595 53.5401 97.7409 51.3062C97.6818 50.7585 97.7382 50.2046 97.9064 49.6801C98.5225 48.1433 97.804 47.978 96.4898 47.9908C91.1672 48.0424 85.8438 48.0002 80.5206 48.011C71.8959 48.0284 63.2712 48.0534 54.6464 48.086C53.9169 48.0472 53.1873 47.9753 52.4578 47.9747C43.4704 47.9673 34.4831 47.9672 25.4958 47.9745C20.9137 47.9817 16.3316 48.0309 11.7496 48.0611C11.2742 47.9082 11.1952 48.1 11.3626 48.5061C11.5226 49.0694 11.6826 49.6327 11.8426 50.196C11.6864 50.8202 11.6788 51.4724 11.8203 52.1001L11.6462 52.8129C11.3899 52.9261 11.2534 53.0438 11.6324 53.1808H11.6325ZM107.663 51.1431C107.684 50.3485 107.47 49.5654 107.048 48.8921C106.625 48.2187 106.013 47.6853 105.289 47.3586C104.564 47.0319 103.759 46.9267 102.975 47.056C102.19 47.1853 101.462 47.5434 100.88 48.0854C100.299 48.6275 99.8906 49.3292 99.7067 50.1025C99.5228 50.8758 99.5714 51.6862 99.8465 52.4319C100.122 53.1777 100.611 53.8255 101.253 54.294C101.895 54.7626 102.661 55.031 103.455 55.0656C104.533 55.1016 105.581 54.709 106.37 53.9737C107.158 53.2385 107.623 52.2206 107.663 51.1431H107.663ZM1.82787 50.8201C1.77283 51.9049 2.15036 52.9672 2.87762 53.774C3.60488 54.5808 4.62247 55.0661 5.70715 55.1236C6.79182 55.181 7.85498 54.8058 8.66335 54.0803C9.47173 53.3548 9.9593 52.3383 10.0191 51.2537C10.0604 50.1714 9.68192 49.115 8.96267 48.3052C8.24343 47.4954 7.23907 46.9948 6.15945 46.908C5.07654 46.8914 4.02757 47.2858 3.22381 48.0117C2.42005 48.7376 1.92124 49.7411 1.82784 50.8201L1.82787 50.8201Z" fill="#002531"/>
<path d="M54.6394 43.8679C53.7848 43.9002 52.9301 43.9607 52.0755 43.9605C36.2729 43.9577 20.4702 43.9505 4.66761 43.939C4.57939 43.071 4.49111 42.2031 4.40278 41.3354C4.62887 41.0455 4.52307 40.8333 4.24391 40.6619C4.16687 40.2781 4.08981 39.8944 4.01274 39.5109C4.35674 38.9305 3.97112 38.5404 3.65223 38.1329C2.61537 33.2816 1.6126 28.4226 0.519083 23.5842C0.224213 22.2793 0.687485 21.7248 1.84822 21.256C18.9395 14.3521 36.0228 7.42817 53.098 0.48424C53.7055 0.23792 54.2879 -0.211485 55.0115 0.114245C54.7568 1.30397 54.6461 2.52002 54.6817 3.73619C54.6037 7.325 54.7153 10.9154 55.0161 14.4924C54.3566 14.6231 53.6971 14.7538 53.0376 14.8844C51.3213 15.2019 49.7029 15.9161 48.3116 16.9701C46.9204 18.0242 45.7947 19.3888 45.0245 20.9551C44.2544 22.5215 43.861 24.2461 43.8758 25.9915C43.8906 27.7369 44.3132 29.4547 45.1098 31.0078C47.1578 35.0441 50.7142 36.8038 55.0385 37.3017C54.3978 39.4596 54.8356 41.683 54.6394 43.8679Z" fill="#F3F4F7"/>
<path d="M55.0162 14.4924C54.7154 10.9154 54.6038 7.32498 54.6818 3.73617C54.6461 2.52 54.7568 1.30395 55.0116 0.114221C55.8696 0.0802969 56.7184 0.302253 57.45 0.751856C71.3487 6.3884 85.2452 12.0305 99.1395 17.6783C102.088 18.8781 104.99 20.1943 107.957 21.346C109.131 21.8017 109.361 22.3679 109.06 23.561C107.545 29.5535 106.111 35.5665 104.668 41.5769C104.484 42.3434 104.411 43.1366 104.287 43.9175C87.7374 43.901 71.1884 43.8845 54.6396 43.8679C54.8356 41.683 54.3979 39.4596 55.0388 37.3017C55.6923 37.1599 56.3489 37.0316 56.9985 36.8743C59.2817 36.3763 61.349 35.1693 62.9048 33.4258C64.4607 31.6823 65.4256 29.4915 65.6616 27.1667C65.9359 24.8453 65.4805 22.4961 64.3587 20.4453C63.2369 18.3946 61.5044 16.744 59.4017 15.7229C57.9857 15.1641 56.5162 14.7518 55.0162 14.4924Z" fill="#DADADF"/>
<path d="M6.01823 58.2784C7.95823 58.0914 9.91762 58.0162 11.8319 57.6821C13.3453 57.4179 14.7342 57.9791 16.2025 57.9728C26.119 57.9304 36.0361 57.9951 45.9522 57.9138C48.1371 57.8958 50.3065 57.7518 52.505 57.8884C54.2046 57.994 54.7096 58.586 54.7009 60.2124C54.6565 68.4759 54.6952 76.7398 54.7048 85.0031C51.2058 84.8381 47.8503 83.8403 44.4368 83.1949C35.2482 81.4574 26.0807 79.6091 16.8956 77.8524C15.5676 77.6239 14.3426 76.9907 13.3881 76.0395C10.8576 73.5555 8.30715 71.0896 5.701 68.6855C5.05897 68.2219 4.58902 67.5583 4.36491 66.7987C4.1408 66.0392 4.17519 65.2267 4.46272 64.4889C5.14685 62.4728 5.23287 60.2845 6.01823 58.2784Z" fill="#04434F"/>
<path d="M3.65208 38.1328C3.97101 38.5403 4.35659 38.9304 4.01264 39.5108C3.83632 39.3333 3.71009 39.1124 3.64677 38.8704C3.58344 38.6284 3.58527 38.3739 3.65208 38.1328Z" fill="#DADADF"/>
<path d="M4.24398 40.6616C4.52314 40.833 4.62897 41.0452 4.40286 41.3351C4.34567 41.3037 4.29572 41.2607 4.25622 41.2087C4.21673 41.1568 4.18856 41.0972 4.17358 41.0337C4.1586 40.9702 4.15712 40.9043 4.16925 40.8402C4.18137 40.7761 4.20685 40.7153 4.24398 40.6616Z" fill="#DADADF"/>
<path d="M57.5977 84.5859C57.7585 84.2313 57.9788 84.0844 58.3248 84.3779C58.2461 84.4909 58.1307 84.5733 57.9983 84.6112C57.8658 84.6491 57.7243 84.6402 57.5977 84.5859Z" fill="#04434F"/>
<path d="M54.6466 48.0861C63.2713 48.0604 71.896 48.0353 80.5208 48.0111C85.8439 48.0003 91.1673 48.0425 96.4899 47.9909C97.8042 47.9781 98.5226 48.1435 97.9065 49.6802C97.7383 50.2047 97.6819 50.7587 97.741 51.3063C97.8596 53.5402 97.8762 53.5429 95.5635 53.543C82.4699 53.5436 69.3763 53.5416 56.2827 53.5372C55.7359 53.5369 55.1892 53.4735 54.6426 53.4394C54.644 51.655 54.6453 49.8705 54.6466 48.0861Z" fill="#B79F42"/>
<path d="M54.6472 48.0862C54.6458 49.8707 54.6445 51.6551 54.6432 53.4395C53.9145 53.4919 53.1861 53.5896 52.4577 53.59C39.5321 53.5981 26.6066 53.5939 13.6811 53.5771C12.9961 53.5759 12.1969 53.9091 11.6333 53.1811L11.6469 52.8132L11.821 52.1003C11.9958 52.0113 12.1429 51.8761 12.2464 51.7095C12.3499 51.5429 12.4058 51.3511 12.4081 51.155C12.4104 50.9589 12.359 50.7658 12.2594 50.5968C12.1598 50.4278 12.0159 50.2893 11.8433 50.1962C11.6833 49.6329 11.5233 49.0696 11.3633 48.5063L11.7503 48.0613C16.3323 48.0311 20.9143 47.982 25.4964 47.9748C34.4838 47.9608 43.4711 47.9609 52.4584 47.975C53.188 47.9756 53.9176 48.0475 54.6472 48.0862Z" fill="#B79F42"/>
<path d="M1.82852 50.8203C1.92191 49.7413 2.4207 48.7378 3.22445 48.0119C4.0282 47.286 5.07716 46.8916 6.16006 46.9082C7.23969 46.995 8.24404 47.4955 8.96328 48.3053C9.68253 49.1152 10.061 50.1716 10.0197 51.2539C9.95994 52.3384 9.47238 53.355 8.664 54.0805C7.85562 54.806 6.79243 55.1812 5.70776 55.1237C4.62309 55.0663 3.60549 54.581 2.87823 53.7742C2.15097 52.9674 1.77347 51.9051 1.82852 50.8203Z" fill="#B79F42"/>
<path d="M11.8428 50.1958C12.0154 50.2889 12.1593 50.4274 12.2589 50.5964C12.3585 50.7654 12.4099 50.9584 12.4076 51.1546C12.4053 51.3507 12.3494 51.5424 12.2459 51.7091C12.1424 51.8757 11.9953 52.0108 11.8205 52.0999C11.679 51.4722 11.6866 50.82 11.8428 50.1958Z" fill="#DADADF"/>
<path d="M11.6468 52.813L11.6332 53.1809C11.254 53.0438 11.3905 52.9261 11.6468 52.813Z" fill="#DADADF"/>
<path d="M11.3624 48.5062C11.195 48.1001 11.274 47.9083 11.7494 48.0612L11.3624 48.5062Z" fill="#DADADF"/>
<path d="M55.0157 14.4922C56.5157 14.7516 57.9853 15.1639 59.4013 15.7227C61.504 16.7438 63.2365 18.3944 64.3583 20.4451C65.4801 22.4959 65.9354 24.8451 65.6611 27.1664C65.4252 29.4913 64.4603 31.6821 62.9044 33.4256C61.3485 35.1691 59.2813 36.3761 56.9981 36.8741C56.3486 37.0314 55.692 37.1597 55.0384 37.3015C50.7139 36.8037 47.1574 35.044 45.1094 31.0076C44.3128 29.4545 43.8902 27.7368 43.8754 25.9914C43.8606 24.246 44.254 22.5213 45.0241 20.9549C45.7943 19.3885 46.92 18.0239 48.3113 16.9698C49.7025 15.9158 51.3209 15.2016 53.0373 14.8842C53.6968 14.7536 54.3562 14.6229 55.0157 14.4922ZM61.2394 26.8461C60.3345 28.4842 59.0637 29.8914 57.5261 30.958C56.5864 31.5159 55.8999 31.5052 55.9234 30.0992C55.9561 28.1391 55.9447 26.1774 55.9084 24.2173C55.8865 23.0333 56.4533 22.624 57.5126 22.9694C58.142 23.1747 58.6784 23.3916 59.1148 22.7029C59.203 22.577 59.2496 22.4267 59.248 22.273C59.2465 22.1194 59.1969 21.97 59.1061 21.8459C58.642 21.1401 58.0872 21.4341 57.4913 21.6519C57.0387 21.8172 56.4897 21.9315 56.1346 21.4651C55.7658 20.9808 56.0765 20.5449 56.3842 20.1451C56.459 20.0481 56.5363 19.9521 56.6014 19.8488C56.7879 19.6199 56.9244 19.3545 57.0022 19.0697C57.0801 18.7849 57.0974 18.487 57.0533 18.1951C57.0091 17.9032 56.9044 17.6237 56.7459 17.3747C56.5873 17.1256 56.3785 16.9125 56.1327 16.7489C55.7382 16.4114 55.2353 16.2275 54.7161 16.231C54.1969 16.2344 53.6965 16.4251 53.3066 16.7679C53.0752 16.9482 52.8818 17.1725 52.7376 17.4279C52.5934 17.6833 52.5012 17.9648 52.4665 18.256C52.4317 18.5473 52.4551 18.8425 52.5351 19.1247C52.6152 19.4069 52.7504 19.6704 52.9329 19.9C53.2342 20.3571 53.776 20.7675 53.467 21.3467C53.193 21.8602 52.6044 21.7154 52.145 21.5506C51.5599 21.3407 50.991 21.0217 50.4977 21.6845C50.3511 21.8451 50.2671 22.053 50.261 22.2704C50.2549 22.4878 50.3272 22.7001 50.4646 22.8687C50.951 23.5071 51.528 23.2426 52.1265 23.0645C53.3144 22.7108 53.63 23.2877 53.5941 24.3939C53.5365 26.1691 53.6005 27.948 53.5675 29.7245C53.5581 30.2327 53.8525 30.9515 53.2427 31.1974C52.7397 31.4001 52.2082 30.9602 51.7488 30.6606C50.2396 29.6763 49.4114 28.0617 48.2256 26.6404C47.9927 27.9529 48.1843 29.3054 48.7724 30.5016C49.3605 31.6979 50.3146 32.6755 51.4961 33.2926C52.6372 33.7891 53.7256 34.9115 54.6375 34.9649C55.6735 35.0254 56.8115 33.7481 58.0202 33.1977C59.1792 32.6387 60.1222 31.714 60.7039 30.5663C61.2856 29.4185 61.4738 28.1113 61.2394 26.8461H61.2394Z" fill="#002531"/>
<path d="M61.2392 26.8462C61.4736 28.1114 61.2854 29.4186 60.7037 30.5664C60.122 31.7141 59.1789 32.6387 58.0199 33.1977C56.8112 33.7481 55.6733 35.0255 54.6372 34.9649C53.7252 34.9116 52.637 33.7891 51.4959 33.2927C50.3143 32.6755 49.3603 31.6979 48.7721 30.5017C48.184 29.3055 47.9925 27.9529 48.2253 26.6405C49.4112 28.0618 50.2394 29.6763 51.7486 30.6606C52.2079 30.9602 52.7394 31.4002 53.2424 31.1974C53.8523 30.9516 53.5578 30.2327 53.5673 29.7245C53.6003 27.948 53.5363 26.1692 53.5939 24.394C53.6297 23.2878 53.3142 22.7109 52.1263 23.0645C51.5277 23.2427 50.9507 23.5072 50.4643 22.8687C50.3269 22.7001 50.2547 22.4878 50.2608 22.2704C50.2668 22.0531 50.3509 21.8451 50.4975 21.6845C50.9907 21.0218 51.5596 21.3408 52.1447 21.5506C52.6042 21.7154 53.1927 21.8602 53.4667 21.3468C53.7757 20.7675 53.2339 20.3572 52.9326 19.9C52.7501 19.6704 52.6149 19.4069 52.5349 19.1247C52.4548 18.8426 52.4315 18.5473 52.4662 18.2561C52.501 17.9648 52.5931 17.6834 52.7373 17.4279C52.8815 17.1725 53.0749 16.9482 53.3063 16.768C53.6962 16.4252 54.1967 16.2345 54.7158 16.231C55.235 16.2275 55.738 16.4114 56.1324 16.749C56.3782 16.9125 56.5871 17.1257 56.7456 17.3747C56.9042 17.6238 57.0089 17.9032 57.053 18.1951C57.0972 18.4871 57.0798 18.785 57.002 19.0698C56.9241 19.3545 56.7876 19.6199 56.6012 19.8488C56.536 19.9522 56.4587 20.0482 56.384 20.1452C56.0762 20.545 55.7656 20.9808 56.1343 21.4652C56.4895 21.9316 57.0384 21.8173 57.491 21.6519C58.087 21.4342 58.6417 21.1401 59.1059 21.846C59.1966 21.97 59.2462 22.1194 59.2478 22.2731C59.2493 22.4268 59.2027 22.5771 59.1145 22.703C58.6781 23.3917 58.1418 23.1747 57.5123 22.9695C56.453 22.6241 55.8862 23.0334 55.9081 24.2173C55.9444 26.1775 55.9559 28.1391 55.9231 30.0992C55.8996 31.5052 56.5861 31.5159 57.5258 30.9581C59.0635 29.8914 60.3342 28.4843 61.2392 26.8462ZM56.1297 18.5873C56.056 17.7732 55.6069 17.2403 54.8592 17.2652C54.6892 17.2597 54.5199 17.2904 54.3627 17.3553C54.2054 17.4202 54.0638 17.5178 53.9471 17.6416C53.8305 17.7654 53.7415 17.9125 53.686 18.0734C53.6306 18.2342 53.61 18.4049 53.6256 18.5743C53.6225 18.7285 53.6504 18.8818 53.7077 19.025C53.765 19.1683 53.8504 19.2985 53.959 19.4081C54.0675 19.5177 54.197 19.6043 54.3397 19.6629C54.4824 19.7214 54.6354 19.7507 54.7897 19.749C55.6024 19.8108 55.9818 19.2936 56.1297 18.5873H56.1297Z" fill="#DADADF"/>
<path d="M56.1303 18.5871C55.9823 19.2935 55.6029 19.8106 54.7902 19.7489C54.636 19.7505 54.483 19.7212 54.3403 19.6627C54.1976 19.6041 54.0681 19.5175 53.9595 19.4079C53.851 19.2983 53.7655 19.1681 53.7082 19.0249C53.651 18.8816 53.623 18.7284 53.6261 18.5741C53.6106 18.4048 53.6312 18.234 53.6866 18.0732C53.7421 17.9123 53.831 17.7652 53.9477 17.6414C54.0644 17.5176 54.206 17.42 54.3633 17.3551C54.5205 17.2902 54.6897 17.2595 54.8597 17.265C55.6074 17.2401 56.0566 17.773 56.1303 18.5871Z" fill="#002531"/>
</svg>
