<svg width="115" height="80" viewBox="0 0 115 80" fill="none" xmlns="http://www.w3.org/2000/svg">
<path d="M10.5094 49.551C8.71129 47.5631 6.46347 46.066 4.72072 43.9903C-2.69228 35.161 -0.594401 24.8321 6.76451 18.0908C12.3295 12.9928 19.1383 10.0941 26.1328 7.55126C35.7875 4.19838 45.7142 1.6874 55.8019 0.0464727C57.0844 -0.0729569 58.3778 0.0382611 59.621 0.374842C72.5574 2.6471 85.2761 5.68773 97.1879 11.4218C100.998 13.1164 104.508 15.4177 107.581 18.236C117.03 27.4 115.811 39.276 106.025 47.3928C105.24 48.0444 104.289 48.5433 103.876 49.5679C103.573 49.5413 103.269 49.4902 102.964 49.4902C88.0528 49.4888 73.1412 49.4929 58.2296 49.5025C57.7474 49.5332 57.2679 49.596 56.7941 49.6907C56.1865 49.6482 55.5789 49.5691 54.9713 49.5687C40.1507 49.5577 25.33 49.5518 10.5094 49.551Z" fill="#DADADF"/>
<path d="M104.889 58.1177C105.347 61.2974 104.701 64.5382 103.059 67.299C101.416 70.0598 98.8756 72.1734 95.8621 73.287C88.982 75.7823 81.767 76.8735 74.5704 77.9762C72.0956 78.3555 69.5897 78.5316 67.0981 78.8005C67.031 78.7186 66.9455 78.6536 66.8485 78.6111C66.7515 78.5685 66.6458 78.5495 66.5401 78.5557C66.4344 78.5618 66.3316 78.5929 66.2402 78.6465C66.1488 78.7 66.0713 78.7743 66.0142 78.8635C65.1459 78.9552 64.2776 79.0468 63.4094 79.1385C63.0847 78.8966 62.6828 78.7819 62.2794 78.8159C61.876 78.85 61.4989 79.0304 61.2194 79.3233C59.8974 79.5681 58.546 79.6113 57.2111 79.4515C57.1887 73.7147 57.1385 67.9775 57.1562 62.2406C57.1644 59.5961 56.6469 58.9829 54.0475 58.9826C39.975 58.9809 25.9025 58.9773 11.83 58.9719C11.0016 58.971 10.0952 59.2214 9.39258 58.5029C9.68061 58.4192 9.97592 58.3631 10.2746 58.3354C38.9984 58.3052 67.7222 58.2768 96.446 58.2504C99.2606 58.3601 102.079 58.3158 104.889 58.1177Z" fill="#002531"/>
<path d="M9.39323 58.5029C10.0958 59.2215 11.0023 58.9711 11.8307 58.972C25.9032 58.986 39.9757 58.9896 54.0482 58.9827C56.6476 58.983 57.1651 59.5962 57.1569 62.2407C57.1391 67.9776 57.1894 73.7148 57.2118 79.4516C52.0457 79.7647 46.9553 78.936 41.8665 78.3051C34.9438 77.4329 28.0853 76.1112 21.3343 74.3482C13.231 72.2497 8.72517 66.3797 9.09098 58.3472C9.20541 58.3666 9.31099 58.421 9.39323 58.5029Z" fill="#04434F"/>
<path d="M9.39287 58.5032C9.31064 58.4213 9.20505 58.3668 9.09062 58.3474C8.27254 56.4148 9.19572 54.7102 9.79277 52.9636C26.1271 52.999 42.4611 53.0328 58.7948 53.0649C73.1107 53.0804 87.4267 53.074 101.743 53.0456C102.639 53.0442 103.579 53.3337 104.437 52.812C105.421 54.5095 105.178 56.312 104.89 58.1182C102.08 58.3161 99.2612 58.3604 96.4463 58.2507C67.7225 58.29 38.9987 58.3183 10.2749 58.3358C9.97622 58.3635 9.68089 58.4195 9.39287 58.5032Z" fill="#002531"/>
<path d="M104.437 52.812C103.579 53.3336 102.639 53.0441 101.743 53.0455C87.4269 53.0672 73.1109 53.0736 58.795 53.0648C42.4611 53.0471 26.1271 53.0133 9.79297 52.9635C9.9198 52.6365 10.0469 52.31 10.1741 51.9838C25.0448 51.9855 39.9156 51.9857 54.7866 51.9846C57.0026 51.9838 57.165 51.7752 56.7948 49.691C57.2686 49.5963 57.7481 49.5335 58.2303 49.5028C73.1419 49.4902 88.0535 49.4861 102.965 49.4905C103.269 49.4905 103.573 49.5416 103.877 49.5682C103.573 50.7337 104.259 51.729 104.437 52.812Z" fill="#002531"/>
<path d="M56.8452 50.6851C57.2171 60.949 57.0539 61.9759 54.8273 61.9801C39.8848 62.0079 24.9423 62.0066 10 61.9761C10.1124 57.9842 10.2248 53.9922 10.3371 50C25.2295 50.0174 40.1217 50.0454 55.0136 50.0842C55.6241 50.0864 56.2347 50.476 56.8452 50.6851Z" fill="#04434F"/>
<path d="M61.2197 79.3233C61.4992 79.0304 61.8762 78.85 62.2797 78.8159C62.6831 78.7819 63.085 78.8966 63.4097 79.1385C63.0827 79.3337 62.7155 79.4518 62.336 79.4838C61.9566 79.5159 61.5748 79.461 61.2197 79.3233Z" fill="#04434F"/>
<path d="M66.0146 78.8636C66.0718 78.7745 66.1492 78.7001 66.2406 78.6466C66.332 78.5931 66.4348 78.562 66.5405 78.5558C66.6462 78.5497 66.7519 78.5687 66.8489 78.6112C66.9459 78.6538 67.0314 78.7187 67.0985 78.8007C66.9599 78.9474 66.7706 79.0356 66.5691 79.0473C66.3676 79.059 66.1693 78.9933 66.0146 78.8636Z" fill="#04434F"/>
<path d="M56.8953 43.8596C56.7839 44.9566 56.8604 46.0645 57.1218 47.1357C57.3609 48.3813 56.9758 49.0754 55.5044 49.0719C41.1161 49.0376 26.7278 49.0294 12.3394 49.0473C11.7263 49.0974 11.1143 48.9379 10.6037 48.5948C5.15778 44.5256 1.07393 39.5161 0.657162 32.4643C0.398582 28.0894 2.31328 24.2315 5.02584 20.8658C8.35924 16.7298 12.8733 14.1463 17.5279 11.8088C22.8976 9.16344 28.5145 7.05239 34.2973 5.5061C40.809 3.71156 47.3415 1.85181 54.116 1.17535C56.7839 0.908941 56.9729 0.859124 57.0872 3.71618C57.2609 8.05537 57.216 12.4091 57.0806 16.7509C57.0654 17.8399 57.1186 18.9288 57.2398 20.0111L56.8953 43.8596Z" fill="#F3F4F7"/>
</svg>
