<svg width="24" height="24" viewBox="0 0 24 24" fill="none" xmlns="http://www.w3.org/2000/svg">
<path d="M12.1529 23.6239C13.0944 23.5937 13.9997 23.2542 14.7289 22.6579C14.7729 22.6229 14.8276 22.6038 14.8839 22.6038C14.9402 22.6038 14.9948 22.6229 15.0389 22.6579C15.7531 23.2562 16.6533 23.5871 17.5849 23.5939C18.5315 23.5832 19.4501 23.2707 20.2069 22.7019C20.2523 22.669 20.3074 22.6522 20.3635 22.6544C20.4195 22.6566 20.4732 22.6775 20.5159 22.7139C21.1791 23.2854 22.0265 23.5979 22.9019 23.5939C23.1671 23.5939 23.4215 23.4886 23.609 23.301C23.7965 23.1135 23.9019 22.8591 23.9019 22.5939C23.9019 22.3287 23.7965 22.0743 23.609 21.8868C23.4215 21.6993 23.1671 21.5939 22.9019 21.5939C22.587 21.585 22.28 21.4935 22.0115 21.3288C21.743 21.164 21.5224 20.9316 21.3719 20.6549C21.2894 20.5063 21.1719 20.3801 21.0295 20.2873C20.8871 20.1945 20.7242 20.1379 20.5549 20.1224C20.3856 20.1069 20.2152 20.133 20.0583 20.1985C19.9014 20.2639 19.7629 20.3667 19.6549 20.4979C19.4065 20.8164 19.0937 21.0789 18.7371 21.2685C18.3804 21.458 17.9878 21.5702 17.5849 21.5979C17.2243 21.5747 16.8739 21.469 16.5607 21.2891C16.2474 21.1091 15.9796 20.8597 15.7779 20.5599C15.6878 20.43 15.5693 20.3223 15.4313 20.2451C15.2933 20.1679 15.1395 20.1232 14.9816 20.1144C14.8237 20.1056 14.6659 20.133 14.5203 20.1944C14.3746 20.2559 14.2448 20.3497 14.1409 20.4689C14.1319 20.4809 13.1209 21.7029 12.0759 21.6219C11.9441 21.6121 11.8117 21.6291 11.6866 21.6718C11.5615 21.7146 11.4464 21.7822 11.3481 21.8705C11.2498 21.9589 11.1704 22.0662 11.1147 22.1861C11.059 22.3059 11.0281 22.4358 11.0239 22.5679C11.0169 22.6992 11.0358 22.8306 11.0796 22.9545C11.1234 23.0785 11.1913 23.1926 11.2792 23.2903C11.3672 23.388 11.4736 23.4674 11.5922 23.524C11.7109 23.5805 11.8396 23.6131 11.9709 23.6199C12.0319 23.6229 12.0929 23.6239 12.1529 23.6239Z" fill="#4D666F"/>
<path d="M14.7329 18.558C14.7761 18.5254 14.8288 18.5078 14.8829 18.5078C14.9371 18.5078 14.9897 18.5254 15.0329 18.558C15.5334 18.957 16.1128 19.2453 16.7329 19.404C17.0125 19.4673 17.2983 19.4992 17.5849 19.499C17.9801 19.4944 18.3725 19.4324 18.7499 19.315C19.2707 19.1546 19.7632 18.9141 20.2099 18.602C20.2544 18.5709 20.3078 18.5553 20.362 18.5575C20.4161 18.5596 20.4681 18.5795 20.5099 18.614C21.0481 19.0566 21.6966 19.3443 22.3859 19.446C22.5558 19.4758 22.7276 19.4935 22.8999 19.499C23.1651 19.499 23.4195 19.3937 23.607 19.2061C23.7946 19.0186 23.8999 18.7642 23.8999 18.499C23.8999 18.2338 23.7946 17.9794 23.607 17.7919C23.4195 17.6044 23.1651 17.499 22.8999 17.499C22.5849 17.49 22.2778 17.3984 22.0093 17.2334C21.7408 17.0685 21.5204 16.8359 21.3699 16.559C21.2872 16.4114 21.17 16.2861 21.0282 16.1938C20.8864 16.1014 20.7243 16.0449 20.5559 16.029C20.3875 16.013 20.2177 16.0382 20.0611 16.1023C19.9045 16.1664 19.7658 16.2675 19.6569 16.397C19.407 16.7148 19.0934 16.9768 18.7362 17.1663C18.379 17.3557 17.9862 17.4684 17.5829 17.497C17.2223 17.4737 16.8718 17.368 16.5585 17.1878C16.2452 17.0077 15.9775 16.758 15.7759 16.458C15.6855 16.3285 15.5668 16.2212 15.4288 16.1443C15.2908 16.0674 15.1371 16.0229 14.9794 16.0143C14.8216 16.0056 14.664 16.0329 14.5183 16.0942C14.3727 16.1555 14.243 16.2491 14.1389 16.368C14.1299 16.379 13.1189 17.578 12.0739 17.52C11.9422 17.5104 11.8098 17.5275 11.6848 17.5702C11.5598 17.613 11.4447 17.6806 11.3464 17.769C11.2482 17.8573 11.1688 17.9646 11.1131 18.0844C11.0573 18.2041 11.0263 18.334 11.0219 18.466C11.0149 18.5973 11.0339 18.7287 11.0777 18.8526C11.1215 18.9766 11.1893 19.0907 11.2773 19.1884C11.3652 19.2861 11.4716 19.3655 11.5903 19.4221C11.709 19.4786 11.8376 19.5112 11.9689 19.518C12.0299 19.518 12.0909 19.518 12.1509 19.518C12.4957 19.5128 12.838 19.4575 13.1669 19.354C13.7296 19.1778 14.2589 18.9088 14.7329 18.558Z" fill="#4D666F"/>
<path d="M3.07001 2.251C3.06372 2.54788 3.11677 2.84304 3.22604 3.11916C3.3353 3.39528 3.4986 3.64681 3.70634 3.85899C3.91408 4.07118 4.1621 4.23977 4.43584 4.35486C4.70959 4.46994 5.00355 4.52923 5.30051 4.52923C5.59746 4.52923 5.89143 4.46994 6.16517 4.35486C6.43892 4.23977 6.68693 4.07118 6.89467 3.85899C7.10242 3.64681 7.26571 3.39528 7.37498 3.11916C7.48425 2.84304 7.53729 2.54788 7.53101 2.251C7.51459 1.65367 7.26564 1.08634 6.83717 0.669827C6.4087 0.253311 5.83456 0.0205107 5.23701 0.0209969C4.94741 0.0221054 4.66094 0.0810109 4.3944 0.194261C4.12786 0.307511 3.88661 0.472826 3.68479 0.680518C3.48296 0.88821 3.32463 1.1341 3.21906 1.40377C3.11349 1.67345 3.06282 1.96148 3.07001 2.251Z" fill="#4D666F"/>
<path d="M10.1812 15.7301C10.2726 15.9135 10.4009 16.0759 10.5582 16.2072C10.7155 16.3384 10.8983 16.4357 11.0951 16.4927C11.2919 16.5497 11.4984 16.5654 11.7015 16.5386C11.9046 16.5118 12.0999 16.4432 12.2752 16.3371C12.5973 16.1229 12.8282 15.7965 12.9229 15.4214C13.0175 15.0463 12.9692 14.6495 12.7872 14.3081L10.9942 10.7201C10.8295 10.3917 10.5768 10.1156 10.2642 9.92256C9.95165 9.72954 9.59157 9.62724 9.2242 9.62709H6.8132C6.7469 9.62709 6.68331 9.60075 6.63643 9.55386C6.58954 9.50698 6.5632 9.44339 6.5632 9.37709V7.15509C6.56835 6.95703 6.53378 6.75995 6.46154 6.57547C6.3893 6.39098 6.28085 6.22283 6.14258 6.08093C6.00432 5.93903 5.83904 5.82625 5.65649 5.74925C5.47394 5.67224 5.27783 5.63257 5.0797 5.63257C4.88158 5.63257 4.68546 5.67224 4.50291 5.74925C4.32037 5.82625 4.15509 5.93903 4.01683 6.08093C3.87856 6.22283 3.77011 6.39098 3.69787 6.57547C3.62563 6.75995 3.59106 6.95703 3.5962 7.15509V11.1111C3.5962 11.5044 3.75245 11.8816 4.03056 12.1597C4.30868 12.4378 4.68589 12.5941 5.0792 12.5941H8.4582C8.50465 12.5941 8.55019 12.607 8.58973 12.6314C8.62928 12.6558 8.66129 12.6906 8.6822 12.7321L10.1812 15.7301Z" fill="#4D666F"/>
<path d="M1.43869 14.5558C1.46887 14.5826 1.4921 14.6164 1.50638 14.6542C1.52066 14.692 1.52557 14.7327 1.52069 14.7728L0.599686 22.6148C0.568691 22.8781 0.643564 23.143 0.80784 23.3512C0.972115 23.5593 1.21234 23.6937 1.47569 23.7248C1.51517 23.7296 1.55491 23.7319 1.59469 23.7318C1.83945 23.7315 2.07561 23.6415 2.25843 23.4787C2.44126 23.316 2.55805 23.0919 2.58669 22.8488L2.74769 21.4798C2.75479 21.419 2.78396 21.3629 2.82967 21.3221C2.87539 21.2814 2.93446 21.2589 2.99569 21.2588H6.83569C6.89691 21.2589 6.95599 21.2814 7.0017 21.3221C7.04741 21.3629 7.07658 21.419 7.08369 21.4798L7.27369 23.0958C7.30232 23.3389 7.41912 23.563 7.60194 23.7257C7.78477 23.8885 8.02092 23.9785 8.26569 23.9788C8.30546 23.9789 8.3452 23.9766 8.38469 23.9718C8.64803 23.9407 8.88826 23.8063 9.05253 23.5982C9.21681 23.39 9.29168 23.1251 9.26068 22.8618L8.27169 14.4558C8.20192 14.1648 8.04629 13.9014 7.825 13.6999C7.60371 13.4984 7.32697 13.3681 7.03069 13.3258H3.41169C3.16619 13.3244 2.93006 13.2314 2.74967 13.0649C2.56927 12.8983 2.45764 12.6704 2.43669 12.4258L2.09369 8.30579C2.08434 8.17462 2.04871 8.04666 1.98892 7.92953C1.92913 7.8124 1.8464 7.70848 1.74565 7.62396C1.6449 7.53944 1.52818 7.47604 1.40244 7.43753C1.27669 7.39902 1.14449 7.38619 1.01369 7.39979C0.750345 7.42173 0.50639 7.547 0.335128 7.74824C0.163865 7.94949 0.0792193 8.21034 0.0996857 8.47379L0.442686 12.5938C0.509639 13.3517 0.866414 14.0545 1.43869 14.5558ZM3.44369 15.5458C3.45124 15.4851 3.48072 15.4292 3.52657 15.3887C3.57243 15.3482 3.6315 15.3258 3.69269 15.3258H6.13769C6.19887 15.3258 6.25795 15.3482 6.3038 15.3887C6.34965 15.4292 6.37913 15.4851 6.38669 15.5458L6.44169 16.0128C6.44629 16.0486 6.44314 16.085 6.43244 16.1195C6.42174 16.154 6.40375 16.1858 6.37969 16.2128C6.35617 16.2391 6.32734 16.2601 6.2951 16.2744C6.26287 16.2887 6.22796 16.296 6.19269 16.2958H3.63769C3.60242 16.296 3.56751 16.2887 3.53527 16.2744C3.50303 16.2601 3.4742 16.2391 3.45069 16.2128C3.42662 16.1858 3.40863 16.154 3.39793 16.1195C3.38723 16.085 3.38408 16.0486 3.38869 16.0128L3.44369 15.5458ZM3.09969 18.5128C3.107 18.4521 3.13623 18.3961 3.1819 18.3554C3.22756 18.3147 3.28652 18.2921 3.34769 18.2918H6.48669C6.54798 18.2917 6.60717 18.3141 6.65292 18.3549C6.69868 18.3957 6.72779 18.4519 6.73469 18.5128L6.78969 18.9798C6.79394 19.0148 6.79069 19.0504 6.78016 19.0841C6.76963 19.1178 6.75206 19.1488 6.7286 19.1752C6.70515 19.2016 6.67636 19.2227 6.64413 19.2371C6.61191 19.2515 6.57699 19.2589 6.54169 19.2588H3.28769C3.25248 19.2586 3.21772 19.251 3.18564 19.2365C3.15357 19.222 3.12491 19.2009 3.10152 19.1746C3.07813 19.1482 3.06054 19.1173 3.04989 19.0838C3.03923 19.0502 3.03576 19.0148 3.03969 18.9798L3.09969 18.5128Z" fill="#4D666F"/>
</svg>
