<svg width="25" height="24" viewBox="0 0 25 24" fill="none" xmlns="http://www.w3.org/2000/svg">
<g clip-path="url(#clip0_255_1916)">
<path d="M23.357 23.2498C23.4925 23.2497 23.6255 23.213 23.7418 23.1434C23.8581 23.0738 23.9533 22.974 24.0174 22.8546C24.0815 22.7352 24.1121 22.6007 24.1059 22.4653C24.0996 22.33 24.0568 22.1988 23.982 22.0858L13.59 6.02582C13.5359 5.94397 13.507 5.84798 13.507 5.74982C13.507 5.65166 13.5359 5.55567 13.59 5.47382L15.69 2.30282C15.8222 2.08174 15.864 1.81818 15.8067 1.56706C15.7494 1.31594 15.5973 1.09662 15.3823 0.954813C15.1673 0.813004 14.9058 0.759641 14.6524 0.805842C14.399 0.852043 14.1732 0.994245 14.022 1.20282L12.774 3.08382C12.7285 3.15272 12.6665 3.20925 12.5937 3.24836C12.521 3.28747 12.4397 3.30793 12.357 3.30793C12.2744 3.30793 12.1931 3.28747 12.1203 3.24836C12.0476 3.20925 11.9856 3.15272 11.94 3.08382L10.691 1.19982C10.5399 0.991245 10.3141 0.849043 10.0607 0.802842C9.80727 0.756641 9.54581 0.810004 9.33078 0.951813C9.11574 1.09362 8.96372 1.31294 8.90639 1.56406C8.84907 1.81518 8.89085 2.07874 9.02304 2.29982L11.123 5.47082C11.1772 5.55267 11.2061 5.64866 11.2061 5.74682C11.2061 5.84498 11.1772 5.94097 11.123 6.02282L0.732039 22.0858C0.657237 22.1988 0.614447 22.33 0.608215 22.4653C0.601984 22.6007 0.632545 22.7352 0.69665 22.8546C0.760755 22.974 0.856009 23.0738 0.972288 23.1434C1.08857 23.213 1.22153 23.2497 1.35704 23.2498H23.357ZM11.857 9.24982C11.857 9.11721 11.9097 8.99003 12.0035 8.89626C12.0973 8.8025 12.2244 8.74982 12.357 8.74982C12.4896 8.74982 12.6168 8.8025 12.7106 8.89626C12.8044 8.99003 12.857 9.11721 12.857 9.24982V16.4068C12.8569 16.518 12.8939 16.626 12.962 16.7138L16.252 20.9428C16.3095 21.0167 16.3451 21.1053 16.3547 21.1984C16.3644 21.2916 16.3476 21.3855 16.3065 21.4696C16.2653 21.5537 16.2014 21.6246 16.1219 21.6741C16.0424 21.7237 15.9507 21.7499 15.857 21.7498H12.357C12.2244 21.7498 12.0973 21.6971 12.0035 21.6034C11.9097 21.5096 11.857 21.3824 11.857 21.2498V9.24982Z" fill="#4D666F"/>
</g>
<defs>
<clipPath id="clip0_255_1916">
<rect width="24" height="24" fill="white" transform="translate(0.357422)"/>
</clipPath>
</defs>
</svg>
