<svg width="49" height="51" viewBox="0 0 49 51" fill="none" xmlns="http://www.w3.org/2000/svg">
<path d="M38.9942 32.3044L39.0732 32.3L39.1207 32.2367C39.2329 32.0872 39.2983 31.9246 39.2983 31.7519C39.2983 31.5796 39.2332 31.4174 39.1215 31.2681C39.1212 31.2678 39.121 31.2674 39.1207 31.2671L20.6181 5.81005L20.6181 5.81004L20.6166 5.80796C20.5026 5.65609 20.3599 5.54915 20.1868 5.50585C20.0153 5.46293 19.8343 5.48766 19.6518 5.56082L19.6516 5.56027L19.6389 5.56661C19.3558 5.70839 19.0814 6.02172 19.1642 6.38511L21.7793 32.7261L21.7806 32.7385L21.7836 32.7507C21.8507 33.0181 21.9929 33.2692 22.245 33.3692C22.3082 33.4166 22.3808 33.4348 22.431 33.4432C22.4929 33.4535 22.5524 33.4534 22.5839 33.4534H22.5864C22.7472 33.4534 22.8991 33.3811 23.0142 33.3233C24.3417 33.245 26.4887 33.1031 28.8815 32.945C32.3107 32.7185 36.2445 32.4586 38.9942 32.3044ZM23.3145 31.6602L21.1561 9.13121L36.9509 30.8938L23.3145 31.6602Z" fill="#4D666F" stroke="#4D666F" stroke-width="0.34"/>
<circle r="3.3019" transform="matrix(1 0 0 -1 16.8131 41.3183)" stroke="#4D666F" stroke-width="1.6"/>
<circle r="3.3019" transform="matrix(1 0 0 -1 33.3343 41.3183)" stroke="#4D666F" stroke-width="1.6"/>
<path d="M11.6286 42.2869H10.625C9.95218 42.2869 9.40674 41.7415 9.40674 41.0686V36.8396C9.40674 36.1668 9.95218 35.6213 10.625 35.6213H34.8727C38.5758 35.6213 43.2474 37.5014 43.2474 42.2869H38.5758" stroke="#4D666F" stroke-width="1.6" stroke-linecap="round"/>
<path d="M16.5544 34.4648L16.5547 34.4647C16.6121 34.5578 16.6943 34.63 16.7786 34.679C16.8614 34.7271 16.9614 34.7616 17.0614 34.7616L16.5544 34.4648ZM16.5544 34.4648L16.5491 34.455M16.5544 34.4648L16.5491 34.455M16.5491 34.455L15.3907 32.3171C15.2236 32.0151 15.3404 31.6608 15.6067 31.4882L15.6068 31.4881M16.5491 34.455L15.6068 31.4881M15.6068 31.4881C15.9128 31.29 16.2588 31.4416 16.4137 31.72L16.4137 31.72M15.6068 31.4881L16.4137 31.72M16.4137 31.72L16.4148 31.722M16.4137 31.72L16.4148 31.722M16.4148 31.722L17.5732 33.86C17.7402 34.162 17.6235 34.5162 17.3571 34.6889L17.3505 34.6932M16.4148 31.722L17.3505 34.6932M17.3505 34.6932L17.3436 34.6969M17.3505 34.6932L17.3436 34.6969M17.3436 34.6969C17.2929 34.7244 17.2446 34.7435 17.1904 34.7533M17.3436 34.6969L17.1904 34.7533M17.1904 34.7533C17.1443 34.7617 17.1 34.7616 17.0673 34.7616M17.1904 34.7533L17.0673 34.7616M17.0673 34.7616C17.0653 34.7616 17.0633 34.7616 17.0614 34.7616L17.0673 34.7616Z" fill="#4D666F" stroke="#4D666F" stroke-width="0.4"/>
<mask id="path-7-outside-1_265_6299" maskUnits="userSpaceOnUse" x="8.94019" y="24.6218" width="15" height="12" fill="black">
<rect fill="white" x="8.94019" y="24.6218" width="15" height="12"/>
<path fill-rule="evenodd" clip-rule="evenodd" d="M12.4894 27.9784C12.0642 27.9784 11.6005 28.0944 11.2139 28.3262L11.2143 28.3263C10.6343 28.6356 10.1706 29.2541 10.0158 29.9497C9.86134 30.6454 9.93872 31.3412 10.2865 31.9209L12.3037 35.4092H13.3504L11.0205 31.38C10.7498 30.9933 10.7113 30.4908 10.8272 30.027C10.9431 29.5632 11.2523 29.1766 11.6775 28.9447C11.9479 28.7903 12.2572 28.7129 12.5664 28.7129H16.9342C17.0116 28.7129 17.0501 28.7129 17.1275 28.6743L20.9153 26.471C21.0698 26.3551 21.2631 26.3551 21.4564 26.3936C21.6497 26.4708 21.8042 26.587 21.8816 26.7414C21.9976 26.8959 21.9976 27.0892 21.959 27.2826C21.8819 27.4759 21.7657 27.6304 21.6112 27.7077L17.6689 29.9879L17.6672 29.9885C17.4745 30.0654 17.2816 30.1424 17.0504 30.1424H13.6878C13.4556 30.1424 13.3011 30.2971 13.3011 30.529C13.3011 30.7611 13.4559 30.9156 13.6878 30.9156H17.0504C17.3982 30.9156 17.746 30.8382 18.0553 30.6449L21.9591 28.3645C22.3069 28.1712 22.5387 27.8622 22.6547 27.4756C22.732 27.0893 22.6935 26.7026 22.5002 26.3548C22.3068 26.007 21.9979 25.7752 21.6112 25.6592C21.2247 25.5819 20.838 25.6207 20.4902 25.814L16.7798 27.9784H12.4894Z"/>
</mask>
<path fill-rule="evenodd" clip-rule="evenodd" d="M12.4894 27.9784C12.0642 27.9784 11.6005 28.0944 11.2139 28.3262L11.2143 28.3263C10.6343 28.6356 10.1706 29.2541 10.0158 29.9497C9.86134 30.6454 9.93872 31.3412 10.2865 31.9209L12.3037 35.4092H13.3504L11.0205 31.38C10.7498 30.9933 10.7113 30.4908 10.8272 30.027C10.9431 29.5632 11.2523 29.1766 11.6775 28.9447C11.9479 28.7903 12.2572 28.7129 12.5664 28.7129H16.9342C17.0116 28.7129 17.0501 28.7129 17.1275 28.6743L20.9153 26.471C21.0698 26.3551 21.2631 26.3551 21.4564 26.3936C21.6497 26.4708 21.8042 26.587 21.8816 26.7414C21.9976 26.8959 21.9976 27.0892 21.959 27.2826C21.8819 27.4759 21.7657 27.6304 21.6112 27.7077L17.6689 29.9879L17.6672 29.9885C17.4745 30.0654 17.2816 30.1424 17.0504 30.1424H13.6878C13.4556 30.1424 13.3011 30.2971 13.3011 30.529C13.3011 30.7611 13.4559 30.9156 13.6878 30.9156H17.0504C17.3982 30.9156 17.746 30.8382 18.0553 30.6449L21.9591 28.3645C22.3069 28.1712 22.5387 27.8622 22.6547 27.4756C22.732 27.0893 22.6935 26.7026 22.5002 26.3548C22.3068 26.007 21.9979 25.7752 21.6112 25.6592C21.2247 25.5819 20.838 25.6207 20.4902 25.814L16.7798 27.9784H12.4894Z" fill="#4D666F"/>
<path d="M11.2139 28.3262L11.0081 27.9832L10.1415 28.5029L11.1291 28.7171L11.2139 28.3262ZM11.2143 28.3263L11.4025 28.6793L12.3641 28.1664L11.299 27.9354L11.2143 28.3263ZM10.0158 29.9497L9.62538 29.8628L9.62534 29.863L10.0158 29.9497ZM10.2865 31.9209L10.6328 31.7206L10.6295 31.7151L10.2865 31.9209ZM12.3037 35.4092L11.9574 35.6094L12.0729 35.8092H12.3037V35.4092ZM13.3504 35.4092V35.8092H14.0438L13.6967 35.2089L13.3504 35.4092ZM11.0205 31.38L11.3668 31.1797L11.3581 31.1647L11.3482 31.1506L11.0205 31.38ZM10.8272 30.027L10.4391 29.93L10.8272 30.027ZM11.6775 28.9447L11.8691 29.296L11.8759 29.2921L11.6775 28.9447ZM17.1275 28.6743L17.3059 29.0323L17.3174 29.0266L17.3286 29.0201L17.1275 28.6743ZM20.9153 26.471L21.1164 26.8168L21.1367 26.805L21.1554 26.7909L20.9153 26.471ZM21.4564 26.3936L21.6046 26.0221L21.5706 26.0085L21.5347 26.0014L21.4564 26.3936ZM21.8816 26.7414L21.524 26.9206L21.5401 26.9528L21.5617 26.9815L21.8816 26.7414ZM21.959 27.2826L22.3305 27.4308L22.3441 27.3967L22.3513 27.3608L21.959 27.2826ZM21.6112 27.7077L21.4321 27.3501L21.4213 27.3555L21.4109 27.3615L21.6112 27.7077ZM17.6689 29.9879L17.817 30.3594L17.844 30.3487L17.8692 30.3341L17.6689 29.9879ZM17.6672 29.9885L17.5191 29.617L17.519 29.617L17.6672 29.9885ZM18.0553 30.6449L17.8534 30.2994L17.8433 30.3057L18.0553 30.6449ZM21.9591 28.3645L21.7647 28.0148L21.7573 28.0191L21.9591 28.3645ZM22.6547 27.4756L23.0378 27.5905L23.0432 27.5725L23.0469 27.5542L22.6547 27.4756ZM22.5002 26.3548L22.8498 26.1605V26.1605L22.5002 26.3548ZM21.6113 25.6592L21.7261 25.2761L21.7082 25.2707L21.6898 25.267L21.6113 25.6592ZM20.4902 25.814L20.2958 25.4643L20.2887 25.4685L20.4902 25.814ZM16.7798 27.9784V28.3784H16.8879L16.9813 28.3239L16.7798 27.9784ZM11.4196 28.6693C11.7396 28.4773 12.1313 28.3784 12.4894 28.3784V27.5784C11.9971 27.5784 11.4614 27.7114 11.0081 27.9832L11.4196 28.6693ZM11.299 27.9354L11.2987 27.9353L11.1291 28.7171L11.1295 28.7172L11.299 27.9354ZM10.4063 30.0366C10.5372 29.448 10.9316 28.9304 11.4025 28.6793L11.026 27.9734C10.337 28.3408 9.80395 29.0602 9.62538 29.8628L10.4063 30.0366ZM10.6295 31.7151C10.3433 31.238 10.27 30.6503 10.4063 30.0364L9.62534 29.863C9.45268 30.6405 9.53418 31.4444 9.94353 32.1267L10.6295 31.7151ZM12.6499 35.2089L10.6328 31.7207L9.94025 32.1211L11.9574 35.6094L12.6499 35.2089ZM12.3037 35.8092H13.3504V35.0092H12.3037V35.8092ZM10.6742 31.5802L13.0041 35.6094L13.6967 35.2089L11.3668 31.1797L10.6742 31.5802ZM10.4391 29.93C10.304 30.4707 10.3372 31.1015 10.6928 31.6094L11.3482 31.1506C11.1624 30.8852 11.1186 30.5108 11.2152 30.124L10.4391 29.93ZM11.486 28.5936C10.9679 28.8761 10.5835 29.3522 10.4391 29.93L11.2152 30.124C11.3026 29.7743 11.5368 29.4771 11.869 29.2959L11.486 28.5936ZM12.5664 28.3129C12.1915 28.3129 11.8132 28.4065 11.4791 28.5974L11.8759 29.2921C12.0827 29.174 12.3229 29.1129 12.5664 29.1129V28.3129ZM16.9342 28.3129H12.5664V29.1129H16.9342V28.3129ZM16.9491 28.3163C16.9415 28.3201 16.9408 28.32 16.945 28.3185C16.9472 28.3177 16.9503 28.3168 16.9541 28.3158C16.9579 28.3148 16.9617 28.3141 16.9652 28.3135C16.9723 28.3123 16.9756 28.3124 16.9708 28.3126C16.9683 28.3127 16.9644 28.3128 16.958 28.3128C16.9515 28.3129 16.9442 28.3129 16.9342 28.3129V29.1129C16.965 29.1129 17.0287 29.1139 17.0965 29.1026C17.1741 29.0897 17.2413 29.0645 17.3059 29.0323L16.9491 28.3163ZM20.7142 26.1253L16.9264 28.3286L17.3286 29.0201L21.1164 26.8168L20.7142 26.1253ZM21.5347 26.0014C21.3065 25.9559 20.9686 25.9309 20.6752 26.1511L21.1554 26.7909C21.171 26.7793 21.2197 26.7543 21.3782 26.7859L21.5347 26.0014ZM22.2393 26.5623C22.1022 26.2886 21.8498 26.1199 21.6046 26.0221L21.3082 26.7652C21.4497 26.8216 21.5063 26.8853 21.524 26.9206L22.2393 26.5623ZM22.3513 27.3608C22.3968 27.1326 22.4217 26.7947 22.2016 26.5014L21.5617 26.9815C21.5734 26.9971 21.5983 27.0459 21.5667 27.2043L22.3513 27.3608ZM21.7903 28.0654C22.064 27.9283 22.2328 27.6759 22.3305 27.4308L21.5875 27.1344C21.531 27.2759 21.4674 27.3324 21.4321 27.3501L21.7903 28.0654ZM17.8692 30.3341L21.8115 28.054L21.4109 27.3615L17.4686 29.6416L17.8692 30.3341ZM17.8154 30.3601L17.817 30.3594L17.5208 29.6163L17.5191 29.617L17.8154 30.3601ZM17.0504 30.5424C17.3691 30.5424 17.6299 30.4341 17.8154 30.3601L17.519 29.617C17.319 29.6968 17.1941 29.7424 17.0504 29.7424V30.5424ZM13.6878 30.5424H17.0504V29.7424H13.6878V30.5424ZM13.7011 30.529C13.7011 30.5155 13.7033 30.5115 13.7023 30.5143C13.7018 30.5156 13.7006 30.5181 13.6985 30.5214C13.6964 30.5246 13.6937 30.5281 13.6903 30.5315C13.6869 30.5349 13.6834 30.5376 13.6802 30.5397C13.6769 30.5418 13.6744 30.543 13.673 30.5435C13.6702 30.5446 13.6742 30.5424 13.6878 30.5424V29.7424C13.4808 29.7424 13.2772 29.8131 13.1245 29.9659C12.9717 30.1188 12.9011 30.3222 12.9011 30.529H13.7011ZM13.6878 30.5156C13.6743 30.5156 13.6703 30.5134 13.673 30.5145C13.6744 30.515 13.6769 30.5161 13.6801 30.5182C13.6834 30.5203 13.6869 30.5231 13.6903 30.5264C13.6936 30.5298 13.6964 30.5333 13.6985 30.5366C13.7006 30.5399 13.7017 30.5424 13.7023 30.5437C13.7033 30.5465 13.7011 30.5425 13.7011 30.529H12.9011C12.9011 30.736 12.9719 30.9395 13.1247 31.0923C13.2775 31.245 13.481 31.3156 13.6878 31.3156V30.5156ZM17.0504 30.5156H13.6878V31.3156H17.0504V30.5156ZM17.8433 30.3057C17.6099 30.4516 17.3392 30.5156 17.0504 30.5156V31.3156C17.4572 31.3156 17.8822 31.2249 18.2673 30.9841L17.8433 30.3057ZM21.7573 28.0191L17.8535 30.2995L18.257 30.9903L22.1608 28.7099L21.7573 28.0191ZM22.2715 27.3607C22.1824 27.6579 22.0123 27.8773 21.7647 28.0149L22.1534 28.7141C22.6014 28.4651 22.8951 28.0665 23.0378 27.5905L22.2715 27.3607ZM22.1506 26.5492C22.2904 26.8008 22.3244 27.088 22.2625 27.397L23.0469 27.5542C23.1397 27.0906 23.0966 26.6044 22.8498 26.1605L22.1506 26.5492ZM21.4964 26.0424C21.7936 26.1315 22.013 26.3016 22.1506 26.5492L22.8498 26.1605C22.6007 25.7125 22.2022 25.4188 21.7261 25.2761L21.4964 26.0424ZM20.6845 26.1636C20.9363 26.0237 21.2236 25.9896 21.5327 26.0515L21.6898 25.267C21.2257 25.1741 20.7397 25.2177 20.2959 25.4644L20.6845 26.1636ZM16.9813 28.3239L20.6918 26.1595L20.2887 25.4685L16.5782 27.6329L16.9813 28.3239ZM12.4894 28.3784H16.7798V27.5784H12.4894V28.3784Z" fill="#4D666F" mask="url(#path-7-outside-1_265_6299)"/>
<path d="M7.6945 22.7375V22.7375C7.33135 22.7375 7.10946 23.0399 7.10946 23.3552C7.10946 23.5156 7.16455 23.6643 7.27491 23.7732C7.38503 23.8819 7.53439 23.9353 7.69449 23.9353C7.69449 23.9353 7.6945 23.9353 7.6945 23.9353L12.3277 23.9356C12.4214 24.3702 12.8135 24.6955 13.2763 24.6955H14.55L14.5482 24.7013C14.1972 25.8108 12.9998 26.4406 11.8686 26.1275C11.1669 25.9192 10.6429 25.4032 10.4298 24.7143C10.3638 24.3729 10.0178 24.1981 9.72016 24.302C9.37993 24.3701 9.19913 24.7158 9.31454 25.017C9.64488 26.1074 10.5048 26.9115 11.5628 27.2329L11.5729 27.236L11.5729 27.2357C11.894 27.315 12.1795 27.3555 12.5062 27.3555C13.9358 27.3555 15.2892 26.4292 15.7008 25.0071L15.7008 25.0071C15.9475 24.1549 15.823 23.2654 15.4156 22.5015L7.6945 22.7375ZM7.6945 22.7375H9.48693C10.1469 21.2752 11.8556 20.4893 13.4439 20.9205L13.4439 20.9205L13.4458 20.9211C14.3067 21.1638 15.0051 21.7313 15.4156 22.5015L7.6945 22.7375ZM13.1022 22.0267C12.2415 21.7856 11.3849 22.0713 10.8528 22.6994H14.1453C13.8713 22.3965 13.5085 22.1612 13.1022 22.0267Z" fill="#4D666F" stroke="#4D666F" stroke-width="0.4"/>
<path d="M22.1113 42.5146H27.4096" stroke="#4D666F" stroke-width="1.6" stroke-linecap="round"/>
</svg>
