<svg width="50" height="51" viewBox="0 0 50 51" fill="none" xmlns="http://www.w3.org/2000/svg">
<path d="M39.7088 32.6772L39.7878 32.6728L39.8353 32.6095C39.9475 32.46 40.0129 32.2975 40.0129 32.1247C40.0129 31.9524 39.9478 31.7902 39.8361 31.6409C39.8358 31.6406 39.8356 31.6402 39.8353 31.6399L21.3327 6.18286L21.3327 6.18284L21.3312 6.18077C21.2172 6.0289 21.0745 5.92195 20.9014 5.87865C20.7299 5.83573 20.5489 5.86046 20.3664 5.93362L20.3662 5.93307L20.3535 5.93942C20.0704 6.0812 19.796 6.39452 19.8788 6.75792L22.4939 33.0989L22.4952 33.1113L22.4982 33.1235C22.5653 33.3909 22.7075 33.642 22.9596 33.742C23.0228 33.7894 23.0954 33.8076 23.1456 33.816C23.2075 33.8263 23.267 33.8263 23.2985 33.8262H23.301C23.4618 33.8262 23.6137 33.7539 23.7288 33.6961C25.0563 33.6178 27.2033 33.4759 29.5961 33.3178C33.0253 33.0913 36.9591 32.8314 39.7088 32.6772ZM24.0291 32.033L21.8707 9.50401L37.6655 31.2666L24.0291 32.033Z" fill="#4D666F" stroke="#4D666F" stroke-width="0.34"/>
<circle r="3.3019" transform="matrix(1 0 0 -1 17.5277 41.6911)" stroke="#4D666F" stroke-width="1.6"/>
<circle r="3.3019" transform="matrix(1 0 0 -1 34.0489 41.6911)" stroke="#4D666F" stroke-width="1.6"/>
<path d="M12.3432 42.6597H11.3396C10.6668 42.6597 10.1213 42.1143 10.1213 41.4415V37.2124C10.1213 36.5396 10.6668 35.9941 11.3396 35.9941H35.5873C39.2904 35.9941 43.962 37.8742 43.962 42.6597H39.2904" stroke="#4D666F" stroke-width="1.6" stroke-linecap="round"/>
<path d="M17.269 34.8377L17.2693 34.8375C17.3267 34.9306 17.4089 35.0028 17.4932 35.0518C17.576 35.0999 17.676 35.1344 17.776 35.1344L17.269 34.8377ZM17.269 34.8377L17.2637 34.8278M17.269 34.8377L17.2637 34.8278M17.2637 34.8278L16.1053 32.6899C15.9382 32.3879 16.055 32.0336 16.3213 31.861L16.3214 31.8609M17.2637 34.8278L16.3214 31.8609M16.3214 31.8609C16.6274 31.6628 16.9734 31.8144 17.1283 32.0928L17.1283 32.0928M16.3214 31.8609L17.1283 32.0928M17.1283 32.0928L17.1294 32.0948M17.1283 32.0928L17.1294 32.0948M17.1294 32.0948L18.2878 34.2328C18.4548 34.5348 18.3381 34.889 18.0717 35.0617L18.0651 35.066M17.1294 32.0948L18.0651 35.066M18.0651 35.066L18.0582 35.0697M18.0651 35.066L18.0582 35.0697M18.0582 35.0697C18.0075 35.0972 17.9592 35.1164 17.905 35.1262M18.0582 35.0697L17.905 35.1262M17.905 35.1262C17.8589 35.1345 17.8146 35.1344 17.7819 35.1344M17.905 35.1262L17.7819 35.1344M17.7819 35.1344C17.7799 35.1344 17.7779 35.1344 17.776 35.1344L17.7819 35.1344Z" fill="#4D666F" stroke="#4D666F" stroke-width="0.4"/>
<mask id="path-7-outside-1_265_6299" maskUnits="userSpaceOnUse" x="9.65479" y="24.9946" width="15" height="12" fill="black">
<rect fill="white" x="9.65479" y="24.9946" width="15" height="12"/>
<path fill-rule="evenodd" clip-rule="evenodd" d="M13.204 28.3512C12.7788 28.3512 12.3151 28.4672 11.9285 28.699L11.9289 28.6991C11.3489 29.0084 10.8852 29.6269 10.7304 30.3225C10.5759 31.0182 10.6533 31.714 11.0011 32.2937L13.0183 35.782H14.065L11.7351 31.7528C11.4644 31.3661 11.4259 30.8636 11.5418 30.3998C11.6577 29.936 11.9669 29.5494 12.3921 29.3175C12.6625 29.1631 12.9718 29.0857 13.281 29.0857H17.6488C17.7262 29.0857 17.7647 29.0857 17.8421 29.0471L21.6299 26.8438C21.7844 26.7279 21.9777 26.7279 22.171 26.7664C22.3643 26.8436 22.5188 26.9598 22.5962 27.1142C22.7122 27.2687 22.7122 27.462 22.6736 27.6554C22.5965 27.8487 22.4803 28.0032 22.3258 28.0805L18.3835 30.3607L18.3818 30.3613C18.1891 30.4382 17.9962 30.5152 17.765 30.5152H14.4024C14.1702 30.5152 14.0157 30.6699 14.0157 30.9018C14.0157 31.1339 14.1705 31.2884 14.4024 31.2884H17.765C18.1128 31.2884 18.4606 31.211 18.7699 31.0177L22.6737 28.7373C23.0215 28.544 23.2533 28.235 23.3693 27.8484C23.4466 27.4621 23.4081 27.0754 23.2148 26.7276C23.0214 26.3798 22.7125 26.148 22.3259 26.032C21.9393 25.9547 21.5526 25.9935 21.2048 26.1868L17.4944 28.3512H13.204Z"/>
</mask>
<path fill-rule="evenodd" clip-rule="evenodd" d="M13.204 28.3512C12.7788 28.3512 12.3151 28.4672 11.9285 28.699L11.9289 28.6991C11.3489 29.0084 10.8852 29.6269 10.7304 30.3225C10.5759 31.0182 10.6533 31.714 11.0011 32.2937L13.0183 35.782H14.065L11.7351 31.7528C11.4644 31.3661 11.4259 30.8636 11.5418 30.3998C11.6577 29.936 11.9669 29.5494 12.3921 29.3175C12.6625 29.1631 12.9718 29.0857 13.281 29.0857H17.6488C17.7262 29.0857 17.7647 29.0857 17.8421 29.0471L21.6299 26.8438C21.7844 26.7279 21.9777 26.7279 22.171 26.7664C22.3643 26.8436 22.5188 26.9598 22.5962 27.1142C22.7122 27.2687 22.7122 27.462 22.6736 27.6554C22.5965 27.8487 22.4803 28.0032 22.3258 28.0805L18.3835 30.3607L18.3818 30.3613C18.1891 30.4382 17.9962 30.5152 17.765 30.5152H14.4024C14.1702 30.5152 14.0157 30.6699 14.0157 30.9018C14.0157 31.1339 14.1705 31.2884 14.4024 31.2884H17.765C18.1128 31.2884 18.4606 31.211 18.7699 31.0177L22.6737 28.7373C23.0215 28.544 23.2533 28.235 23.3693 27.8484C23.4466 27.4621 23.4081 27.0754 23.2148 26.7276C23.0214 26.3798 22.7125 26.148 22.3259 26.032C21.9393 25.9547 21.5526 25.9935 21.2048 26.1868L17.4944 28.3512H13.204Z" fill="#4D666F"/>
<path d="M11.9285 28.699L11.7227 28.356L10.8561 28.8757L11.8437 29.09L11.9285 28.699ZM11.9289 28.6991L12.1171 29.0521L13.0787 28.5392L12.0136 28.3082L11.9289 28.6991ZM10.7304 30.3225L10.34 30.2356L10.3399 30.2358L10.7304 30.3225ZM11.0011 32.2937L11.3474 32.0934L11.3441 32.0879L11.0011 32.2937ZM13.0183 35.782L12.672 35.9822L12.7875 36.182H13.0183V35.782ZM14.065 35.782V36.182H14.7584L14.4113 35.5817L14.065 35.782ZM11.7351 31.7528L12.0814 31.5525L12.0727 31.5375L12.0628 31.5234L11.7351 31.7528ZM11.5418 30.3998L11.1537 30.3028L11.5418 30.3998ZM12.3921 29.3175L12.5837 29.6688L12.5905 29.6649L12.3921 29.3175ZM17.8421 29.0471L18.0205 29.4051L18.032 29.3994L18.0432 29.3929L17.8421 29.0471ZM21.6299 26.8438L21.831 27.1896L21.8513 27.1778L21.87 27.1638L21.6299 26.8438ZM22.171 26.7664L22.3192 26.3949L22.2852 26.3813L22.2493 26.3742L22.171 26.7664ZM22.5962 27.1142L22.2386 27.2934L22.2547 27.3256L22.2763 27.3543L22.5962 27.1142ZM22.6736 27.6554L23.0451 27.8036L23.0587 27.7695L23.0659 27.7336L22.6736 27.6554ZM22.3258 28.0805L22.1467 27.7229L22.1359 27.7283L22.1255 27.7343L22.3258 28.0805ZM18.3835 30.3607L18.5316 30.7322L18.5586 30.7215L18.5838 30.7069L18.3835 30.3607ZM18.3818 30.3613L18.2337 29.9898L18.2336 29.9898L18.3818 30.3613ZM18.7699 31.0177L18.568 30.6722L18.5579 30.6785L18.7699 31.0177ZM22.6737 28.7373L22.4793 28.3876L22.4719 28.3919L22.6737 28.7373ZM23.3693 27.8484L23.7524 27.9633L23.7578 27.9453L23.7615 27.927L23.3693 27.8484ZM23.2148 26.7276L23.5644 26.5333V26.5333L23.2148 26.7276ZM22.3259 26.032L22.4407 25.6489L22.4228 25.6435L22.4044 25.6398L22.3259 26.032ZM21.2048 26.1868L21.0104 25.8371L21.0033 25.8413L21.2048 26.1868ZM17.4944 28.3512V28.7512H17.6025L17.6959 28.6967L17.4944 28.3512ZM12.1342 29.0421C12.4542 28.8502 12.8459 28.7512 13.204 28.7512V27.9512C12.7117 27.9512 12.176 28.0842 11.7227 28.356L12.1342 29.0421ZM12.0136 28.3082L12.0133 28.3081L11.8437 29.09L11.8441 29.09L12.0136 28.3082ZM11.1209 30.4094C11.2518 29.8208 11.6462 29.3032 12.1171 29.0521L11.7406 28.3462C11.0516 28.7136 10.5186 29.433 10.34 30.2356L11.1209 30.4094ZM11.3441 32.0879C11.0579 31.6108 10.9846 31.0231 11.1209 30.4092L10.3399 30.2358C10.1673 31.0133 10.2488 31.8172 10.6581 32.4995L11.3441 32.0879ZM13.3645 35.5817L11.3474 32.0935L10.6549 32.4939L12.672 35.9822L13.3645 35.5817ZM13.0183 36.182H14.065V35.382H13.0183V36.182ZM11.3888 31.953L13.7187 35.9822L14.4113 35.5817L12.0814 31.5525L11.3888 31.953ZM11.1537 30.3028C11.0186 30.8435 11.0518 31.4743 11.4074 31.9822L12.0628 31.5234C11.877 31.258 11.8332 30.8836 11.9298 30.4968L11.1537 30.3028ZM12.2006 28.9664C11.6825 29.2489 11.2981 29.725 11.1537 30.3028L11.9298 30.4968C12.0172 30.1471 12.2514 29.8499 12.5836 29.6687L12.2006 28.9664ZM13.281 28.6857C12.9061 28.6857 12.5278 28.7793 12.1937 28.9702L12.5905 29.6649C12.7973 29.5468 13.0375 29.4857 13.281 29.4857V28.6857ZM17.6488 28.6857H13.281V29.4857H17.6488V28.6857ZM17.6637 28.6891C17.6561 28.6929 17.6554 28.6928 17.6596 28.6913C17.6618 28.6906 17.6649 28.6896 17.6687 28.6886C17.6725 28.6876 17.6763 28.6869 17.6798 28.6863C17.6869 28.6851 17.6902 28.6852 17.6854 28.6854C17.6829 28.6855 17.679 28.6856 17.6726 28.6856C17.6661 28.6857 17.6588 28.6857 17.6488 28.6857V29.4857C17.6796 29.4857 17.7433 29.4867 17.8111 29.4754C17.8887 29.4625 17.9559 29.4373 18.0205 29.4051L17.6637 28.6891ZM21.4288 26.4981L17.641 28.7014L18.0432 29.3929L21.831 27.1896L21.4288 26.4981ZM22.2493 26.3742C22.0211 26.3287 21.6832 26.3037 21.3898 26.5239L21.87 27.1638C21.8856 27.1521 21.9343 27.1271 22.0928 27.1587L22.2493 26.3742ZM22.9539 26.9351C22.8168 26.6614 22.5644 26.4927 22.3192 26.3949L22.0228 27.138C22.1643 27.1944 22.2209 27.2581 22.2386 27.2934L22.9539 26.9351ZM23.0659 27.7336C23.1114 27.5054 23.1363 27.1675 22.9162 26.8742L22.2763 27.3543C22.288 27.3699 22.3129 27.4187 22.2813 27.5771L23.0659 27.7336ZM22.5049 28.4382C22.7786 28.3011 22.9474 28.0487 23.0451 27.8036L22.3021 27.5072C22.2456 27.6487 22.182 27.7052 22.1467 27.7229L22.5049 28.4382ZM18.5838 30.7069L22.5261 28.4268L22.1255 27.7343L18.1832 30.0144L18.5838 30.7069ZM18.53 30.7329L18.5316 30.7322L18.2354 29.9891L18.2337 29.9898L18.53 30.7329ZM17.765 30.9152C18.0837 30.9152 18.3445 30.8069 18.53 30.7329L18.2336 29.9898C18.0336 30.0696 17.9087 30.1152 17.765 30.1152V30.9152ZM14.4024 30.9152H17.765V30.1152H14.4024V30.9152ZM14.4157 30.9018C14.4157 30.8883 14.4179 30.8843 14.4169 30.8871C14.4164 30.8884 14.4152 30.8909 14.4131 30.8942C14.411 30.8974 14.4083 30.9009 14.4049 30.9043C14.4015 30.9077 14.398 30.9104 14.3948 30.9125C14.3915 30.9146 14.389 30.9158 14.3876 30.9163C14.3848 30.9174 14.3888 30.9152 14.4024 30.9152V30.1152C14.1954 30.1152 13.9918 30.1859 13.8391 30.3388C13.6863 30.4916 13.6157 30.695 13.6157 30.9018H14.4157ZM14.4024 30.8884C14.3889 30.8884 14.3849 30.8862 14.3876 30.8873C14.3889 30.8878 14.3915 30.8889 14.3947 30.891C14.398 30.8931 14.4015 30.8959 14.4049 30.8992C14.4082 30.9026 14.411 30.9061 14.4131 30.9094C14.4152 30.9127 14.4163 30.9152 14.4169 30.9165C14.4179 30.9193 14.4157 30.9153 14.4157 30.9018H13.6157C13.6157 31.1088 13.6865 31.3123 13.8393 31.4651C13.9921 31.6178 14.1956 31.6884 14.4024 31.6884V30.8884ZM17.765 30.8884H14.4024V31.6884H17.765V30.8884ZM18.5579 30.6785C18.3245 30.8244 18.0538 30.8884 17.765 30.8884V31.6884C18.1718 31.6884 18.5968 31.5977 18.9819 31.3569L18.5579 30.6785ZM22.4719 28.3919L18.5681 30.6723L18.9716 31.3631L22.8754 29.0827L22.4719 28.3919ZM22.9861 27.7335C22.897 28.0308 22.7269 28.2501 22.4793 28.3877L22.868 29.0869C23.316 28.8379 23.6097 28.4393 23.7524 27.9633L22.9861 27.7335ZM22.8652 26.922C23.005 27.1736 23.039 27.4608 22.9771 27.7698L23.7615 27.927C23.8543 27.4634 23.8112 26.9772 23.5644 26.5333L22.8652 26.922ZM22.211 26.4152C22.5082 26.5043 22.7276 26.6744 22.8652 26.922L23.5644 26.5333C23.3153 26.0853 22.9168 25.7916 22.4407 25.6489L22.211 26.4152ZM21.3991 26.5364C21.6509 26.3965 21.9382 26.3624 22.2473 26.4243L22.4044 25.6398C21.9403 25.5469 21.4543 25.5905 21.0105 25.8372L21.3991 26.5364ZM17.6959 28.6967L21.4064 26.5323L21.0033 25.8413L17.2928 28.0057L17.6959 28.6967ZM13.204 28.7512H17.4944V27.9512H13.204V28.7512Z" fill="#4D666F" mask="url(#path-7-outside-1_265_6299)"/>
<path d="M8.4091 23.1103V23.1103C8.04595 23.1103 7.82405 23.4127 7.82405 23.728C7.82405 23.8884 7.87915 24.0371 7.98951 24.146C8.09963 24.2547 8.24899 24.3081 8.40909 24.3081C8.40909 24.3081 8.4091 24.3081 8.4091 24.3081L13.0423 24.3084C13.136 24.743 13.5281 25.0683 13.9909 25.0683H15.2646L15.2628 25.0741C14.9118 26.1836 13.7144 26.8134 12.5832 26.5003C11.8815 26.292 11.3575 25.776 11.1444 25.0871C11.0784 24.7457 10.7324 24.5709 10.4347 24.6748C10.0945 24.7429 9.91373 25.0887 10.0291 25.3898C10.3595 26.4802 11.2194 27.2843 12.2774 27.6057L12.2875 27.6088L12.2875 27.6085C12.6086 27.6878 12.8941 27.7283 13.2208 27.7283C14.6504 27.7283 16.0038 26.802 16.4154 25.3799L16.4154 25.3799C16.6621 24.5277 16.5376 23.6382 16.1302 22.8743L8.4091 23.1103ZM8.4091 23.1103H10.2015C10.8615 21.648 12.5702 20.8621 14.1585 21.2933L14.1585 21.2933L14.1604 21.2939C15.0213 21.5366 15.7197 22.1041 16.1302 22.8743L8.4091 23.1103ZM14.8599 23.0722C14.5859 22.7693 14.2231 22.534 13.8168 22.3995C12.9561 22.1584 12.0995 22.4441 11.5674 23.0722H14.8599Z" fill="#4D666F" stroke="#4D666F" stroke-width="0.4"/>
<path d="M22.8259 42.8875H28.1242" stroke="#4D666F" stroke-width="1.6" stroke-linecap="round"/>
</svg>
