<svg width="24" height="24" viewBox="0 0 24 24" fill="none" xmlns="http://www.w3.org/2000/svg">
<path d="M22.5129 12.443C22.4846 12.4149 22.4635 12.3805 22.4511 12.3426C22.4388 12.3047 22.4356 12.2644 22.4419 12.225C22.4803 11.9853 22.4997 11.7429 22.4999 11.5C22.502 10.4767 22.1545 9.4834 21.5149 8.68464C20.8752 7.88587 19.9819 7.32961 18.9829 7.10804C18.946 7.09972 18.9114 7.08317 18.8818 7.05962C18.8522 7.03607 18.8283 7.00613 18.8119 6.97204C18.2054 5.70582 17.2322 4.65122 16.0186 3.94523C14.8051 3.23925 13.4072 2.9145 12.0067 3.01316C10.6062 3.11183 9.26777 3.62935 8.16518 4.4985C7.06259 5.36766 6.24683 6.54829 5.82387 7.88704C5.80957 7.93231 5.78271 7.9726 5.74642 8.00322C5.71014 8.03384 5.66591 8.05354 5.61887 8.06004C3.98663 8.28337 2.50008 9.11816 1.45979 10.3956C0.419512 11.6731 -0.0968823 13.2979 0.015023 14.9416C0.126928 16.5852 0.858784 18.125 2.06261 19.2497C3.26644 20.3744 4.85242 21 6.49987 21H18.9999C19.9913 20.9999 20.9603 20.7049 21.7837 20.1528C22.6071 19.6006 23.2478 18.8161 23.6243 17.8989C24.0008 16.9818 24.0962 15.9734 23.8983 15.002C23.7004 14.0305 23.2182 13.1398 22.5129 12.443ZM21.9999 16C21.9999 16.7957 21.6838 17.5588 21.1212 18.1214C20.5586 18.684 19.7955 19 18.9999 19H6.49987C5.3064 18.9893 4.16607 18.5049 3.32976 17.6534C2.49344 16.8019 2.02963 15.653 2.04037 14.4595C2.05112 13.2661 2.53552 12.1257 3.38703 11.2894C4.23854 10.4531 5.3874 9.9893 6.58087 10C6.81743 9.99997 7.04631 9.91604 7.22684 9.76316C7.40736 9.61028 7.52784 9.39836 7.56687 9.16504C7.7509 8.07188 8.29299 7.07087 9.10793 6.31938C9.92287 5.56788 10.9644 5.10852 12.0689 5.01349C13.1734 4.91847 14.2781 5.19317 15.2094 5.79443C16.1407 6.39568 16.8458 7.28938 17.2139 8.33504C17.2802 8.52336 17.4013 8.68752 17.5617 8.80639C17.7221 8.92526 17.9144 8.9934 18.1139 9.00204C18.507 9.01977 18.8903 9.13004 19.2328 9.32389C19.5752 9.51774 19.8671 9.78969 20.0846 10.1176C20.3021 10.4455 20.4391 10.8202 20.4845 11.211C20.5299 11.6019 20.4824 11.998 20.3459 12.367C20.2686 12.5749 20.2627 12.8025 20.3289 13.0141C20.3952 13.2258 20.5299 13.4093 20.7119 13.536C21.1095 13.8123 21.4343 14.1807 21.6586 14.6098C21.8828 15.0389 21.9999 15.5159 21.9999 16Z" fill="#9FB9C6"/>
</svg>
