<svg width="25" height="24" viewBox="0 0 25 24" fill="none" xmlns="http://www.w3.org/2000/svg">
<path d="M21.9551 6.49997C21.9394 4.84966 21.2965 3.26713 20.1568 2.07344C19.0171 0.879739 17.466 0.164262 15.8182 0.0721509C14.1704 -0.0199597 12.5493 0.518194 11.2836 1.57744C10.018 2.63668 9.20273 4.1377 9.00315 5.77597C8.99254 5.87323 8.95364 5.96525 8.89124 6.04062C8.82885 6.11598 8.74572 6.17139 8.65215 6.19997C7.72816 6.47879 6.91829 7.04729 6.34209 7.82156C5.76589 8.59582 5.45389 9.53483 5.45215 10.5V11C5.45215 11.2652 5.5575 11.5195 5.74504 11.7071C5.93258 11.8946 6.18693 12 6.45215 12H13.4521C13.7174 12 13.9717 11.8946 14.1593 11.7071C14.3468 11.5195 14.4521 11.2652 14.4521 11V10.5C14.4497 9.55876 14.1522 8.64201 13.6015 7.87873C13.0508 7.11545 12.2746 6.54406 11.3821 6.24497C11.2681 6.20675 11.1716 6.12868 11.1104 6.02508C11.0493 5.92149 11.0275 5.79931 11.0491 5.68097C11.2541 4.58141 11.8623 3.598 12.7545 2.92344C13.6467 2.24888 14.7586 1.93179 15.8724 2.03428C16.9862 2.13678 18.0216 2.65147 18.7757 3.47753C19.5298 4.30359 19.9483 5.38147 19.9491 6.49997V23C19.9491 23.2652 20.0545 23.5195 20.242 23.7071C20.4296 23.8946 20.6839 24 20.9491 24C21.2144 24 21.4687 23.8946 21.6563 23.7071C21.8438 23.5195 21.9491 23.2652 21.9491 23L21.9551 6.49997Z" fill="#4D666F"/>
<path d="M9.54408 20.2159C9.0199 20.8894 8.64833 21.6687 8.45508 22.4999C8.45508 22.8977 8.61311 23.2793 8.89442 23.5606C9.17572 23.8419 9.55725 23.9999 9.95508 23.9999C10.3529 23.9999 10.7344 23.8419 11.0157 23.5606C11.297 23.2793 11.4551 22.8977 11.4551 22.4999C11.2618 21.6687 10.8903 20.8894 10.3661 20.2159C10.3177 20.1528 10.2555 20.1018 10.1842 20.0666C10.1129 20.0315 10.0345 20.0132 9.95508 20.0132C9.87561 20.0132 9.79721 20.0315 9.72594 20.0666C9.65467 20.1018 9.59245 20.1528 9.54408 20.2159Z" fill="#4D666F"/>
<path d="M9.54408 14.2159C9.0199 14.8894 8.64833 15.6687 8.45508 16.4999C8.45508 16.8977 8.61311 17.2793 8.89442 17.5606C9.17572 17.8419 9.55725 17.9999 9.95508 17.9999C10.3529 17.9999 10.7344 17.8419 11.0157 17.5606C11.297 17.2793 11.4551 16.8977 11.4551 16.4999C11.2618 15.6687 10.8903 14.8894 10.3661 14.2159C10.3177 14.1528 10.2555 14.1018 10.1842 14.0666C10.1129 14.0315 10.0345 14.0132 9.95508 14.0132C9.87561 14.0132 9.79721 14.0315 9.72594 14.0666C9.65467 14.1018 9.59245 14.1528 9.54408 14.2159Z" fill="#4D666F"/>
<path d="M4.73316 19.8632C4.65434 19.8438 4.57191 19.8445 4.49345 19.8653C4.41499 19.8861 4.34302 19.9263 4.28416 19.9822C3.62349 20.522 3.08841 21.1994 2.71616 21.9672C2.67177 22.1595 2.66577 22.3587 2.69852 22.5534C2.73127 22.748 2.80212 22.9343 2.90701 23.1015C3.01189 23.2687 3.14875 23.4136 3.30974 23.5278C3.47073 23.6421 3.65268 23.7234 3.84516 23.7672C3.95541 23.7922 4.0681 23.8049 4.18116 23.8052C4.52067 23.8046 4.84994 23.6888 5.11514 23.4769C5.38034 23.2649 5.56579 22.9692 5.64116 22.6382C5.63754 21.7847 5.44851 20.9423 5.08716 20.1692C5.05758 20.0931 5.00987 20.0255 4.94816 19.9722C4.88646 19.9189 4.81265 19.8814 4.73316 19.8632Z" fill="#4D666F"/>
<path d="M6.06684 14.0132C5.98799 13.9946 5.90575 13.9957 5.82742 14.0164C5.74909 14.0372 5.6771 14.077 5.61784 14.1322C4.95656 14.6722 4.42109 15.35 4.04884 16.1182C3.96098 16.5058 4.03052 16.9125 4.2422 17.2488C4.45388 17.5852 4.79039 17.8238 5.17784 17.9122C5.37018 17.9566 5.56939 17.9626 5.76405 17.9299C5.9587 17.8971 6.14498 17.8263 6.3122 17.7214C6.47943 17.6165 6.6243 17.4796 6.73853 17.3187C6.85275 17.1577 6.93408 16.9757 6.97784 16.7832C6.97213 15.9293 6.78071 15.0868 6.41684 14.3142C6.38698 14.2396 6.33959 14.1733 6.27866 14.1209C6.21773 14.0685 6.14508 14.0316 6.06684 14.0132Z" fill="#4D666F"/>
<path d="M15.6265 19.9819C15.5671 19.9268 15.4951 19.8871 15.4168 19.8663C15.3385 19.8456 15.2563 19.8444 15.1775 19.8629C15.0988 19.8807 15.0256 19.9173 14.9641 19.9696C14.9027 20.0218 14.8548 20.0881 14.8245 20.1629C14.463 20.936 14.2743 21.7785 14.2715 22.6319C14.3466 22.963 14.5318 23.2587 14.7968 23.4709C15.0619 23.6831 15.391 23.799 15.7305 23.7999C15.8435 23.7997 15.9562 23.7869 16.0665 23.7619C16.259 23.7181 16.4409 23.6368 16.6019 23.5226C16.7629 23.4084 16.8997 23.2635 17.0046 23.0963C17.1095 22.929 17.1804 22.7428 17.2131 22.5481C17.2459 22.3534 17.2399 22.1542 17.1955 21.9619C16.8223 21.1959 16.2869 20.5203 15.6265 19.9819Z" fill="#4D666F"/>
<path d="M14.7325 17.912C15.1203 17.8238 15.4573 17.5851 15.6692 17.2485C15.8811 16.9119 15.9506 16.5049 15.8625 16.117C15.4899 15.3492 14.9545 14.6718 14.2935 14.132C14.2342 14.0767 14.1622 14.0369 14.0839 14.0162C14.0056 13.9954 13.9233 13.9943 13.8445 14.013C13.7658 14.0308 13.6926 14.0674 13.6311 14.1197C13.5697 14.1719 13.5218 14.2382 13.4915 14.313C13.1299 15.086 12.9411 15.9286 12.9385 16.782C13.0269 17.1695 13.2655 17.506 13.6019 17.7176C13.9383 17.9293 14.3449 17.9989 14.7325 17.911V17.912Z" fill="#4D666F"/>
</svg>
