<svg width="24" height="24" viewBox="0 0 24 24" fill="none" xmlns="http://www.w3.org/2000/svg">
<g clip-path="url(#clip0_255_2166)">
<path d="M12.5002 19C12.5002 18.9717 12.4939 18.9438 12.4818 18.9183C12.4696 18.8928 12.452 18.8703 12.43 18.8525C12.4081 18.8346 12.3824 18.8219 12.355 18.8153C12.3275 18.8086 12.2989 18.8082 12.2712 18.814C10.6863 19.1519 9.03771 19.0298 7.51988 18.4618C6.00206 17.8939 4.67822 16.9039 3.7044 15.6085C2.73058 14.3132 2.14736 12.7664 2.0235 11.1505C1.89964 9.53466 2.24029 7.91707 3.0053 6.4884C3.77031 5.05973 4.9278 3.87954 6.34133 3.08691C7.75487 2.29428 9.36553 1.92227 10.9835 2.01471C12.6015 2.10715 14.1593 2.6602 15.4733 3.60866C16.7874 4.55713 17.8029 5.86148 18.4002 7.36799C18.4206 7.41983 18.4578 7.4633 18.5059 7.49142C18.5539 7.51954 18.6101 7.53066 18.6652 7.52299C19.1969 7.45137 19.7376 7.55269 20.2072 7.81199C20.2506 7.8358 20.3002 7.84619 20.3495 7.84183C20.3988 7.83747 20.4457 7.81856 20.4843 7.78749C20.5229 7.75642 20.5513 7.71461 20.5661 7.66734C20.5809 7.62007 20.5813 7.56948 20.5672 7.52199C19.9905 5.57252 18.8603 3.83239 17.3138 2.51285C15.7672 1.1933 13.8709 0.351097 11.8549 0.0884747C9.839 -0.174148 7.79017 0.154108 5.95718 1.03339C4.12419 1.91267 2.58587 3.30517 1.52898 5.04182C0.472092 6.77848 -0.057917 8.78461 0.00329769 10.8167C0.0645123 12.8487 0.714318 14.8193 1.87383 16.4892C3.03334 18.1591 4.65269 19.4564 6.53528 20.2238C8.41787 20.9911 10.4827 21.1955 12.4792 20.812C12.5122 20.8058 12.5437 20.793 12.5717 20.7745C12.5997 20.756 12.6238 20.732 12.6424 20.7041C12.661 20.6761 12.6739 20.6448 12.6802 20.6118C12.6865 20.5788 12.6862 20.5448 12.6792 20.512C12.5602 20.0168 12.5001 19.5093 12.5002 19Z" fill="#9FB9C6"/>
<path d="M10.4999 4.49999C9.3231 4.49993 8.17253 4.84785 7.19293 5.49999C7.14474 5.53165 7.08711 5.54575 7.02975 5.53993C6.97238 5.5341 6.91877 5.5087 6.87793 5.46799L6.20693 4.79699C6.11641 4.69545 6.00613 4.61344 5.88283 4.55598C5.75953 4.49853 5.6258 4.46683 5.48983 4.46283C5.35386 4.45884 5.2185 4.48262 5.09204 4.53274C4.96558 4.58285 4.85067 4.65824 4.75435 4.75429C4.65802 4.85035 4.58231 4.96504 4.53183 5.09136C4.48136 5.21768 4.45719 5.35297 4.4608 5.48895C4.46441 5.62494 4.49573 5.75875 4.55284 5.88221C4.60995 6.00568 4.69164 6.11619 4.79293 6.20699L9.79293 11.207C9.98153 11.3892 10.2341 11.4899 10.4963 11.4877C10.7585 11.4854 11.0093 11.3802 11.1947 11.1948C11.3802 11.0094 11.4853 10.7586 11.4876 10.4964C11.4899 10.2342 11.3891 9.9816 11.2069 9.79299L8.70693 7.29299C8.67935 7.2646 8.65888 7.2301 8.64718 7.19229C8.63548 7.15447 8.63289 7.11443 8.63962 7.07543C8.64634 7.03643 8.6622 6.99957 8.68589 6.96786C8.70958 6.93616 8.74043 6.9105 8.77593 6.89299C9.51169 6.54128 10.3374 6.42286 11.1423 6.5536C11.9473 6.68435 12.6931 7.05801 13.2797 7.62451C13.8663 8.191 14.2658 8.92327 14.4245 9.72318C14.5833 10.5231 14.4937 11.3524 14.1679 12.1C14.1626 12.1222 14.165 12.1456 14.1748 12.1662C14.1846 12.1868 14.2011 12.2035 14.2217 12.2134C14.2422 12.2234 14.2656 12.226 14.2878 12.2208C14.3101 12.2156 14.3299 12.203 14.3439 12.185C14.8923 11.1575 15.5401 10.1862 16.2779 9.28499C16.3026 9.25483 16.3199 9.21932 16.3284 9.1813C16.3369 9.14328 16.3364 9.10379 16.3269 9.06599C16.0046 7.76375 15.2558 6.60679 14.1999 5.77935C13.1439 4.9519 11.8415 4.50154 10.4999 4.49999Z" fill="#9FB9C6"/>
<path d="M4.50001 10.5C4.49819 11.326 4.66848 12.1434 5.00001 12.9C5.11129 13.1348 5.30964 13.3171 5.55303 13.4083C5.79642 13.4994 6.06573 13.4922 6.30391 13.3882C6.54209 13.2842 6.73041 13.0916 6.82899 12.8511C6.92757 12.6106 6.92865 12.3412 6.83201 12.1C6.6119 11.5953 6.49885 11.0505 6.50001 10.5C6.50009 10.356 6.50777 10.2121 6.52301 10.069C6.52638 10.0324 6.52167 9.99552 6.50923 9.96096C6.49679 9.9264 6.47692 9.895 6.45101 9.86896L5.19001 8.59996C5.15964 8.56964 5.122 8.54762 5.08068 8.53599C5.03937 8.52437 4.99576 8.52353 4.95403 8.53356C4.91231 8.54359 4.87385 8.56416 4.84233 8.59329C4.81081 8.62242 4.78729 8.65915 4.77401 8.69996C4.5914 9.28247 4.499 9.88949 4.50001 10.5Z" fill="#9FB9C6"/>
<path d="M19.707 9.29303C19.5195 9.10556 19.2652 9.00024 19 9.00024C18.7348 9.00024 18.4805 9.10556 18.293 9.29303C15.7046 11.8822 14.174 15.3431 14 19C14 20.3261 14.5268 21.5979 15.4645 22.5356C16.4021 23.4732 17.6739 24 19 24C20.3261 24 21.5979 23.4732 22.5355 22.5356C23.4732 21.5979 24 20.3261 24 19C24 15.611 21.817 11.4 19.707 9.29303ZM19 22C18.2044 22 17.4413 21.684 16.8787 21.1214C16.3161 20.5587 16 19.7957 16 19C16.1297 16.3452 17.1076 13.8019 18.79 11.744C18.8138 11.7134 18.8443 11.6888 18.8793 11.672C18.9142 11.6552 18.9525 11.6467 18.9912 11.6472C19.03 11.6477 19.0681 11.6571 19.1026 11.6748C19.1371 11.6925 19.167 11.7179 19.19 11.749C20.8041 13.8457 21.7797 16.3632 22 19C22 19.7957 21.6839 20.5587 21.1213 21.1214C20.5587 21.684 19.7956 22 19 22Z" fill="#9FB9C6"/>
</g>
<defs>
<clipPath id="clip0_255_2166">
<rect width="24" height="24" fill="white"/>
</clipPath>
</defs>
</svg>
