<svg width="40" height="41" viewBox="0 0 40 41" fill="none" xmlns="http://www.w3.org/2000/svg">
<path d="M22.6526 14.3353H23.6724C23.5006 14.9341 23.0703 15.4344 22.5029 15.5948L22.5029 15.5946L22.4932 15.5979C22.0439 15.7501 21.5978 15.6903 21.2021 15.4451C20.798 15.1947 20.4837 14.7891 20.3704 14.3283L20.3678 14.3174L20.3638 14.3068C20.2741 14.0638 20.0308 13.8794 19.753 13.9396L19.7338 13.9437L19.7157 13.9516C19.4739 14.0565 19.3273 14.3182 19.3763 14.5842L19.3776 14.5916L19.3796 14.5989C19.5825 15.3693 20.0577 15.9991 20.7081 16.3715C21.1239 16.6335 21.5735 16.7443 22.0493 16.7443C22.3239 16.7443 22.5637 16.7068 22.8319 16.6341L22.8319 16.6343L22.8418 16.6311C24.3186 16.147 25.1239 14.4845 24.7191 12.9482L24.7191 12.9482L24.7183 12.9455C24.2789 11.3699 22.7451 10.4649 21.2917 10.9151L21.2917 10.9151L21.2906 10.9154C20.5062 11.1635 19.8851 11.7774 19.5629 12.5581H18.1125C17.9668 12.5581 17.8322 12.6121 17.7353 12.7171C17.6397 12.8207 17.5949 12.9582 17.5949 13.1024L17.5949 13.1026C17.595 13.2194 17.6117 13.3531 17.6837 13.4624C17.7663 13.5876 17.898 13.6469 18.0492 13.6469H18.4821L18.4821 13.6469H21.8394C21.9239 14.0314 22.2464 14.3353 22.6526 14.3353ZM20.6994 12.5243C20.9055 12.2672 21.1903 12.0664 21.5099 11.9502C22.1853 11.7429 22.8647 11.9795 23.2986 12.5243H20.6994Z" fill="#4D666F" stroke="#4D666F" stroke-width="0.4"/>
<path d="M12.1911 22.1485C12.3303 22.3999 12.5042 22.6389 12.7146 22.8383L12.6622 22.8556L13.0218 23.0815L16.8651 25.4954L14 30.9393C13.6011 31.6501 13.8512 32.5949 14.5169 32.9961L14.5168 32.9962L14.5248 33.0006C14.7323 33.113 14.9562 33.1969 15.2234 33.1969H19.5731C21.0336 33.1969 22.4229 32.5131 23.3794 31.333L23.3803 31.3319C24.9952 29.3117 27.32 28.1716 29.7642 28.1716C29.9099 28.1716 30.0444 28.1177 30.1414 28.0127C30.2369 27.9091 30.2818 27.7716 30.2818 27.6274C30.2818 27.4833 30.237 27.3458 30.1415 27.2422C30.0446 27.1371 29.9101 27.0831 29.7642 27.0831C27.0013 27.0831 24.3738 28.3868 22.5604 30.6337L22.5595 30.6348C21.8026 31.5865 20.7167 32.1081 19.5729 32.1081H19.3267C19.3068 31.7578 19.1213 31.4442 18.8532 31.2778C18.8531 31.2777 18.8531 31.2777 18.8531 31.2777C18.8531 31.2777 18.853 31.2777 18.853 31.2777L16.6959 29.9364C16.4181 29.7573 16.1068 29.8979 15.9694 30.1459L15.9693 30.146C15.8188 30.418 15.9236 30.737 16.1621 30.8923L16.1621 30.8923L16.1656 30.8945L18.1721 32.1422H15.2235C15.1734 32.1422 15.1166 32.125 15.0262 32.0925C14.85 31.9753 14.7817 31.7238 14.8929 31.5052L18.0353 25.5866L18.0356 25.5867L18.0403 25.5763C18.079 25.4922 18.1351 25.3327 18.0815 25.1587C18.0651 25.1053 18.042 25.0363 17.9992 24.9745C17.9555 24.9114 17.897 24.8631 17.822 24.8316L13.5515 22.1568L13.5506 22.1562C13.36 22.0382 13.1937 21.8587 13.0826 21.6479L13.0826 21.6479L13.0813 21.6454C12.7175 20.9782 12.9454 20.0969 13.5524 19.7073L17.8368 17.0237C17.837 17.0236 17.8371 17.0236 17.8372 17.0235C18.214 16.7902 18.7048 16.7861 19.1204 17.025L21.8474 18.7438L21.8471 18.7442L21.859 18.7506C21.904 18.7749 21.948 18.7925 21.9979 18.8015C22.0399 18.8091 22.0799 18.809 22.1075 18.809C22.1093 18.809 22.1111 18.809 22.1128 18.809H25.2559C25.4481 18.809 25.6273 18.9792 25.6273 19.2284C25.6273 19.4777 25.448 19.6478 25.2559 19.6478H25.2559L21.9859 19.6488C21.9859 19.6488 21.9858 19.6488 21.9858 19.6488C21.8467 19.6488 21.7273 19.601 21.5707 19.5334L19.1401 18.0277C18.8624 17.8488 18.5511 17.9894 18.4138 18.2374L18.4137 18.2375C18.2632 18.5095 18.368 18.8285 18.6065 18.9837L18.6065 18.9838L18.6103 18.9861L21.0516 20.4985C21.3435 20.6952 21.6687 20.7717 21.9857 20.7717H25.2557C25.7835 20.7717 26.248 20.4579 26.4771 20.0252C27.8375 20.4953 28.861 21.7355 29.1547 23.327C29.2032 23.5904 29.41 23.7662 29.669 23.7662H29.7326H29.754L29.7748 23.7617C30.0461 23.7031 30.2305 23.4245 30.1843 23.123L30.1843 23.123L30.1836 23.1188C29.8303 21.0995 28.4684 19.4748 26.6366 18.9332C26.4876 18.2631 25.9634 17.7562 25.256 17.7562H22.236L19.6507 16.0673L19.6508 16.0673L19.6467 16.0647C18.9153 15.6118 18.04 15.6118 17.3089 16.0647L17.3081 16.0653L13.0229 18.7493C11.9098 19.4287 11.5403 20.9598 12.1906 22.1476L12.1906 22.1476L12.1911 22.1485Z" fill="#4D666F" stroke="#4D666F" stroke-width="0.4"/>
<path d="M17.7314 21.4944V21.4944C17.7332 21.4944 17.7349 21.4944 17.7368 21.4944C17.7643 21.4945 17.8044 21.4945 17.8463 21.487C17.8962 21.478 17.9403 21.4604 17.9853 21.4361L17.9855 21.4365L17.9974 21.429L19.2991 20.6028L19.2991 20.6029L19.301 20.6017C19.5633 20.4311 19.5907 20.1109 19.5065 19.8828L19.5012 19.8686L19.4939 19.8553C19.3381 19.5737 19.0263 19.5306 18.7948 19.6311L18.7804 19.6373L18.7672 19.6457L17.4655 20.4718L17.4655 20.4718L17.4636 20.473C17.2013 20.6436 17.174 20.9638 17.2581 21.1918L17.2608 21.1991L17.2641 21.2062C17.3099 21.3056 17.3762 21.3855 17.4695 21.4359C17.5586 21.4842 17.6522 21.4944 17.7314 21.4944Z" fill="#4D666F" stroke="#4D666F" stroke-width="0.4"/>
<path d="M17.5907 30.17L17.5975 30.1745L17.6047 30.1784C17.6497 30.2027 17.6938 30.2203 17.7437 30.2293C17.7856 30.2369 17.8257 30.2368 17.8532 30.2368C17.8551 30.2368 17.8568 30.2368 17.8586 30.2368C17.9503 30.2368 18.0405 30.2052 18.1142 30.1621C18.1894 30.1182 18.2631 30.0534 18.3147 29.9692L18.315 29.9694L18.3205 29.9591L20.2565 26.3463C20.5689 25.781 20.6336 25.1116 20.4992 24.4552L20.4992 24.4552C20.3606 23.7786 19.9442 23.2501 19.4225 22.9475L15.4899 20.472C15.212 20.2924 14.9003 20.433 14.7628 20.6812L14.7628 20.6813C14.6123 20.9533 14.7171 21.2723 14.9556 21.4276L14.9556 21.4276L14.9581 21.4292L18.895 23.9074L18.8949 23.9074L18.8997 23.9103C19.2013 24.0885 19.4221 24.3865 19.5051 24.7467L19.5051 24.7468C19.5923 25.1247 19.5577 25.5125 19.3732 25.7981L19.3691 25.8044L19.3656 25.8109L17.3979 29.4238C17.3978 29.424 17.3976 29.4242 17.3975 29.4244C17.2476 29.6963 17.3523 30.0149 17.5907 30.17Z" fill="#4D666F" stroke="#4D666F" stroke-width="0.4"/>
<mask id="path-5-outside-1_332_1416" maskUnits="userSpaceOnUse" x="4" y="22.2341" width="31" height="15" fill="black">
<rect fill="white" x="4" y="22.2341" width="31" height="15"/>
<path d="M33.8916 28.3504C31.32 23.9792 26.2085 22.1206 21.732 23.9105C21.5732 23.9794 21.478 24.1859 21.5416 24.358C21.6051 24.5302 21.7956 24.6334 21.9543 24.5645C26.1452 22.8779 30.9709 24.6334 33.3837 28.7293C33.7013 29.2455 33.7013 29.9341 33.3837 30.4502C31.6059 33.4446 28.5898 35.2687 25.3197 35.2687L15.2231 35.2685C14.7787 35.2685 14.3659 35.0963 14.0167 34.7866C13.1913 34.0294 11.9848 34.0637 11.1911 34.8555C10.6197 35.4063 9.73053 35.4063 9.19086 34.8555C8.39716 34.064 7.12734 34.064 6.33363 34.8555C6.04795 35.1309 5.69872 35.2685 5.31757 35.2685C5.12712 35.2685 5 35.4061 5 35.6128C5 35.8193 5.1269 35.9571 5.31757 35.9571C5.85727 35.9571 6.36527 35.7506 6.74619 35.3377C7.31754 34.7869 8.20672 34.7869 8.74639 35.3377C9.54009 36.1292 10.8099 36.1292 11.6036 35.3377C12.1433 34.7869 13.0006 34.7526 13.572 35.3033C14.0164 35.7163 14.588 35.9573 15.1911 35.9573H25.2235C28.7476 35.9573 31.9541 34.0299 33.8273 30.8289C34.3039 30.0714 34.3039 29.1077 33.8911 28.3505L33.8916 28.3504Z"/>
</mask>
<path d="M33.8916 28.3504C31.32 23.9792 26.2085 22.1206 21.732 23.9105C21.5732 23.9794 21.478 24.1859 21.5416 24.358C21.6051 24.5302 21.7956 24.6334 21.9543 24.5645C26.1452 22.8779 30.9709 24.6334 33.3837 28.7293C33.7013 29.2455 33.7013 29.9341 33.3837 30.4502C31.6059 33.4446 28.5898 35.2687 25.3197 35.2687L15.2231 35.2685C14.7787 35.2685 14.3659 35.0963 14.0167 34.7866C13.1913 34.0294 11.9848 34.0637 11.1911 34.8555C10.6197 35.4063 9.73053 35.4063 9.19086 34.8555C8.39716 34.064 7.12734 34.064 6.33363 34.8555C6.04795 35.1309 5.69872 35.2685 5.31757 35.2685C5.12712 35.2685 5 35.4061 5 35.6128C5 35.8193 5.1269 35.9571 5.31757 35.9571C5.85727 35.9571 6.36527 35.7506 6.74619 35.3377C7.31754 34.7869 8.20672 34.7869 8.74639 35.3377C9.54009 36.1292 10.8099 36.1292 11.6036 35.3377C12.1433 34.7869 13.0006 34.7526 13.572 35.3033C14.0164 35.7163 14.588 35.9573 15.1911 35.9573H25.2235C28.7476 35.9573 31.9541 34.0299 33.8273 30.8289C34.3039 30.0714 34.3039 29.1077 33.8911 28.3505L33.8916 28.3504Z" fill="#4D666F"/>
<path d="M33.8916 28.3504L33.9568 28.7451L34.532 28.6501L34.2364 28.1476L33.8916 28.3504ZM21.732 23.9105L21.5834 23.5389L21.5728 23.5436L21.732 23.9105ZM21.9543 24.5645L21.805 24.1933L21.7951 24.1976L21.9543 24.5645ZM33.3837 28.7293L33.039 28.9324L33.043 28.9389L33.3837 28.7293ZM33.3837 30.4502L33.043 30.2406L33.0398 30.246L33.3837 30.4502ZM25.3197 35.2687L25.3197 35.6687H25.3197V35.2687ZM15.2231 35.2685L15.2232 34.8685H15.2231V35.2685ZM14.0167 34.7866L13.7462 35.0814L13.7513 35.0859L14.0167 34.7866ZM11.1911 34.8555L11.4687 35.1436L11.4736 35.1387L11.1911 34.8555ZM9.19086 34.8555L9.47659 34.5756L9.47332 34.5723L9.19086 34.8555ZM6.33363 34.8555L6.61127 35.1436L6.61609 35.1388L6.33363 34.8555ZM6.74619 35.3377L6.46859 35.0497L6.46014 35.0578L6.45218 35.0664L6.74619 35.3377ZM8.74639 35.3377L8.46066 35.6176L8.46393 35.6209L8.74639 35.3377ZM11.6036 35.3377L11.8861 35.6209L11.8893 35.6176L11.6036 35.3377ZM13.572 35.3033L13.2943 35.5914L13.2997 35.5964L13.572 35.3033ZM33.8273 30.8289L33.4886 30.6158L33.4821 30.6269L33.8273 30.8289ZM33.8911 28.3505L33.8259 27.9558L33.2704 28.0476L33.5399 28.542L33.8911 28.3505ZM34.2364 28.1476C31.5719 23.6185 26.2566 21.6706 21.5835 23.5391L21.8805 24.2819C26.1604 22.5707 31.0681 24.3398 33.5468 28.5532L34.2364 28.1476ZM21.5728 23.5436C21.2247 23.6946 21.0272 24.1198 21.1663 24.4966L21.9168 24.2195C21.9213 24.2317 21.9219 24.2416 21.9216 24.2473C21.9213 24.2526 21.9202 24.2551 21.92 24.2557C21.9197 24.2562 21.9189 24.2581 21.9158 24.2613C21.9127 24.2646 21.905 24.2715 21.8912 24.2775L21.5728 23.5436ZM21.1663 24.4966C21.2899 24.8312 21.6956 25.1128 22.1136 24.9314L21.7951 24.1976C21.8426 24.177 21.8814 24.1889 21.8949 24.1958C21.9069 24.202 21.9132 24.2097 21.9168 24.2195L21.1663 24.4966ZM22.1037 24.9356C26.0972 23.3284 30.7189 24.9938 33.0391 28.9323L33.7284 28.5263C31.2228 24.273 26.1932 22.4274 21.805 24.1934L22.1037 24.9356ZM33.043 28.9389C33.2815 29.3265 33.2815 29.853 33.043 30.2406L33.7244 30.6598C34.1211 30.0151 34.1211 29.1644 33.7244 28.5197L33.043 28.9389ZM33.0398 30.246C31.3268 33.1311 28.4351 34.8687 25.3197 34.8687V35.6687C28.7445 35.6687 31.885 33.7581 33.7277 30.6544L33.0398 30.246ZM25.3197 34.8687L15.2232 34.8685L15.2231 35.6685L25.3197 35.6687L25.3197 34.8687ZM15.2231 34.8685C14.8882 34.8685 14.5674 34.7404 14.2821 34.4874L13.7513 35.0859C14.1644 35.4523 14.6692 35.6685 15.2231 35.6685V34.8685ZM14.2871 34.4919C13.3014 33.5877 11.8513 33.6318 10.9086 34.5724L11.4736 35.1387C12.1182 34.4956 13.0811 34.4712 13.7462 35.0814L14.2871 34.4919ZM10.9135 34.5676C10.4925 34.9734 9.85507 34.9619 9.47657 34.5756L8.90516 35.1355C9.60598 35.8507 10.7469 35.8392 11.4687 35.1435L10.9135 34.5676ZM9.47332 34.5723C8.52349 33.625 7.001 33.625 6.05117 34.5723L6.61609 35.1388C7.25368 34.5029 8.27082 34.5029 8.9084 35.1388L9.47332 34.5723ZM6.05603 34.5676C5.84499 34.771 5.59531 34.8685 5.31757 34.8685V35.6685C5.80213 35.6685 6.25091 35.4909 6.61123 35.1435L6.05603 34.5676ZM5.31757 34.8685C5.12133 34.8685 4.93165 34.942 4.79341 35.0918C4.65785 35.2387 4.6 35.4277 4.6 35.6128H5.4C5.4 35.5911 5.4057 35.608 5.38132 35.6344C5.36979 35.6469 5.35567 35.6565 5.34147 35.6624C5.32758 35.6682 5.31845 35.6685 5.31757 35.6685V34.8685ZM4.6 35.6128C4.6 35.7976 4.65774 35.9866 4.7932 36.1335C4.93138 36.2834 5.12111 36.3571 5.31757 36.3571V35.5571C5.31843 35.5571 5.32757 35.5573 5.34149 35.5631C5.35572 35.5691 5.36985 35.5787 5.38137 35.5912C5.40571 35.6176 5.4 35.6344 5.4 35.6128H4.6ZM5.31757 36.3571C5.96321 36.3571 6.57975 36.108 7.0402 35.6089L6.45218 35.0664C6.15079 35.3932 5.75132 35.5571 5.31757 35.5571V36.3571ZM7.02379 35.6256C7.44479 35.2198 8.08218 35.2313 8.46068 35.6176L9.03209 35.0577C8.33126 34.3425 7.1903 34.354 6.46859 35.0497L7.02379 35.6256ZM8.46393 35.6209C9.41375 36.5681 10.9362 36.5681 11.8861 35.6209L11.3212 35.0544C10.6836 35.6903 9.66643 35.6903 9.02885 35.0544L8.46393 35.6209ZM11.8893 35.6176C12.2806 35.2183 12.8865 35.1982 13.2943 35.5913L13.8496 35.0153C13.1147 34.3069 12.006 34.3555 11.3179 35.0577L11.8893 35.6176ZM13.2997 35.5964C13.8124 36.0727 14.4794 36.3573 15.1911 36.3573V35.5573C14.6966 35.5573 14.2205 35.3599 13.8442 35.0103L13.2997 35.5964ZM15.1911 36.3573H25.2235V35.5573H15.1911V36.3573ZM25.2235 36.3573C28.9004 36.3573 32.2333 34.345 34.1725 31.0309L33.4821 30.6269C31.675 33.7149 28.5947 35.5573 25.2235 35.5573V36.3573ZM34.1659 31.0419C34.7237 30.1553 34.7206 29.0364 34.2423 28.159L33.5399 28.542C33.8871 29.179 33.884 29.9876 33.4887 30.6159L34.1659 31.0419ZM33.9562 28.7451L33.9568 28.7451L33.8264 27.9558L33.8259 27.9558L33.9562 28.7451Z" fill="#4D666F" mask="url(#path-5-outside-1_332_1416)"/>
<path d="M5.73132 33.7605H5.64451L5.81176 33.8795C5.82571 33.8996 5.83981 33.9195 5.85405 33.9394L5.86121 33.9493L5.86954 33.9584C5.9437 34.0388 6.08909 34.1606 6.27056 34.1606H6.89649L6.64968 33.9849C6.72238 33.8981 6.76108 33.7895 6.77426 33.6897C6.79086 33.564 6.77186 33.4158 6.68893 33.2959L5.73132 33.7605ZM5.73132 33.7605C5.11832 32.8258 4.80049 31.6879 4.80049 30.5531C4.80049 29.7352 5.41479 29.0451 6.20698 29.0451H13.2525L8.579 26.1113C8.39776 26.0033 8.17619 26.0618 8.06785 26.2731L8.05539 26.2974L8.03689 26.3174L8.02983 26.3251C7.79196 26.9159 7.64541 27.5662 7.64541 28.2125C7.64541 28.3567 7.6006 28.4942 7.50502 28.5978C7.40811 28.7028 7.27357 28.7567 7.12784 28.7567C6.98194 28.7567 6.84738 28.7027 6.75051 28.5976C6.655 28.494 6.61027 28.3565 6.61027 28.2125C6.61027 27.3945 6.77405 26.5754 7.10329 25.826L7.11659 25.7957L7.11807 25.7941V25.7892L7.14009 25.7463C7.50515 25.0341 8.39534 24.7374 9.07737 25.1875L13.9003 28.2146C13.9004 28.2147 13.9006 28.2148 13.9007 28.2149M5.73132 33.7605L13.9007 28.2149M13.9007 28.2149C14.1845 28.3912 14.3757 28.7325 14.3757 29.1075C14.3757 29.6499 13.9519 30.1336 13.4137 30.1336H6.20687C6.01483 30.1336 5.83551 30.3037 5.83551 30.553C5.83551 31.5447 6.14037 32.5031 6.68891 33.2959L13.9007 28.2149Z" fill="#4D666F" stroke="#4D666F" stroke-width="0.4"/>
</svg>
