<svg width="40" height="41" viewBox="0 0 40 41" fill="none" xmlns="http://www.w3.org/2000/svg">
<path d="M16.9846 12.7897C17.079 13.1933 17.4527 13.4896 17.8862 13.4896H19.0812C18.889 14.1126 18.3983 14.6136 17.7211 14.8126L17.7203 14.8129C16.6587 15.0985 15.5412 14.5186 15.2144 13.5081L15.2119 13.5005L15.2089 13.4931C15.1031 13.2378 14.8335 13.0738 14.5515 13.1281L14.534 13.1315L14.5173 13.138C14.261 13.2371 14.0806 13.4984 14.1398 13.7849L14.1415 13.7931L14.1439 13.8012C14.534 15.1198 15.8142 15.9742 17.1616 15.9742C17.4698 15.9742 17.7392 15.9368 18.0419 15.8637L18.0419 15.8638L18.0474 15.8622C19.4806 15.4718 20.3583 14.1701 20.2798 12.7895H21.7268C21.8789 12.7895 22.0221 12.7398 22.1285 12.6371C22.2355 12.5338 22.2892 12.3921 22.2892 12.2394C22.2892 12.0869 22.2356 11.9452 22.1286 11.8418C22.0223 11.739 21.8791 11.6893 21.7268 11.6893H20.01C19.3826 10.3395 17.7714 9.61931 16.2773 10.0162L16.2773 10.0161L16.2717 10.0178C15.2723 10.3149 14.4575 11.0598 14.1456 12.0729C14.0809 12.2656 14.1579 12.4385 14.2439 12.563C14.3649 12.7382 14.5463 12.7892 14.6983 12.7892C14.6983 12.7892 14.6983 12.7892 14.6984 12.7892L16.9846 12.7897ZM16.6013 11.1021C17.4015 10.8821 18.2158 11.1376 18.6972 11.6898H15.647C15.8927 11.4248 16.21 11.2206 16.6013 11.1021Z" fill="#4D666F" stroke="#4D666F" stroke-width="0.4"/>
<path d="M13.8892 23.309L13.8754 23.3331C13.399 23.0644 13.037 22.639 12.8771 22.0954C12.716 21.5503 12.797 21.0024 13.0789 20.5358C13.0789 20.5358 13.0789 20.5357 13.079 20.5357L14.8884 17.5293C15.209 16.9508 15.8006 16.5384 16.4561 16.3521L16.4687 16.3485L16.4688 16.3489C17.1586 16.201 17.8615 16.272 18.4544 16.6141C19.0501 16.9225 19.4786 17.4936 19.6728 18.1311L19.6742 18.1358L19.6742 18.1358L20.3234 20.4706C20.3829 20.6277 20.3444 20.7869 20.2707 20.9035C20.1956 21.0223 20.0696 21.1211 19.9176 21.1504L13.8892 23.309ZM13.8892 23.309L13.8757 23.3332L16.9915 25.0831L16.9913 25.0834L17.0024 25.0888C17.2364 25.2018 17.4841 25.2837 17.7778 25.2837C17.7816 25.2837 17.7854 25.2837 17.7894 25.2837C17.8901 25.2838 18.0599 25.2839 18.1985 25.2402C18.6015 25.1228 18.9348 24.8849 19.1447 24.5224C19.6062 23.7885 19.3069 22.8248 18.5628 22.4239L16.3867 21.1949L17.3698 19.5174C17.5468 19.2293 17.4126 18.9014 17.1539 18.7513L17.1538 18.7513C16.8674 18.5854 16.5348 18.7041 16.3765 18.9586L16.3765 18.9586L16.3744 18.9621L15.1062 21.0969L15.1059 21.0967L15.1004 21.1074C15.0565 21.1925 14.9894 21.3604 15.0529 21.5442C15.0719 21.5993 15.0987 21.6702 15.1475 21.733C15.1972 21.7969 15.2614 21.8428 15.3409 21.8721L18.0065 23.3682L18.0064 23.3682L18.0097 23.37C18.2371 23.492 18.3091 23.7525 18.1847 23.969L18.1845 23.969L18.1805 23.9766C18.1405 24.0538 18.0508 24.131 17.9041 24.1905C17.749 24.218 17.6432 24.2049 17.5697 24.1516L17.5603 24.1448L17.5503 24.1392L14.4345 22.3893L14.4347 22.389L14.4235 22.3836C14.1933 22.2725 14.0481 22.0805 13.9881 21.8191L13.9881 21.8189C13.9266 21.5521 13.9561 21.3221 14.0767 21.0863L15.8847 18.0823L15.8848 18.0823L15.8875 18.0774C16.0783 17.7396 16.3952 17.4952 16.7747 17.4036L16.7748 17.4036C17.1725 17.3075 17.5813 17.3453 17.884 17.5499L17.8931 17.5561L17.9028 17.5612C18.2556 17.747 18.506 18.0532 18.5994 18.4142L18.5994 18.4142L18.6004 18.4177L19.2508 20.7569C19.2859 20.9133 19.3967 21.0237 19.5135 21.0865C19.6323 21.1502 19.7785 21.1773 19.9176 21.1504L13.8892 23.309Z" fill="#4D666F" stroke="#4D666F" stroke-width="0.4"/>
<path d="M6.47276 28.9065L6.47275 28.9065L6.47098 28.9077L3.35814 31.0056C2.74755 31.3874 2.62657 32.1861 3.05239 32.7623L3.05234 32.7623L3.05528 32.7661C3.17258 32.9171 3.30233 33.0472 3.48296 33.1356L4.59815 33.761C4.92478 33.9574 5.2873 34.0332 5.64062 34.0332C6.07642 34.0332 6.47663 33.9178 6.83588 33.6864L6.83592 33.6865L6.84053 33.6834L8.57809 32.4945C9.43341 31.9305 9.89833 30.9917 9.89833 30.0186V29.7741L15.8562 25.7076C15.9897 25.6278 16.0817 25.5013 16.1051 25.3507C16.1281 25.2024 16.0813 25.0542 15.9839 24.9316C15.8997 24.8028 15.771 24.719 15.6237 24.6977C15.4752 24.6761 15.3242 24.7203 15.1973 24.8163L9.31915 28.8082L9.28432 28.7914C8.42095 28.3016 7.32888 28.3427 6.47276 28.9065ZM6.18233 32.7215L6.18232 32.7215L6.18093 32.7225C5.87923 32.9265 5.4521 32.9561 5.12021 32.7824L4.02209 32.1666L3.98634 32.132L3.96596 32.1124C3.93918 32.015 3.9722 31.9309 4.01709 31.8966L7.12929 29.7991L7.12936 29.7992L7.13483 29.7952C7.37988 29.6177 7.66005 29.5532 7.99579 29.5532C8.25001 29.5532 8.50232 29.6138 8.72194 29.7326L8.77385 29.7702L8.77388 29.9834C8.77388 29.9834 8.77388 29.9834 8.77388 29.9834C8.77387 30.6093 8.45085 31.1814 7.91784 31.5689L6.18233 32.7215Z" fill="#4D666F" stroke="#4D666F" stroke-width="0.4"/>
<path d="M4.13484 27.2785L4.13566 27.2786H4.15513H10.8577C11.0098 27.2786 11.1529 27.229 11.2593 27.1263C11.3664 27.023 11.4201 26.8812 11.4201 26.7285C11.4201 26.576 11.3665 26.4343 11.2595 26.331C11.1531 26.2282 11.0099 26.1785 10.8577 26.1785H10.8577L4.15513 26.1787C4.15512 26.1787 4.15512 26.1787 4.15512 26.1787C4.14094 26.1787 4.1272 26.1773 4.11402 26.1746C6.14841 26.0531 8.17959 25.7426 10.1461 25.2426L10.1468 25.2424C11.2252 24.9646 12.3414 24.7558 13.4608 24.5814L13.4609 24.5815L13.4679 24.5801C13.7309 24.5295 13.9798 24.2682 13.9158 23.9583C13.8607 23.6918 13.5887 23.4663 13.288 23.5215C12.1253 23.6971 10.9969 23.9081 9.86728 24.1897L9.86728 24.1897L9.86557 24.1901C7.85198 24.7111 5.80043 24.9894 3.7102 25.0939L3.71019 25.0937L3.70272 25.0944C3.21669 25.137 2.83174 25.4897 2.83174 25.9935C2.83174 26.6989 3.42381 27.2678 4.13484 27.2785Z" fill="#4D666F" stroke="#4D666F" stroke-width="0.4"/>
<path d="M35.4523 24.8557C35.3212 25.5979 34.6442 26.1784 33.8276 26.1784H15.8937C15.7416 26.1784 15.5984 26.228 15.492 26.3307C15.385 26.434 15.3312 26.5758 15.3312 26.7284C15.3312 26.881 15.3849 27.0227 15.4919 27.126C15.5982 27.2288 15.7414 27.2785 15.8937 27.2785H33.7914C35.3082 27.2785 36.5638 26.0754 36.5638 24.5936C36.5638 24.0916 36.1413 23.6937 35.639 23.6937M35.4523 24.8557L35.6393 23.8524V23.6937L35.639 23.6937M35.4523 24.8557C32.2627 25.6249 28.8161 25.3914 25.75 24.2207C24.6703 23.8171 23.5255 23.579 22.3824 23.5689C21.7977 24.0854 21.1451 24.4661 20.4298 24.777L20.4222 24.7803L20.4222 24.7801C20.1621 24.8807 19.8169 24.7913 19.6942 24.4951C19.5848 24.2312 19.6877 23.8943 19.9862 23.7777C20.6491 23.5079 21.2071 23.1376 21.7327 22.6298C21.8381 22.528 21.959 22.4687 22.1254 22.4687C23.4905 22.4687 24.819 22.7184 26.1096 23.2169C29.0373 24.3202 32.3569 24.5283 35.3903 23.7396M35.4523 24.8557L35.3903 23.7396M35.639 23.6937L35.6337 23.6937C35.6019 23.6937 35.5603 23.6937 35.517 23.7006C35.4728 23.7077 35.4324 23.7208 35.3903 23.7396M35.639 23.6937L35.3903 23.7396" fill="#4D666F" stroke="#4D666F" stroke-width="0.4"/>
<path d="M34.5493 10.0091L31.6889 11.9329C30.9754 12.3933 30.5845 13.1942 30.5844 14.0248C30.5844 14.0248 30.5844 14.0248 30.5844 14.0248L30.5842 14.4434L26.1613 17.444C26.1134 17.305 26.0453 17.1652 25.9489 17.0257L25.949 17.0256L25.9458 17.0214C25.4516 16.3449 24.4605 16.1385 23.749 16.6609L21.3577 18.2677L20.9953 18.0523L20.9953 18.0523L20.9934 18.0512C20.707 17.8853 20.3743 18.004 20.2161 18.2585L20.216 18.2586C20.0368 18.5473 20.171 18.8766 20.4304 19.0271L20.4304 19.0271L20.4331 19.0286L21.1216 19.4136L21.1214 19.4139L21.1324 19.4193C21.1815 19.4429 21.2273 19.4589 21.2781 19.4671C21.3214 19.474 21.363 19.474 21.3948 19.474C21.3967 19.474 21.3986 19.474 21.4004 19.474C21.5204 19.474 21.6301 19.4204 21.694 19.3892C21.6978 19.3873 21.7015 19.3856 21.705 19.3839L21.718 19.3775L21.7301 19.3694L24.4111 17.5495L24.4112 17.5495L24.4161 17.546C24.6132 17.4033 24.9212 17.4481 25.0761 17.6726L25.0759 17.6728L25.0828 17.6817C25.2255 17.8656 25.1834 18.1564 24.9809 18.3052L19.5545 21.9745C19.4208 22.0543 19.3287 22.1808 19.3053 22.3317C19.282 22.4814 19.33 22.6312 19.4294 22.7545C19.5504 22.9238 19.7289 22.9735 19.8788 22.9735C19.9988 22.9735 20.1085 22.9199 20.1724 22.8887C20.1762 22.8869 20.1798 22.8851 20.1833 22.8834L20.1963 22.8771L20.2083 22.869L31.2824 15.3671C31.6418 15.492 32.0289 15.554 32.4145 15.554C33.1429 15.554 33.8697 15.3321 34.4814 14.9257L34.4815 14.9257L34.4835 14.9243L35.7152 14.0843L35.7161 14.0837C36.2771 13.6965 36.5996 13.0753 36.5996 12.4144C36.5996 12.4143 36.5996 12.4143 36.5996 12.4143L36.5999 11.05H36.6003L36.5994 11.037C36.5613 10.4468 36.1142 9.92245 35.4998 9.81875L35.502 9.8H35.2768C35.018 9.8 34.7665 9.88276 34.5607 10.002L34.5604 10.0016L34.5493 10.0091ZM35.4751 11.0852L35.4753 12.145L35.439 12.145V12.3448C35.439 12.6651 35.2896 12.9503 35.0235 13.1216L35.0234 13.1216L35.0191 13.1246L33.788 13.9641C33.7879 13.9642 33.7877 13.9643 33.7876 13.9643C33.1581 14.3899 32.4106 14.5028 31.7087 14.3279V14.06C31.7087 13.5956 31.9335 13.141 32.3355 12.9019L32.3357 12.9022L32.3449 12.896L35.1948 10.9792C35.2693 10.9438 35.2957 10.935 35.3127 10.935C35.378 10.935 35.416 10.9554 35.4365 10.9751C35.4563 10.9943 35.4751 11.0276 35.4751 11.0851V11.0852Z" fill="#4D666F" stroke="#4D666F" stroke-width="0.4"/>
</svg>
