<svg width="40" height="47" viewBox="0 0 40 47" fill="none" xmlns="http://www.w3.org/2000/svg">
<path d="M9.40856 16.9487C9.20462 17.7283 8.65285 18.39 7.91324 18.5992L7.91317 18.5989L7.90347 18.6022C7.33398 18.7952 6.76772 18.719 6.26686 18.4087C5.75752 18.0931 5.36061 17.5816 5.21733 16.9987L5.21464 16.9878L5.21073 16.9772C5.10598 16.6935 4.82508 16.4846 4.50974 16.5529L4.49051 16.5571L4.47245 16.5649C4.1931 16.6861 4.02392 16.9886 4.08042 17.2953L4.08201 17.3039L4.08435 17.3124C4.33213 18.2082 4.87128 18.9749 5.66276 19.4717L5.73801 19.5189L5.7394 19.5185C6.22474 19.8055 6.74721 19.928 7.3003 19.928C7.63495 19.928 7.92737 19.8824 8.25558 19.7934L8.25565 19.7937L8.26552 19.7904C10.0653 19.2004 11.051 17.1714 10.556 15.2931L10.556 15.2931L10.5553 15.2903C10.0181 13.3646 8.14631 12.2642 6.37739 12.812L6.37739 12.812L6.37624 12.8123C5.41137 13.1176 4.64748 13.878 4.25728 14.846L2.39272 14.846C2.22445 14.846 2.07113 14.9081 1.96106 15.0274C1.85234 15.1452 1.8 15.3031 1.8 15.4717C1.8 15.6402 1.85224 15.7981 1.96089 15.9159C2.07091 16.0353 2.22426 16.0975 2.39272 16.0975L7.11849 16.0975C7.20553 16.5714 7.59551 16.9487 8.08544 16.9487L9.40856 16.9487ZM5.58976 14.7608C5.86814 14.394 6.23631 14.1151 6.69429 13.9593C7.58214 13.6854 8.47461 14.0183 9.01887 14.7608L5.58976 14.7608Z" fill="#4D666F" stroke="#4D666F" stroke-width="0.4"/>
<path d="M9.70094 30.3295L9.70101 30.3294L8.48525 28.9269C8.25995 28.6802 8.26072 28.3082 8.48752 28.0623C8.60083 27.9395 8.75102 27.8703 8.90935 27.8703C9.06768 27.8703 9.21787 27.9395 9.33118 28.0623L10.5877 29.4245C10.9064 29.77 11.3257 29.9559 11.7362 29.9559C11.7362 29.9559 11.7362 29.9559 11.7362 29.9559L18.9995 29.9556C19.0839 29.9556 19.1634 29.9711 19.2385 30.0073C19.3122 30.0428 19.3711 30.0932 19.4214 30.1477L24.5254 35.681L24.5254 35.681C24.7209 35.8931 25.0563 35.8932 25.2521 35.681L27.947 32.7594L26.9956 33.0269C26.8251 33.0945 26.6516 33.0505 26.5254 32.9669C26.3965 32.8815 26.2929 32.7408 26.2625 32.5756M9.70094 30.3295L26.4592 32.5394M9.70094 30.3295L9.70513 30.334C10.249 30.9237 10.9285 31.2496 11.6974 31.2496L18.6767 31.2496L9.70094 30.3295ZM26.2625 32.5756L26.4592 32.5394M26.2625 32.5756C26.2625 32.5756 26.2625 32.5757 26.2625 32.5757L26.4592 32.5394M26.2625 32.5756C26.2344 32.423 26.2626 32.2614 26.3303 32.1291C26.3971 31.9989 26.516 31.8731 26.6873 31.8343M26.4592 32.5394C26.42 32.3269 26.5378 32.0712 26.7341 32.0288M26.6873 31.8343L26.6838 31.8352L26.7341 32.0288M26.6873 31.8343L27.6636 31.5804M26.6873 31.8343C26.6888 31.834 26.6903 31.8336 26.6919 31.8333L26.7341 32.0288M26.7341 32.0288L27.6636 31.5804M27.6636 31.5804L27.7159 31.7735L27.6656 31.5799L27.6646 31.5801C27.6643 31.5802 27.6639 31.5803 27.6636 31.5804ZM27.9903 32.5394L27.9903 32.7016M27.9903 32.5394L27.9864 32.7167L27.9864 32.7096L27.9864 32.6965L27.9861 32.6892C27.9861 32.6879 27.986 32.6873 27.986 32.6873C27.986 32.6873 27.9861 32.6885 27.9866 32.6905C27.9873 32.6935 27.9884 32.6974 27.9903 32.7016M27.9903 32.5394L28.0321 32.6881L28.0382 32.7096L28.0445 32.732L28.0358 32.7344L28.0251 32.7374M27.9903 32.7016C27.9909 32.703 27.9915 32.7043 27.9923 32.7057C27.9928 32.7067 27.9933 32.7077 27.9938 32.7086L27.9903 32.7016Z" fill="#4D666F" stroke="#4D666F" stroke-width="0.4"/>
<path d="M5.69415 23.3885L5.69443 33.0503C5.69443 33.3808 5.93367 33.6162 6.20098 33.6162C6.4681 33.6162 6.70753 33.381 6.70753 33.0503L6.70753 24.6654C6.70753 24.4967 6.75987 24.3388 6.86859 24.221C6.97866 24.1017 7.13198 24.0396 7.30025 24.0396L7.30025 24.0396M5.69415 23.3885L7.30025 24.0396M5.69415 23.3885C5.69415 23.3885 5.69415 23.3885 5.69415 23.3885C5.69416 22.9277 5.87182 22.4653 6.1908 22.1195C6.81812 21.4394 7.8604 21.4393 8.48805 22.1195C8.48806 22.1195 8.48807 22.1195 8.48808 22.1195L11.354 25.2265C11.4673 25.3493 11.6175 25.4185 11.7758 25.4185C11.9342 25.4185 12.0844 25.3493 12.1977 25.2265C12.4252 24.9798 12.4252 24.6062 12.1977 24.3594C12.1977 24.3594 12.1977 24.3594 12.1977 24.3594L9.3317 21.2524C8.23179 20.06 6.44731 20.06 5.34714 21.2524L5.34712 21.2524C4.80333 21.8419 4.50898 22.5708 4.50898 23.3885L4.50898 33.0503C4.50898 34.0392 5.25102 34.8677 6.20096 34.8677C7.15089 34.8677 7.89293 34.0391 7.89293 33.0503L7.89266 24.6654C7.89266 24.3714 7.6734 24.0396 7.30025 24.0396M5.69415 23.3885L7.30025 24.0396" fill="#4D666F" stroke="#4D666F" stroke-width="0.4"/>
<path d="M13.4212 26.9338L13.4212 27.0084C13.333 27.0381 13.2539 27.0882 13.1896 27.1579C13.0809 27.2757 13.0285 27.4336 13.0285 27.6023C13.0285 27.7708 13.0808 27.9287 13.1894 28.0465C13.2994 28.1658 13.4528 28.2281 13.6212 28.2281L19.1962 28.2281C19.6068 28.2281 20.0261 28.414 20.3448 28.7595L25.2132 34.0374C25.3305 34.1645 25.5019 34.2295 25.6352 34.2295C25.7684 34.2295 25.9399 34.1645 26.0572 34.0374C26.2846 33.7908 26.2847 33.4174 26.0574 33.1706C26.0573 33.1705 26.0572 33.1704 26.0572 33.1703L21.189 27.8503L21.1885 27.8497C20.6446 27.26 19.9652 26.9341 19.1962 26.9341C19.1962 26.9341 19.1962 26.9341 19.1962 26.9341L13.6212 26.9338L13.4212 26.9338Z" fill="#4D666F" stroke="#4D666F" stroke-width="0.4"/>
<path d="M10.4411 20.3793L10.4411 20.3793C10.2728 20.3793 10.1195 20.4414 10.0094 20.5606C9.90068 20.6785 9.84834 20.8364 9.84834 21.005C9.84834 21.1735 9.90058 21.3314 10.0092 21.4492C10.1193 21.5685 10.2726 21.6308 10.4411 21.6308L14.3279 21.6308C14.4123 21.6308 14.4917 21.6152 14.5668 21.5791C14.6405 21.5436 14.6995 21.4934 14.7499 21.4387L17.1057 18.8848C17.3015 18.6725 17.6369 18.6726 17.8323 18.8847L17.8324 18.8848C17.9108 18.9698 17.9757 19.1317 17.9757 19.3026C17.9757 19.4556 17.9228 19.5835 17.8226 19.731L15.3197 22.4444C15.1132 22.6683 14.8494 22.8058 14.5638 22.8058L12.6793 22.8058C12.5111 22.8058 12.3577 22.8679 12.2477 22.9871C12.1389 23.105 12.0866 23.2629 12.0866 23.4315C12.0866 23.6 12.1388 23.7579 12.2475 23.8757C12.3575 23.995 12.5109 24.0573 12.6793 24.0573L13.8717 24.0573L10.4121 27.8079C10.1845 28.0546 10.1845 28.4282 10.4121 28.6749C10.5294 28.8021 10.7008 28.867 10.8341 28.867C10.9673 28.867 11.1388 28.8021 11.256 28.6749L18.2937 21.0453L20.5416 23.4823L20.5434 23.4842C20.5515 23.493 20.5622 23.5046 20.5723 23.5144C20.5833 23.5252 20.6038 23.5441 20.6328 23.5598C20.644 23.5658 20.6553 23.5707 20.6664 23.5745C20.7285 23.6373 20.8053 23.6576 20.8494 23.6655C20.8967 23.6741 20.9412 23.674 20.961 23.674L20.9633 23.674L20.9656 23.674C20.9862 23.674 21.0237 23.6741 21.0693 23.6642C21.1082 23.6558 21.1471 23.6417 21.1885 23.6214C21.2025 23.6172 21.2184 23.6111 21.2351 23.6021C21.2574 23.59 21.2818 23.5721 21.3033 23.5467L21.3154 23.5467L21.3726 23.4945L26.5157 18.8125L26.5221 18.8066L26.5281 18.8002C26.7318 18.5793 26.8167 18.2032 26.5672 17.9331C26.4619 17.819 26.3213 17.7377 26.167 17.7209C26.0099 17.7039 25.8518 17.756 25.7304 17.8833L20.9759 22.1711L19.1149 20.1535L24.2507 14.5857C24.4782 14.339 24.4782 13.9654 24.2507 13.7187C24.1374 13.5958 23.9872 13.5267 23.8288 13.5267C23.6706 13.5267 23.5205 13.5957 23.4073 13.7184C23.4072 13.7185 23.4071 13.7186 23.407 13.7187L18.9937 18.4627C18.9158 18.2968 18.8117 18.1366 18.6683 18.0095C18.1689 17.475 17.4066 17.358 16.771 17.648L16.3923 17.2099L20.3705 12.0675C20.4898 11.9336 20.5277 11.7604 20.5143 11.6077C20.5013 11.4588 20.437 11.3025 20.3152 11.1974C20.0627 10.9367 19.6493 11.0104 19.4672 11.2669L15.1784 16.8038L15.0702 16.8038L15.0702 16.9533C15.0674 16.9577 15.0646 16.9623 15.0619 16.9672C15.042 17.0035 15.0311 17.0447 15.0311 17.089L15.0311 17.1742L15.0311 17.2594L15.0311 17.3446C15.0311 17.3451 15.031 17.3459 15.031 17.347C15.0307 17.3604 15.0292 17.4162 15.0542 17.4706C15.0638 17.4915 15.0768 17.5107 15.0891 17.5264C15.0927 17.5351 15.0968 17.5436 15.1013 17.5518C15.1065 17.5612 15.1121 17.5698 15.1175 17.5773C15.1207 17.5899 15.1255 17.6046 15.1327 17.62C15.1454 17.6477 15.1684 17.6838 15.2088 17.713C15.2173 17.7191 15.226 17.7246 15.235 17.7294L15.9011 18.4515L14.1225 20.3796L10.4411 20.3793ZM15.1772 17.5151L15.1772 17.515L15.3094 17.515C15.2488 17.515 15.2066 17.515 15.1772 17.5151Z" fill="#4D666F" stroke="#4D666F" stroke-width="0.4"/>
<path d="M36.2487 32.3029C36.0513 32.1321 35.8208 32.0015 35.5594 31.9097L35.5576 31.9055L35.4665 31.8791L23.8846 28.5167L23.8847 28.5163L23.8711 28.5133C23.5819 28.4508 23.2238 28.63 23.1611 28.9707C23.133 29.1234 23.1612 29.285 23.229 29.4174C23.2954 29.5468 23.4132 29.6717 23.5828 29.7113L35.1527 33.0702C35.2711 33.113 35.3214 33.1375 35.3585 33.1976L35.3686 33.2141L35.3818 33.2284C35.5861 33.4499 35.586 33.8425 35.3818 34.0636L35.3818 34.0637L31.2199 38.5753L31.3669 38.7109L31.2199 38.5753C30.8014 39.029 30.2124 39.1798 29.6543 39.029L20.7055 36.4334C20.7054 36.4334 20.7052 36.4333 20.705 36.4333C20.3217 36.3198 19.9727 36.0547 19.7637 35.6772L19.7637 35.6772L19.7623 35.6747C19.0034 34.349 17.3515 33.8831 16.0737 34.6216C15.3503 35.0319 14.4093 34.7756 13.9508 34.0129C13.1917 32.6893 11.542 32.224 10.265 32.9607C9.91155 33.1516 9.49417 33.2248 9.08028 33.1123L9.08035 33.1121L9.07012 33.1099C8.78089 33.0473 8.42279 33.2265 8.36011 33.5672L8.55681 33.6034L8.36011 33.5672C8.33202 33.7199 8.36015 33.8816 8.42799 34.0139C8.49464 34.1439 8.6132 34.2693 8.78389 34.3083C9.46234 34.4908 10.1786 34.3975 10.8065 34.0797L10.8066 34.0799L10.815 34.0751C11.5385 33.6643 12.4799 33.9206 12.9386 34.6835C13.698 36.0077 15.3489 36.4729 16.6261 35.7347C17.3499 35.3242 18.2916 35.581 18.7498 36.3447C19.1286 36.9833 19.7174 37.4387 20.3887 37.6659L20.3886 37.6661L20.3971 37.6685L29.3425 40.2631C29.6083 40.358 29.8331 40.358 30.0619 40.358L30.0716 40.358C30.7935 40.358 31.5557 40.0374 32.0665 39.4395L36.2649 34.888C36.9243 34.1731 36.9243 33.0334 36.2649 32.3185L36.2572 32.3103L36.2487 32.3029Z" fill="#4D666F" stroke="#4D666F" stroke-width="0.4"/>
<path d="M17.9251 8.40643L17.9288 8.40293C16.9351 7.33181 16.8616 5.5502 17.8169 4.41479L17.8876 4.29996L17.8947 4.28845L17.9033 4.27801C18.5462 3.49378 19.2708 2.88281 20.0754 2.40298L20.0761 2.4026C21.8322 1.36419 23.7909 0.8 25.792 0.8C32.2769 0.8 37.535 6.52293 37.4953 13.4714C37.4953 13.4717 37.4953 13.4719 37.4953 13.4721L37.2953 13.4709C37.2953 16.2375 36.2352 18.919 34.3508 20.8343C33.7226 21.4726 32.8983 21.8131 32.0737 21.8131C31.2883 21.8131 30.4639 21.5151 29.8357 20.8767L17.9251 8.40643ZM17.9251 8.40643L18.0321 8.50854C18.0418 8.51787 18.0515 8.52713 18.0613 8.53633L18.0766 8.55097C19.1354 9.56108 20.7095 9.56108 21.7683 8.55097L21.7683 8.55098L21.7695 8.54983C23.9343 6.45023 27.1961 6.32683 29.5129 8.22057L29.5132 8.22087C29.6337 8.31886 29.7947 8.36576 29.9495 8.34976C30.1068 8.33351 30.2642 8.25074 30.3591 8.08606C30.4428 7.9607 30.4801 7.80017 30.4668 7.64914C30.4533 7.49619 30.3849 7.33012 30.2304 7.22423C27.442 4.90893 23.564 5.08826 20.9427 7.58024L20.9423 7.58066C20.3522 8.14501 19.4534 8.14505 18.8629 7.58062L18.863 7.58058L18.8596 7.57748C18.1965 6.97212 18.1199 5.86238 18.7187 5.13262L18.7934 5.05155L18.7938 5.05189L18.8026 5.04086C19.2984 4.42086 19.8684 3.92687 20.5126 3.55715L20.5393 3.54186L20.5568 3.52284C20.5587 3.52173 20.562 3.51986 20.5673 3.51702C20.568 3.5166 20.5689 3.51615 20.5697 3.51569C20.5871 3.50632 20.6192 3.48895 20.6533 3.45834C23.2816 1.90084 26.6251 2.23422 28.9486 4.54679L28.9493 4.54749C31.8977 7.45315 32.1285 12.4003 29.4469 15.5983L29.445 15.6005C28.8248 16.3626 28.4954 17.347 28.5365 18.3736C28.5776 19.4 28.9895 20.3431 29.6953 21.0192L17.9251 8.40643ZM27.9587 2.30169C32.7271 3.36464 36.3493 7.97346 36.3493 13.4713L36.3493 13.5162C36.3378 16.0027 35.3774 18.3591 33.6987 20.0551C32.7952 20.9556 31.3895 20.9561 30.4859 20.0957C30.0096 19.6184 29.7215 18.9873 29.7215 18.3235L29.7218 18.3235L29.7212 18.3127C29.6847 17.6387 29.9044 16.9658 30.3412 16.4527L30.3426 16.451C31.8271 14.6675 32.6291 12.3201 32.5086 9.92871C32.3885 7.49878 31.4273 5.27935 29.7796 3.66696C29.2249 3.1178 28.6121 2.6627 27.9587 2.30169Z" fill="#4D666F" stroke="#4D666F" stroke-width="0.4"/>
</svg>
