<svg width="24" height="23" viewBox="0 0 24 23" fill="none" xmlns="http://www.w3.org/2000/svg">
<path d="M22.8903 20.0876C21.2133 20.1706 19.7503 18.3876 19.7373 18.3736C19.6361 18.2476 19.5058 18.148 19.3576 18.0834C19.2095 18.0188 19.0479 17.991 18.8867 18.0025C18.7255 18.014 18.5694 18.0644 18.432 18.1494C18.2945 18.2344 18.1797 18.3515 18.0973 18.4906C17.8126 18.937 17.4236 19.3076 16.9639 19.5705C16.5042 19.8334 15.9875 19.9806 15.4583 19.9996C14.933 19.9978 14.4168 19.8619 13.9587 19.6049C13.5005 19.3478 13.1156 18.978 12.8403 18.5306C12.7551 18.3706 12.6279 18.2368 12.4725 18.1435C12.317 18.0502 12.1391 18.0009 11.9578 18.0009C11.7765 18.0009 11.5986 18.0502 11.4432 18.1435C11.2877 18.2368 11.1606 18.3706 11.0753 18.5306C10.8021 18.9798 10.4178 19.351 9.95944 19.6085C9.50106 19.866 8.98407 20.001 8.45832 20.0006C7.93041 19.9823 7.41481 19.8362 6.95571 19.575C6.49661 19.3138 6.1077 18.9451 5.82232 18.5006C5.74105 18.361 5.62719 18.2433 5.49049 18.1573C5.35379 18.0714 5.1983 18.0198 5.03733 18.007C4.87636 17.9942 4.71469 18.0206 4.56614 18.084C4.41759 18.1473 4.28659 18.2456 4.18432 18.3706C4.16932 18.3886 2.73432 20.1326 1.04132 20.0706C0.909999 20.0653 0.778915 20.0859 0.655554 20.1312C0.532193 20.1765 0.418971 20.2457 0.322352 20.3348C0.12722 20.5148 0.0115619 20.7649 0.000820656 21.0301C-0.00992061 21.2953 0.0851349 21.5539 0.265076 21.749C0.445017 21.9442 0.695104 22.0598 0.960321 22.0706C2.34493 22.0591 3.67853 21.5465 4.71432 20.6276C4.76097 20.5895 4.81978 20.5694 4.87999 20.5711C4.94021 20.5727 4.99783 20.596 5.04232 20.6366C5.96556 21.5102 7.18727 21.9987 8.45832 22.0026C9.68778 22.0134 10.8769 21.5644 11.7923 20.7436C11.8379 20.703 11.8968 20.6806 11.9578 20.6806C12.0188 20.6806 12.0777 20.703 12.1233 20.7436C13.039 21.5645 14.2285 22.0136 15.4583 22.0026C16.7269 21.9991 17.9464 21.512 18.8683 20.6406C18.9129 20.6001 18.9706 20.577 19.0308 20.5756C19.091 20.5741 19.1498 20.5943 19.1963 20.6326C20.1882 21.5154 21.453 22.0311 22.7793 22.0936C22.8483 22.0936 22.9183 22.0936 22.9883 22.0936C23.2535 22.0803 23.5026 21.9622 23.6808 21.7653C23.8589 21.5684 23.9516 21.3088 23.9383 21.0436C23.9251 20.7784 23.807 20.5293 23.6101 20.3511C23.4132 20.173 23.1535 20.0803 22.8883 20.0936L22.8903 20.0876Z" fill="#9FB9C6"/>
</svg>
