<svg width="24" height="23" viewBox="0 0 24 23" fill="none" xmlns="http://www.w3.org/2000/svg">
<path d="M22.8903 2.08758C21.2133 2.17058 19.7503 0.387578 19.7373 0.373578C19.6361 0.247591 19.5058 0.148022 19.3576 0.0834013C19.2095 0.0187805 19.0479 -0.00896618 18.8867 0.00253539C18.7255 0.014037 18.5694 0.0644438 18.432 0.149441C18.2945 0.234439 18.1797 0.351492 18.0973 0.490576C17.8126 0.937038 17.4236 1.30764 16.9639 1.5705C16.5042 1.83336 15.9875 1.98061 15.4583 1.99958C14.933 1.9978 14.4168 1.86194 13.9587 1.60487C13.5005 1.3478 13.1156 0.978026 12.8403 0.530577C12.7551 0.370583 12.6279 0.236778 12.4725 0.143477C12.317 0.0501762 12.1391 0.00088935 11.9578 0.00088935C11.7765 0.00088935 11.5986 0.0501762 11.4432 0.143477C11.2877 0.236778 11.1606 0.370583 11.0753 0.530577C10.8021 0.979779 10.4178 1.35102 9.95944 1.6085C9.50106 1.86598 8.98407 2.00101 8.45832 2.00058C7.93041 1.98228 7.41481 1.83625 6.95571 1.575C6.49661 1.31375 6.1077 0.945077 5.82232 0.500577C5.74105 0.361043 5.62719 0.243267 5.49049 0.157317C5.35379 0.0713666 5.1983 0.0198008 5.03733 0.00702529C4.87636 -0.0057502 4.71469 0.0206452 4.56614 0.0839563C4.41759 0.147267 4.28659 0.245611 4.18432 0.370577C4.16932 0.388577 2.73432 2.13258 1.04132 2.07058C0.909999 2.06526 0.778915 2.08586 0.655554 2.1312C0.532193 2.17654 0.418971 2.24573 0.322352 2.33483C0.12722 2.51477 0.0115619 2.76486 0.000820656 3.03008C-0.00992061 3.29529 0.0851349 3.55391 0.265076 3.74904C0.445017 3.94418 0.695104 4.05983 0.960321 4.07058C2.34493 4.05912 3.67853 3.5465 4.71432 2.62758C4.76097 2.58947 4.81978 2.56941 4.87999 2.57106C4.94021 2.57271 4.99783 2.59597 5.04232 2.63658C5.96556 3.51019 7.18727 3.99874 8.45832 4.00258C9.68778 4.01342 10.8769 3.56438 11.7923 2.74358C11.8379 2.70302 11.8968 2.68062 11.9578 2.68062C12.0188 2.68062 12.0777 2.70302 12.1233 2.74358C13.039 3.56453 14.2285 4.01358 15.4583 4.00258C16.7269 3.9991 17.9464 3.51201 18.8683 2.64058C18.9129 2.60011 18.9706 2.57703 19.0308 2.57557C19.091 2.5741 19.1498 2.59433 19.1963 2.63258C20.1882 3.51536 21.453 4.03107 22.7793 4.09358C22.8483 4.09358 22.9183 4.09358 22.9883 4.09358C23.2535 4.08032 23.5026 3.96224 23.6808 3.76533C23.8589 3.56841 23.9516 3.30879 23.9383 3.04358C23.9251 2.77836 23.807 2.52927 23.6101 2.35111C23.4132 2.17296 23.1535 2.08032 22.8883 2.09358L22.8903 2.08758Z" fill="#9FB9C6"/>
<path d="M22.8903 8.18108C21.2133 8.26408 19.7503 6.48108 19.7373 6.46708C19.6361 6.3411 19.5058 6.24153 19.3576 6.17691C19.2095 6.11229 19.0479 6.08454 18.8867 6.09604C18.7255 6.10754 18.5694 6.15795 18.432 6.24295C18.2945 6.32794 18.1797 6.445 18.0973 6.58408C17.8126 7.03054 17.4236 7.40114 16.9639 7.664C16.5042 7.92686 15.9875 8.07411 15.4583 8.09308C14.933 8.0913 14.4168 7.95545 13.9587 7.69837C13.5005 7.4413 13.1156 7.07153 12.8403 6.62408C12.7551 6.46409 12.6279 6.33028 12.4725 6.23698C12.317 6.14368 12.1391 6.0944 11.9578 6.0944C11.7765 6.0944 11.5986 6.14368 11.4432 6.23698C11.2877 6.33028 11.1606 6.46409 11.0753 6.62408C10.8021 7.07328 10.4178 7.44452 9.95944 7.702C9.50106 7.95948 8.98407 8.09452 8.45832 8.09408C7.93041 8.07578 7.41481 7.92975 6.95571 7.66851C6.49661 7.40726 6.1077 7.03858 5.82232 6.59408C5.74105 6.45455 5.62719 6.33677 5.49049 6.25082C5.35379 6.16487 5.1983 6.11331 5.03733 6.10053C4.87636 6.08776 4.71469 6.11415 4.56614 6.17746C4.41759 6.24077 4.28659 6.33912 4.18432 6.46408C4.16932 6.48208 2.73432 8.22608 1.04132 8.16408C0.909999 8.15876 0.778915 8.17936 0.655554 8.22471C0.532193 8.27005 0.418971 8.33924 0.322352 8.42834C0.12722 8.60828 0.0115619 8.85837 0.000820656 9.12358C-0.00992061 9.3888 0.0851349 9.64742 0.265076 9.84255C0.445017 10.0377 0.695104 10.1533 0.960321 10.1641C2.34493 10.1526 3.67853 9.64001 4.71432 8.72108C4.76097 8.68297 4.81978 8.66291 4.87999 8.66457C4.94021 8.66622 4.99783 8.68947 5.04232 8.73008C5.96556 9.6037 7.18727 10.0922 8.45832 10.0961C9.68778 10.1069 10.8769 9.65788 11.7923 8.83708C11.8379 8.79653 11.8968 8.77412 11.9578 8.77412C12.0188 8.77412 12.0777 8.79653 12.1233 8.83708C13.039 9.65803 14.2285 10.1071 15.4583 10.0961C16.7269 10.0926 17.9464 9.60552 18.8683 8.73408C18.9129 8.69362 18.9706 8.67054 19.0308 8.66907C19.091 8.6676 19.1498 8.68784 19.1963 8.72608C20.1882 9.60886 21.453 10.1246 22.7793 10.1871C22.8483 10.1871 22.9183 10.1871 22.9883 10.1871C23.2535 10.1738 23.5026 10.0557 23.6808 9.85883C23.8589 9.66192 23.9516 9.4023 23.9383 9.13708C23.9251 8.87187 23.807 8.62278 23.6101 8.44462C23.4132 8.26646 23.1535 8.17382 22.8883 8.18708L22.8903 8.18108Z" fill="#9FB9C6"/>
<path d="M22.8903 14.2748C21.2133 14.3578 19.7503 12.5748 19.7373 12.5608C19.6361 12.4348 19.5058 12.3353 19.3576 12.2707C19.2095 12.206 19.0479 12.1783 18.8867 12.1898C18.7255 12.2013 18.5694 12.2517 18.432 12.3367C18.2945 12.4217 18.1797 12.5387 18.0973 12.6778C17.8126 13.1243 17.4236 13.4949 16.9639 13.7578C16.5042 14.0206 15.9875 14.1679 15.4583 14.1868C14.933 14.1851 14.4168 14.0492 13.9587 13.7921C13.5005 13.5351 13.1156 13.1653 12.8403 12.7178C12.7551 12.5578 12.6279 12.424 12.4725 12.3307C12.317 12.2374 12.1391 12.1881 11.9578 12.1881C11.7765 12.1881 11.5986 12.2374 11.4432 12.3307C11.2877 12.424 11.1606 12.5578 11.0753 12.7178C10.8021 13.167 10.4178 13.5383 9.95944 13.7958C9.50106 14.0532 8.98407 14.1883 8.45832 14.1878C7.93041 14.1695 7.41481 14.0235 6.95571 13.7623C6.49661 13.501 6.1077 13.1323 5.82232 12.6878C5.74105 12.5483 5.62719 12.4305 5.49049 12.3446C5.35379 12.2586 5.1983 12.2071 5.03733 12.1943C4.87636 12.1815 4.71469 12.2079 4.56614 12.2712C4.41759 12.3345 4.28659 12.4329 4.18432 12.5578C4.16932 12.5758 2.73432 14.3198 1.04132 14.2578C0.909999 14.2525 0.778915 14.2731 0.655554 14.3185C0.532193 14.3638 0.418971 14.433 0.322352 14.5221C0.12722 14.702 0.0115619 14.9521 0.000820656 15.2173C-0.00992061 15.4825 0.0851349 15.7412 0.265076 15.9363C0.445017 16.1314 0.695104 16.2471 0.960321 16.2578C2.34493 16.2464 3.67853 15.7338 4.71432 14.8148C4.76097 14.7767 4.81978 14.7567 4.87999 14.7583C4.94021 14.76 4.99783 14.7832 5.04232 14.8238C5.96556 15.6974 7.18727 16.186 8.45832 16.1898C9.68778 16.2007 10.8769 15.7516 11.7923 14.9308C11.8379 14.8903 11.8968 14.8679 11.9578 14.8679C12.0188 14.8679 12.0777 14.8903 12.1233 14.9308C13.039 15.7518 14.2285 16.2008 15.4583 16.1898C16.7269 16.1864 17.9464 15.6993 18.8683 14.8278C18.9129 14.7874 18.9706 14.7643 19.0308 14.7628C19.091 14.7614 19.1498 14.7816 19.1963 14.8198C20.1882 15.7026 21.453 16.2183 22.7793 16.2808C22.8483 16.2808 22.9183 16.2808 22.9883 16.2808C23.2535 16.2676 23.5026 16.1495 23.6808 15.9526C23.8589 15.7557 23.9516 15.4961 23.9383 15.2308C23.9251 14.9656 23.807 14.7165 23.6101 14.5384C23.4132 14.3602 23.1535 14.2676 22.8883 14.2808L22.8903 14.2748Z" fill="#9FB9C6"/>
<path d="M22.8903 20.3683C21.2133 20.4513 19.7503 18.6683 19.7373 18.6543C19.6361 18.5284 19.5058 18.4288 19.3576 18.3642C19.2095 18.2995 19.0479 18.2718 18.8867 18.2833C18.7255 18.2948 18.5694 18.3452 18.432 18.4302C18.2945 18.5152 18.1797 18.6323 18.0973 18.7713C17.8126 19.2178 17.4236 19.5884 16.9639 19.8513C16.5042 20.1141 15.9875 20.2614 15.4583 20.2803C14.933 20.2786 14.4168 20.1427 13.9587 19.8856C13.5005 19.6286 13.1156 19.2588 12.8403 18.8113C12.7551 18.6513 12.6279 18.5175 12.4725 18.4242C12.317 18.3309 12.1391 18.2817 11.9578 18.2817C11.7765 18.2817 11.5986 18.3309 11.4432 18.4242C11.2877 18.5175 11.1606 18.6513 11.0753 18.8113C10.8021 19.2605 10.4178 19.6318 9.95944 19.8893C9.50106 20.1467 8.98407 20.2818 8.45832 20.2813C7.93041 20.263 7.41481 20.117 6.95571 19.8558C6.49661 19.5945 6.1077 19.2258 5.82232 18.7813C5.74105 18.6418 5.62719 18.524 5.49049 18.4381C5.35379 18.3521 5.1983 18.3006 5.03733 18.2878C4.87636 18.275 4.71469 18.3014 4.56614 18.3647C4.41759 18.428 4.28659 18.5264 4.18432 18.6513C4.16932 18.6693 2.73432 20.4133 1.04132 20.3513C0.909999 20.346 0.778915 20.3666 0.655554 20.412C0.532193 20.4573 0.418971 20.5265 0.322352 20.6156C0.12722 20.7955 0.0115619 21.0456 0.000820656 21.3108C-0.00992061 21.5761 0.0851349 21.8347 0.265076 22.0298C0.445017 22.2249 0.695104 22.3406 0.960321 22.3513C2.34493 22.3399 3.67853 21.8273 4.71432 20.9083C4.76097 20.8702 4.81978 20.8502 4.87999 20.8518C4.94021 20.8535 4.99783 20.8767 5.04232 20.9173C5.96556 21.791 7.18727 22.2795 8.45832 22.2833C9.68778 22.2942 10.8769 21.8451 11.7923 21.0243C11.8379 20.9838 11.8968 20.9614 11.9578 20.9614C12.0188 20.9614 12.0777 20.9838 12.1233 21.0243C13.039 21.8453 14.2285 22.2943 15.4583 22.2833C16.7269 22.2799 17.9464 21.7928 18.8683 20.9213C18.9129 20.8809 18.9706 20.8578 19.0308 20.8563C19.091 20.8549 19.1498 20.8751 19.1963 20.9133C20.1882 21.7961 21.453 22.3118 22.7793 22.3743C22.8483 22.3743 22.9183 22.3743 22.9883 22.3743C23.2535 22.3611 23.5026 22.243 23.6808 22.0461C23.8589 21.8492 23.9516 21.5896 23.9383 21.3243C23.9251 21.0591 23.807 20.81 23.6101 20.6319C23.4132 20.4537 23.1535 20.3611 22.8883 20.3743L22.8903 20.3683Z" fill="#9FB9C6"/>
</svg>
