<svg width="27" height="26" viewBox="0 0 27 26" fill="none" xmlns="http://www.w3.org/2000/svg">
<g clip-path="url(#clip0_255_1913)">
<path d="M14.7389 9.00977H13.4139C13.3436 9.00977 13.2762 9.03768 13.2265 9.08738C13.1768 9.13707 13.1489 9.20447 13.1489 9.27475V11.9246C13.1489 11.9949 13.1768 12.0623 13.2265 12.112C13.2762 12.1617 13.3436 12.1896 13.4139 12.1896H14.7389C15.1605 12.1896 15.5649 12.0221 15.8631 11.7239C16.1613 11.4258 16.3288 11.0214 16.3288 10.5997C16.3288 10.178 16.1613 9.77361 15.8631 9.47544C15.5649 9.17728 15.1605 9.00977 14.7389 9.00977Z" fill="#4D666F"/>
<path d="M13.6789 0C11.1632 0 8.70407 0.745981 6.61237 2.14361C4.52067 3.54124 2.89039 5.52774 1.92769 7.85191C0.964984 10.1761 0.713097 12.7335 1.20388 15.2009C1.69466 17.6682 2.90607 19.9346 4.68491 21.7134C6.46376 23.4923 8.73014 24.7037 11.1975 25.1944C13.6648 25.6852 16.2222 25.4333 18.5464 24.4706C20.8706 23.5079 22.8571 21.8777 24.2547 19.786C25.6523 17.6943 26.3983 15.2351 26.3983 12.7194C26.3947 9.34714 25.0534 6.11403 22.6689 3.72946C20.2843 1.3449 17.0512 0.00364738 13.6789 0V0ZM14.7389 15.3693H13.4139C13.3436 15.3693 13.2762 15.3972 13.2265 15.4469C13.1768 15.4966 13.1489 15.564 13.1489 15.6343V19.0791C13.1489 19.5008 12.9814 19.9052 12.6832 20.2034C12.3851 20.5016 11.9807 20.6691 11.559 20.6691C11.1373 20.6691 10.7329 20.5016 10.4347 20.2034C10.1366 19.9052 9.96907 19.5008 9.96907 19.0791V8.47962C9.96907 7.77682 10.2483 7.10282 10.7452 6.60587C11.2422 6.10892 11.9162 5.82974 12.619 5.82974H14.7389C16.0039 5.82974 17.2171 6.33227 18.1116 7.22677C19.0061 8.12128 19.5086 9.33449 19.5086 10.5995C19.5086 11.8645 19.0061 13.0778 18.1116 13.9723C17.2171 14.8668 16.0039 15.3693 14.7389 15.3693Z" fill="#4D666F"/>
</g>
<defs>
<clipPath id="clip0_255_1913">
<rect width="25.4388" height="25.4388" fill="white" transform="translate(0.959473)"/>
</clipPath>
</defs>
</svg>
