<svg width="24" height="24" viewBox="0 0 24 24" fill="none" xmlns="http://www.w3.org/2000/svg">
<g clip-path="url(#clip0_255_2152)">
<path d="M8.25 3C8.51522 3 8.76957 2.89464 8.95711 2.70711C9.14464 2.51957 9.25 2.26522 9.25 2V1C9.25 0.734784 9.14464 0.48043 8.95711 0.292893C8.76957 0.105357 8.51522 0 8.25 0C7.98478 0 7.73043 0.105357 7.54289 0.292893C7.35536 0.48043 7.25 0.734784 7.25 1V2C7.25 2.26522 7.35536 2.51957 7.54289 2.70711C7.73043 2.89464 7.98478 3 8.25 3Z" fill="#9FB9C6"/>
<path d="M3.12376 4.53799C3.21667 4.63084 3.32696 4.70447 3.44833 4.7547C3.56969 4.80492 3.69977 4.83074 3.83111 4.8307C3.96246 4.83065 4.09252 4.80473 4.21385 4.75442C4.33518 4.70412 4.44542 4.6304 4.53826 4.53749C4.63111 4.44458 4.70474 4.3343 4.75496 4.21293C4.80518 4.09156 4.83101 3.96149 4.83096 3.83014C4.83092 3.69879 4.805 3.56874 4.75469 3.44741C4.70438 3.32607 4.63067 3.21584 4.53776 3.12299L3.82976 2.41599C3.73685 2.32315 3.62656 2.24951 3.5052 2.19929C3.38383 2.14907 3.25376 2.12324 3.12241 2.12329C2.99106 2.12334 2.86101 2.14925 2.73967 2.19956C2.61834 2.24987 2.50811 2.32358 2.41526 2.41649C2.32242 2.5094 2.24878 2.61969 2.19856 2.74106C2.14834 2.86243 2.12251 2.9925 2.12256 3.12385C2.12261 3.2552 2.14852 3.38525 2.19883 3.50658C2.24914 3.62791 2.32285 3.73815 2.41576 3.83099L3.12376 4.53799Z" fill="#9FB9C6"/>
<path d="M1 9.25H2C2.26522 9.25 2.51957 9.14464 2.70711 8.95711C2.89464 8.76957 3 8.51522 3 8.25C3 7.98478 2.89464 7.73043 2.70711 7.54289C2.51957 7.35536 2.26522 7.25 2 7.25H1C0.734784 7.25 0.48043 7.35536 0.292893 7.54289C0.105357 7.73043 0 7.98478 0 8.25C0 8.51522 0.105357 8.76957 0.292893 8.95711C0.48043 9.14464 0.734784 9.25 1 9.25Z" fill="#9FB9C6"/>
<path d="M14.0851 2.41707C13.9923 2.32409 13.882 2.25033 13.7606 2.20001C13.6392 2.14968 13.509 2.12378 13.3776 2.12378C13.2462 2.12378 13.1161 2.14968 12.9947 2.20001C12.8733 2.25033 12.763 2.32409 12.6701 2.41707L11.9621 3.12407C11.7837 3.30256 11.6794 3.54189 11.6701 3.79407C11.6685 3.83519 11.677 3.8761 11.695 3.91311C11.713 3.95013 11.7399 3.98211 11.7733 4.00618C11.8067 4.03026 11.8455 4.04568 11.8863 4.05107C11.9271 4.05646 11.9686 4.05165 12.0071 4.03707C12.6915 3.78296 13.4057 3.61762 14.1321 3.54507C14.184 3.53967 14.2329 3.5183 14.2722 3.48391C14.3114 3.44952 14.339 3.4038 14.3511 3.35307C14.3902 3.18731 14.3862 3.01433 14.3397 2.85053C14.2931 2.68673 14.2055 2.53753 14.0851 2.41707Z" fill="#9FB9C6"/>
<path d="M5.22918 9.31305C5.27911 9.28665 5.31857 9.24406 5.34111 9.19227C5.36364 9.14049 5.3679 9.08258 5.35318 9.02805C5.20878 8.49109 5.21645 7.92457 5.37533 7.39172C5.53421 6.85886 5.83806 6.38065 6.25296 6.01046C6.66785 5.64028 7.17746 5.39268 7.72491 5.29531C8.27235 5.19794 8.83608 5.25463 9.35318 5.45905C9.39411 5.47501 9.43856 5.47981 9.48195 5.47296C9.52535 5.46611 9.56615 5.44785 9.60018 5.42005C10.0273 5.06911 10.4878 4.76097 10.9752 4.50005C11.0132 4.47997 11.0454 4.45042 11.0687 4.41425C11.0919 4.37809 11.1055 4.33653 11.108 4.2936C11.1105 4.25067 11.1019 4.20781 11.083 4.16918C11.0641 4.13054 11.0356 4.09743 11.0002 4.07305C10.1148 3.49184 9.06768 3.2068 8.00984 3.25901C6.952 3.31123 5.93807 3.69801 5.11421 4.36359C4.29035 5.02918 3.69912 5.93918 3.42576 6.96242C3.1524 7.98566 3.21102 9.06928 3.59318 10.0571C3.60734 10.0951 3.63055 10.1291 3.66081 10.1562C3.69107 10.1833 3.72746 10.2025 3.76684 10.2124C3.80623 10.2222 3.84742 10.2223 3.88685 10.2127C3.92629 10.2031 3.96278 10.184 3.99318 10.1571C4.37415 9.83277 4.78847 9.54985 5.22918 9.31305Z" fill="#9FB9C6"/>
<path d="M22.0002 11.9999C22.0028 10.331 21.4091 8.71596 20.326 7.44615C19.243 6.17635 17.7418 5.3353 16.0933 5.07467C14.4449 4.81404 12.7575 5.15097 11.3355 6.02472C9.91353 6.89847 8.85053 8.25153 8.33819 9.83992C8.32308 9.88748 8.29403 9.9294 8.2548 9.96025C8.21557 9.9911 8.16797 10.0094 8.11819 10.0129C6.9562 10.0959 5.85035 10.5448 4.95928 11.2952C4.06821 12.0456 3.4377 13.059 3.15819 14.1899C3.14934 14.2259 3.14851 14.2633 3.15577 14.2996C3.16303 14.3359 3.1782 14.3701 3.20019 14.3999C3.22337 14.4311 3.25354 14.4564 3.28828 14.4737C3.32302 14.4911 3.36135 14.5001 3.40019 14.4999H4.96419C5.01598 14.5 5.0665 14.4839 5.10878 14.454C5.15105 14.4241 5.183 14.3818 5.20019 14.3329C5.4679 13.5789 5.98589 12.9393 6.66788 12.5208C7.34987 12.1023 8.15466 11.9301 8.94819 12.0329C9.20599 12.0664 9.46669 11.9981 9.67502 11.8426C9.88335 11.6871 10.0229 11.4566 10.0642 11.1999C10.2647 9.95895 10.9252 8.83902 11.9143 8.0632C12.9034 7.28738 14.1485 6.91259 15.4015 7.01348C16.6545 7.11436 17.8235 7.68352 18.6757 8.6076C19.528 9.53167 20.0008 10.7429 20.0002 11.9999C20.0002 12.1469 19.9932 12.2929 19.9812 12.4379C19.9648 12.6281 20.0032 12.8189 20.0918 12.988C20.1804 13.157 20.3155 13.2972 20.4812 13.3919C21.0567 13.7191 21.5078 14.2274 21.7642 14.8377C22.0207 15.4479 22.0681 16.1259 21.8991 16.7659C21.7301 17.4059 21.3541 17.9721 20.8298 18.3762C20.3054 18.7802 19.6622 18.9995 19.0002 18.9999H15.1002C15.0556 19.0002 15.0119 19.0123 14.9736 19.0351C14.9352 19.0578 14.9037 19.0904 14.8821 19.1294C14.8605 19.1684 14.8497 19.2124 14.8507 19.257C14.8518 19.3015 14.8647 19.345 14.8882 19.3829C15.1587 19.814 15.344 20.293 15.4342 20.7939C15.4441 20.8518 15.4743 20.9043 15.5194 20.9421C15.5644 20.9798 15.6214 21.0003 15.6802 20.9999H19.0002C20.0496 20.9999 21.0724 20.6697 21.9237 20.0561C22.7751 19.4425 23.4118 18.5766 23.7436 17.5811C24.0755 16.5855 24.0857 15.5108 23.7728 14.5091C23.4599 13.5074 22.8397 12.6296 22.0002 11.9999Z" fill="#9FB9C6"/>
<path d="M11.5 19H1C0.734784 19 0.48043 19.1054 0.292893 19.2929C0.105357 19.4804 0 19.7348 0 20C0 20.2652 0.105357 20.5196 0.292893 20.7071C0.48043 20.8946 0.734784 21 1 21H11.5C11.6326 21 11.7598 21.0527 11.8536 21.1464C11.9473 21.2402 12 21.3674 12 21.5C12 21.6326 11.9473 21.7598 11.8536 21.8536C11.7598 21.9473 11.6326 22 11.5 22C11.2348 22 10.9804 22.1054 10.7929 22.2929C10.6054 22.4804 10.5 22.7348 10.5 23C10.5 23.2652 10.6054 23.5196 10.7929 23.7071C10.9804 23.8946 11.2348 24 11.5 24C12.163 24 12.7989 23.7366 13.2678 23.2678C13.7366 22.7989 14 22.163 14 21.5C14 20.837 13.7366 20.2011 13.2678 19.7322C12.7989 19.2634 12.163 19 11.5 19Z" fill="#9FB9C6"/>
<path d="M1 18H9.5C10.163 18 10.7989 17.7366 11.2678 17.2678C11.7366 16.7989 12 16.163 12 15.5C12 14.837 11.7366 14.2011 11.2678 13.7322C10.7989 13.2634 10.163 13 9.5 13C9.23478 13 8.98043 13.1054 8.79289 13.2929C8.60536 13.4804 8.5 13.7348 8.5 14C8.5 14.2652 8.60536 14.5196 8.79289 14.7071C8.98043 14.8946 9.23478 15 9.5 15C9.63261 15 9.75979 15.0527 9.85355 15.1464C9.94732 15.2402 10 15.3674 10 15.5C10 15.6326 9.94732 15.7598 9.85355 15.8536C9.75979 15.9473 9.63261 16 9.5 16H1C0.734784 16 0.48043 16.1054 0.292893 16.2929C0.105357 16.4804 0 16.7348 0 17C0 17.2652 0.105357 17.5196 0.292893 17.7071C0.48043 17.8946 0.734784 18 1 18Z" fill="#9FB9C6"/>
</g>
<defs>
<clipPath id="clip0_255_2152">
<rect width="24" height="24" fill="white"/>
</clipPath>
</defs>
</svg>
