<svg width="25" height="24" viewBox="0 0 25 24" fill="none" xmlns="http://www.w3.org/2000/svg">
<g clip-path="url(#clip0_255_1926)">
<path d="M15.7759 0C15.577 0 15.3862 0.0790176 15.2455 0.21967C15.1049 0.360322 15.0259 0.551088 15.0259 0.75V23C15.0259 23.2652 15.1312 23.5196 15.3188 23.7071C15.5063 23.8946 15.7607 24 16.0259 24C16.2911 24 16.5455 23.8946 16.733 23.7071C16.9205 23.5196 17.0259 23.2652 17.0259 23V15C17.0259 14.8674 17.0786 14.7402 17.1723 14.6464C17.2661 14.5527 17.3933 14.5 17.5259 14.5H19.2759C19.4403 14.5009 19.6033 14.4692 19.7553 14.4067C19.9074 14.3443 20.0456 14.2522 20.1618 14.136C20.2781 14.0197 20.3701 13.8815 20.4326 13.7295C20.4951 13.5774 20.5268 13.4144 20.5259 13.25V13.243C20.4619 6.055 18.1079 0 15.7759 0Z" fill="#4D666F"/>
<path d="M11.0259 0C10.7607 0 10.5063 0.105357 10.3188 0.292893C10.1312 0.48043 10.0259 0.734784 10.0259 1V6C10.0268 6.52355 9.82171 7.02645 9.45488 7.4C9.41995 7.43513 9.37541 7.45915 9.32686 7.46901C9.27832 7.47888 9.22794 7.47416 9.18207 7.45545C9.1362 7.43674 9.09689 7.40487 9.0691 7.36386C9.0413 7.32285 9.02627 7.27454 9.02588 7.225V1C9.02588 0.734784 8.92052 0.48043 8.73299 0.292893C8.54545 0.105357 8.2911 0 8.02588 0C7.76066 0 7.50631 0.105357 7.31877 0.292893C7.13124 0.48043 7.02588 0.734784 7.02588 1V7.223C7.02549 7.27254 7.01046 7.32085 6.98266 7.36186C6.95487 7.40287 6.91556 7.43474 6.86969 7.45345C6.82382 7.47216 6.77344 7.47688 6.72489 7.46701C6.67635 7.45715 6.6318 7.43313 6.59688 7.398C6.23053 7.02494 6.02546 6.52286 6.02588 6V1C6.02588 0.734784 5.92052 0.48043 5.73299 0.292893C5.54545 0.105357 5.2911 0 5.02588 0C4.76066 0 4.50631 0.105357 4.31877 0.292893C4.13124 0.48043 4.02588 0.734784 4.02588 1V6C4.02706 6.82704 4.28399 7.63347 4.76146 8.30876C5.23892 8.98405 5.91355 9.49515 6.69288 9.772C6.79024 9.8065 6.87452 9.8703 6.93415 9.95464C6.99377 10.039 7.02582 10.1397 7.02588 10.243V23C7.02588 23.2652 7.13124 23.5196 7.31877 23.7071C7.50631 23.8946 7.76066 24 8.02588 24C8.2911 24 8.54545 23.8946 8.73299 23.7071C8.92052 23.5196 9.02588 23.2652 9.02588 23V10.243C9.02594 10.1397 9.05798 10.039 9.11761 9.95464C9.17724 9.8703 9.26152 9.8065 9.35888 9.772C10.1382 9.49515 10.8128 8.98405 11.2903 8.30876C11.7678 7.63347 12.0247 6.82704 12.0259 6V1C12.0259 0.734784 11.9205 0.48043 11.733 0.292893C11.5454 0.105357 11.2911 0 11.0259 0V0Z" fill="#4D666F"/>
</g>
<defs>
<clipPath id="clip0_255_1926">
<rect width="24" height="24" fill="white" transform="translate(0.275879)"/>
</clipPath>
</defs>
</svg>
