<svg width="40" height="41" viewBox="0 0 40 41" fill="none" xmlns="http://www.w3.org/2000/svg">
<mask id="path-1-outside-1_265_6282" maskUnits="userSpaceOnUse" x="1" y="4" width="38" height="33" fill="black">
<rect fill="white" x="1" y="4" width="38" height="33"/>
<path d="M17.6413 12.3793C17.6486 12.3736 17.6558 12.3679 17.6629 12.3622C17.7448 12.2974 17.8225 12.237 17.8957 12.1812"/>
<path fill-rule="evenodd" clip-rule="evenodd" d="M20.3073 28.3129L18.6096 11.0984V11.0852C18.6096 11.0585 18.599 11.0149 18.5731 10.9759C18.5492 10.9401 18.5202 10.9193 18.4873 10.9111L18.4414 10.8997L18.402 10.8734C18.388 10.864 18.3636 10.8551 18.3178 10.8617C18.2697 10.8685 18.2116 10.8913 18.156 10.9283L18.1483 10.9334L18.1402 10.9381C17.7964 11.1343 9.18428 16.8132 7.10325 28.8855C7.15572 29.0858 7.19262 29.1593 7.27566 29.2008L7.28583 29.2059C7.31554 29.22 7.32843 29.2226 7.33561 29.2238C7.35033 29.2262 7.36775 29.2269 7.42797 29.2269C7.45847 29.2269 7.5027 29.2114 7.60949 29.1586L7.61197 29.1567C7.62593 29.1462 7.64444 29.1325 7.66722 29.1162C7.71291 29.0835 7.77758 29.0388 7.86034 28.9847C7.92448 28.9428 7.99967 28.8951 8.08549 28.8429L8.67982 28.8172C8.46447 29.2077 8.6348 29.0373 8.68472 28.8145L8.08817 28.8413C8.22333 28.7592 8.38474 28.666 8.5709 28.5663C9.18245 28.239 10.0631 27.8417 11.1585 27.5442C13.349 26.9493 16.3969 26.7546 19.8567 28.3129C18.7735 28.3615 19.8023 28.3348 20.3073 28.3129ZM8.08817 28.8413C8.08727 28.8419 8.08638 28.8424 8.08549 28.8429L7.10325 28.8855L8.08817 28.8413ZM19.69 27.61L18.119 11.668L17.7304 11.9645C15.6196 13.5753 9.8657 18.8318 7.92888 27.7978L7.80352 28.3781L8.32529 28.0948C10.2039 27.0749 14.2279 25.5182 19.2781 27.4523L19.69 27.61Z"/>
<path fill-rule="evenodd" clip-rule="evenodd" d="M22.5715 28.1851C22.5656 28.1848 22.5603 28.1844 22.5556 28.184L22.5369 28.1652L22.4757 28.1449C22.4426 28.1339 22.3756 28.0843 22.3299 27.9169L20.0829 5.28361L20.0781 5.26416C20.0729 5.2434 20.0738 5.2105 20.1045 5.16266C20.135 5.11535 20.1877 5.06655 20.2548 5.03096C20.3482 4.99532 20.4084 4.9961 20.4461 5.00555C20.4827 5.0147 20.5285 5.03939 20.5809 5.10874L20.5821 5.11023L36.4731 26.9742L36.4756 26.9775C36.5313 27.0518 36.5443 27.1054 36.5443 27.1427C36.5443 27.1773 36.5331 27.2258 36.4872 27.2918C36.4364 27.3384 36.3719 27.3763 36.3084 27.395C36.2447 27.4137 36.1978 27.4094 36.1651 27.3954C36.1618 27.3936 36.1587 27.392 36.1561 27.3906C36.1542 27.3896 36.1525 27.3887 36.151 27.388C36.1412 27.383 36.1306 27.378 36.1206 27.3735C36.1001 27.3643 36.073 27.3527 36.0406 27.3394C35.9752 27.3126 35.8824 27.2763 35.765 27.2331C35.53 27.1468 35.1935 27.0317 34.7758 26.9079C33.9409 26.6606 32.7779 26.3776 31.4505 26.2213C28.8106 25.9103 25.4749 26.0954 22.7934 28.1158C22.6844 28.1698 22.6396 28.1856 22.6088 28.1856L22.5936 28.1856C22.586 28.1855 22.5789 28.1854 22.5715 28.1851ZM34.7527 26.3082L35.5218 26.5373L20.8153 6.22031L22.8734 27.3871L23.2461 27.1555C27.1973 24.6993 32.1933 25.5459 34.7527 26.3082Z"/>
<path fill-rule="evenodd" clip-rule="evenodd" d="M35.4396 34.7669L35.444 34.7724L35.4487 34.7777C35.9301 35.3191 36.6035 35.6911 37.4063 35.6911C37.5112 35.6911 37.6272 35.769 37.6275 35.9669C37.6274 36.0694 37.5944 36.1336 37.5565 36.1715C37.5186 36.2094 37.4543 36.2424 37.3518 36.2424C36.392 36.2424 35.5391 35.8406 34.934 35.0842L34.9296 35.0787L34.9249 35.0734C34.4409 34.5291 33.7116 34.16 32.9673 34.16C32.2354 34.16 31.496 34.4647 31.0005 35.0842C30.3954 35.8406 29.5426 36.2424 28.5828 36.2424C27.6229 36.2424 26.7701 35.8406 26.165 35.0842L26.1606 35.0787L26.1559 35.0734C25.6719 34.5291 24.9426 34.16 24.1982 34.16C23.4664 34.16 22.727 34.4647 22.2315 35.0842C21.6264 35.8406 20.7735 36.2424 19.8137 36.2424C18.8539 36.2424 18.0011 35.8406 17.396 35.0842L17.3916 35.0787L17.3868 35.0734C16.9029 34.5291 16.1736 34.16 15.4292 34.16C14.6974 34.16 13.958 34.4647 13.4624 35.0842C12.8573 35.8406 12.0045 36.2424 11.0447 36.2424C10.0849 36.2424 9.23204 35.8406 8.62696 35.0842L8.62253 35.0787L8.61781 35.0734C8.13385 34.5291 7.40456 34.16 6.6602 34.16C5.92835 34.16 5.18894 34.4647 4.69341 35.0842C4.08832 35.8406 3.2355 36.2424 2.27568 36.2424C2.17305 36.2424 2.10881 36.2094 2.0709 36.1714C2.03297 36.1335 2 36.0692 2 35.9667C2 35.864 2.03302 35.7998 2.07095 35.7619C2.1089 35.724 2.17317 35.691 2.27568 35.691C3.00753 35.691 3.74694 35.3863 4.24247 34.7668C4.84756 34.0104 5.70038 33.6087 6.6602 33.6087C6.96291 33.6087 7.31727 33.6596 7.61532 33.759L8.15741 33.9399L7.1367 31.2178C7.10325 31.1155 7.10939 31.044 7.16101 30.9666C7.23873 30.8502 7.3285 30.8138 7.37283 30.8138H7.38131L36.427 29.0053C36.555 29.0076 36.6678 29.0713 36.724 29.1831C36.7734 29.2822 36.7589 29.3765 36.6681 29.4688L33.2157 32.7019L33.2125 32.705C33.1403 32.7772 33.0673 32.8383 32.9842 32.9077L32.9809 32.9103C32.9005 32.9774 32.8103 33.0526 32.7194 33.1435L32.2542 33.6087H33.0218C33.9816 33.6087 34.8345 34.0105 35.4396 34.7669ZM11.0449 35.6911C11.7768 35.6911 12.5162 35.3864 13.0117 34.7669C13.6168 34.0106 14.4696 33.6088 15.4294 33.6088C16.3892 33.6088 17.2421 34.0106 17.8472 34.7669C18.3465 35.3913 19.1438 35.6911 19.8686 35.6911C20.6004 35.6911 21.3398 35.3864 21.8353 34.7669C22.4404 34.0106 23.2933 33.6088 24.2531 33.6088C25.1655 33.6088 26.0586 34.015 26.5474 34.7479L26.554 34.7577L26.5614 34.7669C26.8062 35.0728 27.1118 35.3167 27.4742 35.4979L27.5829 35.5523L27.6959 35.5077C29.7211 35.5077 30.7687 34.4009 31.8584 33.2498C32.1517 32.9398 32.4482 32.6267 32.7675 32.331L32.7686 32.3301L35.6979 29.673L7.81315 31.3874L8.54329 33.3787L8.54477 33.3824C8.89451 34.2567 9.47518 34.9491 10.1578 35.5182L10.2056 35.5581L10.2712 35.5745C10.4889 35.6291 10.736 35.6911 11.0449 35.6911Z"/>
</mask>
<path d="M17.6413 12.3793C17.6486 12.3736 17.6558 12.3679 17.6629 12.3622C17.7448 12.2974 17.8225 12.237 17.8957 12.1812" fill="#4D666F"/>
<path fill-rule="evenodd" clip-rule="evenodd" d="M20.3073 28.3129L18.6096 11.0984V11.0852C18.6096 11.0585 18.599 11.0149 18.5731 10.9759C18.5492 10.9401 18.5202 10.9193 18.4873 10.9111L18.4414 10.8997L18.402 10.8734C18.388 10.864 18.3636 10.8551 18.3178 10.8617C18.2697 10.8685 18.2116 10.8913 18.156 10.9283L18.1483 10.9334L18.1402 10.9381C17.7964 11.1343 9.18428 16.8132 7.10325 28.8855C7.15572 29.0858 7.19262 29.1593 7.27566 29.2008L7.28583 29.2059C7.31554 29.22 7.32843 29.2226 7.33561 29.2238C7.35033 29.2262 7.36775 29.2269 7.42797 29.2269C7.45847 29.2269 7.5027 29.2114 7.60949 29.1586L7.61197 29.1567C7.62593 29.1462 7.64444 29.1325 7.66722 29.1162C7.71291 29.0835 7.77758 29.0388 7.86034 28.9847C7.92448 28.9428 7.99967 28.8951 8.08549 28.8429L8.67982 28.8172C8.46447 29.2077 8.6348 29.0373 8.68472 28.8145L8.08817 28.8413C8.22333 28.7592 8.38474 28.666 8.5709 28.5663C9.18245 28.239 10.0631 27.8417 11.1585 27.5442C13.349 26.9493 16.3969 26.7546 19.8567 28.3129C18.7735 28.3615 19.8023 28.3348 20.3073 28.3129ZM8.08817 28.8413C8.08727 28.8419 8.08638 28.8424 8.08549 28.8429L7.10325 28.8855L8.08817 28.8413ZM19.69 27.61L18.119 11.668L17.7304 11.9645C15.6196 13.5753 9.8657 18.8318 7.92888 27.7978L7.80352 28.3781L8.32529 28.0948C10.2039 27.0749 14.2279 25.5182 19.2781 27.4523L19.69 27.61Z" fill="#4D666F"/>
<path fill-rule="evenodd" clip-rule="evenodd" d="M22.5715 28.1851C22.5656 28.1848 22.5603 28.1844 22.5556 28.184L22.5369 28.1652L22.4757 28.1449C22.4426 28.1339 22.3756 28.0843 22.3299 27.9169L20.0829 5.28361L20.0781 5.26416C20.0729 5.2434 20.0738 5.2105 20.1045 5.16266C20.135 5.11535 20.1877 5.06655 20.2548 5.03096C20.3482 4.99532 20.4084 4.9961 20.4461 5.00555C20.4827 5.0147 20.5285 5.03939 20.5809 5.10874L20.5821 5.11023L36.4731 26.9742L36.4756 26.9775C36.5313 27.0518 36.5443 27.1054 36.5443 27.1427C36.5443 27.1773 36.5331 27.2258 36.4872 27.2918C36.4364 27.3384 36.3719 27.3763 36.3084 27.395C36.2447 27.4137 36.1978 27.4094 36.1651 27.3954C36.1618 27.3936 36.1587 27.392 36.1561 27.3906C36.1542 27.3896 36.1525 27.3887 36.151 27.388C36.1412 27.383 36.1306 27.378 36.1206 27.3735C36.1001 27.3643 36.073 27.3527 36.0406 27.3394C35.9752 27.3126 35.8824 27.2763 35.765 27.2331C35.53 27.1468 35.1935 27.0317 34.7758 26.9079C33.9409 26.6606 32.7779 26.3776 31.4505 26.2213C28.8106 25.9103 25.4749 26.0954 22.7934 28.1158C22.6844 28.1698 22.6396 28.1856 22.6088 28.1856L22.5936 28.1856C22.586 28.1855 22.5789 28.1854 22.5715 28.1851ZM34.7527 26.3082L35.5218 26.5373L20.8153 6.22031L22.8734 27.3871L23.2461 27.1555C27.1973 24.6993 32.1933 25.5459 34.7527 26.3082Z" fill="#4D666F"/>
<path fill-rule="evenodd" clip-rule="evenodd" d="M35.4396 34.7669L35.444 34.7724L35.4487 34.7777C35.9301 35.3191 36.6035 35.6911 37.4063 35.6911C37.5112 35.6911 37.6272 35.769 37.6275 35.9669C37.6274 36.0694 37.5944 36.1336 37.5565 36.1715C37.5186 36.2094 37.4543 36.2424 37.3518 36.2424C36.392 36.2424 35.5391 35.8406 34.934 35.0842L34.9296 35.0787L34.9249 35.0734C34.4409 34.5291 33.7116 34.16 32.9673 34.16C32.2354 34.16 31.496 34.4647 31.0005 35.0842C30.3954 35.8406 29.5426 36.2424 28.5828 36.2424C27.6229 36.2424 26.7701 35.8406 26.165 35.0842L26.1606 35.0787L26.1559 35.0734C25.6719 34.5291 24.9426 34.16 24.1982 34.16C23.4664 34.16 22.727 34.4647 22.2315 35.0842C21.6264 35.8406 20.7735 36.2424 19.8137 36.2424C18.8539 36.2424 18.0011 35.8406 17.396 35.0842L17.3916 35.0787L17.3868 35.0734C16.9029 34.5291 16.1736 34.16 15.4292 34.16C14.6974 34.16 13.958 34.4647 13.4624 35.0842C12.8573 35.8406 12.0045 36.2424 11.0447 36.2424C10.0849 36.2424 9.23204 35.8406 8.62696 35.0842L8.62253 35.0787L8.61781 35.0734C8.13385 34.5291 7.40456 34.16 6.6602 34.16C5.92835 34.16 5.18894 34.4647 4.69341 35.0842C4.08832 35.8406 3.2355 36.2424 2.27568 36.2424C2.17305 36.2424 2.10881 36.2094 2.0709 36.1714C2.03297 36.1335 2 36.0692 2 35.9667C2 35.864 2.03302 35.7998 2.07095 35.7619C2.1089 35.724 2.17317 35.691 2.27568 35.691C3.00753 35.691 3.74694 35.3863 4.24247 34.7668C4.84756 34.0104 5.70038 33.6087 6.6602 33.6087C6.96291 33.6087 7.31727 33.6596 7.61532 33.759L8.15741 33.9399L7.1367 31.2178C7.10325 31.1155 7.10939 31.044 7.16101 30.9666C7.23873 30.8502 7.3285 30.8138 7.37283 30.8138H7.38131L36.427 29.0053C36.555 29.0076 36.6678 29.0713 36.724 29.1831C36.7734 29.2822 36.7589 29.3765 36.6681 29.4688L33.2157 32.7019L33.2125 32.705C33.1403 32.7772 33.0673 32.8383 32.9842 32.9077L32.9809 32.9103C32.9005 32.9774 32.8103 33.0526 32.7194 33.1435L32.2542 33.6087H33.0218C33.9816 33.6087 34.8345 34.0105 35.4396 34.7669ZM11.0449 35.6911C11.7768 35.6911 12.5162 35.3864 13.0117 34.7669C13.6168 34.0106 14.4696 33.6088 15.4294 33.6088C16.3892 33.6088 17.2421 34.0106 17.8472 34.7669C18.3465 35.3913 19.1438 35.6911 19.8686 35.6911C20.6004 35.6911 21.3398 35.3864 21.8353 34.7669C22.4404 34.0106 23.2933 33.6088 24.2531 33.6088C25.1655 33.6088 26.0586 34.015 26.5474 34.7479L26.554 34.7577L26.5614 34.7669C26.8062 35.0728 27.1118 35.3167 27.4742 35.4979L27.5829 35.5523L27.6959 35.5077C29.7211 35.5077 30.7687 34.4009 31.8584 33.2498C32.1517 32.9398 32.4482 32.6267 32.7675 32.331L32.7686 32.3301L35.6979 29.673L7.81315 31.3874L8.54329 33.3787L8.54477 33.3824C8.89451 34.2567 9.47518 34.9491 10.1578 35.5182L10.2056 35.5581L10.2712 35.5745C10.4889 35.6291 10.736 35.6911 11.0449 35.6911Z" fill="#4D666F"/>
<path d="M7.10325 28.8855L7.09428 28.6857L7.11192 29.0853L7.10325 28.8855ZM17.7728 12.0234L17.5184 12.2215L17.7643 12.5371L18.0186 12.3389L17.7728 12.0234ZM8.67575 28.6147L7.09428 28.6857L7.11223 29.0853L8.69369 29.0143L8.67575 28.6147ZM8.67115 28.6173L7.09459 28.6857L7.11192 29.0853L8.68849 29.017L8.67115 28.6173ZM20.3073 28.3129L20.3246 28.7125L20.7468 28.6942L20.7054 28.2736L20.3073 28.3129ZM18.6096 11.0984H18.2096V11.1181L18.2115 11.1376L18.6096 11.0984ZM18.5731 10.9759L18.2402 11.1978L18.2402 11.1978L18.5731 10.9759ZM18.4873 10.9111L18.5842 10.523L18.5842 10.523L18.4873 10.9111ZM18.4414 10.8997L18.2193 11.2324L18.2771 11.2709L18.3445 11.2877L18.4414 10.8997ZM18.402 10.8734L18.18 11.2061L18.18 11.2061L18.402 10.8734ZM18.3178 10.8617L18.2612 10.4657L18.2612 10.4657L18.3178 10.8617ZM18.156 10.9283L18.3775 11.2613L18.3775 11.2613L18.156 10.9283ZM18.1483 10.9334L18.3466 11.2808L18.3584 11.2741L18.3698 11.2665L18.1483 10.9334ZM18.1402 10.9381L18.3385 11.2855L18.3385 11.2855L18.1402 10.9381ZM7.10325 28.8855L6.70907 28.8176L6.69434 28.903L6.71632 28.9869L7.10325 28.8855ZM7.27566 29.2008L7.45483 28.8432L7.45481 28.8432L7.27566 29.2008ZM7.28583 29.2059L7.10662 29.5637L7.11468 29.5675L7.28583 29.2059ZM7.33561 29.2238L7.40121 28.8292L7.40117 28.8292L7.33561 29.2238ZM7.60949 29.1586L7.78661 29.5173L7.82033 29.5006L7.85036 29.478L7.60949 29.1586ZM7.61197 29.1567L7.85284 29.4761L7.85375 29.4754L7.61197 29.1567ZM7.66722 29.1162L7.43437 28.791L7.43434 28.791L7.66722 29.1162ZM7.86034 28.9847L7.64153 28.6499H7.64153L7.86034 28.9847ZM8.67982 28.8172L9.03009 29.0103L9.37401 28.3867L8.66249 28.4175L8.67982 28.8172ZM8.68472 28.8145L9.07505 28.902L9.18944 28.3915L8.66678 28.4149L8.68472 28.8145ZM8.5709 28.5663L8.75963 28.919L8.75964 28.919L8.5709 28.5663ZM11.1585 27.5442L11.2633 27.9303L11.1585 27.5442ZM19.8567 28.3129L19.8747 28.7125L20.021 27.9482L19.8567 28.3129ZM17.6629 12.3622L17.4146 12.0486L17.4146 12.0486L17.6629 12.3622ZM22.5556 28.184L22.2728 28.4668L22.3744 28.5684L22.5174 28.5821L22.5556 28.184ZM22.5715 28.1851L22.5534 28.5846L22.5534 28.5847L22.5715 28.1851ZM22.5369 28.1652L22.8197 27.8824L22.7528 27.8155L22.6631 27.7857L22.5369 28.1652ZM22.4757 28.1449L22.602 27.7653L22.602 27.7653L22.4757 28.1449ZM22.3299 27.9169L21.9319 27.9564L21.9352 27.9898L21.944 28.0221L22.3299 27.9169ZM20.0829 5.28361L20.481 5.24409L20.4781 5.21481L20.4709 5.18626L20.0829 5.28361ZM20.0781 5.26416L19.6901 5.36149L19.6901 5.36151L20.0781 5.26416ZM20.1045 5.16266L20.4409 5.37906L20.4409 5.37906L20.1045 5.16266ZM20.2548 5.03096L20.1122 4.65724L20.0892 4.66603L20.0674 4.67759L20.2548 5.03096ZM20.4461 5.00555L20.349 5.39358L20.349 5.39359L20.4461 5.00555ZM20.5809 5.10874L20.9005 4.86815L20.9 4.86751L20.5809 5.10874ZM20.5821 5.11023L20.9057 4.87503L20.9016 4.86964L20.5821 5.11023ZM36.4731 26.9742L36.1495 27.2094L36.1531 27.2142L36.4731 26.9742ZM36.4756 26.9775L36.1556 27.2176L36.1557 27.2176L36.4756 26.9775ZM36.4872 27.2918L36.7576 27.5866L36.7902 27.5567L36.8155 27.5204L36.4872 27.2918ZM36.3084 27.395L36.1955 27.0113L36.1955 27.0113L36.3084 27.395ZM36.1651 27.3954L35.97 27.7447L35.9885 27.755L36.0079 27.7632L36.1651 27.3954ZM36.1561 27.3906L35.9706 27.745L35.9707 27.745L36.1561 27.3906ZM36.151 27.388L36.3319 27.0312L36.3318 27.0312L36.151 27.388ZM36.1206 27.3735L36.2853 27.009L36.2853 27.009L36.1206 27.3735ZM36.0406 27.3394L35.8887 27.7094L36.0406 27.3394ZM35.765 27.2331L35.903 26.8577L35.903 26.8577L35.765 27.2331ZM34.7758 26.9079L34.6622 27.2915L34.7758 26.9079ZM31.4505 26.2213L31.4973 25.824L31.4505 26.2213ZM22.7934 28.1158L22.9708 28.4743L23.0043 28.4577L23.0341 28.4353L22.7934 28.1158ZM22.6088 28.1856L22.6077 28.5856H22.6088V28.1856ZM22.5936 28.1856L22.5905 28.5856L22.5925 28.5856L22.5936 28.1856ZM35.5218 26.5373L35.4076 26.9207L36.5365 27.2569L35.8459 26.3028L35.5218 26.5373ZM34.7527 26.3083L34.6385 26.6916L34.7527 26.3083ZM20.8153 6.22031L21.1394 5.98577L20.2745 4.79092L20.4172 6.25902L20.8153 6.22031ZM22.8734 27.3871L22.4753 27.4259L22.5376 28.0669L23.0846 27.7269L22.8734 27.3871ZM23.2461 27.1555L23.0349 26.8158L23.2461 27.1555ZM18.1189 11.668L18.517 11.6287L18.4467 10.9147L17.8763 11.35L18.1189 11.668ZM19.69 27.61L19.5469 27.9836L20.1516 28.2151L20.0881 27.5708L19.69 27.61ZM17.7304 11.9645L17.4877 11.6465V11.6465L17.7304 11.9645ZM7.92888 27.7978L8.31986 27.8822L7.92888 27.7978ZM7.80352 28.3781L7.41253 28.2936L7.22853 29.1454L7.99437 28.7296L7.80352 28.3781ZM8.32529 28.0948L8.51614 28.4464H8.51614L8.32529 28.0948ZM19.278 27.4523L19.4211 27.0787H19.4211L19.278 27.4523ZM35.444 34.7724L35.1316 35.0223L35.1382 35.0304L35.1451 35.0382L35.444 34.7724ZM35.4396 34.7669L35.7519 34.517L35.7519 34.517L35.4396 34.7669ZM35.4487 34.7777L35.7476 34.5119L35.7476 34.5119L35.4487 34.7777ZM37.6275 35.9669L38.0275 35.9671V35.9664L37.6275 35.9669ZM37.5565 36.1715L37.2738 35.8885L37.2738 35.8886L37.5565 36.1715ZM34.934 35.0842L35.2464 34.8343L35.2463 34.8343L34.934 35.0842ZM34.9296 35.0787L35.2419 34.8287L35.2354 34.8206L35.2285 34.8129L34.9296 35.0787ZM34.9249 35.0734L34.626 35.3392L34.626 35.3392L34.9249 35.0734ZM31.0005 35.0842L31.3128 35.3341L31.3129 35.3341L31.0005 35.0842ZM26.165 35.0842L26.4774 34.8343L26.4773 34.8343L26.165 35.0842ZM26.1606 35.0787L26.4729 34.8287L26.4664 34.8206L26.4595 34.8129L26.1606 35.0787ZM26.1559 35.0734L25.857 35.3392L25.857 35.3392L26.1559 35.0734ZM22.2315 35.0842L22.5438 35.3341L22.5438 35.3341L22.2315 35.0842ZM17.396 35.0842L17.7083 34.8343L17.7083 34.8343L17.396 35.0842ZM17.3916 35.0787L17.7039 34.8287L17.6974 34.8206L17.6905 34.8129L17.3916 35.0787ZM17.3868 35.0734L17.0879 35.3392L17.0879 35.3392L17.3868 35.0734ZM13.4624 35.0842L13.7748 35.3341L13.7748 35.3341L13.4624 35.0842ZM8.62697 35.0842L8.93931 34.8343L8.93927 34.8343L8.62697 35.0842ZM8.62253 35.0787L8.93483 34.8287L8.92835 34.8206L8.92145 34.8129L8.62253 35.0787ZM8.61781 35.0734L8.91673 34.8076L8.91672 34.8076L8.61781 35.0734ZM4.69341 35.0842L5.00576 35.3341L5.00578 35.3341L4.69341 35.0842ZM2.0709 36.1714L2.35382 35.8887L2.35381 35.8886L2.0709 36.1714ZM2.07095 35.7619L1.78817 35.479L1.78817 35.479L2.07095 35.7619ZM4.24247 34.7668L3.93012 34.5169L3.9301 34.5169L4.24247 34.7668ZM7.61532 33.759L7.4887 34.1385L7.61532 33.759ZM8.15741 33.9399L8.03079 34.3194L8.82644 34.5849L8.53195 33.7995L8.15741 33.9399ZM7.1367 31.2178L6.75652 31.3421L6.75917 31.3502L6.76216 31.3582L7.1367 31.2178ZM7.16101 30.9666L6.82831 30.7446L6.82831 30.7446L7.16101 30.9666ZM7.38131 30.8138V31.2138H7.39375L7.40616 31.213L7.38131 30.8138ZM36.427 29.0053L36.4343 28.6053L36.4182 28.605L36.4021 28.606L36.427 29.0053ZM36.724 29.1831L37.0818 29.0045L37.0814 29.0036L36.724 29.1831ZM36.6681 29.4688L36.9416 29.7608L36.9476 29.7551L36.9534 29.7492L36.6681 29.4688ZM33.2157 32.7019L32.9421 32.4097L32.9329 32.419L33.2157 32.7019ZM32.9842 32.9077L32.728 32.6004L32.7279 32.6005L32.9842 32.9077ZM32.9809 32.9103L33.2371 33.2176L33.2372 33.2175L32.9809 32.9103ZM32.2542 33.6087L31.9713 33.3259L31.2885 34.0087H32.2542V33.6087ZM13.0117 34.7669L12.6994 34.517L12.6993 34.5171L13.0117 34.7669ZM17.8472 34.7669L18.1595 34.5171L18.1595 34.517L17.8472 34.7669ZM21.8353 34.7669L21.523 34.517L21.523 34.5171L21.8353 34.7669ZM26.5474 34.7479L26.2146 34.9698L26.2147 34.9698L26.5474 34.7479ZM26.554 34.7577L26.2212 34.9797L26.2308 34.9941L26.2417 35.0076L26.554 34.7577ZM26.5614 34.7669L26.8737 34.517L26.8737 34.517L26.5614 34.7669ZM27.4742 35.4979L27.6531 35.1402L27.6531 35.1402L27.4742 35.4979ZM27.5829 35.5523L27.404 35.91L27.5635 35.9898L27.7295 35.9244L27.5829 35.5523ZM27.6959 35.5077V35.1077H27.62L27.5493 35.1356L27.6959 35.5077ZM31.8584 33.2498L31.5679 32.9748L31.8584 33.2498ZM32.7675 32.331L32.496 32.0373L32.4958 32.0375L32.7675 32.331ZM32.7686 32.3301L32.4998 32.0338L32.497 32.0363L32.7686 32.3301ZM35.6979 29.673L35.9666 29.9693L36.8105 29.2039L35.6733 29.2738L35.6979 29.673ZM7.81315 31.3874L7.7886 30.9881L7.2528 31.0211L7.43759 31.5251L7.81315 31.3874ZM8.54329 33.3787L8.16758 33.5165L8.1719 33.5273L8.54329 33.3787ZM8.54477 33.3824L8.17337 33.531L8.17338 33.531L8.54477 33.3824ZM10.1578 35.5182L10.414 35.211L10.414 35.211L10.1578 35.5182ZM10.2056 35.5581L9.94949 35.8653L10.0197 35.9238L10.1083 35.946L10.2056 35.5581ZM10.2712 35.5745L10.3686 35.1865L10.3685 35.1865L10.2712 35.5745ZM18.2115 11.1376L19.9092 28.3522L20.7054 28.2736L19.0076 11.0591L18.2115 11.1376ZM18.2096 11.0852V11.0984H19.0096V11.0852H18.2096ZM18.2402 11.1978C18.2293 11.1815 18.2229 11.1662 18.2187 11.1528C18.2152 11.1414 18.2096 11.119 18.2096 11.0852H19.0096C19.0096 10.9771 18.9743 10.8567 18.9059 10.7541L18.2402 11.1978ZM18.3905 11.2992C18.3552 11.2904 18.3223 11.2746 18.2944 11.2538C18.2672 11.2335 18.25 11.2124 18.2402 11.1978L18.9059 10.7541C18.8357 10.6487 18.7281 10.5589 18.5842 10.523L18.3905 11.2992ZM18.3445 11.2877L18.3905 11.2992L18.5842 10.523L18.5383 10.5116L18.3445 11.2877ZM18.18 11.2061L18.2193 11.2324L18.6635 10.5669L18.6241 10.5407L18.18 11.2061ZM18.3744 11.2576C18.3628 11.2593 18.3352 11.2617 18.2973 11.2546C18.2568 11.2469 18.2164 11.2304 18.18 11.2061L18.6241 10.5407C18.5119 10.4658 18.3833 10.4482 18.2612 10.4657L18.3744 11.2576ZM18.3775 11.2613C18.3837 11.2572 18.3885 11.255 18.3904 11.2542C18.3912 11.2539 18.3906 11.2542 18.3884 11.2548C18.3863 11.2554 18.3816 11.2566 18.3744 11.2576L18.2612 10.4657C18.1429 10.4826 18.0293 10.5322 17.9345 10.5952L18.3775 11.2613ZM18.3698 11.2665L18.3775 11.2613L17.9345 10.5952L17.9268 10.6004L18.3698 11.2665ZM18.3385 11.2855L18.3466 11.2808L17.95 10.586L17.9419 10.5907L18.3385 11.2855ZM7.49744 28.9535C8.5236 23.0006 11.1593 18.6256 13.5807 15.714C14.7916 14.258 15.9481 13.169 16.8211 12.4333C17.2575 12.0655 17.6225 11.7864 17.8875 11.5942C18.02 11.4981 18.1271 11.4239 18.2053 11.3715C18.2444 11.3453 18.2759 11.3247 18.2993 11.3098C18.311 11.3023 18.3204 11.2964 18.3275 11.2921C18.331 11.2899 18.3337 11.2883 18.3357 11.2871C18.3378 11.2858 18.3386 11.2854 18.3385 11.2855L17.9419 10.5907C17.5402 10.8199 8.8179 16.584 6.70907 28.8176L7.49744 28.9535ZM6.71632 28.9869C6.76456 29.171 6.83328 29.4266 7.09652 29.5585L7.45481 28.8432C7.46719 28.8494 7.48528 28.8608 7.50311 28.8785C7.52019 28.8955 7.52844 28.9098 7.5302 28.9131C7.53116 28.9148 7.52725 28.9079 7.51936 28.8847C7.51158 28.8618 7.50218 28.8299 7.49019 28.7841L6.71632 28.9869ZM7.0965 29.5585L7.10666 29.5636L7.465 28.8483L7.45483 28.8432L7.0965 29.5585ZM7.11468 29.5675C7.17184 29.5945 7.22026 29.6101 7.27006 29.6184L7.40117 28.8292C7.40433 28.8297 7.41155 28.831 7.42052 28.8331C7.42919 28.8351 7.43682 28.8373 7.44321 28.8394C7.45529 28.8433 7.46068 28.8462 7.45698 28.8444L7.11468 29.5675ZM7.27002 29.6184C7.32424 29.6274 7.37842 29.6269 7.42797 29.6269V28.8269C7.41352 28.8269 7.40264 28.8269 7.39421 28.8268C7.38565 28.8267 7.38099 28.8266 7.3787 28.8265C7.37647 28.8264 7.37845 28.8265 7.3829 28.8269C7.38816 28.8273 7.39449 28.8281 7.40121 28.8292L7.27002 29.6184ZM7.42797 29.6269C7.51188 29.6269 7.582 29.6051 7.62945 29.5875C7.67772 29.5696 7.73053 29.545 7.78661 29.5173L7.43238 28.8C7.40823 28.8119 7.3898 28.8206 7.37564 28.827C7.36124 28.8335 7.35363 28.8365 7.35079 28.8376C7.34774 28.8387 7.35371 28.8363 7.36598 28.8335C7.37924 28.8305 7.4007 28.8269 7.42797 28.8269V29.6269ZM7.85375 29.4754C7.86417 29.4675 7.87963 29.4561 7.9001 29.4414L7.43434 28.791C7.40925 28.8089 7.3877 28.8248 7.37019 28.8381L7.85375 29.4754ZM7.90008 29.4414C7.94094 29.4122 8.00091 29.3707 8.07915 29.3195L7.64153 28.6499C7.55424 28.7069 7.48489 28.7548 7.43437 28.791L7.90008 29.4414ZM8.07915 29.3195C8.13973 29.28 8.21125 29.2346 8.2933 29.1847L7.87769 28.5012C7.78809 28.5556 7.70924 28.6056 7.64153 28.6499L8.07915 29.3195ZM8.66249 28.4175L8.06816 28.4433L8.10282 29.2426L8.69715 29.2168L8.66249 28.4175ZM8.2944 28.7271C8.28967 28.7482 8.28087 28.7721 8.27149 28.7918C8.26937 28.7963 8.26752 28.7999 8.26608 28.8025C8.26461 28.8053 8.26386 28.8065 8.264 28.8062C8.2641 28.8061 8.26458 28.8053 8.26545 28.804C8.2663 28.8027 8.2678 28.8005 8.26997 28.7976C8.27263 28.794 8.28348 28.7792 8.3018 28.7612C8.31074 28.7523 8.32906 28.7351 8.35571 28.7172C8.37569 28.7037 8.43795 28.6636 8.53027 28.6529C8.65148 28.6388 8.79539 28.6815 8.89073 28.8047C8.96222 28.8971 8.97077 28.9912 8.9727 29.0202C8.97706 29.0861 8.96267 29.1349 8.96216 29.1368C8.9603 29.1439 8.95868 29.1489 8.95783 29.1514C8.95737 29.1528 8.95701 29.1538 8.95678 29.1545C8.95656 29.1551 8.95643 29.1554 8.95642 29.1555C8.95642 29.1555 8.95651 29.1552 8.95671 29.1547C8.95692 29.1542 8.95722 29.1535 8.95762 29.1525C8.95845 29.1505 8.95962 29.1478 8.96122 29.1442C8.96444 29.137 8.969 29.1272 8.97518 29.1146C8.98762 29.0893 9.00544 29.055 9.03009 29.0103L8.32955 28.624C8.2734 28.7258 8.23274 28.808 8.20901 28.8702C8.20273 28.8866 8.19515 28.9081 8.18879 28.9321C8.18532 28.9452 8.16974 29.0021 8.17445 29.0731C8.17654 29.1048 8.18565 29.2007 8.25804 29.2943C8.35429 29.4187 8.49945 29.4618 8.62225 29.4476C8.71615 29.4367 8.7803 29.3957 8.80247 29.3808C8.83131 29.3614 8.8521 29.342 8.86379 29.3305C8.90452 29.2903 8.93234 29.2466 8.9449 29.2262C8.96211 29.1983 8.9786 29.1676 8.99374 29.1359C9.0236 29.0732 9.05481 28.9923 9.07505 28.902L8.2944 28.7271ZM8.66678 28.4149L8.07022 28.4417L8.10611 29.2409L8.70267 29.2141L8.66678 28.4149ZM8.29586 29.1832C8.4251 29.1046 8.58019 29.015 8.75963 28.919L8.38216 28.2137C8.18929 28.3169 8.02156 28.4137 7.88048 28.4995L8.29586 29.1832ZM8.75964 28.919C9.3496 28.6033 10.2021 28.2185 11.2633 27.9303L11.0537 27.1582C9.92409 27.465 9.0153 27.8748 8.38215 28.2137L8.75964 28.919ZM11.2633 27.9303C13.3816 27.355 16.3321 27.1642 19.6925 28.6776L20.021 27.9482C16.4618 26.3451 13.3165 26.5437 11.0537 27.1582L11.2633 27.9303ZM8.29312 29.1848C8.29372 29.1845 8.29504 29.1837 8.29619 29.183L7.88014 28.4997C7.87951 28.5 7.87905 28.5003 7.87786 28.501L8.29312 29.1848ZM8.06816 28.4433L7.08592 28.4859L7.12058 29.2852L8.10282 29.2426L8.06816 28.4433ZM8.07022 28.4417L7.08531 28.4859L7.1212 29.2851L8.10611 29.2409L8.07022 28.4417ZM17.4146 12.0486C17.4073 12.0544 17.3999 12.0603 17.3925 12.0661L17.8902 12.6925C17.8972 12.6869 17.9043 12.6813 17.9113 12.6758L17.4146 12.0486ZM17.653 11.8632C17.5779 11.9205 17.4983 11.9823 17.4146 12.0486L17.9113 12.6758C17.9913 12.6124 18.0671 12.5535 18.1383 12.4991L17.653 11.8632ZM22.5174 28.5821C22.5295 28.5833 22.5416 28.5841 22.5534 28.5846L22.5897 27.7855C22.5895 27.7855 22.591 27.7855 22.5939 27.7858L22.5174 28.5821ZM22.2541 28.4481L22.2728 28.4668L22.8385 27.9011L22.8197 27.8824L22.2541 28.4481ZM22.3495 28.5245L22.4107 28.5448L22.6631 27.7857L22.602 27.7653L22.3495 28.5245ZM21.944 28.0221C22.0068 28.2521 22.1355 28.4533 22.3495 28.5245L22.602 27.7653C22.6758 27.7899 22.7131 27.8306 22.725 27.8462C22.7374 27.8623 22.7287 27.8586 22.7158 27.8116L21.944 28.0221ZM19.6849 5.32312L21.9319 27.9564L22.728 27.8773L20.481 5.24409L19.6849 5.32312ZM19.6901 5.36151L19.695 5.38095L20.4709 5.18626L20.466 5.16682L19.6901 5.36151ZM19.7681 4.94627C19.69 5.06769 19.6529 5.21306 19.6901 5.36149L20.466 5.16684C20.4777 5.21326 20.4785 5.26037 20.4698 5.30338C20.4615 5.34403 20.447 5.36965 20.4409 5.37906L19.7681 4.94627ZM20.0674 4.67759C19.9481 4.74086 19.8405 4.83378 19.7681 4.94627L20.4409 5.37906C20.4372 5.38494 20.4343 5.38846 20.4329 5.38998C20.4315 5.39156 20.4311 5.39191 20.4317 5.39135C20.4332 5.39004 20.4368 5.3872 20.4422 5.38434L20.0674 4.67759ZM20.5432 4.61751C20.4066 4.58332 20.2611 4.60042 20.1122 4.65724L20.3974 5.40469C20.4169 5.39726 20.4203 5.39846 20.4103 5.39944C20.3993 5.40052 20.3776 5.40072 20.349 5.39358L20.5432 4.61751ZM20.9 4.86751C20.8038 4.74026 20.685 4.65298 20.5432 4.61751L20.349 5.39359C20.3204 5.38641 20.2953 5.37439 20.2765 5.36104C20.2595 5.349 20.2555 5.34155 20.2619 5.34996L20.9 4.86751ZM20.9016 4.86964L20.9005 4.86815L20.2614 5.34933L20.2625 5.35082L20.9016 4.86964ZM36.7966 26.739L20.9056 4.87506L20.2585 5.3454L36.1495 27.2093L36.7966 26.739ZM36.7955 26.7374L36.793 26.7341L36.1531 27.2142L36.1556 27.2176L36.7955 26.7374ZM36.9443 27.1427C36.9443 26.9999 36.8906 26.8641 36.7955 26.7374L36.1557 27.2176C36.1649 27.23 36.1616 27.2286 36.1561 27.2139C36.15 27.1976 36.1443 27.173 36.1443 27.1427H36.9443ZM36.8155 27.5204C36.8986 27.401 36.9443 27.2742 36.9443 27.1427H36.1443C36.1443 27.1149 36.1491 27.0916 36.1549 27.0749C36.1602 27.0595 36.1644 27.0555 36.1589 27.0633L36.8155 27.5204ZM36.4213 27.7787C36.549 27.7412 36.6664 27.6703 36.7576 27.5866L36.2167 26.9971C36.2133 27.0003 36.208 27.0043 36.202 27.0078C36.1958 27.0114 36.1931 27.012 36.1955 27.0113L36.4213 27.7787ZM36.0079 27.7632C36.145 27.8219 36.2905 27.8172 36.4213 27.7787L36.1955 27.0113C36.199 27.0102 36.2505 26.997 36.3223 27.0276L36.0079 27.7632ZM35.9707 27.745L35.97 27.7447L36.3601 27.0462C36.353 27.0423 36.3467 27.0389 36.3414 27.0361L35.9707 27.745ZM35.9701 27.7447L35.9706 27.745L36.3415 27.0362C36.3379 27.0343 36.3347 27.0326 36.3319 27.0312L35.9701 27.7447ZM35.9559 27.7381C35.9634 27.7414 35.9679 27.7436 35.9702 27.7448L36.3318 27.0312C36.3144 27.0224 36.2977 27.0146 36.2853 27.009L35.9559 27.7381ZM35.8887 27.7094C35.9188 27.7218 35.9412 27.7314 35.9559 27.7381L36.2853 27.009C36.259 26.9971 36.2273 26.9837 36.1925 26.9694L35.8887 27.7094ZM35.627 27.6086C35.7407 27.6504 35.8287 27.6848 35.8887 27.7094L36.1925 26.9694C36.1217 26.9403 36.0242 26.9022 35.903 26.8577L35.627 27.6086ZM34.6622 27.2915C35.0714 27.4127 35.3998 27.525 35.627 27.6086L35.903 26.8577C35.6602 26.7685 35.3156 26.6507 34.8894 26.5244L34.6622 27.2915ZM31.4037 26.6185C32.7034 26.7716 33.8436 27.049 34.6622 27.2915L34.8894 26.5244C34.0382 26.2722 32.8524 25.9836 31.4973 25.824L31.4037 26.6185ZM23.0341 28.4353C25.5958 26.5051 28.8073 26.3127 31.4037 26.6185L31.4973 25.824C28.8139 25.5079 25.3539 25.6857 22.5527 27.7963L23.0341 28.4353ZM22.6088 28.5856C22.6934 28.5856 22.7641 28.5634 22.8118 28.5457C22.8603 28.5275 22.9138 28.5025 22.9708 28.4743L22.616 27.7573C22.5912 27.7696 22.5723 27.7786 22.5577 27.7852C22.5428 27.7919 22.5349 27.7951 22.5318 27.7963C22.5284 27.7975 22.5342 27.7951 22.5464 27.7923C22.5597 27.7893 22.5813 27.7856 22.6088 27.7856V28.5856ZM22.5925 28.5856L22.6077 28.5856L22.6099 27.7856L22.5947 27.7856L22.5925 28.5856ZM22.5534 28.5847C22.5674 28.5853 22.58 28.5855 22.5905 28.5856L22.5968 27.7856C22.592 27.7856 22.5903 27.7855 22.5897 27.7855L22.5534 28.5847ZM35.636 26.154L34.8669 25.9249L34.6385 26.6916L35.4076 26.9207L35.636 26.154ZM20.4913 6.45485L35.1978 26.7719L35.8459 26.3028L21.1394 5.98577L20.4913 6.45485ZM23.2716 27.3484L21.2135 6.1816L20.4172 6.25902L22.4753 27.4259L23.2716 27.3484ZM23.0349 26.8158L22.6623 27.0474L23.0846 27.7269L23.4573 27.4952L23.0349 26.8158ZM34.8669 25.9249C32.2833 25.1553 27.1396 24.2642 23.0349 26.8158L23.4573 27.4952C27.2551 25.1343 32.1033 25.9364 34.6385 26.6916L34.8669 25.9249ZM17.7209 11.7072L19.2919 27.6493L20.0881 27.5708L18.517 11.6287L17.7209 11.7072ZM17.973 12.2825L18.3616 11.9859L17.8763 11.35L17.4877 11.6465L17.973 12.2825ZM8.31986 27.8822C10.229 19.0443 15.9034 13.8618 17.973 12.2825L17.4877 11.6465C15.3357 13.2888 9.50238 18.6194 7.5379 27.7133L8.31986 27.8822ZM8.1945 28.4626L8.31986 27.8822L7.5379 27.7133L7.41253 28.2936L8.1945 28.4626ZM8.13444 27.7433L7.61266 28.0266L7.99437 28.7296L8.51614 28.4464L8.13444 27.7433ZM19.4211 27.0787C14.2218 25.0876 10.071 26.6919 8.13443 27.7433L8.51614 28.4464C10.3369 27.4579 14.234 25.9489 19.135 27.8258L19.4211 27.0787ZM19.833 27.2365L19.4211 27.0787L19.135 27.8258L19.5469 27.9836L19.833 27.2365ZM35.7564 34.5226L35.7519 34.517L35.1272 35.0167L35.1316 35.0223L35.7564 34.5226ZM35.7476 34.5119L35.7429 34.5066L35.1451 35.0382L35.1498 35.0436L35.7476 34.5119ZM37.4063 35.2911C36.736 35.2911 36.1662 34.9826 35.7476 34.5119L35.1498 35.0435C35.6941 35.6556 36.471 36.0911 37.4063 36.0911V35.2911ZM38.0275 35.9664C38.0272 35.7879 37.973 35.6124 37.8457 35.4788C37.7205 35.3475 37.5567 35.2911 37.4063 35.2911V36.0911C37.3607 36.0911 37.3074 36.0737 37.2666 36.0308C37.2235 35.9856 37.2275 35.9481 37.2275 35.9674L38.0275 35.9664ZM37.8393 36.4544C37.9617 36.332 38.0274 36.1614 38.0275 35.9671L37.2275 35.9667C37.2275 35.9748 37.2263 35.9668 37.2331 35.9491C37.2402 35.9309 37.2531 35.9092 37.2738 35.8885L37.8393 36.4544ZM37.3518 36.6424C37.546 36.6424 37.7168 36.5768 37.8393 36.4544L37.2738 35.8886C37.2944 35.8679 37.3162 35.855 37.3343 35.848C37.352 35.8412 37.3599 35.8424 37.3518 35.8424V36.6424ZM34.6217 35.3341C35.3038 36.1867 36.2722 36.6424 37.3518 36.6424V35.8424C36.5117 35.8424 35.7745 35.4944 35.2464 34.8343L34.6217 35.3341ZM34.6173 35.3286L34.6217 35.3342L35.2463 34.8343L35.2419 34.8287L34.6173 35.3286ZM34.626 35.3392L34.6307 35.3445L35.2285 34.8129L35.2238 34.8076L34.626 35.3392ZM32.9673 34.56C33.5841 34.56 34.2086 34.8698 34.626 35.3392L35.2238 34.8076C34.6732 34.1884 33.8392 33.76 32.9673 33.76V34.56ZM31.3129 35.3341C31.7246 34.8193 32.3438 34.56 32.9673 34.56V33.76C32.1271 33.76 31.2674 34.1101 30.6881 34.8344L31.3129 35.3341ZM28.5828 36.6424C29.6623 36.6424 30.6307 36.1867 31.3128 35.3341L30.6882 34.8344C30.1601 35.4944 29.4228 35.8424 28.5828 35.8424V36.6424ZM25.8527 35.3341C26.5347 36.1867 27.5032 36.6424 28.5828 36.6424V35.8424C27.7427 35.8424 27.0054 35.4944 26.4774 34.8343L25.8527 35.3341ZM25.8483 35.3286L25.8527 35.3342L26.4773 34.8343L26.4729 34.8287L25.8483 35.3286ZM25.857 35.3392L25.8617 35.3445L26.4595 34.8129L26.4548 34.8076L25.857 35.3392ZM24.1982 34.56C24.8151 34.56 25.4396 34.8698 25.857 35.3392L26.4548 34.8076C25.9042 34.1884 25.0701 33.76 24.1982 33.76V34.56ZM22.5438 35.3341C22.9556 34.8193 23.5747 34.56 24.1982 34.56V33.76C23.3581 33.76 22.4984 34.1101 21.9191 34.8344L22.5438 35.3341ZM19.8137 36.6424C20.8933 36.6424 21.8617 36.1867 22.5438 35.3341L21.9191 34.8344C21.391 35.4944 20.6538 35.8424 19.8137 35.8424V36.6424ZM17.0836 35.3341C17.7657 36.1867 18.7342 36.6424 19.8137 36.6424V35.8424C18.9737 35.8424 18.2364 35.4944 17.7083 34.8343L17.0836 35.3341ZM17.0793 35.3286L17.0837 35.3342L17.7083 34.8343L17.7039 34.8287L17.0793 35.3286ZM17.0879 35.3392L17.0927 35.3445L17.6905 34.8129L17.6857 34.8076L17.0879 35.3392ZM15.4292 34.56C16.0461 34.56 16.6706 34.8698 17.0879 35.3392L17.6857 34.8076C17.1352 34.1884 16.3011 33.76 15.4292 33.76V34.56ZM13.7748 35.3341C14.1866 34.8193 14.8057 34.56 15.4292 34.56V33.76C14.589 33.76 13.7294 34.1101 13.1501 34.8344L13.7748 35.3341ZM11.0447 36.6424C12.1243 36.6424 13.0927 36.1867 13.7748 35.3341L13.1501 34.8344C12.622 35.4944 11.8848 35.8424 11.0447 35.8424V36.6424ZM8.31462 35.3341C8.9967 36.1867 9.96514 36.6424 11.0447 36.6424V35.8424C10.2046 35.8424 9.46738 35.4944 8.93931 34.8343L8.31462 35.3341ZM8.31022 35.3286L8.31466 35.3342L8.93927 34.8343L8.93483 34.8287L8.31022 35.3286ZM8.31889 35.3392L8.32361 35.3445L8.92145 34.8129L8.91673 34.8076L8.31889 35.3392ZM6.6602 34.56C7.27704 34.56 7.90154 34.8698 8.3189 35.3392L8.91672 34.8076C8.36616 34.1884 7.53209 33.76 6.6602 33.76V34.56ZM5.00578 35.3341C5.41753 34.8193 6.03669 34.56 6.6602 34.56V33.76C5.82002 33.76 4.96035 34.1101 4.38105 34.8344L5.00578 35.3341ZM2.27568 36.6424C3.35524 36.6424 4.32366 36.1867 5.00576 35.3341L4.38107 34.8344C3.85298 35.4944 3.11575 35.8424 2.27568 35.8424V36.6424ZM1.78798 36.4542C1.91045 36.5767 2.08123 36.6424 2.27568 36.6424V35.8424C2.26757 35.8424 2.27547 35.8412 2.29321 35.848C2.31138 35.855 2.33316 35.868 2.35382 35.8887L1.78798 36.4542ZM1.6 35.9667C1.6 36.1609 1.66553 36.3317 1.78799 36.4542L2.35381 35.8886C2.37447 35.9093 2.38739 35.9311 2.39438 35.9492C2.4012 35.9669 2.4 35.9747 2.4 35.9667H1.6ZM1.78817 35.479C1.66565 35.6014 1.6 35.7722 1.6 35.9667H2.4C2.4 35.9586 2.40121 35.9665 2.39436 35.9842C2.38734 36.0024 2.37439 36.0242 2.35372 36.0448L1.78817 35.479ZM2.27568 35.291C2.08145 35.291 1.91069 35.3565 1.78817 35.479L2.35372 36.0448C2.33304 36.0655 2.31129 36.0784 2.29318 36.0854C2.2755 36.0922 2.26762 36.091 2.27568 36.091V35.291ZM3.9301 34.5169C3.51835 35.0317 2.89919 35.291 2.27568 35.291V36.091C3.11586 36.091 3.97552 35.7409 4.55483 35.0166L3.9301 34.5169ZM6.6602 33.2087C5.58064 33.2087 4.61222 33.6643 3.93012 34.5169L4.55481 35.0167C5.0829 34.3566 5.82013 34.0087 6.6602 34.0087V33.2087ZM7.74195 33.3796C7.39881 33.2651 7.00122 33.2087 6.6602 33.2087V34.0087C6.92461 34.0087 7.23574 34.054 7.4887 34.1385L7.74195 33.3796ZM8.28403 33.5605L7.74195 33.3796L7.4887 34.1385L8.03079 34.3194L8.28403 33.5605ZM6.76216 31.3582L7.78287 34.0804L8.53195 33.7995L7.51124 31.0773L6.76216 31.3582ZM6.82831 30.7446C6.77303 30.8274 6.72989 30.927 6.71872 31.0453C6.70804 31.1585 6.72953 31.2596 6.75652 31.3421L7.51688 31.0934C7.51042 31.0737 7.51826 31.0879 7.51518 31.1204C7.51363 31.1369 7.50976 31.1528 7.50449 31.1666C7.49946 31.1798 7.4946 31.1874 7.49371 31.1887L6.82831 30.7446ZM7.37283 30.4138C7.15563 30.4138 6.95544 30.5541 6.82831 30.7446L7.49371 31.1887C7.50363 31.1738 7.50572 31.1768 7.49209 31.1853C7.48562 31.1894 7.47428 31.1955 7.4573 31.2011C7.44215 31.2061 7.41324 31.2138 7.37283 31.2138V30.4138ZM7.38131 30.4138H7.37283V31.2138H7.38131V30.4138ZM36.4021 28.606L7.35645 30.4145L7.40616 31.213L36.4518 29.4045L36.4021 28.606ZM37.0814 29.0036C36.9506 28.7432 36.6923 28.6101 36.4343 28.6053L36.4196 29.4052C36.4196 29.4052 36.4115 29.405 36.3993 29.3977C36.386 29.3899 36.3738 29.3773 36.3665 29.3627L37.0814 29.0036ZM36.9534 29.7492C37.0384 29.6627 37.1149 29.5473 37.1419 29.4013C37.1695 29.2522 37.1373 29.1156 37.0818 29.0045L36.3661 29.3618C36.3601 29.3498 36.3453 29.3099 36.3553 29.2557C36.3647 29.2047 36.3886 29.1826 36.3829 29.1884L36.9534 29.7492ZM33.4891 32.9938L36.9416 29.7608L36.3947 29.1768L32.9423 32.4099L33.4891 32.9938ZM33.4954 32.9879L33.4985 32.9847L32.9329 32.419L32.9297 32.4222L33.4954 32.9879ZM33.2403 33.2149C33.3219 33.1468 33.4085 33.0748 33.4954 32.9879L32.9297 32.4222C32.8722 32.4797 32.8128 32.5298 32.728 32.6004L33.2403 33.2149ZM33.2372 33.2175L33.2404 33.2148L32.7279 32.6005L32.7247 32.6032L33.2372 33.2175ZM33.0022 33.4264C33.0787 33.3499 33.1557 33.2854 33.2371 33.2176L32.7248 32.6031C32.6454 32.6693 32.542 32.7552 32.4365 32.8607L33.0022 33.4264ZM32.537 33.8916L33.0022 33.4264L32.4365 32.8607L31.9713 33.3259L32.537 33.8916ZM33.0218 33.2087H32.2542V34.0087H33.0218V33.2087ZM35.7519 34.517C35.0698 33.6644 34.1014 33.2087 33.0218 33.2087V34.0087C33.8619 34.0087 34.5991 34.3567 35.1272 35.0168L35.7519 34.517ZM12.6993 34.5171C12.2876 35.0318 11.6684 35.2911 11.0449 35.2911V36.0911C11.8851 36.0911 12.7448 35.741 13.3241 35.0168L12.6993 34.5171ZM15.4294 33.2088C14.3499 33.2088 13.3815 33.6644 12.6994 34.517L13.324 35.0168C13.8521 34.3567 14.5894 34.0088 15.4294 34.0088V33.2088ZM18.1595 34.517C17.4774 33.6644 16.509 33.2088 15.4294 33.2088V34.0088C16.2695 34.0088 17.0068 34.3567 17.5348 35.0168L18.1595 34.517ZM19.8686 35.2911C19.2417 35.2911 18.5694 35.0295 18.1595 34.5171L17.5348 35.0167C18.1237 35.753 19.0459 36.0911 19.8686 36.0911V35.2911ZM21.523 34.5171C21.1112 35.0318 20.4921 35.2911 19.8686 35.2911V36.0911C20.7087 36.0911 21.5684 35.741 22.1477 35.0168L21.523 34.5171ZM24.2531 33.2088C23.1735 33.2088 22.2051 33.6644 21.523 34.517L22.1477 35.0168C22.6758 34.3567 23.413 34.0088 24.2531 34.0088V33.2088ZM26.8802 34.5259C26.3043 33.6625 25.2742 33.2088 24.2531 33.2088V34.0088C25.0568 34.0088 25.8129 34.3675 26.2146 34.9698L26.8802 34.5259ZM26.8867 34.5357L26.8802 34.5259L26.2147 34.9698L26.2212 34.9797L26.8867 34.5357ZM26.8737 34.517L26.8663 34.5077L26.2417 35.0076L26.249 35.0168L26.8737 34.517ZM27.6531 35.1402C27.34 34.9836 27.0807 34.7756 26.8737 34.517L26.249 35.0168C26.5317 35.37 26.8836 35.6499 27.2953 35.8557L27.6531 35.1402ZM27.7618 35.1945L27.6531 35.1402L27.2953 35.8557L27.404 35.91L27.7618 35.1945ZM27.5493 35.1356L27.4362 35.1801L27.7295 35.9244L27.8426 35.8799L27.5493 35.1356ZM31.5679 32.9748C30.4745 34.1299 29.5334 35.1077 27.6959 35.1077V35.9077C29.9087 35.9077 31.0629 34.672 32.1489 33.5247L31.5679 32.9748ZM32.4958 32.0375C32.1652 32.3436 31.8598 32.6664 31.5679 32.9748L32.1489 33.5247C32.4437 33.2133 32.7312 32.9097 33.0393 32.6245L32.4958 32.0375ZM32.497 32.0363L32.496 32.0373L33.0391 32.6247L33.0401 32.6238L32.497 32.0363ZM35.4291 29.3768L32.4998 32.0338L33.0373 32.6263L35.9666 29.9693L35.4291 29.3768ZM7.83769 31.7866L35.7224 30.0723L35.6733 29.2738L7.7886 30.9881L7.83769 31.7866ZM8.91884 33.241L8.1887 31.2497L7.43759 31.5251L8.16774 33.5164L8.91884 33.241ZM8.91616 33.2339L8.91469 33.2302L8.1719 33.5273L8.17337 33.531L8.91616 33.2339ZM10.414 35.211C9.76816 34.6725 9.2352 34.0314 8.91615 33.2338L8.17338 33.531C8.55382 34.482 9.18221 35.2256 9.90168 35.8254L10.414 35.211ZM10.4618 35.2508L10.414 35.211L9.90168 35.8254L9.94949 35.8653L10.4618 35.2508ZM10.3685 35.1865L10.303 35.1701L10.1083 35.946L10.1739 35.9625L10.3685 35.1865ZM11.0449 35.2911C10.7903 35.2911 10.5859 35.2411 10.3686 35.1865L10.1739 35.9625C10.3918 36.0172 10.6816 36.0911 11.0449 36.0911V35.2911ZM7.85036 29.478L7.85284 29.4761L7.3711 28.8374L7.36862 28.8393L7.85036 29.478ZM20.29 27.9133C20.0401 27.9241 19.6601 27.9362 19.4792 27.9394C19.4569 27.9398 19.4384 27.9401 19.424 27.9402C19.4168 27.9402 19.4111 27.9403 19.4068 27.9402C19.4022 27.9402 19.4003 27.9402 19.4005 27.9402C19.4006 27.9402 19.4024 27.9402 19.4053 27.9404C19.4072 27.9405 19.4147 27.9409 19.425 27.942C19.4299 27.9425 19.4399 27.9437 19.4525 27.946C19.4596 27.9473 19.4924 27.9532 19.5317 27.9693C19.5492 27.9765 19.5966 27.997 19.6454 28.0405C19.6957 28.0853 19.7914 28.1975 19.7781 28.3699C19.766 28.5259 19.6715 28.6158 19.6376 28.6444C19.5975 28.6783 19.5602 28.6962 19.5448 28.7031C19.5114 28.7183 19.4836 28.7251 19.4766 28.7269C19.4652 28.7297 19.4562 28.7314 19.4515 28.7322C19.4421 28.7339 19.4352 28.7347 19.4335 28.7349C19.4293 28.7354 19.4281 28.7355 19.4323 28.7351C19.4709 28.7319 19.6006 28.7248 19.8747 28.7125L19.8388 27.9133C19.5712 27.9253 19.4234 27.9331 19.366 27.9379C19.3582 27.9385 19.3478 27.9395 19.3371 27.9408C19.3322 27.9414 19.3227 27.9426 19.3113 27.9446C19.3057 27.9456 19.2959 27.9474 19.2839 27.9504C19.2762 27.9523 19.2479 27.9593 19.2142 27.9746C19.1987 27.9817 19.1612 27.9996 19.1211 28.0335C19.0871 28.0622 18.9925 28.1522 18.9805 28.3082C18.9671 28.4807 19.0629 28.593 19.1133 28.6379C19.1621 28.6814 19.2097 28.7019 19.2273 28.7092C19.2669 28.7255 19.3001 28.7314 19.3078 28.7328C19.321 28.7353 19.3317 28.7366 19.3376 28.7372C19.3575 28.7394 19.3752 28.7398 19.3797 28.7399C19.4064 28.7406 19.4493 28.7401 19.4936 28.7393C19.6826 28.7359 20.0695 28.7236 20.3246 28.7125L20.29 27.9133Z" fill="#4D666F" mask="url(#path-1-outside-1_265_6282)"/>
<path d="M15.9996 26.2237L13.709 27.8096L12.1232 27.9858L13.1804 29.924L9.8326 30.2764L9.12779 28.8668L8.77539 27.9858V27.4571L9.12779 26.9285L9.8326 26.3999H12.2994L13.3566 26.2237L15.1186 25.8713L15.9996 26.2237Z" fill="#D9E3E8"/>
<path d="M12.9267 30.4832L12.927 30.483C12.9749 30.555 13.0416 30.6083 13.1069 30.6435C13.1714 30.6782 13.2498 30.7035 13.3298 30.7035L12.9267 30.4832ZM12.9267 30.4832L12.9209 30.4732M12.9267 30.4832L12.9209 30.4732M12.9209 30.4732L12.1075 29.0825C11.9641 28.8421 12.0716 28.5679 12.2817 28.4417L12.2818 28.4416C12.5225 28.2973 12.7973 28.4047 12.9236 28.6151L12.9237 28.6151L12.9248 28.6171L13.7382 30.0078M12.9209 30.4732L13.7382 30.0078M13.7382 30.0078C13.8816 30.2482 13.7742 30.5225 13.5641 30.6486L13.5576 30.6525L13.5508 30.6559C13.5115 30.6756 13.4726 30.6901 13.4285 30.6975C13.3919 30.7036 13.357 30.7036 13.3344 30.7035C13.3328 30.7035 13.3313 30.7035 13.3298 30.7035L13.7382 30.0078ZM12.3846 28.6132C12.5159 28.5344 12.6734 28.587 12.7522 28.7181L12.2797 28.9807C12.2009 28.8494 12.2535 28.6919 12.3846 28.6132Z" fill="#4D666F" stroke="#4D666F" stroke-width="0.4"/>
<mask id="path-5-outside-2_265_6282" maskUnits="userSpaceOnUse" x="7.44727" y="23.4658" width="11" height="9" fill="black">
<rect fill="white" x="7.44727" y="23.4658" width="11" height="9"/>
<path fill-rule="evenodd" clip-rule="evenodd" d="M10.179 26.0665C9.89017 26.0665 9.57518 26.1453 9.31256 26.3028L9.31282 26.3028C8.9189 26.5129 8.6039 26.9331 8.49877 27.4055C8.39383 27.8781 8.4464 28.3507 8.68265 28.7445L10.078 31.1575H10.789L9.1812 28.3771C8.99733 28.1144 8.97117 27.7731 9.04989 27.458C9.12861 27.143 9.33868 26.8804 9.6275 26.7229C9.81119 26.618 10.0212 26.5654 10.2313 26.5654H13.1982C13.2507 26.5654 13.2769 26.5654 13.3295 26.5392L15.9024 25.0426C16.0073 24.9638 16.1386 24.9639 16.27 24.99C16.4013 25.0424 16.5062 25.1214 16.5588 25.2263C16.6375 25.3312 16.6375 25.4625 16.6113 25.5938C16.559 25.7252 16.48 25.8301 16.3751 25.8827L13.6972 27.4315L13.6961 27.4319C13.5652 27.4841 13.4342 27.5364 13.2771 27.5364H10.993C10.8353 27.5364 10.7304 27.6415 10.7304 27.799C10.7304 27.9567 10.8355 28.0617 10.993 28.0617H13.2771C13.5134 28.0617 13.7496 28.0091 13.9597 27.8778L16.6114 26.3288C16.8476 26.1975 17.0051 25.9876 17.0839 25.725C17.1364 25.4626 17.1103 25.1999 16.9789 24.9637C16.8476 24.7274 16.6377 24.5699 16.3751 24.4912C16.1125 24.4386 15.8499 24.465 15.6136 24.5963L13.0933 26.0665H10.179Z"/>
</mask>
<path fill-rule="evenodd" clip-rule="evenodd" d="M10.179 26.0665C9.89017 26.0665 9.57518 26.1453 9.31256 26.3028L9.31282 26.3028C8.9189 26.5129 8.6039 26.9331 8.49877 27.4055C8.39383 27.8781 8.4464 28.3507 8.68265 28.7445L10.078 31.1575H10.789L9.1812 28.3771C8.99733 28.1144 8.97117 27.7731 9.04989 27.458C9.12861 27.143 9.33868 26.8804 9.6275 26.7229C9.81119 26.618 10.0212 26.5654 10.2313 26.5654H13.1982C13.2507 26.5654 13.2769 26.5654 13.3295 26.5392L15.9024 25.0426C16.0073 24.9638 16.1386 24.9639 16.27 24.99C16.4013 25.0424 16.5062 25.1214 16.5588 25.2263C16.6375 25.3312 16.6375 25.4625 16.6113 25.5938C16.559 25.7252 16.48 25.8301 16.3751 25.8827L13.6972 27.4315L13.6961 27.4319C13.5652 27.4841 13.4342 27.5364 13.2771 27.5364H10.993C10.8353 27.5364 10.7304 27.6415 10.7304 27.799C10.7304 27.9567 10.8355 28.0617 10.993 28.0617H13.2771C13.5134 28.0617 13.7496 28.0091 13.9597 27.8778L16.6114 26.3288C16.8476 26.1975 17.0051 25.9876 17.0839 25.725C17.1364 25.4626 17.1103 25.1999 16.9789 24.9637C16.8476 24.7274 16.6377 24.5699 16.3751 24.4912C16.1125 24.4386 15.8499 24.465 15.6136 24.5963L13.0933 26.0665H10.179Z" fill="#4D666F"/>
<path d="M9.31256 26.3028L9.10683 25.9597L8.24041 26.4794L9.22771 26.6937L9.31256 26.3028ZM9.31282 26.3028L9.50105 26.6558L10.4624 26.1431L9.39767 25.9119L9.31282 26.3028ZM8.49877 27.4055L8.10832 27.3187L8.10829 27.3188L8.49877 27.4055ZM8.68265 28.7445L9.02897 28.5442L9.02565 28.5387L8.68265 28.7445ZM10.078 31.1575L9.73171 31.3577L9.84723 31.5575H10.078V31.1575ZM10.789 31.1575V31.5575H11.4824L11.1353 30.9573L10.789 31.1575ZM9.1812 28.3771L9.52748 28.1768L9.51881 28.1618L9.50888 28.1477L9.1812 28.3771ZM9.04989 27.458L8.66182 27.3611L8.66182 27.3611L9.04989 27.458ZM9.6275 26.7229L9.81904 27.0742L9.82591 27.0702L9.6275 26.7229ZM13.3295 26.5392L13.5079 26.8972L13.5194 26.8915L13.5306 26.885L13.3295 26.5392ZM15.9024 25.0426L16.1035 25.3884L16.1238 25.3766L16.1425 25.3625L15.9024 25.0426ZM16.27 24.99L16.4182 24.6185L16.3841 24.6049L16.3482 24.5978L16.27 24.99ZM16.5588 25.2263L16.2011 25.4054L16.2172 25.4376L16.2388 25.4664L16.5588 25.2263ZM16.6113 25.5938L16.9829 25.742L16.9964 25.708L17.0036 25.6721L16.6113 25.5938ZM16.3751 25.8827L16.1959 25.525L16.1852 25.5304L16.1748 25.5364L16.3751 25.8827ZM13.6972 27.4315L13.8454 27.803L13.8724 27.7923L13.8975 27.7777L13.6972 27.4315ZM13.6961 27.4319L13.5479 27.0604L13.5479 27.0604L13.6961 27.4319ZM13.9597 27.8778L13.7578 27.5322L13.7477 27.5386L13.9597 27.8778ZM16.6114 26.3288L16.417 25.9791L16.4096 25.9834L16.6114 26.3288ZM17.0839 25.725L17.467 25.8399L17.4724 25.8219L17.4761 25.8035L17.0839 25.725ZM16.9789 24.9637L16.6293 25.158L16.6293 25.158L16.9789 24.9637ZM16.3751 24.4912L16.49 24.108L16.472 24.1026L16.4536 24.099L16.3751 24.4912ZM15.6136 24.5963L15.4193 24.2466L15.4121 24.2508L15.6136 24.5963ZM13.0933 26.0665V26.4665H13.2014L13.2948 26.412L13.0933 26.0665ZM9.51829 26.6458C9.71432 26.5283 9.95727 26.4665 10.179 26.4665V25.6665C9.82306 25.6665 9.43605 25.7623 9.10683 25.9597L9.51829 26.6458ZM9.39767 25.9119L9.39742 25.9119L9.22771 26.6937L9.22796 26.6937L9.39767 25.9119ZM8.88923 27.4924C8.97054 27.127 9.21622 26.8077 9.50105 26.6558L9.12459 25.9499C8.62158 26.2182 8.23726 26.7391 8.10832 27.3187L8.88923 27.4924ZM9.02565 28.5387C8.85094 28.2475 8.8025 27.883 8.88926 27.4923L8.10829 27.3188C7.98517 27.8732 8.04186 28.454 8.33965 28.9503L9.02565 28.5387ZM10.4243 30.9573L9.02892 28.5443L8.33638 28.9447L9.73171 31.3577L10.4243 30.9573ZM10.078 31.5575H10.789V30.7575H10.078V31.5575ZM8.83493 28.5773L10.4427 31.3577L11.1353 30.9573L9.52748 28.1768L8.83493 28.5773ZM8.66182 27.3611C8.56388 27.753 8.58476 28.2226 8.85352 28.6065L9.50888 28.1477C9.4099 28.0063 9.37846 27.7931 9.43796 27.555L8.66182 27.3611ZM9.43599 26.3717C9.05421 26.5799 8.76905 26.9319 8.66182 27.3611L9.43796 27.555C9.48816 27.3541 9.62315 27.1809 9.81901 27.0741L9.43599 26.3717ZM10.2313 26.1654C9.95552 26.1654 9.67648 26.2343 9.42908 26.3756L9.82591 27.0702C9.9459 27.0017 10.087 26.9654 10.2313 26.9654V26.1654ZM13.1982 26.1654H10.2313V26.9654H13.1982V26.1654ZM13.1511 26.1812C13.1496 26.1819 13.1544 26.1795 13.1636 26.1763C13.1738 26.1727 13.1857 26.1696 13.1982 26.1676C13.2099 26.1656 13.2178 26.1653 13.2181 26.1653C13.2182 26.1653 13.2179 26.1653 13.217 26.1653C13.2162 26.1653 13.215 26.1654 13.2132 26.1654C13.2095 26.1654 13.2051 26.1654 13.1982 26.1654V26.9654C13.2166 26.9654 13.271 26.9664 13.3294 26.9567C13.3977 26.9454 13.4557 26.9232 13.5079 26.8972L13.1511 26.1812ZM15.7013 24.6968L13.1284 26.1935L13.5306 26.885L16.1035 25.3884L15.7013 24.6968ZM16.3482 24.5978C16.182 24.5646 15.9061 24.5397 15.6623 24.7227L16.1425 25.3625C16.1361 25.3673 16.1292 25.3709 16.1232 25.3731C16.1176 25.3751 16.1154 25.3751 16.1182 25.3748C16.1213 25.3744 16.1288 25.374 16.1417 25.375C16.1547 25.376 16.1711 25.3782 16.1917 25.3823L16.3482 24.5978ZM16.9164 25.0472C16.8042 24.823 16.6013 24.6915 16.4182 24.6185L16.1218 25.3616C16.1583 25.3761 16.1813 25.3906 16.1939 25.4007C16.2061 25.4105 16.205 25.4131 16.2011 25.4054L16.9164 25.0472ZM17.0036 25.6721C17.0368 25.5059 17.0617 25.23 16.8787 24.9862L16.2388 25.4664C16.2341 25.46 16.2305 25.4531 16.2283 25.4471C16.2262 25.4415 16.2263 25.4392 16.2266 25.4421C16.2269 25.4452 16.2274 25.4527 16.2264 25.4656C16.2254 25.4785 16.2232 25.495 16.2191 25.5156L17.0036 25.6721ZM16.5542 26.2403C16.7783 26.1281 16.9098 25.9252 16.9829 25.742L16.2398 25.4456C16.2252 25.4822 16.2108 25.5051 16.2006 25.5178C16.1909 25.53 16.1883 25.5288 16.1959 25.525L16.5542 26.2403ZM13.8975 27.7777L16.5754 26.2289L16.1748 25.5364L13.497 27.0852L13.8975 27.7777ZM13.8443 27.8035L13.8454 27.803L13.549 27.0599L13.5479 27.0604L13.8443 27.8035ZM13.2771 27.9364C13.5217 27.9364 13.7206 27.8528 13.8443 27.8034L13.5479 27.0604C13.4097 27.1155 13.3466 27.1364 13.2771 27.1364V27.9364ZM10.993 27.9364H13.2771V27.1364H10.993V27.9364ZM11.1304 27.799C11.1304 27.8111 11.1246 27.8523 11.0854 27.8914C11.0463 27.9306 11.0051 27.9364 10.993 27.9364V27.1364C10.8232 27.1364 10.6507 27.1947 10.5196 27.3259C10.3886 27.457 10.3304 27.6295 10.3304 27.799H11.1304ZM10.993 27.6617C11.005 27.6617 11.0462 27.6674 11.0854 27.7066C11.1246 27.7457 11.1304 27.787 11.1304 27.799H10.3304C10.3304 27.9688 10.3887 28.1413 10.5198 28.2724C10.6509 28.4034 10.8234 28.4617 10.993 28.4617V27.6617ZM13.2771 27.6617H10.993V28.4617H13.2771V27.6617ZM13.7477 27.5386C13.6135 27.6225 13.4544 27.6617 13.2771 27.6617V28.4617C13.5724 28.4617 13.8858 28.3957 14.1717 28.217L13.7477 27.5386ZM16.4096 25.9834L13.7579 27.5324L14.1614 28.2232L16.8131 26.6742L16.4096 25.9834ZM16.7007 25.6101C16.6488 25.7833 16.553 25.9036 16.417 25.9792L16.8057 26.6784C17.1422 26.4914 17.3615 26.1919 17.467 25.8399L16.7007 25.6101ZM16.6293 25.158C16.7072 25.2981 16.7288 25.4613 16.6917 25.6464L17.4761 25.8035C17.5441 25.4639 17.5133 25.1017 17.3286 24.7693L16.6293 25.158ZM16.2602 24.8743C16.4335 24.9263 16.5537 25.022 16.6293 25.158L17.3286 24.7693C17.1415 24.4329 16.842 24.2136 16.49 24.108L16.2602 24.8743ZM15.808 24.9459C15.9482 24.868 16.1114 24.8463 16.2966 24.8834L16.4536 24.099C16.1136 24.0309 15.7516 24.062 15.4193 24.2467L15.808 24.9459ZM13.2948 26.412L15.8152 24.9418L15.4121 24.2508L12.8917 25.721L13.2948 26.412ZM10.179 26.4665H13.0933V25.6665H10.179V26.4665Z" fill="#4D666F" mask="url(#path-5-outside-2_265_6282)"/>
<circle cx="10.1854" cy="23.4048" r="1.76201" fill="#D9E3E8"/>
<path d="M11.5112 23.9038C11.2532 24.591 10.5001 24.9712 9.78859 24.7721C9.33217 24.6346 8.99093 24.2953 8.85094 23.8403C8.79768 23.5717 8.52642 23.4288 8.28767 23.5104C8.01899 23.5675 7.87881 23.8439 7.96796 24.0833C8.19978 24.8559 8.802 25.4261 9.54266 25.654L9.55287 25.6571L9.55294 25.6569C9.7762 25.7127 9.97632 25.7416 10.2053 25.7416C11.2083 25.7416 12.1569 25.0837 12.4455 24.0738L12.4455 24.0738C12.6183 23.4688 12.5308 22.8384 12.2463 22.2979L11.5112 23.9038ZM11.5112 23.9038H10.7306C10.4006 23.9038 10.1209 23.6813 10.0337 23.3787L6.92347 23.3786C6.92347 23.3786 6.92347 23.3786 6.92346 23.3786C6.79931 23.3785 6.68025 23.3363 6.59171 23.2478C6.50316 23.1593 6.46085 23.0402 6.46085 22.9159C6.46085 22.6736 6.63148 22.4273 6.92347 22.4273V22.4273H8.10466C8.57913 21.4128 9.7613 20.8715 10.8622 21.1743L10.8622 21.1743L10.864 21.1748C11.4685 21.3475 11.9586 21.7511 12.2463 22.2979L11.5112 23.9038ZM11.1747 22.401C11.0111 22.2495 10.8116 22.1306 10.5925 22.0569C10.0794 21.9119 9.56888 22.0571 9.21979 22.401H11.1747Z" fill="#4D666F" stroke="#4D666F" stroke-width="0.4"/>
</svg>
