<svg width="49" height="49" viewBox="0 0 49 49" fill="none" xmlns="http://www.w3.org/2000/svg">
<mask id="path-1-outside-1_265_6282" maskUnits="userSpaceOnUse" x="2.05518" y="1.00513" width="44" height="39" fill="black">
<rect fill="white" x="2.05518" y="1.00513" width="44" height="39"/>
<path d="M21.7004 10.8016C21.709 10.7948 21.7176 10.788 21.7261 10.7812C21.8237 10.7039 21.9163 10.632 22.0036 10.5654"/>
<path fill-rule="evenodd" clip-rule="evenodd" d="M24.8783 29.7952L22.8546 9.27469V9.25896C22.8546 9.22718 22.842 9.17516 22.8111 9.12873C22.7826 9.08598 22.748 9.06122 22.7088 9.05145L22.6541 9.03779L22.6072 9.00646C22.5904 8.99531 22.5614 8.9847 22.5067 8.99251C22.4494 9.0007 22.3801 9.02788 22.3139 9.07192L22.3047 9.07807L22.295 9.08357C21.8852 9.31745 11.6192 16.0871 9.13849 30.4778C9.20104 30.7165 9.24503 30.8041 9.34401 30.8537L9.35614 30.8597C9.39155 30.8765 9.40692 30.8796 9.41548 30.881C9.43302 30.8839 9.45378 30.8848 9.52557 30.8848C9.56192 30.8848 9.61466 30.8662 9.74196 30.8033L9.74491 30.8011C9.76155 30.7885 9.78361 30.7722 9.81077 30.7528C9.86524 30.7138 9.94232 30.6605 10.041 30.596C10.1174 30.546 10.2071 30.4892 10.3094 30.427L11.0178 30.3963C10.7611 30.8618 10.9642 30.6588 11.0237 30.3932L10.3126 30.4251C10.4737 30.3272 10.6661 30.2161 10.888 30.0973C11.617 29.7072 12.6668 29.2335 13.9725 28.8789C16.5838 28.1698 20.217 27.9377 24.3412 29.7952C23.05 29.8532 24.2763 29.8213 24.8783 29.7952ZM10.3126 30.4251C10.3115 30.4257 10.3104 30.4264 10.3094 30.427L9.13849 30.4778L10.3126 30.4251ZM24.1425 28.9574L22.2697 9.95365L21.8065 10.3071C19.2903 12.2273 12.4315 18.4933 10.1227 29.1812L9.97324 29.8729L10.5952 29.5352C12.8347 28.3194 17.6314 26.4638 23.6514 28.7693L24.1425 28.9574Z"/>
<path fill-rule="evenodd" clip-rule="evenodd" d="M27.5774 29.6428C27.5703 29.6425 27.564 29.642 27.5585 29.6415L27.5361 29.6192L27.4632 29.5949C27.4237 29.5818 27.3438 29.5226 27.2894 29.3231L24.6109 2.3432L24.6051 2.32002C24.5989 2.29527 24.5999 2.25605 24.6366 2.19903C24.6729 2.14262 24.7358 2.08445 24.8158 2.04204C24.9271 1.99954 24.9988 2.00047 25.0438 2.01174C25.0874 2.02265 25.142 2.05208 25.2045 2.13475L25.2059 2.13653L44.1487 28.1994L44.1517 28.2033C44.2181 28.2919 44.2336 28.3558 44.2336 28.4003C44.2336 28.4415 44.2203 28.4994 44.1655 28.5781C44.105 28.6336 44.0281 28.6788 43.9524 28.701C43.8765 28.7233 43.8205 28.7182 43.7815 28.7015C43.7776 28.6994 43.774 28.6974 43.7708 28.6957C43.7685 28.6946 43.7665 28.6935 43.7648 28.6926C43.7531 28.6867 43.7404 28.6808 43.7285 28.6754C43.7041 28.6644 43.6718 28.6506 43.6331 28.6347C43.5552 28.6027 43.4446 28.5595 43.3047 28.5081C43.0245 28.4051 42.6234 28.2679 42.1255 28.1204C41.1302 27.8256 39.7438 27.4882 38.1616 27.3019C35.0147 26.9312 31.0383 27.1518 27.8419 29.5603C27.7119 29.6246 27.6585 29.6435 27.6218 29.6435L27.6038 29.6434C27.5947 29.6434 27.5862 29.6432 27.5774 29.6428ZM42.098 27.4056L43.0148 27.6786L25.4839 3.4598L27.9373 28.6917L28.3815 28.4155C33.0916 25.4876 39.047 26.4968 42.098 27.4056Z"/>
<path fill-rule="evenodd" clip-rule="evenodd" d="M42.9167 37.4886L42.922 37.4953L42.9276 37.5016C43.5015 38.1469 44.3042 38.5903 45.2612 38.5903C45.3861 38.5903 45.5245 38.6832 45.5248 38.9192C45.5247 39.0413 45.4854 39.1178 45.4402 39.163C45.395 39.2082 45.3184 39.2475 45.1962 39.2475C44.052 39.2475 43.0354 38.7685 42.3141 37.8669L42.3088 37.8603L42.3032 37.854C41.7263 37.2053 40.8569 36.7652 39.9696 36.7652C39.0972 36.7652 38.2158 37.1285 37.6251 37.867C36.9038 38.7685 35.8872 39.2475 34.7431 39.2475C33.5989 39.2475 32.5823 38.7685 31.861 37.8669L31.8557 37.8603L31.8501 37.854C31.2732 37.2053 30.4038 36.7652 29.5165 36.7652C28.6441 36.7652 27.7627 37.1285 27.172 37.867C26.4507 38.7685 25.4341 39.2475 24.29 39.2475C23.1458 39.2475 22.1292 38.7685 21.4079 37.8669L21.4026 37.8603L21.397 37.854C20.8201 37.2053 19.9508 36.7652 19.0634 36.7652C18.191 36.7652 17.3096 37.1285 16.7189 37.867C15.9976 38.7685 14.981 39.2475 13.8369 39.2475C12.6927 39.2475 11.6761 38.7685 10.9548 37.8669L10.9495 37.8603L10.9439 37.854C10.367 37.2053 9.49767 36.7652 8.61035 36.7652C7.73796 36.7652 6.85654 37.1285 6.26585 37.867C5.54455 38.7685 4.52794 39.2475 3.3838 39.2475C3.26146 39.2475 3.18488 39.2081 3.13969 39.1629C3.09447 39.1177 3.05518 39.0411 3.05518 38.9189C3.05518 38.7965 3.09453 38.7199 3.13975 38.6748C3.18499 38.6295 3.26161 38.5902 3.3838 38.5902C4.2562 38.5902 5.13761 38.227 5.7283 37.4885C6.4496 36.5869 7.46621 36.108 8.61035 36.108C8.9712 36.108 9.39361 36.1687 9.74891 36.2872L10.3951 36.5029L9.17836 33.2579C9.13849 33.136 9.14581 33.0508 9.20734 32.9586C9.29998 32.8198 9.407 32.7763 9.45984 32.7763H9.46994L44.0937 30.6205C44.2464 30.6233 44.3808 30.6993 44.4478 30.8326C44.5067 30.9507 44.4894 31.0631 44.3812 31.1731L40.2658 35.027L40.262 35.0308C40.1759 35.1169 40.0889 35.1897 39.9897 35.2724L39.9859 35.2756C39.8901 35.3555 39.7826 35.4451 39.6741 35.5535L39.1196 36.1081H40.0346C41.1788 36.1081 42.1954 36.5871 42.9167 37.4886ZM13.8372 38.5904C14.7095 38.5904 15.591 38.2272 16.1816 37.4887C16.903 36.5871 17.9196 36.1081 19.0637 36.1081C20.2078 36.1081 21.2245 36.5871 21.9457 37.4887C22.541 38.233 23.4914 38.5904 24.3553 38.5904C25.2277 38.5904 26.1091 38.2272 26.6998 37.4887C27.4211 36.5871 28.4377 36.1081 29.5819 36.1081C30.6695 36.1081 31.7342 36.5924 32.3168 37.466L32.3247 37.4777L32.3335 37.4887C32.6253 37.8534 32.9896 38.1441 33.4216 38.3601L33.5512 38.4249L33.686 38.3718C36.1 38.3718 37.3489 37.0524 38.6477 35.6802C38.9975 35.3107 39.3508 34.9374 39.7315 34.585L39.7328 34.5838L43.2246 31.4165L9.98472 33.4601L10.8551 35.8339L10.8568 35.8383C11.2738 36.8804 11.9659 37.7058 12.7797 38.3843L12.8367 38.4318L12.9149 38.4514C13.1743 38.5165 13.4688 38.5904 13.8372 38.5904Z"/>
</mask>
<path d="M21.7004 10.8016C21.709 10.7948 21.7176 10.788 21.7261 10.7812C21.8237 10.7039 21.9163 10.632 22.0036 10.5654" fill="#4D666F"/>
<path fill-rule="evenodd" clip-rule="evenodd" d="M24.8783 29.7952L22.8546 9.27469V9.25896C22.8546 9.22718 22.842 9.17516 22.8111 9.12873C22.7826 9.08598 22.748 9.06122 22.7088 9.05145L22.6541 9.03779L22.6072 9.00646C22.5904 8.99531 22.5614 8.9847 22.5067 8.99251C22.4494 9.0007 22.3801 9.02788 22.3139 9.07192L22.3047 9.07807L22.295 9.08357C21.8852 9.31745 11.6192 16.0871 9.13849 30.4778C9.20104 30.7165 9.24503 30.8041 9.34401 30.8537L9.35614 30.8597C9.39155 30.8765 9.40692 30.8796 9.41548 30.881C9.43302 30.8839 9.45378 30.8848 9.52557 30.8848C9.56192 30.8848 9.61466 30.8662 9.74196 30.8033L9.74491 30.8011C9.76155 30.7885 9.78361 30.7722 9.81077 30.7528C9.86524 30.7138 9.94232 30.6605 10.041 30.596C10.1174 30.546 10.2071 30.4892 10.3094 30.427L11.0178 30.3963C10.7611 30.8618 10.9642 30.6588 11.0237 30.3932L10.3126 30.4251C10.4737 30.3272 10.6661 30.2161 10.888 30.0973C11.617 29.7072 12.6668 29.2335 13.9725 28.8789C16.5838 28.1698 20.217 27.9377 24.3412 29.7952C23.05 29.8532 24.2763 29.8213 24.8783 29.7952ZM10.3126 30.4251C10.3115 30.4257 10.3104 30.4264 10.3094 30.427L9.13849 30.4778L10.3126 30.4251ZM24.1425 28.9574L22.2697 9.95365L21.8065 10.3071C19.2903 12.2273 12.4315 18.4933 10.1227 29.1812L9.97324 29.8729L10.5952 29.5352C12.8347 28.3194 17.6314 26.4638 23.6514 28.7693L24.1425 28.9574Z" fill="#4D666F"/>
<path fill-rule="evenodd" clip-rule="evenodd" d="M27.5774 29.6428C27.5703 29.6425 27.564 29.642 27.5585 29.6415L27.5361 29.6192L27.4632 29.5949C27.4237 29.5818 27.3438 29.5226 27.2894 29.3231L24.6109 2.3432L24.6051 2.32002C24.5989 2.29527 24.5999 2.25605 24.6366 2.19903C24.6729 2.14262 24.7358 2.08445 24.8158 2.04204C24.9271 1.99954 24.9988 2.00047 25.0438 2.01174C25.0874 2.02265 25.142 2.05208 25.2045 2.13475L25.2059 2.13653L44.1487 28.1994L44.1517 28.2033C44.2181 28.2919 44.2336 28.3558 44.2336 28.4003C44.2336 28.4415 44.2203 28.4994 44.1655 28.5781C44.105 28.6336 44.0281 28.6788 43.9524 28.701C43.8765 28.7233 43.8205 28.7182 43.7815 28.7015C43.7776 28.6994 43.774 28.6974 43.7708 28.6957C43.7685 28.6946 43.7665 28.6935 43.7648 28.6926C43.7531 28.6867 43.7404 28.6808 43.7285 28.6754C43.7041 28.6644 43.6718 28.6506 43.6331 28.6347C43.5552 28.6027 43.4446 28.5595 43.3047 28.5081C43.0245 28.4051 42.6234 28.2679 42.1255 28.1204C41.1302 27.8256 39.7438 27.4882 38.1616 27.3019C35.0147 26.9312 31.0383 27.1518 27.8419 29.5603C27.7119 29.6246 27.6585 29.6435 27.6218 29.6435L27.6038 29.6434C27.5947 29.6434 27.5862 29.6432 27.5774 29.6428ZM42.098 27.4056L43.0148 27.6786L25.4839 3.4598L27.9373 28.6917L28.3815 28.4155C33.0916 25.4876 39.047 26.4968 42.098 27.4056Z" fill="#4D666F"/>
<path fill-rule="evenodd" clip-rule="evenodd" d="M42.9167 37.4886L42.922 37.4953L42.9276 37.5016C43.5015 38.1469 44.3042 38.5903 45.2612 38.5903C45.3861 38.5903 45.5245 38.6832 45.5248 38.9192C45.5247 39.0413 45.4854 39.1178 45.4402 39.163C45.395 39.2082 45.3184 39.2475 45.1962 39.2475C44.052 39.2475 43.0354 38.7685 42.3141 37.8669L42.3088 37.8603L42.3032 37.854C41.7263 37.2053 40.8569 36.7652 39.9696 36.7652C39.0972 36.7652 38.2158 37.1285 37.6251 37.867C36.9038 38.7685 35.8872 39.2475 34.7431 39.2475C33.5989 39.2475 32.5823 38.7685 31.861 37.8669L31.8557 37.8603L31.8501 37.854C31.2732 37.2053 30.4038 36.7652 29.5165 36.7652C28.6441 36.7652 27.7627 37.1285 27.172 37.867C26.4507 38.7685 25.4341 39.2475 24.29 39.2475C23.1458 39.2475 22.1292 38.7685 21.4079 37.8669L21.4026 37.8603L21.397 37.854C20.8201 37.2053 19.9508 36.7652 19.0634 36.7652C18.191 36.7652 17.3096 37.1285 16.7189 37.867C15.9976 38.7685 14.981 39.2475 13.8369 39.2475C12.6927 39.2475 11.6761 38.7685 10.9548 37.8669L10.9495 37.8603L10.9439 37.854C10.367 37.2053 9.49767 36.7652 8.61035 36.7652C7.73796 36.7652 6.85654 37.1285 6.26585 37.867C5.54455 38.7685 4.52794 39.2475 3.3838 39.2475C3.26146 39.2475 3.18488 39.2081 3.13969 39.1629C3.09447 39.1177 3.05518 39.0411 3.05518 38.9189C3.05518 38.7965 3.09453 38.7199 3.13975 38.6748C3.18499 38.6295 3.26161 38.5902 3.3838 38.5902C4.2562 38.5902 5.13761 38.227 5.7283 37.4885C6.4496 36.5869 7.46621 36.108 8.61035 36.108C8.9712 36.108 9.39361 36.1687 9.74891 36.2872L10.3951 36.5029L9.17836 33.2579C9.13849 33.136 9.14581 33.0508 9.20734 32.9586C9.29998 32.8198 9.407 32.7763 9.45984 32.7763H9.46994L44.0937 30.6205C44.2464 30.6233 44.3808 30.6993 44.4478 30.8326C44.5067 30.9507 44.4894 31.0631 44.3812 31.1731L40.2658 35.027L40.262 35.0308C40.1759 35.1169 40.0889 35.1897 39.9897 35.2724L39.9859 35.2756C39.8901 35.3555 39.7826 35.4451 39.6741 35.5535L39.1196 36.1081H40.0346C41.1788 36.1081 42.1954 36.5871 42.9167 37.4886ZM13.8372 38.5904C14.7095 38.5904 15.591 38.2272 16.1816 37.4887C16.903 36.5871 17.9196 36.1081 19.0637 36.1081C20.2078 36.1081 21.2245 36.5871 21.9457 37.4887C22.541 38.233 23.4914 38.5904 24.3553 38.5904C25.2277 38.5904 26.1091 38.2272 26.6998 37.4887C27.4211 36.5871 28.4377 36.1081 29.5819 36.1081C30.6695 36.1081 31.7342 36.5924 32.3168 37.466L32.3247 37.4777L32.3335 37.4887C32.6253 37.8534 32.9896 38.1441 33.4216 38.3601L33.5512 38.4249L33.686 38.3718C36.1 38.3718 37.3489 37.0524 38.6477 35.6802C38.9975 35.3107 39.3508 34.9374 39.7315 34.585L39.7328 34.5838L43.2246 31.4165L9.98472 33.4601L10.8551 35.8339L10.8568 35.8383C11.2738 36.8804 11.9659 37.7058 12.7797 38.3843L12.8367 38.4318L12.9149 38.4514C13.1743 38.5165 13.4688 38.5904 13.8372 38.5904Z" fill="#4D666F"/>
<path d="M9.13849 30.4778L9.12952 30.278L9.14716 30.6776L9.13849 30.4778ZM21.8806 10.4076L21.5775 10.6439L21.8233 10.9594L22.1265 10.7232L21.8806 10.4076ZM11.0147 30.1934L9.12952 30.278L9.14747 30.6776L11.0327 30.593L11.0147 30.1934ZM11.0092 30.1965L9.12983 30.278L9.14716 30.6776L11.0265 30.5961L11.0092 30.1965ZM24.8783 29.7952L24.8956 30.1948L25.3179 30.1765L25.2764 29.7559L24.8783 29.7952ZM22.8546 9.27469H22.4546V9.29437L22.4565 9.31395L22.8546 9.27469ZM22.8111 9.12873L22.4782 9.35056L22.4782 9.35056L22.8111 9.12873ZM22.7088 9.05145L22.8057 8.66336L22.8057 8.66336L22.7088 9.05145ZM22.6541 9.03779L22.432 9.37049L22.4898 9.40906L22.5572 9.42589L22.6541 9.03779ZM22.6072 9.00646L22.3851 9.33916L22.3851 9.33917L22.6072 9.00646ZM22.5067 8.99251L22.4501 8.59654L22.4501 8.59654L22.5067 8.99251ZM22.3139 9.07192L22.5354 9.40498L22.5354 9.40498L22.3139 9.07192ZM22.3047 9.07807L22.503 9.42546L22.5148 9.41869L22.5262 9.41113L22.3047 9.07807ZM22.295 9.08357L22.4933 9.43097L22.4933 9.43096L22.295 9.08357ZM9.13849 30.4778L8.74431 30.4099L8.72958 30.4953L8.75156 30.5792L9.13849 30.4778ZM9.34401 30.8537L9.52318 30.496L9.52316 30.496L9.34401 30.8537ZM9.35614 30.8597L9.17692 31.2175L9.18498 31.2213L9.35614 30.8597ZM9.41548 30.881L9.48107 30.4864L9.48103 30.4864L9.41548 30.881ZM9.74196 30.8033L9.91907 31.162L9.9528 31.1453L9.98283 31.1227L9.74196 30.8033ZM9.74491 30.8011L9.98578 31.1205L9.98669 31.1198L9.74491 30.8011ZM9.81077 30.7528L9.57791 30.4275L9.57789 30.4275L9.81077 30.7528ZM10.041 30.596L9.82216 30.2612L9.82216 30.2612L10.041 30.596ZM11.0178 30.3963L11.3681 30.5895L11.712 29.9658L11.0005 29.9967L11.0178 30.3963ZM11.0237 30.3932L11.414 30.4806L11.5284 29.9701L11.0057 29.9936L11.0237 30.3932ZM10.888 30.0973L11.0767 30.45L11.0767 30.45L10.888 30.0973ZM13.9725 28.8789L14.0774 29.2649L14.0774 29.2649L13.9725 28.8789ZM24.3412 29.7952L24.3592 30.1948L24.5055 29.4305L24.3412 29.7952ZM21.7261 10.7812L21.4778 10.4676L21.4778 10.4677L21.7261 10.7812ZM27.5585 29.6415L27.2756 29.9244L27.3772 30.0259L27.5202 30.0397L27.5585 29.6415ZM27.5774 29.6428L27.5592 30.0424L27.5593 30.0424L27.5774 29.6428ZM27.5361 29.6192L27.8189 29.3363L27.7521 29.2694L27.6623 29.2396L27.5361 29.6192ZM27.4632 29.5949L27.5895 29.2154L27.5894 29.2154L27.4632 29.5949ZM27.2894 29.3231L26.8914 29.3626L26.8947 29.396L26.9035 29.4284L27.2894 29.3231ZM24.6109 2.3432L25.0089 2.30368L25.006 2.2744L24.9989 2.24586L24.6109 2.3432ZM24.6051 2.32002L24.2171 2.41735L24.2171 2.41737L24.6051 2.32002ZM24.6366 2.19903L24.973 2.41543L24.973 2.41542L24.6366 2.19903ZM24.8158 2.04204L24.6732 1.66831L24.6501 1.6771L24.6283 1.68866L24.8158 2.04204ZM25.0438 2.01174L24.9467 2.39978L24.9467 2.39978L25.0438 2.01174ZM25.2045 2.13475L25.5241 1.89416L25.5236 1.89352L25.2045 2.13475ZM25.2059 2.13653L25.5295 1.90132L25.5254 1.89594L25.2059 2.13653ZM44.1487 28.1994L43.8251 28.4346L43.8288 28.4394L44.1487 28.1994ZM44.1517 28.2033L43.8317 28.4434L43.8318 28.4434L44.1517 28.2033ZM44.1655 28.5781L44.436 28.8728L44.4686 28.8429L44.4938 28.8066L44.1655 28.5781ZM43.9524 28.701L43.8395 28.3173L43.8395 28.3173L43.9524 28.701ZM43.7815 28.7015L43.5865 29.0508L43.6049 29.0611L43.6243 29.0693L43.7815 28.7015ZM43.7708 28.6957L43.5853 29.0501L43.5855 29.0502L43.7708 28.6957ZM43.7648 28.6926L43.9457 28.3359L43.9456 28.3358L43.7648 28.6926ZM43.7285 28.6754L43.8932 28.3109L43.8932 28.3109L43.7285 28.6754ZM43.6331 28.6347L43.4812 29.0048L43.4812 29.0048L43.6331 28.6347ZM43.3047 28.5081L43.4427 28.1326L43.4427 28.1326L43.3047 28.5081ZM42.1255 28.1204L42.0119 28.5039L42.0119 28.5039L42.1255 28.1204ZM38.1616 27.3019L38.2084 26.9046L38.2084 26.9046L38.1616 27.3019ZM27.8419 29.5603L28.0193 29.9187L28.0528 29.9022L28.0826 29.8797L27.8419 29.5603ZM27.6218 29.6435L27.6207 30.0435H27.6218V29.6435ZM27.6038 29.6434L27.6006 30.0434L27.6027 30.0434L27.6038 29.6434ZM43.0148 27.6786L42.9006 28.062L44.0295 28.3983L43.3388 27.4441L43.0148 27.6786ZM42.098 27.4056L41.9838 27.7889L41.9838 27.7889L42.098 27.4056ZM25.4839 3.4598L25.808 3.22525L24.9431 2.03041L25.0858 3.49851L25.4839 3.4598ZM27.9373 28.6917L27.5392 28.7304L27.6015 29.3714L28.1485 29.0314L27.9373 28.6917ZM28.3815 28.4155L28.1703 28.0758L28.1703 28.0758L28.3815 28.4155ZM22.2697 9.95365L22.6678 9.91442L22.5974 9.2004L22.0271 9.63566L22.2697 9.95365ZM24.1425 28.9574L23.9994 29.3309L24.604 29.5625L24.5405 28.9181L24.1425 28.9574ZM21.8065 10.3071L21.5638 9.98916L21.5638 9.98916L21.8065 10.3071ZM10.1227 29.1812L10.5137 29.2656L10.5137 29.2656L10.1227 29.1812ZM9.97324 29.8729L9.58226 29.7885L9.39826 30.6402L10.1641 30.2245L9.97324 29.8729ZM10.5952 29.5352L10.7861 29.8868L10.7861 29.8868L10.5952 29.5352ZM23.6514 28.7693L23.7945 28.3958L23.7945 28.3957L23.6514 28.7693ZM42.922 37.4953L42.6096 37.7451L42.6161 37.7533L42.6231 37.7611L42.922 37.4953ZM42.9167 37.4886L43.2291 37.2388L43.229 37.2388L42.9167 37.4886ZM42.9276 37.5016L43.2265 37.2358L43.2265 37.2358L42.9276 37.5016ZM45.5248 38.9192L45.9248 38.9194L45.9248 38.9187L45.5248 38.9192ZM45.4402 39.163L45.1575 38.8801L45.1575 38.8801L45.4402 39.163ZM42.3141 37.8669L42.6264 37.6171L42.6264 37.617L42.3141 37.8669ZM42.3088 37.8603L42.6211 37.6104L42.6146 37.6023L42.6077 37.5945L42.3088 37.8603ZM42.3032 37.854L42.0043 38.1198L42.0043 38.1198L42.3032 37.854ZM37.6251 37.867L37.9375 38.1168L37.9375 38.1168L37.6251 37.867ZM31.861 37.8669L32.1734 37.6171L32.1733 37.617L31.861 37.8669ZM31.8557 37.8603L32.168 37.6104L32.1615 37.6023L32.1546 37.5945L31.8557 37.8603ZM31.8501 37.854L31.5512 38.1198L31.5512 38.1198L31.8501 37.854ZM27.172 37.867L27.4844 38.1168L27.4844 38.1168L27.172 37.867ZM21.4079 37.8669L21.7203 37.6171L21.7202 37.617L21.4079 37.8669ZM21.4026 37.8603L21.7149 37.6104L21.7084 37.6023L21.7015 37.5945L21.4026 37.8603ZM21.397 37.854L21.0981 38.1198L21.0981 38.1198L21.397 37.854ZM16.7189 37.867L17.0313 38.1168L17.0313 38.1168L16.7189 37.867ZM10.9548 37.8669L11.2672 37.6171L11.2671 37.617L10.9548 37.8669ZM10.9495 37.8603L11.2618 37.6104L11.2554 37.6023L11.2485 37.5945L10.9495 37.8603ZM10.9439 37.854L11.2428 37.5882L11.2428 37.5882L10.9439 37.854ZM6.26585 37.867L6.57819 38.1168L6.57822 38.1168L6.26585 37.867ZM3.13969 39.1629L3.42261 38.8802L3.4226 38.8801L3.13969 39.1629ZM3.13975 38.6748L2.85697 38.3918L2.85697 38.3918L3.13975 38.6748ZM5.7283 37.4885L5.41596 37.2386L5.41593 37.2387L5.7283 37.4885ZM9.74891 36.2872L9.62228 36.6667L9.62228 36.6667L9.74891 36.2872ZM10.3951 36.5029L10.2685 36.8823L11.0641 37.1478L10.7696 36.3624L10.3951 36.5029ZM9.17836 33.2579L8.79819 33.3823L8.80084 33.3904L8.80383 33.3984L9.17836 33.2579ZM9.20734 32.9586L8.87464 32.7365L8.87464 32.7365L9.20734 32.9586ZM9.46994 32.7763V33.1763H9.48239L9.4948 33.1756L9.46994 32.7763ZM44.0937 30.6205L44.1011 30.2206L44.085 30.2203L44.0689 30.2213L44.0937 30.6205ZM44.4478 30.8326L44.8057 30.6539L44.8052 30.653L44.4478 30.8326ZM44.3812 31.1731L44.6546 31.4651L44.6607 31.4594L44.6665 31.4535L44.3812 31.1731ZM40.2658 35.027L39.9922 34.7349L39.9829 34.7442L40.2658 35.027ZM39.9897 35.2724L39.7336 34.9651L39.7335 34.9652L39.9897 35.2724ZM39.9859 35.2756L40.242 35.5828L40.2422 35.5827L39.9859 35.2756ZM39.1196 36.1081L38.8367 35.8252L38.1539 36.5081H39.1196V36.1081ZM16.1816 37.4887L15.8693 37.2388L15.8693 37.2388L16.1816 37.4887ZM21.9457 37.4887L22.2581 37.2388L22.2581 37.2388L21.9457 37.4887ZM26.6998 37.4887L26.3875 37.2388L26.3875 37.2388L26.6998 37.4887ZM32.3168 37.466L31.9841 37.6879L31.9841 37.6879L32.3168 37.466ZM32.3247 37.4777L31.9919 37.6997L32.0015 37.7141L32.0124 37.7276L32.3247 37.4777ZM32.3335 37.4887L32.6458 37.2388L32.6458 37.2387L32.3335 37.4887ZM33.4216 38.3601L33.6005 38.0023L33.6005 38.0023L33.4216 38.3601ZM33.5512 38.4249L33.3723 38.7826L33.5318 38.8624L33.6978 38.797L33.5512 38.4249ZM33.686 38.3718V37.9718H33.61L33.5393 37.9996L33.686 38.3718ZM38.6477 35.6802L38.3572 35.4052L38.3572 35.4052L38.6477 35.6802ZM39.7315 34.585L39.46 34.2913L39.4598 34.2914L39.7315 34.585ZM39.7328 34.5838L39.464 34.2876L39.4612 34.2901L39.7328 34.5838ZM43.2246 31.4165L43.4934 31.7128L44.3372 30.9474L43.2001 31.0173L43.2246 31.4165ZM9.98472 33.4601L9.96017 33.0609L9.42437 33.0938L9.60917 33.5978L9.98472 33.4601ZM10.8551 35.8339L10.4794 35.9717L10.4837 35.9825L10.8551 35.8339ZM10.8568 35.8383L10.4854 35.9868L10.4855 35.9869L10.8568 35.8383ZM12.7797 38.3843L13.0358 38.077L13.0358 38.077L12.7797 38.3843ZM12.8367 38.4318L12.5805 38.739L12.6507 38.7975L12.7394 38.8198L12.8367 38.4318ZM12.9149 38.4514L13.0122 38.0634L13.0122 38.0634L12.9149 38.4514ZM22.4565 9.31395L24.4802 29.8345L25.2764 29.7559L23.2526 9.23543L22.4565 9.31395ZM22.4546 9.25896V9.27469H23.2546V9.25896H22.4546ZM22.4782 9.35056C22.4698 9.33799 22.4651 9.32671 22.4621 9.31692C22.4605 9.31168 22.4588 9.30507 22.4574 9.2968C22.4562 9.28905 22.4546 9.27625 22.4546 9.25896H23.2546C23.2546 9.14578 23.2173 9.01695 23.1439 8.90689L22.4782 9.35056ZM22.612 9.43955C22.5799 9.43153 22.55 9.41714 22.5248 9.39835C22.5003 9.38011 22.4857 9.36178 22.4782 9.35056L23.1439 8.9069C23.0691 8.79464 22.956 8.70086 22.8057 8.66336L22.612 9.43955ZM22.5572 9.42589L22.612 9.43955L22.8057 8.66336L22.7509 8.64969L22.5572 9.42589ZM22.3851 9.33917L22.432 9.37049L22.8761 8.70509L22.8292 8.67376L22.3851 9.33917ZM22.5633 9.38849C22.5562 9.38951 22.5319 9.39205 22.4967 9.38537C22.4587 9.37818 22.4202 9.36258 22.3851 9.33916L22.8292 8.67376C22.7143 8.59708 22.5811 8.57782 22.4501 8.59654L22.5633 9.38849ZM22.5354 9.40498C22.5469 9.39733 22.5572 9.39223 22.5643 9.38931C22.5678 9.3879 22.5698 9.38731 22.5701 9.38722C22.5705 9.38711 22.5683 9.38778 22.5633 9.38849L22.4501 8.59654C22.3226 8.61476 22.1978 8.66874 22.0924 8.73886L22.5354 9.40498ZM22.5262 9.41113L22.5354 9.40498L22.0924 8.73886L22.0832 8.745L22.5262 9.41113ZM22.4933 9.43096L22.503 9.42546L22.1064 8.73067L22.0967 8.73618L22.4933 9.43096ZM9.53268 30.5458C11.9855 16.3164 22.1415 9.63176 22.4933 9.43097L22.0968 8.73617C21.629 9.00314 11.2528 15.8578 8.74431 30.4099L9.53268 30.5458ZM8.75156 30.5792C8.80987 30.8018 8.88568 31.0715 9.16487 31.2113L9.52316 30.496C9.53155 30.5002 9.54621 30.5093 9.56097 30.5239C9.575 30.5379 9.58054 30.5484 9.57979 30.547C9.57824 30.5442 9.572 30.5316 9.56179 30.5015C9.55167 30.4718 9.53994 30.4318 9.52543 30.3764L8.75156 30.5792ZM9.16485 31.2113L9.17697 31.2174L9.5353 30.5021L9.52318 30.496L9.16485 31.2113ZM9.18498 31.2213C9.24785 31.251 9.29875 31.2671 9.34993 31.2756L9.48103 30.4864C9.48385 30.4869 9.49066 30.4881 9.49911 30.4901C9.50726 30.492 9.51428 30.494 9.51991 30.4959C9.53049 30.4993 9.53383 30.5013 9.52729 30.4982L9.18498 31.2213ZM9.34988 31.2756C9.40693 31.2851 9.46445 31.2848 9.52557 31.2848V30.4848C9.50823 30.4848 9.49497 30.4847 9.48455 30.4846C9.47401 30.4845 9.46776 30.4844 9.46416 30.4842C9.46061 30.4841 9.46154 30.4841 9.4651 30.4844C9.46947 30.4848 9.47506 30.4854 9.48107 30.4864L9.34988 31.2756ZM9.52557 31.2848C9.61241 31.2848 9.68612 31.2622 9.73899 31.2426C9.79267 31.2226 9.85274 31.1947 9.91907 31.162L9.56485 30.4447C9.53557 30.4591 9.51276 30.47 9.49482 30.4781C9.47666 30.4863 9.46588 30.4906 9.46033 30.4927C9.45456 30.4948 9.45828 30.4931 9.46861 30.4907C9.47993 30.4882 9.49976 30.4848 9.52557 30.4848V31.2848ZM9.98669 31.1198C9.99979 31.1098 10.0188 31.0958 10.0437 31.078L9.57789 30.4275C9.54843 30.4486 9.52332 30.4671 9.50313 30.4824L9.98669 31.1198ZM10.0436 31.078C10.0933 31.0425 10.1657 30.9924 10.2598 30.9309L9.82216 30.2612C9.71899 30.3286 9.63721 30.3851 9.57791 30.4275L10.0436 31.078ZM10.2598 30.9309C10.3327 30.8832 10.4186 30.8287 10.5172 30.7688L10.1016 30.0852C9.99548 30.1497 9.90219 30.2089 9.82216 30.2612L10.2598 30.9309ZM11.0005 29.9967L10.292 30.0274L10.3267 30.8266L11.0352 30.7959L11.0005 29.9967ZM10.6334 30.3057C10.6262 30.3375 10.6136 30.3715 10.6004 30.3992C10.5941 30.4125 10.5893 30.4208 10.5875 30.4236C10.5812 30.4339 10.5924 30.4126 10.6212 30.3842C10.6299 30.3756 10.6479 30.3586 10.6744 30.3408C10.6941 30.3275 10.7562 30.2874 10.8484 30.2768C10.9695 30.2628 11.1132 30.3054 11.2085 30.4285C11.2799 30.5207 11.2884 30.6146 11.2903 30.6435C11.2946 30.7088 11.2804 30.7568 11.2801 30.7577C11.277 30.7694 11.2746 30.7752 11.2758 30.7722C11.2817 30.7566 11.3062 30.7016 11.3681 30.5895L10.6676 30.2031C10.6011 30.3237 10.5547 30.4179 10.5284 30.4869C10.5214 30.5051 10.5134 30.5279 10.5068 30.553C10.503 30.5672 10.4873 30.6248 10.4921 30.6964C10.4942 30.7282 10.5033 30.8244 10.5758 30.9181C10.6721 31.0425 10.8174 31.0857 10.9404 31.0715C11.0344 31.0606 11.0988 31.0195 11.1211 31.0045C11.1502 30.9849 11.1712 30.9654 11.1832 30.9536C11.225 30.9123 11.2542 30.8666 11.2684 30.8436C11.2873 30.813 11.3057 30.7789 11.3227 30.7432C11.3563 30.6726 11.3914 30.5816 11.414 30.4806L10.6334 30.3057ZM11.0057 29.9936L10.2946 30.0255L10.3305 30.8247L11.0416 30.7928L11.0057 29.9936ZM10.5202 30.7669C10.6754 30.6727 10.8615 30.5651 11.0767 30.45L10.6993 29.7446C10.4706 29.867 10.2719 29.9818 10.1049 30.0832L10.5202 30.7669ZM11.0767 30.45C11.7841 30.0714 12.8058 29.6103 14.0774 29.2649L13.8677 28.4929C12.5278 28.8568 11.4498 29.3429 10.6993 29.7446L11.0767 30.45ZM14.0774 29.2649C16.6163 28.5754 20.1522 28.3472 24.177 30.1599L24.5055 29.4305C20.2818 27.5282 16.5512 27.7641 13.8677 28.4929L14.0774 29.2649ZM10.517 30.7689C10.5178 30.7685 10.5193 30.7675 10.5206 30.7667L10.1045 30.0834C10.1037 30.0839 10.1031 30.0843 10.1017 30.0851L10.517 30.7689ZM10.292 30.0274L9.12116 30.0782L9.15583 30.8774L10.3267 30.8266L10.292 30.0274ZM10.2946 30.0255L9.12055 30.0782L9.15644 30.8774L10.3305 30.8247L10.2946 30.0255ZM21.4778 10.4677C21.4691 10.4745 21.4603 10.4815 21.4516 10.4884L21.9492 11.1148C21.9577 11.1081 21.9661 11.1014 21.9745 11.0948L21.4778 10.4677ZM21.7609 10.2474C21.6717 10.3155 21.5772 10.3889 21.4778 10.4676L21.9745 11.0948C22.0702 11.019 22.1609 10.9485 22.2462 10.8834L21.7609 10.2474ZM27.5202 30.0397C27.5332 30.0409 27.5463 30.0418 27.5592 30.0424L27.5956 29.2432C27.5943 29.2432 27.5947 29.2431 27.5967 29.2433L27.5202 30.0397ZM27.2533 29.902L27.2756 29.9244L27.8413 29.3587L27.8189 29.3363L27.2533 29.902ZM27.337 29.9745L27.4099 29.9987L27.6623 29.2396L27.5895 29.2154L27.337 29.9745ZM26.9035 29.4284C26.975 29.6905 27.1166 29.9012 27.337 29.9745L27.5894 29.2154C27.6601 29.2388 27.6926 29.2767 27.6994 29.2856C27.7067 29.2951 27.6925 29.2809 27.6753 29.2178L26.9035 29.4284ZM24.2128 2.38272L26.8914 29.3626L27.6874 29.2836L25.0089 2.30368L24.2128 2.38272ZM24.2171 2.41737L24.2229 2.44055L24.9989 2.24586L24.9931 2.22268L24.2171 2.41737ZM24.3002 1.98263C24.2162 2.11324 24.1789 2.26493 24.2171 2.41735L24.9931 2.2227C25.0042 2.26712 25.0048 2.31166 24.9967 2.35145C24.9891 2.38887 24.9761 2.41061 24.973 2.41543L24.3002 1.98263ZM24.6283 1.68866C24.4962 1.75876 24.3784 1.86106 24.3002 1.98264L24.973 2.41542C24.9689 2.42183 24.9687 2.42033 24.9756 2.41423C24.9819 2.40858 24.9913 2.40169 25.0032 2.39541L24.6283 1.68866ZM25.1409 1.6237C24.997 1.5877 24.84 1.60465 24.6732 1.66831L24.9583 2.41576C24.9868 2.40491 24.9976 2.40444 24.9937 2.40482C24.9916 2.40502 24.9861 2.40539 24.9777 2.40482C24.9692 2.40424 24.9587 2.40276 24.9467 2.39978L25.1409 1.6237ZM25.5236 1.89352C25.4174 1.75296 25.2897 1.66093 25.1409 1.6237L24.9467 2.39978C24.9353 2.39691 24.9236 2.39292 24.9124 2.38779C24.9012 2.38269 24.8924 2.37735 24.886 2.37281C24.8733 2.36384 24.8741 2.3609 24.8855 2.37597L25.5236 1.89352ZM25.5254 1.89594L25.5241 1.89416L24.885 2.37533L24.8863 2.37712L25.5254 1.89594ZM44.4723 27.9642L25.5294 1.90136L24.8823 2.3717L43.8251 28.4345L44.4723 27.9642ZM44.4716 27.9633L44.4686 27.9593L43.8288 28.4394L43.8317 28.4434L44.4716 27.9633ZM44.6336 28.4003C44.6336 28.2503 44.5774 28.1042 44.4716 27.9632L43.8318 28.4434C43.8464 28.4629 43.8464 28.4678 43.8429 28.4583C43.8411 28.4535 43.8386 28.4456 43.8367 28.4351C43.8347 28.4245 43.8336 28.4128 43.8336 28.4003H44.6336ZM44.4938 28.8066C44.5858 28.6745 44.6336 28.5384 44.6336 28.4003H43.8336C43.8336 28.3758 43.8379 28.3565 43.842 28.3445C43.8457 28.3338 43.8471 28.3353 43.8373 28.3495L44.4938 28.8066ZM44.0653 29.0848C44.2052 29.0436 44.335 28.9655 44.436 28.8728L43.8951 28.2833C43.8751 28.3017 43.8509 28.3139 43.8395 28.3173L44.0653 29.0848ZM43.6243 29.0693C43.7677 29.1307 43.9223 29.1268 44.0653 29.0848L43.8395 28.3173C43.8307 28.3199 43.8733 28.3058 43.9388 28.3337L43.6243 29.0693ZM43.5855 29.0502C43.586 29.0505 43.5864 29.0507 43.5865 29.0508L43.9766 28.3523C43.9689 28.348 43.9619 28.3443 43.9561 28.3413L43.5855 29.0502ZM43.5839 29.0494C43.5843 29.0496 43.5848 29.0499 43.5853 29.0501L43.9563 28.3413C43.9523 28.3393 43.9487 28.3374 43.9457 28.3359L43.5839 29.0494ZM43.5638 29.0399C43.5732 29.0442 43.5798 29.0473 43.584 29.0494L43.9456 28.3358C43.9263 28.3261 43.9076 28.3174 43.8932 28.3109L43.5638 29.0399ZM43.4812 29.0048C43.5176 29.0197 43.5451 29.0315 43.5638 29.04L43.8932 28.3109C43.863 28.2972 43.8261 28.2816 43.785 28.2647L43.4812 29.0048ZM43.1667 28.8835C43.3029 28.9336 43.4087 28.975 43.4812 29.0048L43.785 28.2647C43.7017 28.2305 43.5864 28.1855 43.4427 28.1326L43.1667 28.8835ZM42.0119 28.5039C42.5013 28.6489 42.8943 28.7834 43.1667 28.8835L43.4427 28.1326C43.1548 28.0268 42.7455 27.8869 42.2391 27.7369L42.0119 28.5039ZM38.1148 27.6991C39.6693 27.8822 41.0329 28.2139 42.0119 28.5039L42.2391 27.7369C41.2275 27.4372 39.8183 27.0943 38.2084 26.9046L38.1148 27.6991ZM28.0826 29.8797C31.1593 27.5615 35.0113 27.3335 38.1148 27.6991L38.2084 26.9046C35.018 26.5288 30.9174 26.7421 27.6012 29.2408L28.0826 29.8797ZM27.6218 30.0435C27.7094 30.0435 27.7838 30.0205 27.8369 30.0007C27.891 29.9805 27.9518 29.9522 28.0193 29.9187L27.6645 29.2018C27.6345 29.2166 27.6111 29.2277 27.5926 29.2361C27.5739 29.2446 27.5628 29.2491 27.5569 29.2513C27.5508 29.2536 27.5543 29.2519 27.5646 29.2495C27.5758 29.247 27.5958 29.2435 27.6218 29.2435V30.0435ZM27.6027 30.0434L27.6207 30.0435L27.6229 29.2435L27.6049 29.2434L27.6027 30.0434ZM27.5593 30.0424C27.5747 30.0431 27.5886 30.0433 27.6006 30.0434L27.6069 29.2435C27.6007 29.2434 27.5976 29.2433 27.5956 29.2432L27.5593 30.0424ZM43.129 27.2953L42.2121 27.0222L41.9838 27.7889L42.9006 28.062L43.129 27.2953ZM25.1599 3.69434L42.6908 27.9132L43.3388 27.4441L25.808 3.22525L25.1599 3.69434ZM28.3354 28.6529L25.8821 3.42108L25.0858 3.49851L27.5392 28.7304L28.3354 28.6529ZM28.1703 28.0758L27.7261 28.3519L28.1485 29.0314L28.5927 28.7552L28.1703 28.0758ZM42.2121 27.0222C39.1371 26.1062 33.0338 25.0525 28.1703 28.0758L28.5927 28.7552C33.1493 25.9227 38.957 26.8873 41.9838 27.7889L42.2121 27.0222ZM21.8716 9.99288L23.7444 28.9966L24.5405 28.9181L22.6678 9.91442L21.8716 9.99288ZM22.0492 10.6251L22.5124 10.2716L22.0271 9.63566L21.5638 9.98916L22.0492 10.6251ZM10.5137 29.2656C12.7948 18.7058 19.5742 12.5138 22.0492 10.6251L21.5638 9.98916C19.0065 11.9408 12.0681 18.2808 9.7317 29.0967L10.5137 29.2656ZM10.3642 29.9574L10.5137 29.2656L9.7317 29.0967L9.58226 29.7885L10.3642 29.9574ZM10.4044 29.1837L9.78239 29.5214L10.1641 30.2245L10.7861 29.8868L10.4044 29.1837ZM23.7945 28.3957C17.6253 26.0331 12.7017 27.9364 10.4044 29.1837L10.7861 29.8868C12.9676 28.7024 17.6376 26.8945 23.5084 29.1428L23.7945 28.3957ZM24.2855 28.5838L23.7945 28.3958L23.5084 29.1428L23.9994 29.3309L24.2855 28.5838ZM43.2343 37.2454L43.2291 37.2388L42.6043 37.7385L42.6096 37.7451L43.2343 37.2454ZM43.2265 37.2358L43.2209 37.2294L42.6231 37.7611L42.6287 37.7674L43.2265 37.2358ZM45.2612 38.1903C44.4367 38.1903 43.7375 37.8104 43.2265 37.2358L42.6287 37.7674C43.2654 38.4834 44.1717 38.9903 45.2612 38.9903V38.1903ZM45.9248 38.9187C45.9245 38.7211 45.8647 38.5324 45.7293 38.3903C45.596 38.2505 45.4217 38.1903 45.2612 38.1903V38.9903C45.2257 38.9903 45.183 38.9766 45.1502 38.9423C45.1152 38.9056 45.1248 38.8813 45.1248 38.9197L45.9248 38.9187ZM45.723 39.4459C45.8527 39.3163 45.9247 39.1333 45.9248 38.9194L45.1248 38.919C45.1248 38.9368 45.122 38.9369 45.1264 38.9256C45.1309 38.9139 45.1404 38.8971 45.1575 38.8801L45.723 39.4459ZM45.1962 39.6475C45.4101 39.6475 45.5932 39.5756 45.723 39.4459L45.1575 38.8801C45.1745 38.863 45.1913 38.8535 45.203 38.849C45.2142 38.8447 45.2141 38.8475 45.1962 38.8475V39.6475ZM42.0018 38.1168C42.8 39.1147 43.9323 39.6475 45.1962 39.6475V38.8475C44.1718 38.8475 43.2707 38.4224 42.6264 37.6171L42.0018 38.1168ZM41.9965 38.1103L42.0018 38.1169L42.6264 37.617L42.6211 37.6104L41.9965 38.1103ZM42.0043 38.1198L42.0099 38.1261L42.6077 37.5945L42.6021 37.5882L42.0043 38.1198ZM39.9696 37.1652C40.7294 37.1652 41.494 37.546 42.0043 38.1198L42.6021 37.5882C41.9586 36.8646 40.9845 36.3652 39.9696 36.3652V37.1652ZM37.9375 38.1168C38.4444 37.4831 39.2056 37.1652 39.9696 37.1652V36.3652C38.9889 36.3652 37.9872 36.7739 37.3128 37.6171L37.9375 38.1168ZM34.7431 39.6475C36.007 39.6475 37.1392 39.1147 37.9375 38.1168L37.3128 37.6171C36.6685 38.4224 35.7675 38.8475 34.7431 38.8475V39.6475ZM31.5487 38.1168C32.3469 39.1147 33.4792 39.6475 34.7431 39.6475V38.8475C33.7187 38.8475 32.8176 38.4224 32.1734 37.6171L31.5487 38.1168ZM31.5434 38.1103L31.5487 38.1169L32.1733 37.617L32.168 37.6104L31.5434 38.1103ZM31.5512 38.1198L31.5568 38.1261L32.1546 37.5945L32.149 37.5882L31.5512 38.1198ZM29.5165 37.1652C30.2763 37.1652 31.0409 37.546 31.5512 38.1198L32.149 37.5882C31.5055 36.8646 30.5314 36.3652 29.5165 36.3652V37.1652ZM27.4844 38.1168C27.9913 37.4831 28.7525 37.1652 29.5165 37.1652V36.3652C28.5358 36.3652 27.5341 36.7739 26.8597 37.6171L27.4844 38.1168ZM24.29 39.6475C25.5539 39.6475 26.6861 39.1147 27.4844 38.1168L26.8597 37.6171C26.2154 38.4224 25.3144 38.8475 24.29 38.8475V39.6475ZM21.0956 38.1168C21.8939 39.1147 23.0261 39.6475 24.29 39.6475V38.8475C23.2656 38.8475 22.3645 38.4224 21.7203 37.6171L21.0956 38.1168ZM21.0903 38.1103L21.0956 38.1169L21.7202 37.617L21.7149 37.6104L21.0903 38.1103ZM21.0981 38.1198L21.1037 38.1261L21.7015 37.5945L21.6959 37.5882L21.0981 38.1198ZM19.0634 37.1652C19.8232 37.1652 20.5878 37.546 21.0981 38.1198L21.6959 37.5882C21.0524 36.8646 20.0783 36.3652 19.0634 36.3652V37.1652ZM17.0313 38.1168C17.5382 37.4831 18.2994 37.1652 19.0634 37.1652V36.3652C18.0827 36.3652 17.081 36.7739 16.4066 37.6171L17.0313 38.1168ZM13.8369 39.6475C15.1008 39.6475 16.233 39.1147 17.0313 38.1168L16.4066 37.6171C15.7623 38.4224 14.8613 38.8475 13.8369 38.8475V39.6475ZM10.6425 38.1168C11.4408 39.1147 12.573 39.6475 13.8369 39.6475V38.8475C12.8125 38.8475 11.9114 38.4224 11.2672 37.6171L10.6425 38.1168ZM10.6372 38.1103L10.6425 38.1169L11.2671 37.617L11.2618 37.6104L10.6372 38.1103ZM10.645 38.1198L10.6506 38.1261L11.2485 37.5945L11.2428 37.5882L10.645 38.1198ZM8.61035 37.1652C9.37014 37.1652 10.1347 37.546 10.645 38.1198L11.2428 37.5882C10.5993 36.8646 9.62519 36.3652 8.61035 36.3652V37.1652ZM6.57822 38.1168C7.08513 37.4831 7.84629 37.1652 8.61035 37.1652V36.3652C7.62962 36.3652 6.62796 36.7739 5.95348 37.6171L6.57822 38.1168ZM3.3838 39.6475C4.64769 39.6475 5.77989 39.1147 6.57819 38.1168L5.95351 37.6171C5.30921 38.4224 4.4082 38.8475 3.3838 38.8475V39.6475ZM2.85677 39.4457C2.98652 39.5755 3.16964 39.6475 3.3838 39.6475V38.8475C3.36584 38.8475 3.36573 38.8447 3.377 38.8491C3.38872 38.8536 3.40559 38.8631 3.42261 38.8802L2.85677 39.4457ZM2.65518 38.9189C2.65518 39.1328 2.72703 39.3159 2.85678 39.4457L3.4226 38.8801C3.43962 38.8972 3.44913 38.914 3.45363 38.9257C3.45796 38.9369 3.45518 38.9368 3.45518 38.9189H2.65518ZM2.85697 38.3918C2.72716 38.5216 2.65518 38.7047 2.65518 38.9189H3.45518C3.45518 38.9009 3.45797 38.9008 3.45362 38.9121C3.44909 38.9238 3.43955 38.9406 3.42252 38.9577L2.85697 38.3918ZM3.3838 38.1902C3.16988 38.1902 2.98678 38.2621 2.85697 38.3918L3.42252 38.9577C3.40549 38.9747 3.38864 38.9842 3.37699 38.9887C3.36576 38.993 3.3659 38.9902 3.3838 38.9902V38.1902ZM5.41593 37.2387C4.90902 37.8724 4.14786 38.1902 3.3838 38.1902V38.9902C4.36453 38.9902 5.36619 38.5816 6.04067 37.7384L5.41593 37.2387ZM8.61035 35.708C7.34646 35.708 6.21426 36.2408 5.41596 37.2386L6.04064 37.7384C6.68494 36.9331 7.58595 36.508 8.61035 36.508V35.708ZM9.87553 35.9078C9.47515 35.7742 9.00951 35.708 8.61035 35.708V36.508C8.9329 36.508 9.31208 36.5631 9.62228 36.6667L9.87553 35.9078ZM10.5217 36.1235L9.87553 35.9078L9.62228 36.6667L10.2685 36.8823L10.5217 36.1235ZM8.80383 33.3984L10.0206 36.6433L10.7696 36.3624L9.5529 33.1175L8.80383 33.3984ZM8.87464 32.7365C8.81441 32.8268 8.76849 32.9335 8.7566 33.0595C8.74518 33.1805 8.76798 33.29 8.79819 33.3823L9.55854 33.1336C9.54887 33.104 9.5554 33.1099 9.55306 33.1347C9.55186 33.1473 9.54887 33.1595 9.54501 33.1696C9.54138 33.1791 9.53845 33.183 9.54005 33.1806L8.87464 32.7365ZM9.45984 32.3763C9.23413 32.3763 9.0167 32.5237 8.87464 32.7365L9.54005 33.1806C9.55743 33.1546 9.56756 33.1502 9.56117 33.1542C9.55832 33.156 9.5504 33.1606 9.53647 33.1652C9.52436 33.1692 9.49812 33.1763 9.45984 33.1763V32.3763ZM9.46994 32.3763H9.45984V33.1763H9.46994V32.3763ZM44.0689 30.2213L9.44509 32.3771L9.4948 33.1756L44.1186 31.0198L44.0689 30.2213ZM44.8052 30.653C44.6636 30.3711 44.3837 30.2258 44.1011 30.2206L44.0864 31.0205C44.0987 31.0207 44.1022 31.0236 44.0997 31.0222C44.0985 31.0215 44.0966 31.0201 44.0945 31.0179C44.0923 31.0156 44.091 31.0134 44.0903 31.0121L44.8052 30.653ZM44.6665 31.4535C44.7602 31.3581 44.8418 31.2338 44.8705 31.0787C44.8998 30.9204 44.8659 30.7745 44.8056 30.6539L44.0899 31.0112C44.0898 31.0111 44.0858 31.0031 44.0833 30.9881C44.0805 30.9722 44.0801 30.9531 44.0838 30.9331C44.0916 30.8912 44.1104 30.878 44.096 30.8927L44.6665 31.4535ZM40.5392 35.319L44.6546 31.4651L44.1078 30.8811L39.9923 34.7351L40.5392 35.319ZM40.5448 35.3137L40.5486 35.3099L39.9829 34.7442L39.9792 34.748L40.5448 35.3137ZM40.2459 35.5796C40.3435 35.4982 40.4441 35.4144 40.5448 35.3137L39.9792 34.748C39.9078 34.8194 39.8343 34.8811 39.7336 34.9651L40.2459 35.5796ZM40.2422 35.5827L40.246 35.5795L39.7335 34.9652L39.7296 34.9684L40.2422 35.5827ZM39.957 35.8364C40.0509 35.7424 40.1452 35.6635 40.242 35.5828L39.7298 34.9683C39.6349 35.0474 39.5142 35.1478 39.3913 35.2707L39.957 35.8364ZM39.4024 36.3909L39.957 35.8364L39.3913 35.2707L38.8367 35.8252L39.4024 36.3909ZM40.0346 35.7081H39.1196V36.5081H40.0346V35.7081ZM43.229 37.2388C42.4308 36.2409 41.2985 35.7081 40.0346 35.7081V36.5081C41.059 36.5081 41.9601 36.9332 42.6043 37.7385L43.229 37.2388ZM15.8693 37.2388C15.3624 37.8726 14.6012 38.1904 13.8372 38.1904V38.9904C14.8179 38.9904 15.8195 38.5818 16.494 37.7385L15.8693 37.2388ZM19.0637 35.7081C17.7998 35.7081 16.6676 36.241 15.8693 37.2388L16.494 37.7386C17.1383 36.9332 18.0393 36.5081 19.0637 36.5081V35.7081ZM22.2581 37.2388C21.4598 36.241 20.3276 35.7081 19.0637 35.7081V36.5081C20.0881 36.5081 20.9891 36.9332 21.6334 37.7386L22.2581 37.2388ZM24.3553 38.1904C23.5893 38.1904 22.7639 37.8712 22.2581 37.2388L21.6334 37.7385C22.3182 38.5947 23.3935 38.9904 24.3553 38.9904V38.1904ZM26.3875 37.2388C25.8806 37.8726 25.1194 38.1904 24.3553 38.1904V38.9904C25.3361 38.9904 26.3377 38.5818 27.0122 37.7385L26.3875 37.2388ZM29.5819 35.7081C28.318 35.7081 27.1858 36.241 26.3875 37.2388L27.0122 37.7386C27.6565 36.9332 28.5575 36.5081 29.5819 36.5081V35.7081ZM32.6496 37.244C31.9799 36.2399 30.7782 35.7081 29.5819 35.7081V36.5081C30.5608 36.5081 31.4885 36.9449 31.9841 37.6879L32.6496 37.244ZM32.6574 37.2557L32.6496 37.244L31.9841 37.6879L31.9919 37.6997L32.6574 37.2557ZM32.6458 37.2387L32.637 37.2277L32.0124 37.7276L32.0212 37.7386L32.6458 37.2387ZM33.6005 38.0023C33.2178 37.811 32.8998 37.5562 32.6458 37.2388L32.0211 37.7386C32.3508 38.1505 32.7614 38.4772 33.2427 38.7179L33.6005 38.0023ZM33.7301 38.0671L33.6005 38.0023L33.2427 38.7179L33.3723 38.7826L33.7301 38.0671ZM33.5393 37.9996L33.4045 38.0527L33.6978 38.797L33.8326 38.7439L33.5393 37.9996ZM38.3572 35.4052C37.0547 36.7813 35.9124 37.9718 33.686 37.9718V38.7718C36.2877 38.7718 37.6431 37.3235 38.9382 35.9551L38.3572 35.4052ZM39.4598 34.2914C39.0678 34.6543 38.7055 35.0372 38.3572 35.4052L38.9382 35.9551C39.2894 35.5842 39.6338 35.2205 40.0033 34.8785L39.4598 34.2914ZM39.4612 34.2901L39.46 34.2913L40.0031 34.8787L40.0043 34.8776L39.4612 34.2901ZM42.9559 31.1203L39.464 34.2876L40.0015 34.8801L43.4934 31.7128L42.9559 31.1203ZM10.0093 33.8594L43.2492 31.8158L43.2001 31.0173L9.96017 33.0609L10.0093 33.8594ZM11.2306 35.6962L10.3603 33.3224L9.60917 33.5978L10.4795 35.9716L11.2306 35.6962ZM11.2282 35.6898L11.2265 35.6854L10.4837 35.9825L10.4854 35.9868L11.2282 35.6898ZM13.0358 38.077C12.2589 37.4293 11.6144 36.6551 11.2282 35.6897L10.4855 35.9869C10.9331 37.1057 11.673 37.9823 12.5235 38.6915L13.0358 38.077ZM13.0928 38.1246L13.0358 38.077L12.5235 38.6915L12.5805 38.739L13.0928 38.1246ZM13.0122 38.0634L12.934 38.0438L12.7394 38.8198L12.8175 38.8394L13.0122 38.0634ZM13.8372 38.1904C13.5232 38.1904 13.2713 38.1284 13.0122 38.0634L12.8175 38.8394C13.0772 38.9045 13.4145 38.9904 13.8372 38.9904V38.1904ZM9.98283 31.1227L9.98578 31.1205L9.50404 30.4818L9.50109 30.484L9.98283 31.1227ZM24.861 29.3956C24.5626 29.4085 24.109 29.4229 23.8926 29.4268C23.8356 29.4278 23.8044 29.4279 23.7954 29.4277C23.791 29.4276 23.8022 29.4277 23.8182 29.4294C23.8231 29.43 23.833 29.4311 23.8455 29.4334C23.8525 29.4347 23.8853 29.4406 23.9245 29.4567C23.942 29.4639 23.9894 29.4844 24.0382 29.5278C24.0885 29.5727 24.1842 29.6849 24.1709 29.8573C24.1588 30.0132 24.0643 30.1031 24.0304 30.1317C23.9904 30.1656 23.953 30.1834 23.9377 30.1904C23.9043 30.2055 23.8766 30.2124 23.8696 30.2141C23.8583 30.2169 23.8493 30.2186 23.8448 30.2194C23.8355 30.221 23.8288 30.2218 23.8275 30.222C23.8239 30.2224 23.8235 30.2224 23.8289 30.222C23.8767 30.218 24.0331 30.2094 24.3592 30.1948L24.3233 29.3956C24.0037 29.41 23.8292 29.4192 23.7626 29.4247C23.7537 29.4255 23.7424 29.4265 23.7311 29.4278C23.7258 29.4285 23.7161 29.4297 23.7046 29.4318C23.6989 29.4328 23.689 29.4347 23.6769 29.4376C23.6691 29.4396 23.6408 29.4466 23.6071 29.4619C23.5916 29.4689 23.554 29.4869 23.5139 29.5208C23.4799 29.5496 23.3853 29.6395 23.3733 29.7955C23.3599 29.968 23.4557 30.0803 23.5061 30.1252C23.5549 30.1687 23.6025 30.1893 23.6202 30.1966C23.6597 30.2128 23.693 30.2188 23.7008 30.2202C23.714 30.2227 23.7248 30.224 23.7308 30.2246C23.7511 30.2269 23.7693 30.2273 23.7746 30.2274C23.8044 30.2282 23.8538 30.2276 23.907 30.2267C24.1315 30.2226 24.592 30.208 24.8956 30.1948L24.861 29.3956Z" fill="#4D666F" mask="url(#path-1-outside-1_265_6282)"/>
<path d="M19.7435 27.3051L17.013 29.1954L15.1226 29.4055L16.3828 31.7159L12.3921 32.136L11.5519 30.4557L11.1318 29.4055V28.7754L11.5519 28.1452L12.3921 27.5151H15.3326L16.5929 27.3051L18.6933 26.885L19.7435 27.3051Z" fill="#D9E3E8"/>
<path d="M16.1126 32.3611L16.1129 32.3609C16.1658 32.4405 16.24 32.5001 16.3136 32.5397C16.3862 32.5788 16.4735 32.6066 16.561 32.6066L16.1126 32.3611ZM16.1126 32.3611L16.1067 32.3511M16.1126 32.3611L16.1067 32.3511M16.1067 32.3511L15.1371 30.6932C14.9786 30.4275 15.0961 30.1231 15.3314 29.9818L15.3315 29.9817C15.5974 29.8222 15.9025 29.9398 16.0439 30.1754L16.0439 30.1753L16.0451 30.1773L17.0148 31.8352M16.1067 32.3511L17.0148 31.8352M17.0148 31.8352C17.1733 32.1009 17.0558 32.4054 16.8205 32.5467L16.814 32.5506L16.8072 32.554C16.7629 32.5762 16.7202 32.5919 16.6723 32.6C16.632 32.6067 16.5934 32.6067 16.5662 32.6067C16.5644 32.6066 16.5627 32.6066 16.561 32.6066L17.0148 31.8352ZM15.4343 30.1532C15.5909 30.0593 15.7786 30.122 15.8725 30.2783L15.3092 30.5914C15.2154 30.4348 15.278 30.2471 15.4343 30.1532Z" fill="#4D666F" stroke="#4D666F" stroke-width="0.4"/>
<mask id="path-5-outside-2_265_6282" maskUnits="userSpaceOnUse" x="9.74121" y="24.2095" width="12" height="10" fill="black">
<rect fill="white" x="9.74121" y="24.2095" width="12" height="10"/>
<path fill-rule="evenodd" clip-rule="evenodd" d="M12.8053 27.1175C12.461 27.1175 12.0856 27.2114 11.7725 27.3991L11.7728 27.3992C11.3032 27.6496 10.9277 28.1504 10.8024 28.7137C10.6773 29.277 10.74 29.8404 11.0216 30.3098L12.685 33.1863H13.5325L11.6159 29.8718C11.3967 29.5587 11.3655 29.1518 11.4594 28.7763C11.5532 28.4007 11.8036 28.0877 12.1479 27.8999C12.3669 27.7748 12.6173 27.7122 12.8677 27.7122H16.4043C16.467 27.7122 16.4982 27.7122 16.5608 27.681L19.6279 25.8969C19.753 25.8031 19.9095 25.8031 20.066 25.8343C20.2226 25.8967 20.3477 25.9908 20.4103 26.1159C20.5042 26.241 20.5042 26.3975 20.473 26.554C20.4105 26.7106 20.3164 26.8357 20.1914 26.8983L16.9992 28.7446L16.9979 28.7451C16.8418 28.8074 16.6856 28.8697 16.4984 28.8697H13.7756C13.5877 28.8697 13.4626 28.995 13.4626 29.1827C13.4626 29.3707 13.5879 29.4958 13.7756 29.4958H16.4984C16.7801 29.4958 17.0617 29.4331 17.3121 29.2766L20.473 27.4301C20.7546 27.2736 20.9424 27.0234 21.0363 26.7104C21.0989 26.3976 21.0677 26.0845 20.9112 25.8029C20.7546 25.5212 20.5045 25.3335 20.1914 25.2396C19.8784 25.177 19.5653 25.2084 19.2837 25.3649L16.2793 27.1175H12.8053Z"/>
</mask>
<path fill-rule="evenodd" clip-rule="evenodd" d="M12.8053 27.1175C12.461 27.1175 12.0856 27.2114 11.7725 27.3991L11.7728 27.3992C11.3032 27.6496 10.9277 28.1504 10.8024 28.7137C10.6773 29.277 10.74 29.8404 11.0216 30.3098L12.685 33.1863H13.5325L11.6159 29.8718C11.3967 29.5587 11.3655 29.1518 11.4594 28.7763C11.5532 28.4007 11.8036 28.0877 12.1479 27.8999C12.3669 27.7748 12.6173 27.7122 12.8677 27.7122H16.4043C16.467 27.7122 16.4982 27.7122 16.5608 27.681L19.6279 25.8969C19.753 25.8031 19.9095 25.8031 20.066 25.8343C20.2226 25.8967 20.3477 25.9908 20.4103 26.1159C20.5042 26.241 20.5042 26.3975 20.473 26.554C20.4105 26.7106 20.3164 26.8357 20.1914 26.8983L16.9992 28.7446L16.9979 28.7451C16.8418 28.8074 16.6856 28.8697 16.4984 28.8697H13.7756C13.5877 28.8697 13.4626 28.995 13.4626 29.1827C13.4626 29.3707 13.5879 29.4958 13.7756 29.4958H16.4984C16.7801 29.4958 17.0617 29.4331 17.3121 29.2766L20.473 27.4301C20.7546 27.2736 20.9424 27.0234 21.0363 26.7104C21.0989 26.3976 21.0677 26.0845 20.9112 25.8029C20.7546 25.5212 20.5045 25.3335 20.1914 25.2396C19.8784 25.177 19.5653 25.2084 19.2837 25.3649L16.2793 27.1175H12.8053Z" fill="#4D666F"/>
<path d="M11.7725 27.3991L11.5668 27.0561L10.6998 27.576L11.6878 27.7901L11.7725 27.3991ZM11.7728 27.3992L11.961 27.7521L12.923 27.2391L11.8575 27.0083L11.7728 27.3992ZM10.8024 28.7137L10.412 28.6268L10.4119 28.627L10.8024 28.7137ZM11.0216 30.3098L11.3679 30.1095L11.3646 30.104L11.0216 30.3098ZM12.685 33.1863L12.3387 33.3865L12.4542 33.5863H12.685V33.1863ZM13.5325 33.1863V33.5863H14.2259L13.8788 32.986L13.5325 33.1863ZM11.6159 29.8718L11.9622 29.6715L11.9535 29.6565L11.9436 29.6424L11.6159 29.8718ZM11.4594 28.7763L11.8474 28.8732L11.8474 28.8732L11.4594 28.7763ZM12.1479 27.8999L12.3395 28.2512L12.3463 28.2473L12.1479 27.8999ZM16.5608 27.681L16.7392 28.039L16.7508 28.0332L16.762 28.0267L16.5608 27.681ZM19.6279 25.8969L19.829 26.2427L19.8493 26.2309L19.868 26.2169L19.6279 25.8969ZM20.066 25.8343L20.2142 25.4627L20.1802 25.4492L20.1443 25.442L20.066 25.8343ZM20.4103 26.1159L20.0527 26.295L20.0688 26.3272L20.0904 26.356L20.4103 26.1159ZM20.473 26.554L20.8445 26.7022L20.8581 26.6682L20.8653 26.6323L20.473 26.554ZM20.1914 26.8983L20.0122 26.5407L20.0015 26.5461L19.9911 26.5521L20.1914 26.8983ZM16.9992 28.7446L17.1475 29.1161L17.1744 29.1053L17.1995 29.0908L16.9992 28.7446ZM16.9979 28.7451L17.1461 29.1166L17.1461 29.1166L16.9979 28.7451ZM17.3121 29.2766L17.1102 28.9311L17.1001 28.9374L17.3121 29.2766ZM20.473 27.4301L20.2786 27.0804L20.2713 27.0847L20.473 27.4301ZM21.0363 26.7104L21.4194 26.8252L21.4248 26.8073L21.4285 26.7889L21.0363 26.7104ZM20.9112 25.8029L20.5616 25.9972L20.5616 25.9972L20.9112 25.8029ZM20.1914 25.2396L20.3063 24.8565L20.2883 24.8511L20.2699 24.8474L20.1914 25.2396ZM19.2837 25.3649L19.0893 25.0152L19.0821 25.0194L19.2837 25.3649ZM16.2793 27.1175V27.5175H16.3874L16.4808 27.463L16.2793 27.1175ZM11.9782 27.7422C12.2247 27.5944 12.5281 27.5175 12.8053 27.5175V26.7175C12.3939 26.7175 11.9464 26.8284 11.5668 27.0561L11.9782 27.7422ZM11.8575 27.0083L11.8572 27.0082L11.6878 27.7901L11.6881 27.7901L11.8575 27.0083ZM11.1929 28.8005C11.2944 28.3443 11.6005 27.9444 11.961 27.7521L11.5846 27.0463C11.0059 27.3549 10.5611 27.9565 10.412 28.6268L11.1929 28.8005ZM11.3646 30.104C11.1445 29.7372 11.086 29.2818 11.1929 28.8004L10.4119 28.627C10.2687 29.2721 10.3354 29.9436 10.6786 30.5156L11.3646 30.104ZM13.0312 32.986L11.3679 30.1095L10.6753 30.51L12.3387 33.3865L13.0312 32.986ZM12.685 33.5863H13.5325V32.7863H12.685V33.5863ZM11.2696 30.072L13.1863 33.3865L13.8788 32.986L11.9622 29.6715L11.2696 30.072ZM11.0713 28.6793C10.9583 29.1317 10.9842 29.6668 11.2882 30.1012L11.9436 29.6424C11.8093 29.4505 11.7728 29.1718 11.8474 28.8732L11.0713 28.6793ZM11.9564 27.5488C11.5192 27.7872 11.1937 28.1897 11.0713 28.6793L11.8474 28.8732C11.9128 28.6118 12.0881 28.3882 12.3394 28.2511L11.9564 27.5488ZM12.8677 27.3122C12.5516 27.3122 12.2322 27.3911 11.9495 27.5526L12.3463 28.2473C12.5016 28.1586 12.683 28.1122 12.8677 28.1122V27.3122ZM16.4043 27.3122H12.8677V28.1122H16.4043V27.3122ZM16.3825 27.323C16.3785 27.3249 16.381 27.3234 16.3882 27.3209C16.3919 27.3196 16.3964 27.3183 16.4017 27.3169C16.4069 27.3156 16.4121 27.3145 16.417 27.3137C16.4268 27.3121 16.4328 27.3119 16.4311 27.312C16.43 27.312 16.4277 27.3121 16.423 27.3121C16.4181 27.3122 16.4125 27.3122 16.4043 27.3122V28.1122C16.4278 28.1122 16.486 28.1132 16.5482 28.1029C16.6203 28.0909 16.682 28.0675 16.7392 28.039L16.3825 27.323ZM19.4268 25.5512L16.3597 27.3352L16.762 28.0267L19.829 26.2427L19.4268 25.5512ZM20.1443 25.442C19.9529 25.4038 19.6518 25.3789 19.3878 25.577L19.868 26.2169C19.8628 26.2207 19.8613 26.2182 19.8771 26.2165C19.897 26.2144 19.9319 26.2154 19.9878 26.2266L20.1443 25.442ZM20.768 25.9368C20.6456 25.6925 20.4226 25.5458 20.2142 25.4627L19.9178 26.2058C20.0226 26.2476 20.0497 26.2891 20.0527 26.295L20.768 25.9368ZM20.8653 26.6323C20.9034 26.4409 20.9284 26.1398 20.7303 25.8758L20.0904 26.356C20.0865 26.3508 20.0891 26.3493 20.0908 26.3651C20.0929 26.385 20.0918 26.4199 20.0807 26.4758L20.8653 26.6323ZM20.3705 27.256C20.6148 27.1336 20.7614 26.9106 20.8445 26.7022L20.1014 26.4058C20.0597 26.5106 20.0181 26.5377 20.0122 26.5407L20.3705 27.256ZM17.1995 29.0908L20.3916 27.2446L19.9911 26.5521L16.799 28.3983L17.1995 29.0908ZM17.1461 29.1166L17.1475 29.1161L16.851 28.3731L16.8496 28.3736L17.1461 29.1166ZM16.4984 29.2697C16.7731 29.2697 16.9972 29.176 17.1461 29.1166L16.8497 28.3736C16.6864 28.4387 16.5981 28.4697 16.4984 28.4697V29.2697ZM13.7756 29.2697H16.4984V28.4697H13.7756V29.2697ZM13.8626 29.1827C13.8626 29.1797 13.8619 29.2082 13.8315 29.2386C13.8012 29.2689 13.7726 29.2697 13.7756 29.2697V28.4697C13.5907 28.4697 13.4056 28.5331 13.2657 28.673C13.1258 28.8129 13.0626 28.998 13.0626 29.1827H13.8626ZM13.7756 29.0958C13.7726 29.0958 13.8011 29.0965 13.8315 29.1268C13.8618 29.1572 13.8626 29.1858 13.8626 29.1827H13.0626C13.0626 29.3676 13.126 29.5528 13.2659 29.6927C13.4059 29.8325 13.5909 29.8958 13.7756 29.8958V29.0958ZM16.4984 29.0958H13.7756V29.8958H16.4984V29.0958ZM17.1001 28.9374C16.9255 29.0465 16.7211 29.0958 16.4984 29.0958V29.8958C16.8391 29.8958 17.1978 29.8197 17.5241 29.6158L17.1001 28.9374ZM20.2713 27.0847L17.1103 28.9312L17.5138 29.622L20.6748 27.7755L20.2713 27.0847ZM20.6531 26.5955C20.5861 26.8191 20.4601 26.9797 20.2787 27.0805L20.6674 27.7797C21.0492 27.5675 21.2987 27.2277 21.4194 26.8252L20.6531 26.5955ZM20.5616 25.9972C20.6646 26.1826 20.6912 26.3963 20.6441 26.6318L21.4285 26.7889C21.5066 26.3988 21.4708 25.9863 21.2608 25.6085L20.5616 25.9972ZM20.0765 25.6228C20.3002 25.6898 20.4607 25.8158 20.5616 25.9972L21.2608 25.6085C21.0485 25.2267 20.7087 24.9771 20.3063 24.8565L20.0765 25.6228ZM19.478 25.7146C19.6636 25.6114 19.8773 25.5847 20.1129 25.6318L20.2699 24.8474C19.8795 24.7692 19.467 24.8054 19.0893 25.0153L19.478 25.7146ZM16.4808 27.463L19.4852 25.7104L19.0821 25.0194L16.0777 26.772L16.4808 27.463ZM12.8053 27.5175H16.2793V26.7175H12.8053V27.5175Z" fill="#4D666F" mask="url(#path-5-outside-2_265_6282)"/>
<circle cx="12.8123" cy="23.9446" r="2.1004" fill="#D9E3E8"/>
<path d="M8.92444 22.8176V22.8176C8.60221 22.8176 8.41139 23.0891 8.41139 23.3616C8.41139 23.5011 8.45874 23.6328 8.55612 23.7301C8.65348 23.8274 8.78515 23.8747 8.92443 23.8747C8.92444 23.8747 8.92444 23.8747 8.92444 23.8747L12.6614 23.8749C12.7512 24.2336 13.0769 24.5008 13.4627 24.5008H14.4477C14.1521 25.3716 13.2141 25.859 12.3291 25.6111C11.7719 25.4435 11.3551 25.0286 11.1848 24.4729C11.1266 24.1738 10.825 24.0157 10.5609 24.1074C10.2619 24.1696 10.1066 24.4762 10.2059 24.741C10.4781 25.6497 11.1862 26.3206 12.0579 26.5888L12.0681 26.592L12.0682 26.5917C12.3318 26.6577 12.5672 26.6916 12.8365 26.6916C14.016 26.6916 15.131 25.9177 15.47 24.7313L15.47 24.7313C15.6731 24.0205 15.5704 23.2791 15.2355 22.6428L8.92444 22.8176ZM8.92444 22.8176H10.357C10.9076 21.6113 12.3067 20.9643 13.6093 21.3225L13.6094 21.3225L13.6112 21.3231C14.3216 21.526 14.8974 22.0002 15.2355 22.6428L8.92444 22.8176ZM14.0865 22.7862C13.8756 22.5697 13.6072 22.401 13.3095 22.301C12.652 22.1148 11.9974 22.3198 11.5715 22.7862H14.0865Z" fill="#4D666F" stroke="#4D666F" stroke-width="0.4"/>
</svg>
