<svg width="40" height="43" viewBox="0 0 40 43" fill="none" xmlns="http://www.w3.org/2000/svg">
<path d="M23.6744 32.2454C23.9332 30.2345 22.5668 28.3542 20.5658 27.9883L20.5629 27.9871L20.5384 27.9835C19.3107 27.7997 18.0469 28.2088 17.1772 29.1662C16.9253 29.4059 16.9317 29.8316 17.2346 30.0602C17.4775 30.3067 17.8996 30.2916 18.1239 29.9863C18.6902 29.3696 19.4888 29.0896 20.3129 29.2184C21.6272 29.4492 22.5418 30.6951 22.3443 32.0308L22.3419 32.0466L22.3421 32.0625C22.3422 32.0673 22.3418 32.0729 22.3408 32.0799L21.0113 31.4403C20.5425 31.2148 19.9873 31.3662 19.6885 31.7709L15.0041 29.5176C14.8457 29.4414 14.6738 29.425 14.5155 29.4808C14.3573 29.5366 14.2335 29.6572 14.1572 29.8158C14.081 29.9743 14.064 30.1461 14.119 30.3046C14.1742 30.4631 14.2942 30.5873 14.4528 30.6636L16.2889 31.5468C16.2705 32.3465 16.5061 33.168 16.962 33.8233C17.3213 34.357 17.8021 34.7406 18.376 35.0167C18.7059 35.1754 19.0143 35.2725 19.3782 35.3471L19.3782 35.3472L19.3848 35.3483C20.3737 35.517 21.3578 35.2732 22.1507 34.6829C22.9382 34.0969 23.5016 33.2459 23.6731 32.254L23.6733 32.254L23.6744 32.2454ZM19.5325 34.0753C18.8698 33.9791 18.3313 33.6318 17.966 33.1003C17.7821 32.8194 17.6524 32.5189 17.5708 32.2116L21.0193 33.8704C20.6385 34.0657 20.2298 34.1537 19.8016 34.1153L19.8021 34.1144L19.5325 34.0753Z" fill="#4D666F" stroke="#4D666F" stroke-width="0.4"/>
<path d="M23.4715 17.2576L23.4714 17.2575L23.5581 17.0773C23.7177 16.7455 23.9132 16.4239 24.1758 16.1314L22.281 10.6862L13.5998 13.7496L13.5332 13.561L13.5998 13.7496C13.1357 13.9134 12.6234 13.8529 12.1928 13.6458C11.7622 13.4387 11.3952 13.0761 11.2335 12.6114L9.81918 8.54677L10.0075 8.48126L9.81918 8.54677C9.67245 8.12506 9.78501 7.66181 10.054 7.33756L10.0608 7.32934L10.061 7.32954C10.5373 6.81398 11.2968 6.78071 11.8269 7.20596L11.833 7.21082L11.8329 7.21093L15.326 10.2432C15.4678 10.3534 15.5302 10.5183 15.539 10.6715C15.5478 10.8265 15.5039 10.9914 15.4065 11.1211C15.2966 11.2673 15.1298 11.3323 14.9743 11.3418C14.8194 11.3512 14.6545 11.3077 14.5249 11.21L14.5139 11.2017L14.5142 11.2013L11.0701 8.21162L12.4622 12.2124L12.4623 12.2125C12.5671 12.5143 12.9215 12.6848 13.2231 12.5784L22.4999 9.30485C22.4999 9.30485 22.4999 9.30485 22.4999 9.30485M23.4715 17.2576L23.1137 9.7567C23.0329 9.52461 22.7982 9.41168 22.5664 9.49345L22.4999 9.30485M23.4715 17.2576L21.8584 20.6109C21.7822 20.7694 21.7652 20.9412 21.8203 21.0997C21.8754 21.2582 21.9955 21.3824 22.1541 21.4587C22.3125 21.5349 22.4843 21.5513 22.6426 21.4955C22.8009 21.4397 22.9246 21.3191 23.0009 21.1605L24.7007 17.6269C24.8394 17.3384 25.0668 17.0519 25.3221 16.8751L25.3223 16.8753L25.3309 16.8687C25.5243 16.7186 25.6904 16.4304 25.5412 16.124M23.4715 17.2576L25.5412 16.124M22.4999 9.30485C22.8361 9.1862 23.1854 9.35424 23.3026 9.69097M22.4999 9.30485L23.3026 9.69097M25.5412 16.124L23.3026 9.69098C23.3026 9.69098 23.3026 9.69097 23.3026 9.69097M25.5412 16.124L23.3026 9.69097" fill="#4D666F" stroke="#4D666F" stroke-width="0.4"/>
<path d="M33.8305 20.2434L33.8411 20.2401L33.7735 20.0459C33.6118 19.5811 33.2448 19.2185 32.8142 19.0114C32.3836 18.8043 31.8713 18.7439 31.4072 18.9076L31.4735 19.0955L31.4072 18.9076L22.1305 22.1812C20.5193 22.7497 19.6714 24.5124 20.2327 26.1263L20.2328 26.1263C20.5123 26.9297 21.0804 27.5663 21.7946 27.9098C22.5089 28.2534 23.3609 28.2995 24.1628 28.0168L24.1628 28.0168C24.9046 27.7551 25.6003 27.1641 25.9459 26.4456L25.9838 26.367L26.0216 26.2884C26.0414 26.2472 26.0512 26.1991 26.0442 26.1487C26.0408 26.1235 26.0336 26.1013 26.0247 26.0821L26.0869 25.9528L25.9815 25.9021C25.9787 25.8944 25.9758 25.8864 25.9727 25.879C25.9666 25.864 25.9554 25.8388 25.9355 25.813C25.9206 25.7938 25.9035 25.7783 25.8874 25.7663C25.8562 25.7234 25.8191 25.694 25.794 25.6763C25.7533 25.6476 25.7114 25.6275 25.6919 25.6181L25.6897 25.6171L25.6115 25.5794L25.5332 25.5418C25.5129 25.5321 25.4909 25.5247 25.4674 25.5205C25.4438 25.5164 25.4217 25.516 25.4017 25.5179C25.3967 25.5184 25.3918 25.519 25.387 25.5197L25.3612 25.5073L25.2828 25.535L25.1672 25.5758L25.0893 25.6033L25.077 25.6289C25.0725 25.6314 25.068 25.6342 25.0636 25.6372C25.0469 25.6483 25.03 25.6624 25.0143 25.6803C24.9988 25.6981 24.9863 25.7175 24.9767 25.7375L24.9389 25.8161L24.9011 25.8947C24.6982 26.3165 24.3178 26.6582 23.8442 26.8253C22.9053 27.1566 21.847 26.6476 21.5195 25.707C21.1921 24.766 21.704 23.7017 22.6438 23.3699L31.9205 20.0964C32.2221 19.9899 32.5765 20.1605 32.6813 20.4623L32.6814 20.4624C32.7867 20.7651 32.6147 21.1224 32.3128 21.2288L32.3127 21.2288L23.6159 24.2977C23.2804 24.4161 23.1122 24.7656 23.2292 25.1017C23.3464 25.4384 23.6957 25.6065 24.0319 25.4878L32.7287 22.4189L32.7287 22.4191L32.7356 22.4163C33.5512 22.094 34.0416 21.1552 33.8305 20.2434Z" fill="#4D666F" stroke="#4D666F" stroke-width="0.4"/>
<path d="M29.2346 17.3851L29.2365 17.3926C29.3397 17.7837 29.4316 18.2399 29.3752 18.6881C29.348 19.0287 29.0352 19.2684 28.7197 19.2666C28.6041 19.292 28.5166 19.2497 28.4773 19.2306C28.4759 19.2299 28.4745 19.2293 28.4732 19.2287C28.2411 19.117 28.0956 18.8434 28.1413 18.5812C28.1541 18.2744 28.1316 18.0515 28.0426 17.7957L24.8097 8.50472C24.8097 8.50471 24.8097 8.5047 24.8097 8.50468C24.4822 7.56415 23.4239 7.05514 22.485 7.38645C22.485 7.38645 22.485 7.38645 22.485 7.38645L15.9656 9.68723L15.9655 9.68731L15.9334 9.6986C15.5971 9.81695 15.2481 9.64925 15.1309 9.31242L29.2346 17.3851ZM29.2346 17.3851L29.232 17.3779M29.2346 17.3851L29.232 17.3779M29.232 17.3779L25.9992 8.08684C25.4374 6.47253 23.6811 5.62772 22.069 6.19634L22.069 6.19635M29.232 17.3779L22.069 6.19635M22.069 6.19635L15.5176 8.50842L22.069 6.19635Z" fill="#4D666F" stroke="#4D666F" stroke-width="0.4"/>
</svg>
