<svg width="40" height="41" viewBox="0 0 40 41" fill="none" xmlns="http://www.w3.org/2000/svg">
<g clip-path="url(#clip0_265_6348)">
<path d="M34.3964 26.1105L34.3961 26.1112L34.3961 26.1112L34.3935 26.1183L34.3934 26.1182C34.2414 26.4931 33.9581 26.771 33.5818 26.9237L33.5066 26.7383M34.3964 26.1105L27.9174 22.2336C27.727 22.2131 27.5685 22.3408 27.548 22.5313L27.3492 22.5099L27.3492 22.5099L27.257 23.3675C27.1995 23.9022 27.3851 24.4297 27.6912 24.8095C27.9003 25.069 28.1727 25.2891 28.5154 25.4088L32.4433 26.9384C32.8194 27.0905 33.2118 27.0744 33.5821 26.9235L33.5066 26.7383M34.3964 26.1105C34.6696 25.3474 34.3296 24.4697 33.5416 24.1858L30.332 22.9416L30.4232 22.0932C30.4555 21.7929 30.2483 21.5358 29.9481 21.5035C29.6478 21.4713 29.3907 21.6784 29.3584 21.9787C29.3584 21.9787 29.3584 21.9787 29.3584 21.9787L29.2253 23.2176C29.2012 23.4416 29.3233 23.6792 29.5431 23.7799L29.543 23.7803L29.5549 23.7849L33.141 25.1578C33.362 25.2484 33.4633 25.4843 33.3775 25.7013C33.3301 25.8032 33.2487 25.8978 33.1419 25.9536L33.2345 26.1309L33.1419 25.9536C33.0435 26.005 32.9462 26.0066 32.8508 25.953L32.8385 25.9461L32.8254 25.941L28.8955 24.4107C28.5112 24.2477 28.2808 23.8638 28.3218 23.4819C28.3218 23.4819 28.3218 23.4819 28.3218 23.4819L28.414 22.6244C28.4463 22.3241 28.2391 22.067 27.9388 22.0347L34.3964 26.1105ZM33.5066 26.7383C33.8343 26.6054 34.077 26.3664 34.2081 26.0431L27.4559 23.3889C27.4046 23.8655 27.5705 24.3411 27.8469 24.684C28.0382 24.9215 28.2824 25.1163 28.5845 25.2211L32.5171 26.7525C32.8404 26.8836 33.1791 26.8717 33.5066 26.7383Z" fill="#4D666F" stroke="#4D666F" stroke-width="0.4"/>
<path d="M15.7995 28.4789L15.7995 28.4789L15.8007 28.4756C15.912 28.1729 15.7379 27.901 15.5187 27.7779L15.5048 27.77L15.4898 27.7645C15.187 27.6532 14.9151 27.8274 14.792 28.0465L14.785 28.0589L14.7799 28.0722L13.5486 31.2484L13.0682 28.1059L13.0686 28.1058L13.066 28.0936C13.0487 28.014 13.0663 27.9065 13.1349 27.7788C13.2291 27.6698 13.3092 27.6225 13.3883 27.6198L13.4005 27.6193L13.4125 27.6174L20.0563 26.5722L20.0563 26.5726L20.0677 26.5701C20.2652 26.5272 20.5014 26.3684 20.4994 26.0755L21.1639 19.8933C21.2178 19.3923 21.5652 18.9282 22.0324 18.7726C22.3242 18.6816 22.4595 18.3543 22.378 18.0888C22.288 17.7953 21.9597 17.659 21.6934 17.7407L21.6933 17.7403L21.6822 17.7445C20.8033 18.0719 20.2223 18.8758 20.1 19.773L20.0998 19.773L20.0992 19.7795L19.4958 25.6093L13.2765 26.587C12.4525 26.696 11.8973 27.4988 12.0332 28.2922L12.5424 31.6229L12.542 31.6229L12.5446 31.6351C12.5826 31.8101 12.6537 31.9662 12.7603 32.0985C12.7621 32.1007 12.7639 32.1029 12.7657 32.1052C12.8043 32.1533 12.8685 32.2333 12.9727 32.2853C13.1905 32.4215 13.4384 32.4729 13.6799 32.4719L13.6955 32.4718L13.7109 32.4694C14.0505 32.4147 14.373 32.1548 14.4986 31.8345L14.4989 31.8338L15.7995 28.4789Z" fill="#4D666F" stroke="#4D666F" stroke-width="0.4"/>
<path d="M25.3102 21.9051L25.3102 21.9051L25.6457 18.7799L27.6029 19.5264L27.6029 19.5264L27.6052 19.5273C27.908 19.6385 28.1799 19.4644 28.303 19.2452L28.3108 19.2313L28.3163 19.2163C28.4276 18.9135 28.2535 18.6416 28.0343 18.5185L28.0218 18.5115L28.0085 18.5063L25.4167 17.5047L25.4168 17.5043L25.4044 17.5004C25.2807 17.4616 25.0928 17.4196 24.9279 17.5525C24.8179 17.6411 24.7244 17.776 24.7072 17.9361L24.2975 21.7483C24.2884 21.8325 24.2298 21.9453 24.1341 22.0224C24.0384 22.0995 23.9157 22.1329 23.8315 22.1238L23.8315 22.1238C23.6076 22.0998 23.432 21.8817 23.4562 21.6581L23.4562 21.6581L23.9325 17.2266C23.9433 17.1264 23.9514 17.0776 23.9804 17.0323L23.9907 17.0162L23.9978 16.9986C24.189 16.5201 24.6824 16.3026 25.1541 16.491L25.1541 16.491L25.1565 16.4919L28.8123 17.8968C28.8124 17.8968 28.8126 17.8969 28.8128 17.897C29.253 18.0696 29.592 18.4851 29.688 18.9872C29.7539 19.3527 29.6713 19.7189 29.4541 20.006L29.4541 20.006C29.2252 20.3086 28.9092 20.5165 28.5702 20.5395L28.5617 20.5401L28.5533 20.5413L26.1531 20.9096C25.832 20.9551 25.66 21.2514 25.6997 21.5381L25.6997 21.5382C25.7444 21.8603 26.0412 22.0329 26.3284 21.9932L26.3284 21.9932L26.3313 21.9928L28.7314 21.6245C29.3771 21.5345 29.9375 21.1723 30.3533 20.6517C30.783 20.1137 30.9069 19.4394 30.7902 18.8238C30.6481 17.9459 30.0695 17.2287 29.2414 16.9043L29.2414 16.9043L29.2402 16.9039L25.5847 15.4991C24.5906 15.1007 23.4255 15.6017 23.0328 16.6119C22.9017 16.7732 22.8645 16.9355 22.8354 17.063C22.8303 17.0853 22.8254 17.1065 22.8203 17.1264L22.7976 17.2161L22.8073 17.2298L22.3391 21.5857C22.2973 21.9744 22.4215 22.3755 22.6661 22.679C22.9108 22.9826 23.2763 23.1892 23.6649 23.231L23.6863 23.0321L23.6649 23.231C24.0536 23.2727 24.4547 23.1485 24.7582 22.9039C25.0618 22.6593 25.2684 22.2937 25.3102 21.9051Z" fill="#4D666F" stroke="#4D666F" stroke-width="0.4"/>
<path d="M36.1305 18.8944L36.1308 19.0344C36.1316 19.5457 35.9299 19.9907 35.5699 20.3263C35.2031 20.6683 34.722 20.8681 34.2578 20.8492L34.2458 20.8487L34.2338 20.8496C33.9682 20.8708 33.7327 21.0666 33.7035 21.3461L33.7015 21.3644L33.703 21.3828C33.7242 21.6483 33.92 21.8839 34.1994 21.9131L34.2075 21.9139L34.2156 21.9141C35.0093 21.9324 35.7515 21.6299 36.3041 21.0792C36.6794 20.7345 36.9234 20.3127 37.0726 19.8324C37.1587 19.5554 37.1991 19.3025 37.2155 19.0098L37.2156 19.0098L37.2158 19.0032C37.2341 18.2082 36.9306 17.4649 36.3782 16.9121C35.996 16.5256 35.5192 16.2574 34.9963 16.1213L35.3945 14.8397C35.4382 14.6992 35.4315 14.5525 35.3645 14.425C35.2975 14.2974 35.1803 14.2087 35.0397 14.165C34.8993 14.1214 34.7526 14.128 34.625 14.1951C34.4975 14.2621 34.4088 14.3792 34.3651 14.5198L33.891 16.0456C33.2735 16.1297 32.6701 16.4087 32.2169 16.8371L32.2169 16.837L32.213 16.8409C31.6649 17.3885 31.3226 18.1182 31.3043 18.9138L31.3043 18.9138L31.3043 18.9179C31.3016 19.9021 31.7672 20.8463 32.6176 21.4162C32.7778 21.5292 32.9589 21.5105 33.0992 21.469C33.2982 21.4102 33.3996 21.2588 33.4434 21.1178L34.0678 19.1082L34.524 19.25L34.715 19.3093L34.7743 19.1183L35.3045 17.412C35.406 17.48 35.4941 17.5599 35.5758 17.6607L35.5756 17.6609L35.5822 17.6682C35.9167 18.042 36.1108 18.473 36.1305 18.8944ZM33.5213 17.3509L32.6966 20.0053C32.532 19.7563 32.4389 19.4626 32.4249 19.1596L32.4246 19.0001C32.4237 18.4895 32.6249 18.0451 32.9839 17.7096C33.1497 17.5617 33.331 17.4429 33.5213 17.3509Z" fill="#4D666F" stroke="#4D666F" stroke-width="0.4"/>
<path d="M19.5307 22.5514L19.5315 22.5477L19.5266 22.5121C19.4818 22.19 19.1851 22.0174 18.8979 22.0571L18.8979 22.0571L18.8945 22.0576L14.8744 22.6858L14.8735 22.6859C14.4069 22.7608 13.9 22.5594 13.6036 22.1916L13.6036 22.1916L10.924 18.8669C10.9239 18.8669 10.9239 18.8669 10.9239 18.8669C10.8317 18.7524 10.7062 18.6761 10.5629 18.6607C10.4196 18.6453 10.2807 18.6931 10.1661 18.7855C10.0516 18.8777 9.97529 19.0033 9.95986 19.1465C9.94442 19.2898 9.99223 19.4287 10.0846 19.5433L12.7427 22.8417C13.2985 23.5313 14.1797 23.8611 15.0301 23.743L15.0301 23.743L15.0335 23.7425L19.0402 23.1164C19.2016 23.111 19.3381 23.039 19.4267 22.9218C19.5074 22.8151 19.5403 22.6822 19.5307 22.5514Z" fill="#4D666F" stroke="#4D666F" stroke-width="0.4"/>
<path d="M20.6352 27.8833L20.6352 27.8834C21.2498 27.8031 21.7238 27.3101 21.791 26.6847L22.1137 23.6826C22.1137 23.6826 22.1137 23.6826 22.1137 23.6826C22.1459 23.3823 22.403 23.1751 22.7033 23.2074L20.6352 27.8833ZM20.6352 27.8833L20.6302 27.8841L16.3418 28.5555C16.021 28.6012 15.8491 28.8973 15.8887 29.1839L15.8898 29.1917L15.8915 29.1994C15.9027 29.2505 15.918 29.2954 15.9428 29.3393C15.9638 29.3765 15.9891 29.4079 16.0077 29.431C16.0089 29.4324 16.01 29.4338 16.0111 29.4352C16.0685 29.5064 16.1488 29.5596 16.2293 29.5934C16.3107 29.6277 16.4086 29.6491 16.5084 29.64L16.5085 29.6404L16.5211 29.6384L20.811 28.9667C20.811 28.9667 20.811 28.9667 20.811 28.9667C21.9027 28.796 22.7608 27.9183 22.8562 26.7968M20.6352 27.8833L22.8562 26.7968M22.8562 26.7968L23.1785 23.7971C23.1785 23.797 23.1785 23.797 23.1785 23.797C23.2107 23.4968 23.0036 23.2397 22.7033 23.2074L22.8562 26.7968Z" fill="#4D666F" stroke="#4D666F" stroke-width="0.4"/>
<path d="M10.5398 17.3026L10.5398 17.3026L10.5362 17.3031L7.18378 17.8293L9.63313 15.8554C9.81102 15.712 10.0662 15.7395 10.2095 15.9173L14.4199 21.1419C14.5536 21.3077 14.7402 21.3629 14.9172 21.3466L14.9172 21.347L14.9295 21.3451L19.3398 20.6627C19.6608 20.6172 19.8328 20.3209 19.7931 20.0343L19.7931 20.0341C19.7483 19.7121 19.4516 19.5394 19.1644 19.5792L19.1644 19.5791L19.1611 19.5796L15.0593 20.2173L11.0485 15.2412C11.0485 15.2412 11.0485 15.2412 11.0485 15.2412C10.5325 14.601 9.59659 14.5005 8.9564 15.0164L6.34407 17.1216C5.91498 17.4674 5.84512 18.1175 6.19091 18.5466C6.42808 18.8409 6.80201 18.9718 7.14109 18.9177C7.1412 18.9177 7.14131 18.9177 7.14142 18.9177L10.694 18.3601C11.008 18.3151 11.1791 18.0306 11.1704 17.7782L11.165 17.6234L11.129 17.6154C11.0295 17.3859 10.7812 17.2692 10.5398 17.3026Z" fill="#4D666F" stroke="#4D666F" stroke-width="0.4"/>
<mask id="path-8-outside-1_265_6348" maskUnits="userSpaceOnUse" x="1.86304" y="22.7258" width="11" height="3" fill="black">
<rect fill="white" x="1.86304" y="22.7258" width="11" height="3"/>
<path fill-rule="evenodd" clip-rule="evenodd" d="M7.55266 25.0595C7.90168 24.9942 8.22299 24.8255 8.47864 24.5911C8.9492 24.1481 9.72457 24.1481 10.2228 24.5911C10.6143 24.9513 11.1387 25.1077 11.6457 25.0603V24.5268C11.2831 24.5686 10.8999 24.4608 10.6104 24.2033C9.91829 23.5667 8.81108 23.5667 8.119 24.2033C7.89094 24.406 7.61658 24.5158 7.3172 24.533C7.02974 24.5154 6.74469 24.4055 6.51735 24.2033C5.82527 23.5667 4.71807 23.5667 4.02598 24.2033C3.77669 24.4248 3.47208 24.5354 3.13994 24.5354C2.97367 24.5354 2.86304 24.6463 2.86304 24.8124C2.86304 24.9787 2.97387 25.0893 3.13994 25.0893C3.6105 25.0893 4.05348 24.8956 4.38562 24.5911C4.85619 24.1481 5.63155 24.1481 6.12975 24.5911C6.39712 24.837 6.72644 24.988 7.06985 25.0439C7.11408 25.0731 7.16948 25.0893 7.23295 25.0893C7.33829 25.0893 7.44224 25.0796 7.54387 25.0611C7.5468 25.0609 7.54973 25.0606 7.55266 25.0603V25.0595Z"/>
</mask>
<path fill-rule="evenodd" clip-rule="evenodd" d="M7.55266 25.0595C7.90168 24.9942 8.22299 24.8255 8.47864 24.5911C8.9492 24.1481 9.72457 24.1481 10.2228 24.5911C10.6143 24.9513 11.1387 25.1077 11.6457 25.0603V24.5268C11.2831 24.5686 10.8999 24.4608 10.6104 24.2033C9.91829 23.5667 8.81108 23.5667 8.119 24.2033C7.89094 24.406 7.61658 24.5158 7.3172 24.533C7.02974 24.5154 6.74469 24.4055 6.51735 24.2033C5.82527 23.5667 4.71807 23.5667 4.02598 24.2033C3.77669 24.4248 3.47208 24.5354 3.13994 24.5354C2.97367 24.5354 2.86304 24.6463 2.86304 24.8124C2.86304 24.9787 2.97387 25.0893 3.13994 25.0893C3.6105 25.0893 4.05348 24.8956 4.38562 24.5911C4.85619 24.1481 5.63155 24.1481 6.12975 24.5911C6.39712 24.837 6.72644 24.988 7.06985 25.0439C7.11408 25.0731 7.16948 25.0893 7.23295 25.0893C7.33829 25.0893 7.44224 25.0796 7.54387 25.0611C7.5468 25.0609 7.54973 25.0606 7.55266 25.0603V25.0595Z" fill="#4D666F"/>
<path d="M7.55266 25.0595L7.47911 24.6663L7.15266 24.7274V25.0595H7.55266ZM8.47864 24.5911L8.74898 24.8859L8.75281 24.8823L8.47864 24.5911ZM10.2228 24.5911L10.4936 24.2967L10.4886 24.2922L10.2228 24.5911ZM11.6457 25.0603L11.6829 25.4586L12.0457 25.4247V25.0603H11.6457ZM11.6457 24.5268H12.0457V24.078L11.5998 24.1294L11.6457 24.5268ZM10.6104 24.2033L10.3395 24.4978L10.3446 24.5023L10.6104 24.2033ZM8.119 24.2033L8.38472 24.5024L8.38981 24.4977L8.119 24.2033ZM7.3172 24.533L7.29268 24.9323L7.31644 24.9337L7.3402 24.9324L7.3172 24.533ZM6.51735 24.2033L6.2465 24.4978L6.25156 24.5023L6.51735 24.2033ZM4.02598 24.2033L4.2917 24.5024L4.2968 24.4977L4.02598 24.2033ZM4.38562 24.5911L4.65596 24.8859L4.65979 24.8823L4.38562 24.5911ZM6.12975 24.5911L6.4006 24.2967L6.39554 24.2922L6.12975 24.5911ZM7.06985 25.0439L7.2905 24.7103L7.21888 24.6629L7.13414 24.6491L7.06985 25.0439ZM7.54387 25.0611L7.5085 24.6627L7.49029 24.6643L7.47231 24.6676L7.54387 25.0611ZM7.55266 25.0603L7.58988 25.4586L7.95266 25.4247V25.0603H7.55266ZM7.62621 25.4527C8.05344 25.3728 8.44185 25.1675 8.74896 24.8859L8.20832 24.2962C8.00413 24.4835 7.74992 24.6157 7.47911 24.6663L7.62621 25.4527ZM8.75281 24.8823C9.06511 24.5883 9.60586 24.5778 9.95698 24.89L10.4886 24.2922C9.84327 23.7184 8.83329 23.7079 8.20446 24.2998L8.75281 24.8823ZM9.95196 24.8855C10.4329 25.3279 11.0717 25.5157 11.6829 25.4586L11.6085 24.6621C11.2058 24.6997 10.7957 24.5746 10.4936 24.2967L9.95196 24.8855ZM12.0457 25.0603V24.5268H11.2457V25.0603H12.0457ZM11.5998 24.1294C11.3441 24.1589 11.0759 24.082 10.8762 23.9044L10.3446 24.5023C10.7239 24.8396 11.2222 24.9783 11.6915 24.9242L11.5998 24.1294ZM10.8812 23.9089C10.036 23.1315 8.69335 23.1315 7.84819 23.9089L8.38981 24.4977C8.92882 24.0019 9.80055 24.0019 10.3396 24.4977L10.8812 23.9089ZM7.85333 23.9043C7.69433 24.0456 7.5061 24.1215 7.29421 24.1337L7.3402 24.9324C7.72706 24.9101 8.08754 24.7663 8.38468 24.5024L7.85333 23.9043ZM7.34173 24.1338C7.13846 24.1213 6.93977 24.0437 6.78314 23.9044L6.25156 24.5023C6.54961 24.7673 6.92102 24.9094 7.29268 24.9323L7.34173 24.1338ZM6.78816 23.9089C5.943 23.1315 4.60034 23.1315 3.75517 23.9089L4.2968 24.4977C4.8358 24.0019 5.70754 24.0019 6.24654 24.4977L6.78816 23.9089ZM3.76031 23.9043C3.58727 24.058 3.3783 24.1354 3.13994 24.1354V24.9354C3.56585 24.9354 3.9661 24.7916 4.29166 24.5024L3.76031 23.9043ZM3.13994 24.1354C2.96582 24.1354 2.78972 24.1953 2.65617 24.3289C2.52267 24.4625 2.46304 24.6386 2.46304 24.8124H3.26304C3.26304 24.8202 3.25872 24.8577 3.2221 24.8944C3.18544 24.9311 3.14779 24.9354 3.13994 24.9354V24.1354ZM2.46304 24.8124C2.46304 24.9864 2.5228 25.1625 2.65644 25.2961C2.79005 25.4297 2.96609 25.4893 3.13994 25.4893V24.6893C3.14771 24.6893 3.18531 24.6936 3.22198 24.7303C3.25869 24.767 3.26304 24.8046 3.26304 24.8124H2.46304ZM3.13994 25.4893C3.72058 25.4893 4.25773 25.251 4.65594 24.8859L4.1153 24.2962C3.84923 24.5402 3.50043 24.6893 3.13994 24.6893V25.4893ZM4.65979 24.8823C4.9721 24.5883 5.51284 24.5778 5.86396 24.89L6.39554 24.2922C5.75026 23.7184 4.74027 23.7079 4.11144 24.2998L4.65979 24.8823ZM5.85894 24.8855C6.18733 25.1876 6.58978 25.371 7.00557 25.4387L7.13414 24.6491C6.8631 24.605 6.6069 24.4865 6.40056 24.2967L5.85894 24.8855ZM6.84921 25.3775C6.96677 25.4553 7.10104 25.4893 7.23295 25.4893V24.6893C7.23793 24.6893 7.26139 24.691 7.2905 24.7103L6.84921 25.3775ZM7.23295 25.4893C7.3629 25.4893 7.49079 25.4773 7.61543 25.4547L7.47231 24.6676C7.39368 24.6819 7.31368 24.6893 7.23295 24.6893V25.4893ZM7.57924 25.4596C7.58278 25.4592 7.58633 25.4589 7.58988 25.4586L7.51545 24.6621C7.51314 24.6623 7.51082 24.6625 7.5085 24.6627L7.57924 25.4596ZM7.95266 25.0603V25.0595H7.15266V25.0603H7.95266Z" fill="#4D666F" mask="url(#path-8-outside-1_265_6348)"/>
<mask id="path-10-outside-2_265_6348" maskUnits="userSpaceOnUse" x="15.7085" y="10.2185" width="19" height="3" fill="black">
<rect fill="white" x="15.7085" y="10.2185" width="19" height="3"/>
<path fill-rule="evenodd" clip-rule="evenodd" d="M21.3981 12.5522C21.7471 12.4869 22.0684 12.3181 22.3241 12.0838C22.7947 11.6408 23.57 11.6408 24.0682 12.0838C24.4176 12.4051 24.8727 12.5643 25.3268 12.5612C25.3611 12.5748 25.4 12.582 25.4424 12.582C25.913 12.582 26.356 12.3883 26.6881 12.0838C27.1587 11.6408 27.934 11.6408 28.4322 12.0838C28.6996 12.3297 29.0289 12.4807 29.3723 12.5366C29.4166 12.5658 29.472 12.582 29.5354 12.582C29.6408 12.582 29.7447 12.5723 29.8464 12.5538C29.8493 12.5535 29.8522 12.5533 29.8552 12.553V12.5522C30.2042 12.4869 30.5255 12.3181 30.7811 12.0838C31.2517 11.6408 32.0271 11.6408 32.5253 12.0838C32.9168 12.4439 33.4412 12.6004 33.9482 12.553V12.0195C33.5856 12.0613 33.2024 11.9535 32.9129 11.696C32.2208 11.0593 31.1136 11.0593 30.4215 11.696C30.1934 11.8986 29.9191 12.0085 29.6197 12.0257C29.3322 12.008 29.0472 11.8981 28.8198 11.696C28.1278 11.0593 27.0206 11.0593 26.3285 11.696C26.0914 11.9066 25.8043 12.017 25.4911 12.0273V12.0195C25.1286 12.0613 24.7454 11.9535 24.4558 11.696C23.7637 11.0593 22.6565 11.0593 21.9645 11.696C21.7364 11.8986 21.462 12.0085 21.1627 12.0257C20.8752 12.008 20.5901 11.8981 20.3628 11.696C19.6707 11.0593 18.5635 11.0593 17.8714 11.696C17.6221 11.9175 17.3175 12.0281 16.9854 12.0281C16.8191 12.0281 16.7085 12.139 16.7085 12.3051C16.7085 12.4713 16.8193 12.582 16.9854 12.582C17.456 12.582 17.8989 12.3883 18.2311 12.0838C18.7016 11.6408 19.477 11.6408 19.9752 12.0838C20.2426 12.3297 20.5719 12.4807 20.9153 12.5366C20.9595 12.5658 21.0149 12.582 21.0784 12.582C21.1837 12.582 21.2877 12.5723 21.3893 12.5538L21.3981 12.553V12.5522Z"/>
</mask>
<path fill-rule="evenodd" clip-rule="evenodd" d="M21.3981 12.5522C21.7471 12.4869 22.0684 12.3181 22.3241 12.0838C22.7947 11.6408 23.57 11.6408 24.0682 12.0838C24.4176 12.4051 24.8727 12.5643 25.3268 12.5612C25.3611 12.5748 25.4 12.582 25.4424 12.582C25.913 12.582 26.356 12.3883 26.6881 12.0838C27.1587 11.6408 27.934 11.6408 28.4322 12.0838C28.6996 12.3297 29.0289 12.4807 29.3723 12.5366C29.4166 12.5658 29.472 12.582 29.5354 12.582C29.6408 12.582 29.7447 12.5723 29.8464 12.5538C29.8493 12.5535 29.8522 12.5533 29.8552 12.553V12.5522C30.2042 12.4869 30.5255 12.3181 30.7811 12.0838C31.2517 11.6408 32.0271 11.6408 32.5253 12.0838C32.9168 12.4439 33.4412 12.6004 33.9482 12.553V12.0195C33.5856 12.0613 33.2024 11.9535 32.9129 11.696C32.2208 11.0593 31.1136 11.0593 30.4215 11.696C30.1934 11.8986 29.9191 12.0085 29.6197 12.0257C29.3322 12.008 29.0472 11.8981 28.8198 11.696C28.1278 11.0593 27.0206 11.0593 26.3285 11.696C26.0914 11.9066 25.8043 12.017 25.4911 12.0273V12.0195C25.1286 12.0613 24.7454 11.9535 24.4558 11.696C23.7637 11.0593 22.6565 11.0593 21.9645 11.696C21.7364 11.8986 21.462 12.0085 21.1627 12.0257C20.8752 12.008 20.5901 11.8981 20.3628 11.696C19.6707 11.0593 18.5635 11.0593 17.8714 11.696C17.6221 11.9175 17.3175 12.0281 16.9854 12.0281C16.8191 12.0281 16.7085 12.139 16.7085 12.3051C16.7085 12.4713 16.8193 12.582 16.9854 12.582C17.456 12.582 17.8989 12.3883 18.2311 12.0838C18.7016 11.6408 19.477 11.6408 19.9752 12.0838C20.2426 12.3297 20.5719 12.4807 20.9153 12.5366C20.9595 12.5658 21.0149 12.582 21.0784 12.582C21.1837 12.582 21.2877 12.5723 21.3893 12.5538L21.3981 12.553V12.5522Z" fill="#4D666F"/>
<path d="M22.3241 12.0838L22.5944 12.3786L22.5983 12.375L22.3241 12.0838ZM21.3981 12.5522L21.3246 12.159L20.9981 12.2201V12.5522H21.3981ZM24.0682 12.0838L24.3391 11.7893L24.334 11.7848L24.0682 12.0838ZM25.3268 12.5612L25.4737 12.1891L25.4016 12.1607L25.3241 12.1612L25.3268 12.5612ZM26.6881 12.0838L26.9585 12.3786L26.9623 12.375L26.6881 12.0838ZM28.4322 12.0838L28.7031 11.7893L28.698 11.7848L28.4322 12.0838ZM29.3723 12.5366L29.593 12.2029L29.5214 12.1556L29.4366 12.1418L29.3723 12.5366ZM29.8464 12.5538L29.811 12.1554L29.7928 12.157L29.7748 12.1602L29.8464 12.5538ZM29.8552 12.553L29.8924 12.9513L30.2552 12.9174V12.553H29.8552ZM29.8552 12.5522L29.7816 12.159L29.4552 12.2201V12.5522H29.8552ZM30.7811 12.0838L31.0515 12.3786L31.0553 12.375L30.7811 12.0838ZM32.5253 12.0838L32.7961 11.7893L32.791 11.7848L32.5253 12.0838ZM33.9482 12.553L33.9854 12.9513L34.3482 12.9174V12.553H33.9482ZM33.9482 12.0195H34.3482V11.5707L33.9023 11.6221L33.9482 12.0195ZM32.9129 11.696L32.642 11.9904L32.6471 11.9949L32.9129 11.696ZM30.4215 11.696L30.6872 11.9951L30.6923 11.9904L30.4215 11.696ZM29.6197 12.0257L29.5952 12.4249L29.6189 12.4264L29.6427 12.425L29.6197 12.0257ZM28.8198 11.696L28.549 11.9904L28.5541 11.9949L28.8198 11.696ZM26.3285 11.696L26.5942 11.9951L26.5993 11.9904L26.3285 11.696ZM25.4911 12.0273H25.0911V12.4407L25.5043 12.4271L25.4911 12.0273ZM25.4911 12.0195H25.8911V11.5707L25.4453 11.6221L25.4911 12.0195ZM24.4558 11.696L24.185 11.9904L24.19 11.9949L24.4558 11.696ZM21.9645 11.696L22.2302 11.9951L22.2353 11.9904L21.9645 11.696ZM21.1627 12.0257L21.1381 12.4249L21.1619 12.4264L21.1857 12.425L21.1627 12.0257ZM20.3628 11.696L20.092 11.9904L20.097 11.9949L20.3628 11.696ZM17.8714 11.696L18.1372 11.9951L18.1423 11.9904L17.8714 11.696ZM18.2311 12.0838L18.5014 12.3786L18.5053 12.375L18.2311 12.0838ZM19.9752 12.0838L20.2461 11.7893L20.241 11.7848L19.9752 12.0838ZM20.9153 12.5366L21.136 12.2029L21.0643 12.1556L20.9796 12.1418L20.9153 12.5366ZM21.3893 12.5538L21.353 12.1554L21.3353 12.1571L21.3178 12.1602L21.3893 12.5538ZM21.3981 12.553L21.4344 12.9513L21.7981 12.9182V12.553H21.3981ZM22.0538 11.7889C21.8496 11.9761 21.5954 12.1083 21.3246 12.159L21.4717 12.9454C21.8989 12.8654 22.2873 12.6602 22.5944 12.3786L22.0538 11.7889ZM24.334 11.7848C23.6887 11.2111 22.6788 11.2005 22.0499 11.7925L22.5983 12.375C22.9106 12.081 23.4513 12.0705 23.8024 12.3827L24.334 11.7848ZM25.3241 12.1612C24.9638 12.1637 24.6086 12.0373 24.339 11.7894L23.7974 12.3781C24.2266 12.773 24.7816 12.9649 25.3295 12.9612L25.3241 12.1612ZM25.4424 12.182C25.4455 12.182 25.457 12.1825 25.4737 12.1891L25.1799 12.9333C25.2653 12.967 25.3545 12.982 25.4424 12.982V12.182ZM26.4178 11.7889C26.1517 12.0329 25.8029 12.182 25.4424 12.182V12.982C26.0231 12.982 26.5602 12.7437 26.9584 12.3786L26.4178 11.7889ZM28.698 11.7848C28.0527 11.2111 27.0428 11.2005 26.4139 11.7925L26.9623 12.375C27.2746 12.081 27.8153 12.0705 28.1664 12.3827L28.698 11.7848ZM29.4366 12.1418C29.1656 12.0976 28.9094 11.9792 28.7031 11.7894L28.1614 12.3781C28.4898 12.6802 28.8923 12.8637 29.3081 12.9314L29.4366 12.1418ZM29.1517 12.8702C29.2693 12.948 29.4035 12.982 29.5354 12.982V12.182C29.5404 12.182 29.5639 12.1837 29.593 12.2029L29.1517 12.8702ZM29.5354 12.982C29.6654 12.982 29.7933 12.97 29.9179 12.9473L29.7748 12.1602C29.6962 12.1745 29.6162 12.182 29.5354 12.182V12.982ZM29.8179 12.1547C29.8156 12.1549 29.8133 12.1552 29.811 12.1554L29.8817 12.9522C29.8853 12.9519 29.8888 12.9516 29.8924 12.9513L29.8179 12.1547ZM29.4552 12.5522V12.553H30.2552V12.5522H29.4552ZM29.9287 12.9454C30.3559 12.8654 30.7443 12.6602 31.0514 12.3786L30.5108 11.7889C30.3066 11.9761 30.0524 12.1083 29.7816 12.159L29.9287 12.9454ZM31.0553 12.375C31.3676 12.081 31.9083 12.0705 32.2595 12.3827L32.791 11.7848C32.1458 11.2111 31.1358 11.2005 30.507 11.7925L31.0553 12.375ZM32.2544 12.3781C32.7354 12.8206 33.3742 13.0084 33.9854 12.9513L33.911 12.1547C33.5083 12.1924 33.0982 12.0673 32.7961 11.7894L32.2544 12.3781ZM34.3482 12.553V12.0195H33.5482V12.553H34.3482ZM33.9023 11.6221C33.6466 11.6516 33.3784 11.5747 33.1786 11.3971L32.6471 11.9949C33.0264 12.3322 33.5246 12.471 33.994 12.4168L33.9023 11.6221ZM33.1837 11.4016C32.3385 10.6241 30.9958 10.6241 30.1507 11.4016L30.6923 11.9904C31.2313 11.4945 32.103 11.4945 32.642 11.9904L33.1837 11.4016ZM30.1558 11.397C29.9968 11.5382 29.8086 11.6142 29.5967 11.6264L29.6427 12.425C30.0296 12.4028 30.39 12.259 30.6872 11.995L30.1558 11.397ZM28.5541 11.9949C28.8521 12.2599 29.2235 12.4021 29.5952 12.4249L29.6442 11.6265C29.4409 11.614 29.2423 11.5363 29.0856 11.3971L28.5541 11.9949ZM26.5993 11.9904C27.1383 11.4945 28.01 11.4945 28.549 11.9904L29.0907 11.4016C28.2455 10.6241 26.9028 10.6241 26.0577 11.4016L26.5993 11.9904ZM25.5043 12.4271C25.9078 12.4138 26.285 12.2697 26.5941 11.995L26.0628 11.397C25.8978 11.5435 25.7009 11.6202 25.478 11.6275L25.5043 12.4271ZM25.0911 12.0195V12.0273H25.8911V12.0195H25.0911ZM24.19 11.9949C24.5694 12.3322 25.0676 12.471 25.537 12.4168L25.4453 11.6221C25.1895 11.6516 24.9214 11.5747 24.7216 11.3971L24.19 11.9949ZM22.2353 11.9904C22.7743 11.4945 23.646 11.4945 24.185 11.9904L24.7266 11.4016C23.8815 10.6241 22.5388 10.6241 21.6937 11.4016L22.2353 11.9904ZM21.1857 12.425C21.5725 12.4028 21.933 12.259 22.2301 11.995L21.6988 11.397C21.5398 11.5382 21.3516 11.6142 21.1397 11.6264L21.1857 12.425ZM20.097 11.9949C20.3951 12.2599 20.7665 12.4021 21.1381 12.4249L21.1872 11.6265C20.9839 11.614 20.7852 11.5363 20.6286 11.3971L20.097 11.9949ZM18.1423 11.9904C18.6813 11.4945 19.553 11.4945 20.092 11.9904L20.6336 11.4016C19.7885 10.6241 18.4458 10.6241 17.6006 11.4016L18.1423 11.9904ZM16.9854 12.4281C17.4113 12.4281 17.8116 12.2843 18.1371 11.995L17.6058 11.397C17.4327 11.5507 17.2238 11.6281 16.9854 11.6281V12.4281ZM17.1085 12.3051C17.1085 12.3128 17.1042 12.3504 17.0676 12.387C17.0309 12.4237 16.9932 12.4281 16.9854 12.4281V11.6281C16.8113 11.6281 16.6352 11.6879 16.5016 11.8216C16.3681 11.9552 16.3085 12.1312 16.3085 12.3051H17.1085ZM16.9854 12.182C16.9932 12.182 17.0308 12.1863 17.0674 12.223C17.1041 12.2597 17.1085 12.2973 17.1085 12.3051H16.3085C16.3085 12.4791 16.3683 12.6552 16.5019 12.7888C16.6355 12.9223 16.8116 12.982 16.9854 12.982V12.182ZM17.9608 11.7889C17.6947 12.0329 17.3459 12.182 16.9854 12.182V12.982C17.566 12.982 18.1032 12.7437 18.5014 12.3786L17.9608 11.7889ZM20.241 11.7848C19.5957 11.2111 18.5857 11.2005 17.9569 11.7925L18.5053 12.375C18.8176 12.081 19.3583 12.0705 19.7094 12.3827L20.241 11.7848ZM20.9796 12.1418C20.7086 12.0976 20.4524 11.9792 20.246 11.7894L19.7044 12.3781C20.0328 12.6802 20.4352 12.8637 20.851 12.9314L20.9796 12.1418ZM21.0784 12.182C21.0834 12.182 21.1069 12.1837 21.136 12.2029L20.6947 12.8702C20.8122 12.948 20.9465 12.982 21.0784 12.982V12.182ZM21.3178 12.1602C21.2391 12.1745 21.1591 12.182 21.0784 12.182V12.982C21.2084 12.982 21.3363 12.97 21.4609 12.9473L21.3178 12.1602ZM21.3618 12.1546L21.353 12.1554L21.4256 12.9521L21.4344 12.9513L21.3618 12.1546ZM20.9981 12.5522V12.553H21.7981V12.5522H20.9981Z" fill="#4D666F" mask="url(#path-10-outside-2_265_6348)"/>
<mask id="path-12-outside-3_265_6348" maskUnits="userSpaceOnUse" x="22.7085" y="28.9797" width="19" height="3" fill="black">
<rect fill="white" x="22.7085" y="28.9797" width="19" height="3"/>
<path fill-rule="evenodd" clip-rule="evenodd" d="M28.3981 31.3134C28.7471 31.2481 29.0684 31.0794 29.3241 30.845C29.7947 30.402 30.57 30.402 31.0682 30.845C31.4176 31.1664 31.8727 31.3255 32.3268 31.3224C32.3611 31.336 32.4 31.3432 32.4424 31.3432C32.913 31.3432 33.356 31.1495 33.6881 30.845C34.1587 30.402 34.934 30.402 35.4322 30.845C35.6996 31.0909 36.0289 31.2419 36.3723 31.2978C36.4166 31.3271 36.472 31.3432 36.5354 31.3432C36.6408 31.3432 36.7447 31.3335 36.8464 31.315C36.8493 31.3148 36.8522 31.3145 36.8552 31.3142V31.3134C37.2042 31.2481 37.5255 31.0794 37.7811 30.845C38.2517 30.402 39.0271 30.402 39.5253 30.845C39.9168 31.2052 40.4412 31.3616 40.9482 31.3142V30.7807C40.5856 30.8225 40.2024 30.7147 39.9129 30.4572C39.2208 29.8206 38.1136 29.8206 37.4215 30.4572C37.1934 30.6599 36.9191 30.7697 36.6197 30.7869C36.3322 30.7693 36.0472 30.6594 35.8198 30.4572C35.1278 29.8206 34.0206 29.8206 33.3285 30.4572C33.0914 30.6679 32.8043 30.7782 32.4911 30.7885V30.7807C32.1286 30.8225 31.7454 30.7147 31.4558 30.4572C30.7637 29.8206 29.6565 29.8206 28.9645 30.4572C28.7364 30.6599 28.462 30.7697 28.1627 30.7869C27.8752 30.7693 27.5901 30.6594 27.3628 30.4572C26.6707 29.8206 25.5635 29.8206 24.8714 30.4572C24.6221 30.6787 24.3175 30.7893 23.9854 30.7893C23.8191 30.7893 23.7085 30.9002 23.7085 31.0663C23.7085 31.2326 23.8193 31.3432 23.9854 31.3432C24.456 31.3432 24.8989 31.1495 25.2311 30.845C25.7016 30.402 26.477 30.402 26.9752 30.845C27.2426 31.0909 27.5719 31.2419 27.9153 31.2978C27.9595 31.3271 28.0149 31.3432 28.0784 31.3432C28.1837 31.3432 28.2877 31.3335 28.3893 31.315L28.3981 31.3142V31.3134Z"/>
</mask>
<path fill-rule="evenodd" clip-rule="evenodd" d="M28.3981 31.3134C28.7471 31.2481 29.0684 31.0794 29.3241 30.845C29.7947 30.402 30.57 30.402 31.0682 30.845C31.4176 31.1664 31.8727 31.3255 32.3268 31.3224C32.3611 31.336 32.4 31.3432 32.4424 31.3432C32.913 31.3432 33.356 31.1495 33.6881 30.845C34.1587 30.402 34.934 30.402 35.4322 30.845C35.6996 31.0909 36.0289 31.2419 36.3723 31.2978C36.4166 31.3271 36.472 31.3432 36.5354 31.3432C36.6408 31.3432 36.7447 31.3335 36.8464 31.315C36.8493 31.3148 36.8522 31.3145 36.8552 31.3142V31.3134C37.2042 31.2481 37.5255 31.0794 37.7811 30.845C38.2517 30.402 39.0271 30.402 39.5253 30.845C39.9168 31.2052 40.4412 31.3616 40.9482 31.3142V30.7807C40.5856 30.8225 40.2024 30.7147 39.9129 30.4572C39.2208 29.8206 38.1136 29.8206 37.4215 30.4572C37.1934 30.6599 36.9191 30.7697 36.6197 30.7869C36.3322 30.7693 36.0472 30.6594 35.8198 30.4572C35.1278 29.8206 34.0206 29.8206 33.3285 30.4572C33.0914 30.6679 32.8043 30.7782 32.4911 30.7885V30.7807C32.1286 30.8225 31.7454 30.7147 31.4558 30.4572C30.7637 29.8206 29.6565 29.8206 28.9645 30.4572C28.7364 30.6599 28.462 30.7697 28.1627 30.7869C27.8752 30.7693 27.5901 30.6594 27.3628 30.4572C26.6707 29.8206 25.5635 29.8206 24.8714 30.4572C24.6221 30.6787 24.3175 30.7893 23.9854 30.7893C23.8191 30.7893 23.7085 30.9002 23.7085 31.0663C23.7085 31.2326 23.8193 31.3432 23.9854 31.3432C24.456 31.3432 24.8989 31.1495 25.2311 30.845C25.7016 30.402 26.477 30.402 26.9752 30.845C27.2426 31.0909 27.5719 31.2419 27.9153 31.2978C27.9595 31.3271 28.0149 31.3432 28.0784 31.3432C28.1837 31.3432 28.2877 31.3335 28.3893 31.315L28.3981 31.3142V31.3134Z" fill="#4D666F"/>
<path d="M29.3241 30.845L29.5944 31.1398L29.5983 31.1362L29.3241 30.845ZM28.3981 31.3134L28.3246 30.9202L27.9981 30.9813V31.3134H28.3981ZM31.0682 30.845L31.3391 30.5506L31.334 30.5461L31.0682 30.845ZM32.3268 31.3224L32.4737 30.9504L32.4016 30.9219L32.3241 30.9224L32.3268 31.3224ZM33.6881 30.845L33.9585 31.1398L33.9623 31.1362L33.6881 30.845ZM35.4322 30.845L35.7031 30.5506L35.698 30.5461L35.4322 30.845ZM36.3723 31.2978L36.593 30.9642L36.5214 30.9168L36.4366 30.903L36.3723 31.2978ZM36.8464 31.315L36.811 30.9166L36.7928 30.9182L36.7748 30.9215L36.8464 31.315ZM36.8552 31.3142L36.8924 31.7125L37.2552 31.6786V31.3142H36.8552ZM36.8552 31.3134L36.7816 30.9202L36.4552 30.9813V31.3134H36.8552ZM37.7811 30.845L38.0515 31.1398L38.0553 31.1362L37.7811 30.845ZM39.5253 30.845L39.7961 30.5506L39.791 30.5461L39.5253 30.845ZM40.9482 31.3142L40.9854 31.7125L41.3482 31.6786V31.3142H40.9482ZM40.9482 30.7807H41.3482V30.3319L40.9023 30.3833L40.9482 30.7807ZM39.9129 30.4572L39.642 30.7517L39.6471 30.7562L39.9129 30.4572ZM37.4215 30.4572L37.6872 30.7563L37.6923 30.7516L37.4215 30.4572ZM36.6197 30.7869L36.5952 31.1862L36.6189 31.1876L36.6427 31.1863L36.6197 30.7869ZM35.8198 30.4572L35.549 30.7517L35.5541 30.7562L35.8198 30.4572ZM33.3285 30.4572L33.5942 30.7563L33.5993 30.7516L33.3285 30.4572ZM32.4911 30.7885H32.0911V31.2019L32.5043 31.1883L32.4911 30.7885ZM32.4911 30.7807H32.8911V30.3319L32.4453 30.3833L32.4911 30.7807ZM31.4558 30.4572L31.185 30.7517L31.19 30.7562L31.4558 30.4572ZM28.9645 30.4572L29.2302 30.7563L29.2353 30.7516L28.9645 30.4572ZM28.1627 30.7869L28.1381 31.1862L28.1619 31.1876L28.1857 31.1863L28.1627 30.7869ZM27.3628 30.4572L27.092 30.7517L27.097 30.7562L27.3628 30.4572ZM24.8714 30.4572L25.1372 30.7563L25.1423 30.7516L24.8714 30.4572ZM25.2311 30.845L25.5014 31.1398L25.5053 31.1362L25.2311 30.845ZM26.9752 30.845L27.2461 30.5506L27.241 30.5461L26.9752 30.845ZM27.9153 31.2978L28.136 30.9642L28.0643 30.9168L27.9796 30.903L27.9153 31.2978ZM28.3893 31.315L28.353 30.9167L28.3353 30.9183L28.3178 30.9215L28.3893 31.315ZM28.3981 31.3142L28.4344 31.7126L28.7981 31.6794V31.3142H28.3981ZM29.0538 30.5501C28.8496 30.7374 28.5954 30.8696 28.3246 30.9202L28.4717 31.7066C28.8989 31.6267 29.2873 31.4214 29.5944 31.1398L29.0538 30.5501ZM31.334 30.5461C30.6887 29.9723 29.6788 29.9618 29.0499 30.5537L29.5983 31.1362C29.9106 30.8422 30.4513 30.8317 30.8024 31.1439L31.334 30.5461ZM32.3241 30.9224C31.9638 30.9249 31.6086 30.7985 31.339 30.5506L30.7974 31.1394C31.2266 31.5342 31.7816 31.7261 32.3295 31.7224L32.3241 30.9224ZM32.4424 30.9432C32.4455 30.9432 32.457 30.9438 32.4737 30.9504L32.1799 31.6945C32.2653 31.7282 32.3545 31.7432 32.4424 31.7432V30.9432ZM33.4178 30.5501C33.1517 30.7941 32.8029 30.9432 32.4424 30.9432V31.7432C33.0231 31.7432 33.5602 31.5049 33.9584 31.1398L33.4178 30.5501ZM35.698 30.5461C35.0527 29.9723 34.0428 29.9618 33.4139 30.5537L33.9623 31.1362C34.2746 30.8422 34.8153 30.8317 35.1664 31.1439L35.698 30.5461ZM36.4366 30.903C36.1656 30.8589 35.9094 30.7404 35.7031 30.5506L35.1614 31.1394C35.4898 31.4415 35.8923 31.6249 36.3081 31.6926L36.4366 30.903ZM36.1517 31.6314C36.2693 31.7092 36.4035 31.7432 36.5354 31.7432V30.9432C36.5404 30.9432 36.5639 30.9449 36.593 30.9642L36.1517 31.6314ZM36.5354 31.7432C36.6654 31.7432 36.7933 31.7312 36.9179 31.7086L36.7748 30.9215C36.6962 30.9358 36.6162 30.9432 36.5354 30.9432V31.7432ZM36.8179 30.916C36.8156 30.9162 36.8133 30.9164 36.811 30.9166L36.8817 31.7135C36.8853 31.7131 36.8888 31.7128 36.8924 31.7125L36.8179 30.916ZM36.4552 31.3134V31.3142H37.2552V31.3134H36.4552ZM36.9287 31.7066C37.3559 31.6267 37.7443 31.4214 38.0514 31.1398L37.5108 30.5501C37.3066 30.7374 37.0524 30.8696 36.7816 30.9202L36.9287 31.7066ZM38.0553 31.1362C38.3676 30.8422 38.9083 30.8317 39.2595 31.1439L39.791 30.5461C39.1458 29.9723 38.1358 29.9618 37.507 30.5537L38.0553 31.1362ZM39.2544 31.1394C39.7354 31.5818 40.3742 31.7696 40.9854 31.7125L40.911 30.916C40.5083 30.9536 40.0982 30.8285 39.7961 30.5506L39.2544 31.1394ZM41.3482 31.3142V30.7807H40.5482V31.3142H41.3482ZM40.9023 30.3833C40.6466 30.4128 40.3784 30.3359 40.1786 30.1583L39.6471 30.7562C40.0264 31.0935 40.5246 31.2322 40.994 31.1781L40.9023 30.3833ZM40.1837 30.1629C39.3385 29.3854 37.9958 29.3854 37.1507 30.1629L37.6923 30.7516C38.2313 30.2558 39.103 30.2558 39.642 30.7516L40.1837 30.1629ZM37.1558 30.1582C36.9968 30.2995 36.8086 30.3754 36.5967 30.3876L36.6427 31.1863C37.0296 31.164 37.39 31.0203 37.6872 30.7563L37.1558 30.1582ZM35.5541 30.7562C35.8521 31.0212 36.2235 31.1633 36.5952 31.1862L36.6442 30.3877C36.4409 30.3752 36.2423 30.2976 36.0856 30.1583L35.5541 30.7562ZM33.5993 30.7516C34.1383 30.2558 35.01 30.2558 35.549 30.7516L36.0907 30.1629C35.2455 29.3854 33.9028 29.3854 33.0577 30.1629L33.5993 30.7516ZM32.5043 31.1883C32.9078 31.175 33.285 31.0309 33.5941 30.7563L33.0628 30.1582C32.8978 30.3048 32.7009 30.3814 32.478 30.3888L32.5043 31.1883ZM32.0911 30.7807V30.7885H32.8911V30.7807H32.0911ZM31.19 30.7562C31.5694 31.0935 32.0676 31.2322 32.537 31.1781L32.4453 30.3833C32.1895 30.4128 31.9214 30.3359 31.7216 30.1583L31.19 30.7562ZM29.2353 30.7516C29.7743 30.2558 30.646 30.2558 31.185 30.7516L31.7266 30.1629C30.8815 29.3854 29.5388 29.3854 28.6937 30.1629L29.2353 30.7516ZM28.1857 31.1863C28.5725 31.164 28.933 31.0203 29.2301 30.7563L28.6988 30.1582C28.5398 30.2995 28.3516 30.3754 28.1397 30.3876L28.1857 31.1863ZM27.097 30.7562C27.3951 31.0212 27.7665 31.1633 28.1381 31.1862L28.1872 30.3877C27.9839 30.3752 27.7852 30.2976 27.6286 30.1583L27.097 30.7562ZM25.1423 30.7516C25.6813 30.2558 26.553 30.2558 27.092 30.7516L27.6336 30.1629C26.7885 29.3854 25.4458 29.3854 24.6006 30.1629L25.1423 30.7516ZM23.9854 31.1893C24.4113 31.1893 24.8116 31.0455 25.1371 30.7563L24.6058 30.1582C24.4327 30.3119 24.2238 30.3893 23.9854 30.3893V31.1893ZM24.1085 31.0663C24.1085 31.0741 24.1042 31.1116 24.0676 31.1483C24.0309 31.185 23.9932 31.1893 23.9854 31.1893V30.3893C23.8113 30.3893 23.6352 30.4492 23.5016 30.5828C23.3681 30.7164 23.3085 30.8925 23.3085 31.0663H24.1085ZM23.9854 30.9432C23.9932 30.9432 24.0308 30.9475 24.0674 30.9842C24.1041 31.0209 24.1085 31.0585 24.1085 31.0663H23.3085C23.3085 31.2404 23.3683 31.4165 23.5019 31.55C23.6355 31.6836 23.8116 31.7432 23.9854 31.7432V30.9432ZM24.9608 30.5501C24.6947 30.7941 24.3459 30.9432 23.9854 30.9432V31.7432C24.566 31.7432 25.1032 31.5049 25.5014 31.1398L24.9608 30.5501ZM27.241 30.5461C26.5957 29.9723 25.5857 29.9618 24.9569 30.5537L25.5053 31.1362C25.8176 30.8422 26.3583 30.8317 26.7094 31.1439L27.241 30.5461ZM27.9796 30.903C27.7086 30.8589 27.4524 30.7404 27.246 30.5506L26.7044 31.1394C27.0328 31.4415 27.4352 31.6249 27.851 31.6926L27.9796 30.903ZM28.0784 30.9432C28.0834 30.9432 28.1069 30.9449 28.136 30.9642L27.6947 31.6314C27.8122 31.7092 27.9465 31.7432 28.0784 31.7432V30.9432ZM28.3178 30.9215C28.2391 30.9358 28.1591 30.9432 28.0784 30.9432V31.7432C28.2084 31.7432 28.3363 31.7312 28.4609 31.7086L28.3178 30.9215ZM28.3618 30.9159L28.353 30.9167L28.4256 31.7134L28.4344 31.7126L28.3618 30.9159ZM27.9981 31.3134V31.3142H28.7981V31.3134H27.9981Z" fill="#4D666F" mask="url(#path-12-outside-3_265_6348)"/>
<circle r="0.816579" transform="matrix(1 0 0 -1 16.7407 15.5145)" stroke="#4D666F"/>
<circle r="0.652007" transform="matrix(1 0 0 -1 7.33047 29.4859)" stroke="#4D666F"/>
</g>
<defs>
<clipPath id="clip0_265_6348">
<rect width="40" height="40" fill="white" transform="translate(0 0.364746)"/>
</clipPath>
</defs>
</svg>
