<svg width="24" height="24" viewBox="0 0 24 24" fill="none" xmlns="http://www.w3.org/2000/svg">
<g clip-path="url(#clip0_255_2137)">
<path d="M12 4.64502C10.5453 4.64502 9.12333 5.07638 7.9138 5.88456C6.70428 6.69274 5.76157 7.84143 5.20489 9.18538C4.64821 10.5293 4.50255 12.0082 4.78635 13.4349C5.07014 14.8616 5.77064 16.1722 6.79925 17.2008C7.82787 18.2294 9.1384 18.9299 10.5651 19.2137C11.9919 19.4975 13.4707 19.3518 14.8147 18.7952C16.1586 18.2385 17.3073 17.2958 18.1155 16.0862C18.9237 14.8767 19.355 13.4547 19.355 12C19.3529 10.05 18.5773 8.18046 17.1985 6.80159C15.8196 5.42272 13.95 4.64714 12 4.64502ZM12 17.355C10.9409 17.355 9.90557 17.041 9.02494 16.4525C8.14432 15.8641 7.45796 15.0278 7.05265 14.0493C6.64734 13.0708 6.54129 11.9941 6.74792 10.9553C6.95454 9.91654 7.46456 8.96237 8.21347 8.21346C8.96238 7.46455 9.91655 6.95454 10.9553 6.74791C11.9941 6.54129 13.0708 6.64734 14.0493 7.05264C15.0278 7.45795 15.8641 8.14432 16.4525 9.02494C17.041 9.90557 17.355 10.9409 17.355 12C17.3534 13.4198 16.7887 14.7809 15.7848 15.7848C14.7809 16.7887 13.4198 17.3534 12 17.355Z" fill="#9FB9C6"/>
<path d="M12 3.467C12.2652 3.467 12.5196 3.36164 12.7071 3.17411C12.8946 2.98657 13 2.73222 13 2.467V1C13 0.734784 12.8946 0.48043 12.7071 0.292893C12.5196 0.105357 12.2652 0 12 0C11.7348 0 11.4804 0.105357 11.2929 0.292893C11.1054 0.48043 11 0.734784 11 1V2.467C11 2.73222 11.1054 2.98657 11.2929 3.17411C11.4804 3.36164 11.7348 3.467 12 3.467Z" fill="#9FB9C6"/>
<path d="M4.55209 5.96609C4.64433 6.0616 4.75468 6.13778 4.87668 6.19019C4.99869 6.2426 5.12991 6.27018 5.26269 6.27134C5.39547 6.27249 5.52714 6.24719 5.65004 6.19691C5.77294 6.14663 5.88459 6.07237 5.97848 5.97848C6.07237 5.88459 6.14663 5.77294 6.19691 5.65004C6.24719 5.52714 6.27249 5.39547 6.27134 5.26269C6.27018 5.12991 6.2426 4.99869 6.19019 4.87668C6.13778 4.75468 6.0616 4.64433 5.96609 4.55209L4.92909 3.51509C4.74048 3.33293 4.48788 3.23213 4.22569 3.23441C3.96349 3.23669 3.71268 3.34186 3.52727 3.52727C3.34186 3.71268 3.23669 3.96349 3.23441 4.22569C3.23213 4.48788 3.33293 4.74048 3.51509 4.92909L4.55209 5.96609Z" fill="#9FB9C6"/>
<path d="M2.467 11H1C0.734784 11 0.48043 11.1054 0.292893 11.2929C0.105357 11.4804 0 11.7348 0 12C0 12.2652 0.105357 12.5196 0.292893 12.7071C0.48043 12.8946 0.734784 13 1 13H2.467C2.73222 13 2.98657 12.8946 3.17411 12.7071C3.36164 12.5196 3.467 12.2652 3.467 12C3.467 11.7348 3.36164 11.4804 3.17411 11.2929C2.98657 11.1054 2.73222 11 2.467 11Z" fill="#9FB9C6"/>
<path d="M4.55176 18.034L3.51476 19.071C3.41925 19.1633 3.34307 19.2736 3.29066 19.3956C3.23825 19.5176 3.21066 19.6489 3.20951 19.7816C3.20836 19.9144 3.23366 20.0461 3.28394 20.169C3.33422 20.2919 3.40847 20.4035 3.50237 20.4974C3.59626 20.5913 3.70791 20.6656 3.83081 20.7159C3.9537 20.7662 4.08538 20.7915 4.21816 20.7903C4.35094 20.7891 4.48216 20.7616 4.60417 20.7091C4.72617 20.6567 4.83651 20.5806 4.92876 20.485L5.96576 19.448C6.06127 19.3558 6.13745 19.2455 6.18986 19.1235C6.24227 19.0014 6.26986 18.8702 6.27101 18.7374C6.27216 18.6047 6.24686 18.473 6.19658 18.3501C6.1463 18.2272 6.07205 18.1155 5.97816 18.0217C5.88426 17.9278 5.77261 17.8535 5.64971 17.8032C5.52682 17.7529 5.39514 17.7276 5.26236 17.7288C5.12958 17.73 4.99836 17.7575 4.87636 17.8099C4.75435 17.8624 4.64401 17.9385 4.55176 18.034Z" fill="#9FB9C6"/>
<path d="M12 20.533C11.7348 20.533 11.4804 20.6383 11.2929 20.8259C11.1054 21.0134 11 21.2677 11 21.533V23C11 23.2652 11.1054 23.5195 11.2929 23.7071C11.4804 23.8946 11.7348 24 12 24C12.2652 24 12.5196 23.8946 12.7071 23.7071C12.8946 23.5195 13 23.2652 13 23V21.533C13 21.2677 12.8946 21.0134 12.7071 20.8259C12.5196 20.6383 12.2652 20.533 12 20.533Z" fill="#9FB9C6"/>
<path d="M19.4481 18.0339C19.2595 17.8517 19.0069 17.7509 18.7447 17.7532C18.4825 17.7555 18.2317 17.8607 18.0463 18.0461C17.8609 18.2315 17.7557 18.4823 17.7535 18.7445C17.7512 19.0067 17.852 19.2593 18.0341 19.4479L19.0711 20.4849C19.2597 20.667 19.5123 20.7678 19.7745 20.7656C20.0367 20.7633 20.2875 20.6581 20.4729 20.4727C20.6584 20.2873 20.7635 20.0365 20.7658 19.7743C20.7681 19.5121 20.6673 19.2595 20.4851 19.0709L19.4481 18.0339Z" fill="#9FB9C6"/>
<path d="M23.0002 11H21.5332C21.268 11 21.0136 11.1054 20.8261 11.2929C20.6386 11.4804 20.5332 11.7348 20.5332 12C20.5332 12.2652 20.6386 12.5196 20.8261 12.7071C21.0136 12.8946 21.268 13 21.5332 13H23.0002C23.2654 13 23.5198 12.8946 23.7073 12.7071C23.8948 12.5196 24.0002 12.2652 24.0002 12C24.0002 11.7348 23.8948 11.4804 23.7073 11.2929C23.5198 11.1054 23.2654 11 23.0002 11Z" fill="#9FB9C6"/>
<path d="M18.741 6.25909C19.0062 6.25903 19.2605 6.15364 19.448 5.96609L20.485 4.92909C20.6672 4.74048 20.768 4.48788 20.7657 4.22569C20.7634 3.96349 20.6582 3.71268 20.4728 3.52727C20.2874 3.34186 20.0366 3.23669 19.7744 3.23441C19.5122 3.23213 19.2596 3.33293 19.071 3.51509L18.034 4.55209C17.8942 4.69194 17.799 4.8701 17.7604 5.06406C17.7218 5.25801 17.7417 5.45904 17.8173 5.64174C17.893 5.82444 18.0211 5.9806 18.1855 6.09049C18.3499 6.20037 18.5432 6.25904 18.741 6.25909Z" fill="#9FB9C6"/>
</g>
<defs>
<clipPath id="clip0_255_2137">
<rect width="24" height="24" fill="white"/>
</clipPath>
</defs>
</svg>
