<svg width="41" height="41" viewBox="0 0 41 41" fill="none" xmlns="http://www.w3.org/2000/svg">
<path d="M9.7567 10.5152H8.39268C7.93204 10.5152 7.54739 10.1765 7.47524 9.7356L2.73987 9.73533C2.58889 9.73533 2.45135 9.68438 2.35117 9.58425C2.25098 9.48411 2.19993 9.34655 2.19993 9.19539C2.19993 8.89794 2.40515 8.61683 2.73988 8.61683V8.61685H4.58873C5.23511 7.12248 6.95159 6.31175 8.54908 6.75108L8.54909 6.75108L8.5505 6.75148C9.40904 6.99669 10.1046 7.56953 10.5132 8.34619L9.7567 10.5152ZM9.7567 10.5152C9.75062 10.5423 9.74564 10.5592 9.73958 10.5713L9.73423 10.5821L9.73066 10.5935C9.36568 11.762 8.12337 12.4209 6.95301 12.0926C6.2251 11.8738 5.67983 11.3301 5.45895 10.6034C5.40003 10.2857 5.08068 10.1202 4.80469 10.2201C4.48742 10.2823 4.32434 10.6054 4.43005 10.8817C4.75837 11.9819 5.61514 12.7952 6.67208 13.1204L6.67974 13.1228L6.67979 13.1226C7.0016 13.2031 7.28666 13.244 7.61275 13.244C9.04027 13.244 10.3883 12.3069 10.7977 10.8742L10.7977 10.8742C11.043 10.0154 10.9195 9.11815 10.5132 8.34623L9.7567 10.5152ZM9.38971 8.57773C9.09798 8.21447 8.69104 7.93349 8.23113 7.77952C7.29984 7.51476 6.37108 7.8537 5.82614 8.57773H9.38971Z" fill="#4D666F" stroke="#4D666F" stroke-width="0.3"/>
<path d="M11.7761 20.3501L11.7763 20.35C11.8315 20.4329 11.9104 20.497 11.9908 20.5403C12.0705 20.5832 12.1631 20.6119 12.252 20.6119L11.7761 20.3501ZM11.7761 20.3501L11.7717 20.3426M11.7761 20.3501L11.7717 20.3426M11.7717 20.3426L10.5637 18.2772C10.3983 18.0003 10.5175 17.6789 10.7714 17.5264L10.7715 17.5264M11.7717 20.3426L10.7715 17.5264M10.7715 17.5264C11.0485 17.3603 11.3703 17.4795 11.523 17.7336L11.523 17.7336M10.7715 17.5264L11.523 17.7336M11.523 17.7336L11.5239 17.7351M11.523 17.7336L11.5239 17.7351M11.5239 17.7351L12.7319 19.8006C12.8973 20.0774 12.7781 20.3988 12.5242 20.5513L12.5244 20.5517M11.5239 17.7351L12.5244 20.5517M12.5244 20.5517L12.5142 20.5568M12.5244 20.5517L12.5142 20.5568M12.5142 20.5568C12.4655 20.5812 12.4218 20.5969 12.3743 20.6049M12.5142 20.5568L12.3743 20.6049M12.3743 20.6049C12.3325 20.6119 12.2921 20.6119 12.2572 20.6119M12.3743 20.6049L12.2572 20.6119M12.2572 20.6119C12.2554 20.6119 12.2537 20.6119 12.252 20.6119L12.2572 20.6119Z" fill="#4D666F" stroke="#4D666F" stroke-width="0.3"/>
<path d="M4.93251 15.8292C5.0688 15.2166 5.42928 14.6587 5.9032 14.2949L5.88461 14.2909L6.03582 14.2002C6.09214 14.1629 6.1498 14.1283 6.20865 14.0966L6.2101 14.0957C6.62502 13.8469 7.11972 13.7236 7.5737 13.7236H11.8603L15.5675 11.561L15.5675 11.561L15.5703 11.5595C15.957 11.3445 16.3843 11.3035 16.8032 11.3874L16.8034 11.3868L16.8169 11.3908C17.2403 11.5178 17.5856 11.7748 17.8014 12.1632C18.0165 12.55 18.0571 12.9773 17.9732 13.3959L17.9739 13.396L17.9698 13.4095C17.843 13.8325 17.5865 14.1774 17.1989 14.3933L13.2649 16.6913C12.925 16.9032 12.5461 16.9859 12.1738 16.9859H8.78234C8.63136 16.9859 8.49382 16.935 8.39363 16.8349C8.29344 16.7347 8.2424 16.5972 8.2424 16.446C8.2424 16.295 8.29335 16.1575 8.39348 16.0573C8.49362 15.9571 8.63119 15.9061 8.78234 15.9061H12.1738C12.3714 15.9061 12.5384 15.8421 12.732 15.7649L16.6986 13.4707L16.6985 13.4705L16.7066 13.4664C16.815 13.4121 16.9104 13.2974 16.9801 13.1288C17.0132 12.9535 17.0024 12.8171 16.9265 12.716L16.9184 12.7052L16.9124 12.6932C16.8581 12.5847 16.7434 12.4893 16.5747 12.4197C16.3994 12.3865 16.2631 12.3973 16.1619 12.4732L16.1549 12.4785L16.1473 12.4829L12.327 14.7051L12.3272 14.7054L12.3185 14.7097C12.2698 14.734 12.2262 14.7495 12.1787 14.7574C12.137 14.7644 12.0967 14.7643 12.0618 14.7643L12.0566 14.7643H7.65141C7.36416 14.7643 7.07814 14.8362 6.82927 14.9784L6.82929 14.9784L6.82668 14.9799C6.43271 15.1947 6.14894 15.5511 6.04276 15.9761C5.93308 16.415 5.9739 16.8737 6.21508 17.2182L6.21555 17.2179L6.22206 17.2292L9.53579 22.9597L9.53617 22.9604C9.8206 23.4581 10.3939 23.7814 10.9651 23.7814H18.0991C18.3131 23.7814 18.4739 23.8916 18.5748 24.0433L18.575 24.0431L18.5799 24.0516L22.1664 30.2891L22.1699 30.2952L22.1729 30.3017C22.2548 30.4817 22.3804 30.5866 22.5126 30.6306C22.6453 30.6748 22.7962 30.6617 22.9369 30.5839C22.9373 30.5837 22.9377 30.5835 22.9381 30.5832L26.2709 28.6455C26.2742 28.6421 26.277 28.6391 26.2797 28.6361C26.2848 28.6303 26.2873 28.6267 26.2886 28.6246C26.2897 28.6227 26.2901 28.6216 26.2904 28.6205C26.2907 28.6196 26.2912 28.6176 26.2914 28.614C26.2905 28.6126 26.289 28.6105 26.2868 28.6083C26.2856 28.6071 26.2844 28.6061 26.2834 28.6053C26.2824 28.6046 26.2815 28.604 26.2808 28.6036H25.2331C25.0821 28.6036 24.9446 28.5526 24.8444 28.4525C24.7442 28.3523 24.6932 28.2148 24.6932 28.0636C24.6932 27.9126 24.7441 27.7751 24.8443 27.6749C24.9444 27.5747 25.082 27.5237 25.2331 27.5237H26.2857C26.6869 27.5237 27.0412 27.7659 27.2415 28.0894L30.6544 26.1017L30.6544 26.1017L30.6557 26.1009C32.6532 24.9652 34.7681 24.0643 36.9607 23.3985C37.2358 23.3074 37.5506 23.3522 37.78 23.4879C38.0493 23.6242 38.229 23.8509 38.3178 24.1179L38.3255 24.1409V24.1516C38.3258 24.1525 38.3262 24.1534 38.3267 24.1545C38.3282 24.1581 38.3304 24.1633 38.3342 24.173C38.3472 24.2054 38.3644 24.255 38.3644 24.321V24.5549C38.3644 28.3114 36.1538 31.6733 32.6799 33.1824C32.6328 33.2172 32.5804 33.2298 32.5474 33.2353C32.5057 33.2422 32.4662 33.2422 32.4468 33.2422H32.4449H22.621C21.8435 33.2422 21.108 32.9557 20.5361 32.466C19.8889 31.9273 18.9224 31.9316 18.3188 32.4995L18.3176 32.5007C17.2859 33.4497 15.6391 33.45 14.6071 32.5015C13.9606 31.9276 12.9575 31.9319 12.3545 32.4995L12.353 32.5008C11.8605 32.9524 11.2014 33.2418 10.4975 33.2418C10.3465 33.2418 10.2089 33.1909 10.1088 33.0908C10.0086 32.9906 9.95752 32.8531 9.95752 32.7019C9.95752 32.5509 10.0085 32.4134 10.1086 32.3132C10.2087 32.213 10.3463 32.162 10.4975 32.162C10.9296 32.162 11.3222 32.0189 11.6445 31.7329C12.6762 30.7848 14.3223 30.7848 15.3541 31.733C16.0005 32.3069 17.0037 32.3027 17.6066 31.735L17.6079 31.7338C18.6373 30.7869 20.2031 30.7447 21.2749 31.6509C21.679 31.9811 22.1526 32.1619 22.6604 32.1619L32.3363 32.1628C35.345 30.8548 37.2849 27.915 37.2849 24.633V24.5032L37.2819 24.504C35.1482 25.1248 33.094 25.9777 31.1958 27.101L31.1947 27.1016L26.8288 29.6354L26.8287 29.6354L23.4762 31.5845L23.4763 31.5848L23.4679 31.589C23.2193 31.7133 22.9232 31.7998 22.66 31.7998C22.1014 31.7998 21.5446 31.4998 21.244 30.9847L21.2435 30.9838L17.8172 25.0166L10.9267 25.0168C9.93684 25.0168 9.03103 24.481 8.53703 23.6576L8.53583 23.6555L5.22333 17.927C5.22313 17.9267 5.22293 17.9263 5.22273 17.926C4.84938 17.3031 4.76996 16.5612 4.9325 15.8292L4.93251 15.8292Z" fill="#4D666F" stroke="#4D666F" stroke-width="0.3"/>
<path d="M24.0633 29.2446L24.0635 29.245L24.0529 29.2502C24.0042 29.2745 23.9606 29.2901 23.9132 29.298C23.8715 29.3049 23.8311 29.3049 23.7962 29.3049L23.7911 29.3049C23.7022 29.3049 23.6095 29.2762 23.5299 29.2333C23.4495 29.19 23.3706 29.1259 23.3154 29.043L23.3151 29.0431L23.3104 29.0349L19.8409 23.0316L19.8405 23.031C19.5561 22.5333 18.9828 22.21 18.4116 22.21H11.4725C11.3215 22.21 11.184 22.1591 11.0838 22.0589C10.9836 21.9588 10.9326 21.8212 10.9326 21.6701C10.9326 21.5191 10.9835 21.3816 11.0836 21.2814C11.1838 21.1812 11.3213 21.1301 11.4725 21.1301L18.4082 21.1304C19.4023 21.0903 20.3093 21.6294 20.8025 22.4924L20.8036 22.4942L24.2712 28.4942C24.4363 28.7709 24.3171 29.0922 24.0633 29.2446Z" fill="#4D666F" stroke="#4D666F" stroke-width="0.3"/>
</svg>
