<svg width="40" height="41" viewBox="0 0 40 41" fill="none" xmlns="http://www.w3.org/2000/svg">
<path d="M6.74599 11.8184L2.01062 11.8181C1.85964 11.8181 1.7221 11.7671 1.62192 11.667C1.52173 11.5669 1.47069 11.4293 1.47069 11.2782C1.47069 10.9807 1.6759 10.6996 2.01063 10.6996V10.6996H3.85948C4.50586 9.20524 6.22234 8.39452 7.81984 8.83385L7.81984 8.83384L7.82126 8.83424C8.67979 9.07945 9.37533 9.65229 9.78393 10.429L6.74599 11.8184ZM6.74599 11.8184C6.81815 12.2592 7.2028 12.598 7.66343 12.598H9.02745M6.74599 11.8184L9.02745 12.598M9.02745 12.598C9.02137 12.6251 9.01639 12.6419 9.01033 12.6541L9.00499 12.6648L9.00141 12.6763C8.63643 13.8447 7.39413 14.5037 6.22377 14.1753C5.49586 13.9566 4.95058 13.4129 4.7297 12.6862C4.67078 12.3685 4.35143 12.203 4.07545 12.3029C3.75817 12.3651 3.59509 12.6882 3.7008 12.9644C4.02912 14.0647 4.8859 14.8779 5.94283 15.2032L5.95049 15.2056L5.95055 15.2054C6.27235 15.2859 6.55741 15.3268 6.8835 15.3268C8.31103 15.3268 9.65901 14.3897 10.0684 12.9569L10.0684 12.9569C10.3138 12.0982 10.1903 11.2009 9.78394 10.429L9.02745 12.598ZM8.66046 10.6605C8.36873 10.2972 7.9618 10.0163 7.50189 9.86229C6.57059 9.59753 5.64183 9.93647 5.09689 10.6605H8.66046Z" fill="#4D666F" stroke="#4D666F" stroke-width="0.3"/>
<path d="M11.0466 22.4329L11.0468 22.4327C11.102 22.5157 11.181 22.5798 11.2613 22.6231C11.341 22.666 11.4336 22.6946 11.5225 22.6946L11.0466 22.4329ZM11.0466 22.4329L11.0423 22.4254M11.0466 22.4329L11.0423 22.4254M11.0423 22.4254L9.83423 20.3599C9.66876 20.0831 9.78798 19.7617 10.0419 19.6092L10.042 19.6091M11.0423 22.4254L10.042 19.6091M10.042 19.6091C10.319 19.443 10.6409 19.5622 10.7935 19.8164L10.7935 19.8164M10.042 19.6091L10.7935 19.8164M10.7935 19.8164L10.7944 19.8179M10.7935 19.8164L10.7944 19.8179M10.7944 19.8179L12.0024 21.8833C12.1678 22.1602 12.0486 22.4816 11.7947 22.6341L11.7949 22.6344M10.7944 19.8179L11.7949 22.6344M11.7949 22.6344L11.7848 22.6395M11.7949 22.6344L11.7848 22.6395M11.7848 22.6395C11.736 22.664 11.6923 22.6797 11.6448 22.6877M11.7848 22.6395L11.6448 22.6877M11.6448 22.6877C11.603 22.6947 11.5626 22.6947 11.5277 22.6946M11.6448 22.6877L11.5277 22.6946M11.5277 22.6946C11.526 22.6946 11.5242 22.6946 11.5225 22.6946L11.5277 22.6946Z" fill="#4D666F" stroke="#4D666F" stroke-width="0.3"/>
<path d="M4.20327 17.9119C4.33958 17.2992 4.70018 16.7412 5.17427 16.3775L5.15575 16.3735L5.30656 16.283C5.36288 16.2457 5.42056 16.2111 5.4794 16.1794L5.48085 16.1785C5.89577 15.9296 6.39047 15.8063 6.84445 15.8063H11.1311L14.8383 13.6438L14.8383 13.6437L14.841 13.6422C15.2278 13.4272 15.655 13.3863 16.074 13.4702L16.0741 13.4695L16.0876 13.4736C16.5111 13.6005 16.8563 13.8576 17.0722 14.2459C17.2872 14.6328 17.3278 15.0601 17.244 15.4787L17.2446 15.4788L17.2406 15.4923C17.1138 15.9152 16.8572 16.2601 16.4696 16.4761L12.5357 18.7741C12.1958 18.986 11.8168 19.0687 11.4446 19.0687H8.0531C7.90211 19.0687 7.76457 19.0178 7.66439 18.9176C7.5642 18.8175 7.51315 18.6799 7.51315 18.5288C7.51315 18.3778 7.5641 18.2402 7.66423 18.1401C7.76438 18.0399 7.90194 17.9888 8.0531 17.9888H11.4446C11.6421 17.9888 11.8092 17.9248 12.0027 17.8477L15.9694 15.5535L15.9692 15.5532L15.9773 15.5492C16.0857 15.4949 16.1812 15.3802 16.2508 15.2116C16.2839 15.0362 16.2731 14.8999 16.1973 14.7988L16.1892 14.788L16.1831 14.7759C16.1288 14.6675 16.0141 14.572 15.8455 14.5024C15.6701 14.4693 15.5338 14.4801 15.4327 14.556L15.4257 14.5612L15.4181 14.5657L11.5978 16.7879L11.5979 16.7881L11.5892 16.7924C11.5405 16.8167 11.4969 16.8323 11.4495 16.8402C11.4078 16.8471 11.3674 16.8471 11.3325 16.8471L11.3274 16.8471H6.92217C6.63491 16.8471 6.34889 16.919 6.10003 17.0612L6.10004 17.0612L6.09744 17.0626C5.70346 17.2775 5.4197 17.6339 5.31351 18.0588C5.20383 18.4977 5.24465 18.9565 5.48584 19.301L5.4863 19.3007L5.49281 19.3119L8.80654 25.0425L8.80692 25.0432C9.09135 25.5409 9.66463 25.8641 10.2359 25.8641H17.3699C17.5838 25.8641 17.7447 25.9744 17.8455 26.126L17.8458 26.1259L17.8507 26.1343L21.4371 32.3718L21.4407 32.378L21.4436 32.3845C21.5255 32.5644 21.6511 32.6693 21.7834 32.7134C21.9161 32.7576 22.067 32.7444 22.2076 32.6667C22.208 32.6665 22.2084 32.6662 22.2088 32.666L25.5417 30.7283C25.545 30.7248 25.5478 30.7218 25.5504 30.7189C25.5555 30.7131 25.558 30.7095 25.5593 30.7073C25.5604 30.7055 25.5609 30.7043 25.5612 30.7032C25.5614 30.7024 25.5619 30.7004 25.5622 30.6968C25.5613 30.6953 25.5598 30.6933 25.5576 30.6911C25.5552 30.6888 25.5531 30.6872 25.5515 30.6863H24.5039C24.3529 30.6863 24.2153 30.6354 24.1152 30.5352C24.015 30.4351 23.9639 30.2975 23.9639 30.1464C23.9639 29.9954 24.0149 29.8578 24.115 29.7577C24.2152 29.6575 24.3527 29.6064 24.5039 29.6064H25.5565C25.9577 29.6064 26.312 29.8486 26.5123 30.1722L29.9251 28.1845L29.9251 28.1845L29.9265 28.1837C31.9239 27.048 34.0388 26.147 36.2315 25.4812C36.5066 25.3902 36.8214 25.435 37.0507 25.5706C37.32 25.707 37.4998 25.9337 37.5886 26.2006L37.5962 26.2237V26.2343C37.5966 26.2352 37.597 26.2362 37.5975 26.2373C37.599 26.2409 37.6011 26.2461 37.605 26.2557C37.6179 26.2882 37.6351 26.3377 37.6351 26.4038V26.6376C37.6351 30.3942 35.4245 33.7561 31.9507 35.2652C31.9035 35.3 31.8512 35.3125 31.8181 35.318C31.7765 35.3249 31.7369 35.3249 31.7175 35.3249H31.7156H21.8918C21.1143 35.3249 20.3787 35.0385 19.8069 34.5487C19.1596 34.01 18.1932 34.0144 17.5896 34.5823L17.5884 34.5834C16.5567 35.5325 14.9099 35.5328 13.8779 34.5843C13.2314 34.0104 12.2282 34.0146 11.6252 34.5823L11.6238 34.5836C11.1313 35.0352 10.4721 35.3246 9.76822 35.3246C9.61723 35.3246 9.47969 35.2737 9.37951 35.1735C9.27932 35.0734 9.22828 34.9358 9.22828 34.7847C9.22828 34.6337 9.27923 34.4961 9.37936 34.396C9.4795 34.2958 9.61706 34.2447 9.76822 34.2447C10.2003 34.2447 10.593 34.1017 10.9153 33.8157C11.947 32.8675 13.5931 32.8676 14.6248 33.8158C15.2713 34.3897 16.2744 34.3854 16.8774 33.8178L16.8787 33.8166C17.908 32.8697 19.4739 32.8275 20.5457 33.7337C20.9498 34.0639 21.4233 34.2447 21.9312 34.2447L31.607 34.2455C34.6158 32.9375 36.5557 29.9978 36.5557 26.7158V26.5859L36.5526 26.5868C34.419 27.2075 32.3648 28.0605 30.4666 29.1838L30.4655 29.1844L26.0995 31.7181L26.0994 31.7182L22.7469 33.6673L22.7471 33.6676L22.7386 33.6718C22.4901 33.7961 22.194 33.8826 21.9308 33.8826C21.3721 33.8826 20.8154 33.5826 20.5148 33.0674L20.5142 33.0665L17.088 27.0993L10.1975 27.0996C9.20759 27.0996 8.30178 26.5638 7.80779 25.7403L7.80658 25.7382L4.49408 20.0098C4.49388 20.0094 4.49368 20.0091 4.49348 20.0088C4.12013 19.3859 4.04071 18.6439 4.20325 17.912L4.20327 17.9119Z" fill="#4D666F" stroke="#4D666F" stroke-width="0.3"/>
<path d="M23.3338 31.3273L23.334 31.3277L23.3234 31.333C23.2747 31.3573 23.2311 31.3728 23.1837 31.3807C23.142 31.3877 23.1016 31.3876 23.0667 31.3876L23.0616 31.3876C22.9727 31.3876 22.88 31.359 22.8004 31.316C22.72 31.2728 22.6411 31.2087 22.5859 31.1257L22.5856 31.1259L22.5809 31.1177L19.1114 25.1144L19.111 25.1138C18.8266 24.6161 18.2533 24.2928 17.6821 24.2928H10.743C10.592 24.2928 10.4545 24.2418 10.3543 24.1417C10.2541 24.0416 10.2031 23.904 10.2031 23.7528C10.2031 23.6019 10.254 23.4643 10.3541 23.3641C10.4543 23.2639 10.5919 23.2129 10.743 23.2129L17.6787 23.2132C18.6728 23.1731 19.5798 23.7122 20.0731 24.5752L20.0741 24.577L23.5417 30.577C23.7068 30.8537 23.5876 31.1749 23.3338 31.3273Z" fill="#4D666F" stroke="#4D666F" stroke-width="0.3"/>
</svg>
