<svg width="30" height="30" viewBox="0 0 30 30" fill="none" xmlns="http://www.w3.org/2000/svg">
<path d="M17.4996 5.625C17.4996 4.13316 16.9069 2.70242 15.852 1.64752C14.7971 0.592632 13.3664 0 11.8746 0C10.3827 0 8.95198 0.592632 7.89709 1.64752C6.8422 2.70242 6.24956 4.13316 6.24956 5.625V17.4225C6.24964 17.4968 6.22303 17.5687 6.17456 17.625C5.00702 18.9802 4.36786 20.7112 4.37456 22.5C4.37456 24.4891 5.16474 26.3968 6.57126 27.8033C7.97779 29.2098 9.88544 30 11.8746 30C13.8637 30 15.7713 29.2098 17.1779 27.8033C18.5844 26.3968 19.3746 24.4891 19.3746 22.5C19.3813 20.7112 18.7421 18.9802 17.5746 17.625C17.5261 17.5687 17.4995 17.4968 17.4996 17.4225V5.625ZM11.8746 27.5C10.8815 27.4999 9.91106 27.204 9.08681 26.6502C8.26257 26.0964 7.62189 25.3097 7.24644 24.3904C6.87099 23.4711 6.77779 22.4608 6.9787 21.4884C7.17962 20.5159 7.66555 19.6253 8.37456 18.93C8.49327 18.8136 8.58758 18.6748 8.65197 18.5215C8.71636 18.3683 8.74954 18.2037 8.74956 18.0375V5.625C8.74956 4.7962 9.0788 4.00134 9.66486 3.41529C10.2509 2.82924 11.0458 2.5 11.8746 2.5C12.7034 2.5 13.4982 2.82924 14.0843 3.41529C14.6703 4.00134 14.9996 4.7962 14.9996 5.625V18.0375C14.9996 18.2037 15.0328 18.3683 15.0972 18.5215C15.1615 18.6748 15.2559 18.8136 15.3746 18.93C16.0836 19.6253 16.5695 20.5159 16.7704 21.4884C16.9713 22.4608 16.8781 23.4711 16.5027 24.3904C16.1272 25.3097 15.4866 26.0964 14.6623 26.6502C13.8381 27.204 12.8676 27.4999 11.8746 27.5Z" fill="#9FB9C6"/>
<path d="M13.2638 20.4225C13.2213 20.3937 13.1864 20.355 13.1622 20.3097C13.1381 20.2644 13.1253 20.2138 13.125 20.1625V16.625C13.125 16.2935 12.9933 15.9755 12.7589 15.7411C12.5245 15.5067 12.2065 15.375 11.875 15.375C11.5435 15.375 11.2255 15.5067 10.9911 15.7411C10.7567 15.9755 10.625 16.2935 10.625 16.625V20.1625C10.6247 20.2138 10.6119 20.2644 10.5878 20.3097C10.5636 20.355 10.5287 20.3937 10.4863 20.4225C10.0403 20.7204 9.70192 21.1539 9.52119 21.6589C9.34047 22.1639 9.32694 22.7136 9.48262 23.2269C9.63829 23.7402 9.95491 24.1898 10.3857 24.5093C10.8165 24.8288 11.3386 25.0013 11.875 25.0013C12.4114 25.0013 12.9335 24.8288 13.3643 24.5093C13.7951 24.1898 14.1117 23.7402 14.2674 23.2269C14.4231 22.7136 14.4095 22.1639 14.2288 21.6589C14.0481 21.1539 13.7097 20.7204 13.2638 20.4225Z" fill="#9FB9C6"/>
<path d="M24.3755 14.3748H21.2505C20.919 14.3748 20.601 14.5065 20.3666 14.7409C20.1322 14.9753 20.0005 15.2932 20.0005 15.6248C20.0005 15.9563 20.1322 16.2742 20.3666 16.5086C20.601 16.7431 20.919 16.8748 21.2505 16.8748H24.3755C24.707 16.8748 25.025 16.7431 25.2594 16.5086C25.4938 16.2742 25.6255 15.9563 25.6255 15.6248C25.6255 15.2932 25.4938 14.9753 25.2594 14.7409C25.025 14.5065 24.707 14.3748 24.3755 14.3748Z" fill="#9FB9C6"/>
</svg>
