<svg width="40" height="40" viewBox="0 0 40 40" fill="none" xmlns="http://www.w3.org/2000/svg">
<circle cx="20" cy="20" r="19.5" fill="white" stroke="#9FB9C6"/>
<g clip-path="url(#clip0_358_1080)">
<path d="M28.5063 29.4804C27.9936 29.4496 27.4954 29.2982 27.0523 29.0383C26.6093 28.7785 26.2339 28.4176 25.9568 27.9852C25.8631 27.8551 25.7395 27.7495 25.5964 27.6773C25.4533 27.6051 25.2949 27.5685 25.1346 27.5706C24.9744 27.5726 24.817 27.6133 24.6758 27.6891C24.5345 27.7649 24.4137 27.8737 24.3234 28.0061C24.0411 28.449 23.6544 28.8159 23.1973 29.0746C22.7402 29.3332 22.2266 29.4759 21.7015 29.4899C21.2297 29.478 20.7695 29.341 20.368 29.0931C19.9664 28.8451 19.6378 28.495 19.4158 28.0785C19.3371 27.937 19.2249 27.8169 19.0892 27.7286C18.9535 27.6403 18.7982 27.5865 18.637 27.5719C18.4757 27.5573 18.3133 27.5822 18.1639 27.6446C18.0145 27.707 17.8826 27.805 17.7796 27.9299C17.4247 28.3828 16.9783 28.7557 16.4697 29.0245C15.961 29.2933 15.4013 29.4519 14.8272 29.4899C14.3024 29.4602 13.7917 29.3087 13.3355 29.0476C12.8793 28.7864 12.4901 28.4227 12.1987 27.9852C12.1128 27.8614 11.9998 27.7588 11.8683 27.6853C11.7368 27.6118 11.5903 27.5692 11.4398 27.5609C11.2894 27.5525 11.1391 27.5786 11.0002 27.6371C10.8614 27.6956 10.7377 27.785 10.6387 27.8985C10.6253 27.9156 9.2501 29.5947 7.67677 29.5175C7.55068 29.5085 7.42406 29.5249 7.30445 29.5658C7.18483 29.6067 7.07466 29.6712 6.98048 29.7555C6.8863 29.8398 6.81004 29.9422 6.75623 30.0566C6.70241 30.171 6.67215 30.295 6.66724 30.4214C6.65867 30.6004 6.70724 31.428 7.78057 31.428C9.1101 31.36 10.371 30.8169 11.3339 29.8975C12.2534 30.836 13.5059 31.3739 14.8196 31.3947C16.1617 31.3707 17.45 30.8635 18.4482 29.9661C18.8596 30.4195 19.362 30.781 19.9226 31.0272C20.4832 31.2733 21.0893 31.3986 21.7015 31.3947C22.9947 31.3918 24.2344 30.8784 25.1511 29.9661C25.5988 30.4352 26.1413 30.8037 26.7425 31.0471C27.3436 31.2904 27.9897 31.4031 28.6377 31.3776C28.8903 31.3601 29.1256 31.2431 29.2919 31.0521C29.4582 30.8612 29.5418 30.612 29.5244 30.3595C29.507 30.1069 29.3899 29.8715 29.199 29.7053C29.008 29.539 28.7589 29.4554 28.5063 29.4728V29.4804Z" fill="#002531"/>
<path d="M11.1593 21.6975C11.4067 21.8727 11.6923 21.9863 11.9925 22.0289C12.2926 22.0714 12.5986 22.0418 12.885 21.9423L19.4183 19.6899C19.4478 19.6797 19.4791 19.6754 19.5102 19.6773C19.5414 19.6792 19.5719 19.6873 19.5999 19.701C19.628 19.7147 19.6531 19.7338 19.6737 19.7573C19.6943 19.7807 19.7102 19.808 19.7202 19.8375L20.9764 23.447C20.988 23.4806 20.992 23.5164 20.988 23.5517C20.9841 23.587 20.9722 23.6209 20.9534 23.6511C20.9346 23.6812 20.9093 23.7067 20.8793 23.7258C20.8494 23.7449 20.8155 23.757 20.7802 23.7613C19.2603 23.9462 17.813 24.5174 16.5764 25.4204C16.475 25.4941 16.3891 25.5871 16.3237 25.694C16.2582 25.801 16.2146 25.9198 16.1952 26.0437C16.1758 26.1676 16.1811 26.2941 16.2107 26.4159C16.2404 26.5378 16.2938 26.6526 16.3678 26.7537C16.5186 26.9561 16.7426 27.0913 16.9919 27.1303C17.2412 27.1693 17.4959 27.109 17.7012 26.9623C18.9348 26.0982 20.3982 25.622 21.904 25.5947H28.5707C28.8233 25.5947 29.0655 25.4943 29.2441 25.3157C29.4227 25.1371 29.5231 24.8949 29.5231 24.6423C29.5231 24.3897 29.4227 24.1475 29.2441 23.9688C29.0655 23.7902 28.8233 23.6899 28.5707 23.6899H23.2469C23.1975 23.6897 23.1494 23.6743 23.1091 23.6456C23.0689 23.6169 23.0385 23.5765 23.0221 23.5299L21.5231 19.2175C21.5127 19.1878 21.5083 19.1564 21.5101 19.125C21.5119 19.0937 21.5199 19.063 21.5336 19.0347C21.5617 18.978 21.6109 18.9345 21.6707 18.9137L28.184 16.6613C28.4659 16.5583 28.7199 16.391 28.9258 16.1726C29.1316 15.9542 29.2836 15.6907 29.3698 15.4032C29.4559 15.1116 29.4704 14.8035 29.412 14.5051C29.3536 14.2066 29.2241 13.9267 29.0345 13.6889C27.7824 12.1202 26.1065 10.9435 24.2057 10.2985C22.3049 9.65344 20.259 9.56718 18.3107 10.0499L17.9907 9.19276C17.9469 9.07557 17.8805 8.96815 17.7952 8.87663C17.7099 8.78511 17.6075 8.71129 17.4936 8.65938C17.3798 8.60747 17.2569 8.57848 17.1319 8.57408C17.0068 8.56967 16.8822 8.58994 16.765 8.63371C16.6478 8.67748 16.5404 8.74391 16.4489 8.8292C16.3573 8.91449 16.2835 9.01697 16.2316 9.13078C16.1268 9.36065 16.1175 9.62275 16.2059 9.85942L16.5136 10.6851C14.6856 11.5026 13.1323 12.8302 12.04 14.5085C10.9477 16.1868 10.3628 18.1446 10.3555 20.147C10.3594 20.4502 10.4341 20.7483 10.5736 21.0175C10.7132 21.2867 10.9137 21.5196 11.1593 21.6975V21.6975ZM27.3183 14.6004C27.3436 14.6299 27.3612 14.6652 27.3698 14.7031C27.3783 14.741 27.3775 14.7805 27.3674 14.818C27.3572 14.8555 27.3381 14.89 27.3116 14.9185C27.2852 14.9469 27.2522 14.9685 27.2155 14.9813L24.524 15.9128C24.474 15.93 24.4196 15.93 24.3695 15.9127C24.3195 15.8955 24.2766 15.8619 24.2478 15.8175C23.3258 14.4234 22.2199 13.1599 20.9602 12.0613C20.923 12.0292 20.8967 11.9863 20.8849 11.9386C20.873 11.8908 20.8763 11.8406 20.8941 11.7948C20.9119 11.749 20.9435 11.7098 20.9845 11.6827C21.0255 11.6555 21.0739 11.6418 21.1231 11.6432C22.3037 11.683 23.4634 11.9661 24.5295 12.475C25.5955 12.9838 26.545 13.7074 27.3183 14.6004V14.6004ZM15.0117 13.9118C15.0487 13.8778 15.0956 13.8564 15.1455 13.8507C15.1955 13.845 15.246 13.8552 15.2898 13.88C15.3336 13.9047 15.3684 13.9427 15.3892 13.9884C15.4101 14.0342 15.416 14.0854 15.4059 14.1347C15.0901 15.7273 14.9904 17.3553 15.1098 18.9747C15.1135 19.0271 15.0999 19.0793 15.0709 19.1232C15.042 19.1671 14.9994 19.2003 14.9498 19.2175L12.585 20.0356C12.5481 20.0479 12.5088 20.051 12.4705 20.0447C12.4322 20.0384 12.396 20.0229 12.365 19.9994C12.3338 19.9762 12.3087 19.9456 12.2921 19.9104C12.2755 19.8752 12.2678 19.8364 12.2698 19.7975C12.371 17.5506 13.3566 15.4349 15.0117 13.9118V13.9118Z" fill="#002531"/>
</g>
<defs>
<clipPath id="clip0_358_1080">
<rect width="22.8571" height="22.8571" fill="white" transform="translate(6.6665 8.57104)"/>
</clipPath>
</defs>
</svg>
