<svg width="40" height="40" viewBox="0 0 40 40" fill="none" xmlns="http://www.w3.org/2000/svg">
<circle cx="20" cy="20" r="19.5" fill="white" stroke="#9FB9C6"/>
<g clip-path="url(#clip0_358_1104)">
<path d="M30.9522 22.8493H29.0474C28.9211 22.8493 28.8 22.7991 28.7107 22.7098C28.6214 22.6205 28.5712 22.4994 28.5712 22.3731V21.8969C28.5712 21.7706 28.6214 21.6495 28.7107 21.5602C28.8 21.4709 28.9211 21.4207 29.0474 21.4207H30.476C30.5594 21.4207 30.6413 21.3987 30.7136 21.3571C30.7858 21.3155 30.8459 21.2556 30.8877 21.1835C30.9296 21.1114 30.9518 21.0295 30.952 20.9461C30.9523 20.8627 30.9307 20.7807 30.8893 20.7083L29.6931 18.6131C29.6627 18.5594 29.6468 18.4986 29.6472 18.4369C29.6475 18.3752 29.664 18.3146 29.695 18.2612C29.726 18.2079 29.7705 18.1636 29.824 18.1327C29.8775 18.1019 29.9381 18.0856 29.9998 18.0855C30.0848 18.0855 30.1683 18.0627 30.2415 18.0196C30.3147 17.9764 30.3751 17.9145 30.4163 17.8401C30.4575 17.7658 30.4781 17.6817 30.4758 17.5968C30.4736 17.5118 30.4487 17.429 30.4036 17.3569L28.0227 13.5474C27.977 13.4827 27.9165 13.43 27.8463 13.3935C27.776 13.3571 27.698 13.3381 27.6189 13.3381C27.5397 13.3381 27.4617 13.3571 27.3915 13.3935C27.3212 13.43 27.2607 13.4827 27.215 13.5474L24.8341 17.3569C24.789 17.429 24.7641 17.5118 24.7619 17.5968C24.7596 17.6817 24.7802 17.7658 24.8214 17.8401C24.8626 17.9145 24.923 17.9764 24.9962 18.0196C25.0694 18.0627 25.1529 18.0855 25.2379 18.0855C25.2996 18.0856 25.3603 18.1019 25.4137 18.1327C25.4672 18.1636 25.5117 18.2079 25.5427 18.2612C25.5737 18.3146 25.5902 18.3752 25.5905 18.4369C25.5909 18.4986 25.575 18.5594 25.5446 18.6131L24.3484 20.7083C24.307 20.7807 24.2854 20.8627 24.2857 20.9461C24.286 21.0295 24.3081 21.1114 24.35 21.1835C24.3918 21.2556 24.4519 21.3155 24.5241 21.3571C24.5964 21.3987 24.6783 21.4207 24.7617 21.4207H26.1903C26.3166 21.4207 26.4377 21.4709 26.527 21.5602C26.6163 21.6495 26.6665 21.7706 26.6665 21.8969V22.6874C26.6664 22.7929 26.6314 22.8955 26.5667 22.9789C26.5021 23.0623 26.4115 23.1219 26.3093 23.1483C24.4433 23.6773 22.7084 24.5904 21.216 25.8293C21.1829 25.8559 21.1575 25.891 21.1425 25.9308C21.1275 25.9706 21.1234 26.0137 21.1307 26.0556C21.138 26.0975 21.1564 26.1366 21.184 26.169C21.2115 26.2014 21.2472 26.2258 21.2874 26.2397C23.3745 26.8895 25.2459 28.094 26.7017 29.7245C26.9869 30.0671 27.143 30.4988 27.1427 30.9445C27.1427 31.0708 27.1928 31.1919 27.2821 31.2812C27.3714 31.3705 27.4926 31.4207 27.6189 31.4207H30.9522C31.0785 31.4207 31.1996 31.3705 31.2889 31.2812C31.3782 31.1919 31.4284 31.0708 31.4284 30.9445V23.3255C31.4284 23.1992 31.3782 23.078 31.2889 22.9887C31.1996 22.8994 31.0785 22.8493 30.9522 22.8493Z" fill="#002531"/>
<path d="M16.6237 26.7247C16.5049 26.714 16.3946 26.6591 16.3143 26.5709C16.2341 26.4828 16.1899 26.3677 16.1903 26.2485V24.7542C16.1903 24.6279 16.2405 24.5068 16.3298 24.4175C16.4191 24.3282 16.5402 24.278 16.6665 24.278H19.5618C19.736 24.2781 19.907 24.2303 20.056 24.1398C20.205 24.0494 20.3263 23.9199 20.4068 23.7653C20.4872 23.6106 20.5237 23.4369 20.5122 23.263C20.5008 23.0891 20.4418 22.9217 20.3418 22.779L18.4008 20.0066C18.368 19.9599 18.3487 19.9051 18.3449 19.8482C18.3411 19.7913 18.353 19.7344 18.3794 19.6838C18.4057 19.6332 18.4454 19.5908 18.4942 19.5612C18.543 19.5316 18.599 19.516 18.6561 19.5161C18.8268 19.5162 18.9943 19.4704 19.1413 19.3835C19.2882 19.2966 19.4091 19.1718 19.4912 19.0222C19.5734 18.8725 19.6139 18.7036 19.6083 18.5329C19.6028 18.3623 19.5515 18.1963 19.4599 18.0523L17.3046 14.6666C17.2435 14.5695 17.2195 14.4536 17.237 14.3402C17.2545 14.2269 17.3123 14.1236 17.3999 14.0495C17.5708 13.9031 17.6843 13.7009 17.7204 13.4789C17.7565 13.2568 17.7128 13.0291 17.597 12.8361L15.1703 8.79422C15.1249 8.72783 15.0639 8.67352 14.9927 8.63599C14.9215 8.59847 14.8422 8.57886 14.7618 8.57886C14.6813 8.57886 14.602 8.59847 14.5308 8.63599C14.4596 8.67352 14.3987 8.72783 14.3532 8.79422L11.9294 12.8352C11.8136 13.0281 11.7699 13.2558 11.806 13.4779C11.8421 13.7 11.9556 13.9021 12.1265 14.0485C12.2143 14.1227 12.2723 14.2261 12.2898 14.3397C12.3073 14.4533 12.2832 14.5694 12.2218 14.6666L10.0627 18.0533C9.97125 18.1973 9.92018 18.3633 9.91482 18.5339C9.90947 18.7044 9.95004 18.8733 10.0323 19.0228C10.1145 19.1723 10.2354 19.297 10.3824 19.3838C10.5293 19.4705 10.6968 19.5163 10.8675 19.5161C10.9245 19.516 10.9805 19.5316 11.0293 19.5612C11.0781 19.5908 11.1178 19.6332 11.1442 19.6838C11.1705 19.7344 11.1824 19.7913 11.1786 19.8482C11.1749 19.9051 11.1555 19.9599 11.1227 20.0066L9.18177 22.779C9.08173 22.9217 9.02277 23.0891 9.01131 23.263C8.99985 23.4369 9.03633 23.6106 9.11677 23.7653C9.19722 23.9199 9.31855 24.0494 9.46754 24.1398C9.61653 24.2303 9.78748 24.2781 9.96177 24.278H12.857C12.9833 24.278 13.1044 24.3282 13.1937 24.4175C13.283 24.5068 13.3332 24.6279 13.3332 24.7542V26.4056C13.333 26.5161 13.2944 26.623 13.224 26.7082C13.1537 26.7933 13.0559 26.8513 12.9475 26.8723C11.4528 27.1712 10.0355 27.7741 8.78367 28.6437C8.71838 28.6872 8.66484 28.7461 8.62779 28.8152C8.59074 28.8843 8.57133 28.9615 8.57129 29.0399V30.9447C8.57129 31.071 8.62146 31.1921 8.71076 31.2814C8.80007 31.3707 8.92119 31.4209 9.04748 31.4209H25.238C25.3286 31.421 25.4174 31.3952 25.4939 31.3466C25.5705 31.298 25.6315 31.2286 25.6699 31.1464C25.7083 31.0643 25.7225 30.973 25.7108 30.8831C25.699 30.7932 25.6619 30.7085 25.6037 30.639C23.3922 27.9856 19.3913 26.9752 16.6237 26.7247Z" fill="#002531"/>
</g>
<defs>
<clipPath id="clip0_358_1104">
<rect width="22.8571" height="22.8571" fill="white" transform="translate(8.57129 8.57129)"/>
</clipPath>
</defs>
</svg>
