<svg width="40" height="40" viewBox="0 0 40 40" fill="none" xmlns="http://www.w3.org/2000/svg">
<circle cx="20" cy="20" r="19.5" fill="white" stroke="#9FB9C6"/>
<g clip-path="url(#clip0_358_1085)">
<path d="M29.0218 23.0676C29.04 22.8252 28.9836 22.5831 28.8602 22.3738C28.7368 22.1644 28.5523 21.9978 28.3314 21.8964C28.1105 21.795 27.8639 21.7636 27.6247 21.8065C27.3855 21.8493 27.1651 21.9644 26.9932 22.1361L25.517 23.6123C25.3852 23.7445 25.2951 23.9126 25.258 24.0956C25.2208 24.2786 25.2383 24.4684 25.3082 24.6415C25.3782 24.8147 25.4974 24.9634 25.6512 25.0693C25.805 25.1752 25.9865 25.2335 26.1732 25.2371C26.2135 25.238 26.253 25.2491 26.2879 25.2692C26.3228 25.2893 26.3522 25.3179 26.3732 25.3523C26.3942 25.3868 26.406 25.4261 26.4075 25.4665C26.409 25.5068 26.4002 25.5469 26.3818 25.5828C25.9007 26.5291 25.2165 27.3572 24.3779 28.0081C23.5394 28.6589 22.5673 29.1163 21.5313 29.3476C21.4617 29.363 21.3896 29.3625 21.3202 29.3464C21.2508 29.3302 21.1859 29.2986 21.1304 29.254C21.0748 29.2094 21.03 29.1529 20.9991 29.0886C20.9683 29.0244 20.9523 28.9541 20.9522 28.8828V19.8828C20.9522 19.7565 21.0024 19.6354 21.0917 19.5461C21.181 19.4568 21.3021 19.4066 21.4284 19.4066H24.2856C24.5382 19.4066 24.7804 19.3063 24.959 19.1277C25.1376 18.9491 25.238 18.7068 25.238 18.4542C25.238 18.2017 25.1376 17.9594 24.959 17.7808C24.7804 17.6022 24.5382 17.5019 24.2856 17.5019H21.4284C21.3021 17.5019 21.181 17.4517 21.0917 17.3624C21.0024 17.2731 20.9522 17.152 20.9522 17.0257V15.419C20.9523 15.3243 20.9806 15.2317 21.0335 15.1532C21.0865 15.0746 21.1616 15.0137 21.2494 14.9781C21.9666 14.6881 22.5606 14.1576 22.9296 13.4777C23.2986 12.7978 23.4196 12.0107 23.2719 11.2513C23.1242 10.4919 22.7169 9.80758 22.12 9.31555C21.523 8.82352 20.7735 8.55444 19.9999 8.55444C19.2263 8.55444 18.4767 8.82352 17.8798 9.31555C17.2828 9.80758 16.8756 10.4919 16.7279 11.2513C16.5802 12.0107 16.7012 12.7978 17.0702 13.4777C17.4391 14.1576 18.0331 14.6881 18.7503 14.9781C18.8381 15.0137 18.9133 15.0746 18.9662 15.1532C19.0191 15.2317 19.0474 15.3243 19.0475 15.419V17.0257C19.0475 17.152 18.9973 17.2731 18.908 17.3624C18.8187 17.4517 18.6976 17.5019 18.5713 17.5019H15.7142C15.4616 17.5019 15.2193 17.6022 15.0407 17.7808C14.8621 17.9594 14.7618 18.2017 14.7618 18.4542C14.7618 18.7068 14.8621 18.9491 15.0407 19.1277C15.2193 19.3063 15.4616 19.4066 15.7142 19.4066H18.5713C18.6976 19.4066 18.8187 19.4568 18.908 19.5461C18.9973 19.6354 19.0475 19.7565 19.0475 19.8828V28.8828C19.0475 28.9541 19.0314 29.0244 19.0006 29.0886C18.9698 29.1529 18.9249 29.2094 18.8694 29.254C18.8138 29.2986 18.7489 29.3302 18.6795 29.3464C18.6102 29.3625 18.538 29.363 18.4684 29.3476C17.4326 29.1162 16.4607 28.6587 15.6224 28.0079C14.784 27.3571 14.0999 26.5289 13.6189 25.5828C13.6007 25.5469 13.5919 25.5069 13.5933 25.4666C13.5948 25.4264 13.6064 25.3871 13.6272 25.3526C13.6479 25.318 13.6771 25.2893 13.712 25.2691C13.7468 25.2489 13.7862 25.2379 13.8265 25.2371C14.0133 25.2337 14.1949 25.1755 14.3489 25.0697C14.5028 24.9639 14.6222 24.8151 14.6922 24.642C14.7623 24.4688 14.7799 24.2789 14.7428 24.0958C14.7057 23.9127 14.6156 23.7446 14.4837 23.6123L13.0046 22.1342C12.8325 21.963 12.6121 21.8485 12.373 21.8061C12.134 21.7637 11.8876 21.7954 11.6671 21.897C11.4466 21.9985 11.2624 22.1651 11.1392 22.3743C11.016 22.5836 10.9598 22.8255 10.978 23.0676C11.1499 25.3427 12.175 27.4688 13.848 29.0202C15.5209 30.5715 17.7183 31.4335 19.9999 31.4335C22.2814 31.4335 24.4788 30.5715 26.1518 29.0202C27.8248 27.4688 28.8499 25.3427 29.0218 23.0676V23.0676ZM18.5713 11.9047C18.5713 11.6222 18.6551 11.346 18.8121 11.111C18.969 10.8761 19.1921 10.693 19.4532 10.5849C19.7142 10.4768 20.0015 10.4485 20.2786 10.5036C20.5557 10.5587 20.8102 10.6948 21.01 10.8946C21.2098 11.0944 21.3459 11.3489 21.401 11.626C21.4561 11.9031 21.4278 12.1904 21.3197 12.4514C21.2116 12.7124 21.0285 12.9356 20.7935 13.0925C20.5586 13.2495 20.2824 13.3333 19.9999 13.3333C19.621 13.3333 19.2576 13.1828 18.9897 12.9149C18.7218 12.647 18.5713 12.2836 18.5713 11.9047Z" fill="#002531"/>
</g>
<defs>
<clipPath id="clip0_358_1085">
<rect width="22.8571" height="22.8571" fill="white" transform="translate(8.57129 8.57129)"/>
</clipPath>
</defs>
</svg>
