<svg width="40" height="40" viewBox="0 0 40 40" fill="none" xmlns="http://www.w3.org/2000/svg">
<circle cx="20" cy="20" r="19.5" fill="white" stroke="#9FB9C6"/>
<g clip-path="url(#clip0_358_1109)">
<path d="M18.6864 13.1598L26.2245 16.7617C26.2621 16.7796 26.3037 16.7874 26.3451 16.7842C26.3866 16.781 26.4266 16.767 26.461 16.7436C26.4953 16.7202 26.523 16.6882 26.5412 16.6508C26.5593 16.6133 26.5674 16.5718 26.5645 16.5303C26.335 13.0474 25.3083 10.1598 24.3359 9.05505C24.0974 8.78592 23.7665 8.6162 23.4088 8.57951C23.0511 8.54282 22.6927 8.64184 22.4045 8.85695C21.0136 9.9233 19.7206 11.1115 18.5407 12.4074C18.4904 12.4623 18.4537 12.5282 18.4334 12.5998C18.4132 12.6714 18.4101 12.7468 18.4242 12.8199C18.4384 12.8929 18.4695 12.9616 18.515 13.0205C18.5606 13.0794 18.6193 13.1268 18.6864 13.1589V13.1598Z" fill="#002531"/>
<path d="M15.1161 17.8685L26.2713 23.2018C26.3076 23.2192 26.3476 23.2271 26.3878 23.2248C26.4279 23.2225 26.4668 23.2101 26.5009 23.1887C26.5349 23.1673 26.563 23.1376 26.5824 23.1025C26.6019 23.0673 26.6122 23.0278 26.6123 22.9876V18.8342C26.6123 18.7444 26.5869 18.6564 26.539 18.5804C26.4912 18.5044 26.4228 18.4435 26.3418 18.4047L17.5027 14.178C17.4051 14.1313 17.2944 14.1192 17.189 14.1438C17.0835 14.1684 16.9896 14.2282 16.9227 14.3133C16.1998 15.2331 15.5298 16.1934 14.9161 17.1895C14.8811 17.2463 14.8585 17.3099 14.8496 17.376C14.8408 17.4422 14.846 17.5095 14.8649 17.5735C14.8837 17.6375 14.9158 17.6969 14.9591 17.7477C15.0024 17.7985 15.0559 17.8397 15.1161 17.8685V17.8685Z" fill="#002531"/>
<path d="M29.5093 28.0704C29.4235 27.9327 29.3041 27.819 29.1624 27.74C29.0206 27.6611 28.8611 27.6194 28.6989 27.619H27.0884C26.9621 27.619 26.841 27.5688 26.7517 27.4795C26.6624 27.3902 26.6122 27.2691 26.6122 27.1428V25.2513C26.6124 25.1614 26.5871 25.0732 26.5392 24.997C26.4913 24.9208 26.4229 24.8597 26.3417 24.8209L14.3598 19.0913C14.2477 19.0375 14.1189 19.0297 14.0011 19.0696C13.8833 19.1094 13.7857 19.1938 13.7293 19.3047C12.9814 20.7743 12.3659 22.3077 11.8903 23.8866C11.8189 24.1239 11.8428 24.3797 11.957 24.5997C12.0711 24.8196 12.2666 24.9865 12.5017 25.0647C12.6684 25.1199 16.5322 26.379 24.1817 26.5275C24.3223 26.5303 24.4561 26.5881 24.5544 26.6886C24.6528 26.789 24.7077 26.9241 24.7074 27.0647C24.7074 27.2114 24.6491 27.3522 24.5454 27.4559C24.4416 27.5597 24.3009 27.618 24.1541 27.618H11.3008C11.1198 27.6183 10.9426 27.6701 10.7901 27.7674C10.6375 27.8648 10.5158 28.0036 10.4392 28.1675C10.3627 28.3315 10.3345 28.5139 10.3578 28.6934C10.3812 28.8729 10.4552 29.0419 10.5712 29.1809V29.1809C12.4293 31.4018 15.9855 31.4285 16.136 31.4285H27.7465C27.9236 31.4292 28.0974 31.3803 28.2481 31.2872C28.3987 31.1941 28.5203 31.0605 28.5989 30.9018L29.5512 28.997C29.6238 28.8518 29.6581 28.6905 29.6507 28.5283C29.6434 28.3661 29.5947 28.2085 29.5093 28.0704Z" fill="#002531"/>
</g>
<defs>
<clipPath id="clip0_358_1109">
<rect width="22.8571" height="22.8571" fill="white" transform="translate(8.57129 8.57129)"/>
</clipPath>
</defs>
</svg>
