<svg width="24" height="24" viewBox="0 0 24 24" fill="none" xmlns="http://www.w3.org/2000/svg">
<g clip-path="url(#clip0_255_2107)">
<path d="M19.4998 10.0001C19.4998 9.89651 19.4677 9.79547 19.4079 9.71092C19.3481 9.62637 19.2635 9.56248 19.1658 9.52809L10.6658 6.52809C10.5713 6.49423 10.4687 6.48959 10.3716 6.51479C10.2744 6.53998 10.1871 6.59385 10.1209 6.66938C10.0548 6.7449 10.0129 6.83858 10.0008 6.93823C9.98859 7.03788 10.0067 7.13889 10.0528 7.22809L11.3848 9.89209C11.4025 9.92677 11.4117 9.96515 11.4117 10.0041C11.4117 10.043 11.4025 10.0814 11.3848 10.1161L10.7418 11.4001C10.7261 11.4316 10.7172 11.466 10.7157 11.5012C10.7142 11.5363 10.7201 11.5714 10.733 11.6041C10.7459 11.6368 10.7656 11.6664 10.7907 11.6911C10.8158 11.7157 10.8458 11.7348 10.8788 11.7471C11.4418 11.9553 11.9509 12.2871 12.3688 12.7181C12.4022 12.7523 12.4447 12.7763 12.4912 12.7873C12.5378 12.7983 12.5866 12.7958 12.6318 12.7801L19.1658 10.4741C19.2638 10.4396 19.3486 10.3754 19.4085 10.2905C19.4683 10.2055 19.5002 10.104 19.4998 10.0001Z" fill="#9FB9C6"/>
<path d="M24 9.9999C24 8.49666 23.6611 7.01276 23.0084 5.65857C22.3558 4.30439 21.4063 3.11476 20.2305 2.17817C19.0547 1.24157 17.6828 0.58212 16.217 0.248851C14.7512 -0.0844177 13.2291 -0.0829255 11.7639 0.253217C10.2987 0.589359 8.92816 1.2515 7.75419 2.1904C6.58022 3.12929 5.63303 4.32078 4.98306 5.67625C4.3331 7.03171 3.99709 8.51627 4.00002 10.0195C4.00295 11.5227 4.34475 13.006 5 14.3589C5.02048 14.4012 5.05244 14.4368 5.09223 14.4617C5.13203 14.4867 5.17804 14.4999 5.225 14.4999H6.761C6.79573 14.4997 6.83005 14.4924 6.86186 14.4785C6.89367 14.4646 6.9223 14.4443 6.946 14.4189C6.96941 14.3931 6.98719 14.3627 6.99821 14.3296C7.00923 14.2966 7.01324 14.2616 7.01 14.2269C7 14.1529 7 14.0769 7 13.9999V13.9399C7.0009 13.8962 6.99021 13.8531 6.969 13.8149C6.1335 12.2749 5.82665 10.5032 6.09557 8.77196C6.36449 7.04069 7.19432 5.44557 8.45761 4.23159C9.72089 3.01762 11.3478 2.25192 13.0884 2.0521C14.829 1.85228 16.587 2.22939 18.0926 3.1255C19.5981 4.02162 20.7678 5.38719 21.422 7.01248C22.0763 8.63777 22.1789 10.4329 21.7141 12.1222C21.2493 13.8114 20.2429 15.3014 18.8493 16.3632C17.4557 17.4251 15.752 18.0001 14 17.9999C13.9651 18.0001 13.9312 18.0112 13.9029 18.0317C13.8747 18.0522 13.8536 18.081 13.8426 18.1141C13.8315 18.1472 13.8311 18.1829 13.8414 18.2162C13.8517 18.2495 13.8722 18.2788 13.9 18.2999C14.413 18.686 14.8264 19.1889 15.106 19.7669C15.1292 19.8143 15.1667 19.8531 15.2131 19.8781C15.2596 19.903 15.3127 19.9127 15.365 19.9059C17.7566 19.573 19.9475 18.3872 21.5342 16.567C23.1209 14.7468 23.9965 12.4146 24 9.9999Z" fill="#9FB9C6"/>
<path d="M11.5 19H1C0.734784 19 0.48043 19.1054 0.292893 19.2929C0.105357 19.4804 0 19.7348 0 20C0 20.2652 0.105357 20.5196 0.292893 20.7071C0.48043 20.8946 0.734784 21 1 21H11.5C11.6326 21 11.7598 21.0527 11.8536 21.1464C11.9473 21.2402 12 21.3674 12 21.5C12 21.6326 11.9473 21.7598 11.8536 21.8536C11.7598 21.9473 11.6326 22 11.5 22C11.2348 22 10.9804 22.1054 10.7929 22.2929C10.6054 22.4804 10.5 22.7348 10.5 23C10.5 23.2652 10.6054 23.5196 10.7929 23.7071C10.9804 23.8946 11.2348 24 11.5 24C12.163 24 12.7989 23.7366 13.2678 23.2678C13.7366 22.7989 14 22.163 14 21.5C14 20.837 13.7366 20.2011 13.2678 19.7322C12.7989 19.2634 12.163 19 11.5 19Z" fill="#9FB9C6"/>
<path d="M1 18H9.5C10.163 18 10.7989 17.7366 11.2678 17.2678C11.7366 16.7989 12 16.163 12 15.5C12 14.837 11.7366 14.2011 11.2678 13.7322C10.7989 13.2634 10.163 13 9.5 13C9.23478 13 8.98043 13.1054 8.79289 13.2929C8.60536 13.4804 8.5 13.7348 8.5 14C8.5 14.2652 8.60536 14.5196 8.79289 14.7071C8.98043 14.8946 9.23478 15 9.5 15C9.63261 15 9.75979 15.0527 9.85355 15.1464C9.94732 15.2402 10 15.3674 10 15.5C10 15.6326 9.94732 15.7598 9.85355 15.8536C9.75979 15.9473 9.63261 16 9.5 16H1C0.734784 16 0.48043 16.1054 0.292893 16.2929C0.105357 16.4804 0 16.7348 0 17C0 17.2652 0.105357 17.5196 0.292893 17.7071C0.48043 17.8946 0.734784 18 1 18Z" fill="#9FB9C6"/>
</g>
<defs>
<clipPath id="clip0_255_2107">
<rect width="24" height="24" fill="white"/>
</clipPath>
</defs>
</svg>
