<svg width="24" height="24" viewBox="0 0 24 24" fill="none" xmlns="http://www.w3.org/2000/svg">
<g clip-path="url(#clip0_255_2100)">
<path d="M22.732 5.863L8.487 0.215C8.18332 0.0951452 7.85496 0.0512614 7.53046 0.0871619C7.20596 0.123062 6.89514 0.237661 6.625 0.421C6.35741 0.602228 6.13818 0.846112 5.98637 1.13142C5.83457 1.41673 5.7548 1.73482 5.754 2.058C5.75209 2.0983 5.74044 2.13755 5.72007 2.17237C5.6997 2.2072 5.67119 2.23658 5.637 2.258L2.383 4.3C2.34543 4.32361 2.30226 4.33679 2.25792 4.3382C2.21357 4.33961 2.16965 4.3292 2.13066 4.30802C2.09167 4.28685 2.05902 4.25568 2.03606 4.21772C2.0131 4.17975 2.00065 4.13636 2 4.092V1C2 0.734784 1.89464 0.48043 1.70711 0.292893C1.51957 0.105357 1.26522 0 1 0C0.734784 0 0.48043 0.105357 0.292893 0.292893C0.105357 0.48043 0 0.734784 0 1L0 23C0 23.2652 0.105357 23.5196 0.292893 23.7071C0.48043 23.8946 0.734784 24 1 24C1.26522 24 1.51957 23.8946 1.70711 23.7071C1.89464 23.5196 2 23.2652 2 23V11.647C1.99995 11.6054 2.01029 11.5644 2.0301 11.5278C2.0499 11.4912 2.07853 11.4601 2.1134 11.4373C2.14826 11.4146 2.18826 11.4009 2.22975 11.3975C2.27124 11.3941 2.31292 11.4012 2.351 11.418L5.6 12.859C5.6443 12.8784 5.68198 12.9103 5.70844 12.9508C5.7349 12.9913 5.74899 13.0386 5.749 13.087V13.428C5.74904 13.7547 5.82914 14.0765 5.98229 14.3651C6.13543 14.6538 6.35696 14.9005 6.6275 15.0837C6.89804 15.2669 7.20936 15.3811 7.53421 15.4162C7.85907 15.4513 8.18757 15.4062 8.491 15.285L22.735 9.585C23.108 9.43756 23.4281 9.18136 23.6537 8.84967C23.8793 8.51798 23.9999 8.12612 23.9999 7.725C23.9999 7.32388 23.8793 6.93202 23.6537 6.60033C23.4281 6.26864 23.108 6.01244 22.735 5.865L22.732 5.863ZM10.25 3.432C10.2501 3.39126 10.2601 3.35116 10.2792 3.31518C10.2983 3.2792 10.3259 3.24844 10.3597 3.22557C10.3934 3.2027 10.4322 3.18841 10.4727 3.18396C10.5131 3.1795 10.5541 3.18501 10.592 3.2L12.092 3.794C12.1385 3.81253 12.1783 3.84451 12.2065 3.88585C12.2346 3.92719 12.2498 3.97599 12.25 4.026V11.461C12.25 11.5109 12.235 11.5597 12.207 11.6011C12.1791 11.6424 12.1393 11.6744 12.093 11.693L10.593 12.293C10.5551 12.3082 10.514 12.3139 10.4734 12.3095C10.4327 12.3052 10.3938 12.2909 10.3599 12.268C10.3261 12.2451 10.2984 12.2143 10.2792 12.1782C10.26 12.1421 10.25 12.1019 10.25 12.061V3.432ZM17.092 5.773C17.1386 5.79159 17.1786 5.82373 17.2067 5.86526C17.2349 5.9068 17.25 5.95582 17.25 6.006V9.462C17.25 9.51193 17.235 9.56071 17.207 9.60206C17.1791 9.6434 17.1393 9.67543 17.093 9.694L15.593 10.294C15.555 10.309 15.5139 10.3144 15.4733 10.3099C15.4327 10.3053 15.3938 10.291 15.36 10.268C15.3261 10.2452 15.2983 10.2144 15.2791 10.1783C15.2599 10.1422 15.2499 10.1019 15.25 10.061V5.412C15.2501 5.37126 15.26 5.33114 15.279 5.29508C15.298 5.25903 15.3255 5.22812 15.359 5.205C15.3929 5.18227 15.4318 5.16804 15.4723 5.16351C15.5129 5.15898 15.5539 5.1643 15.592 5.179L17.092 5.773ZM2.149 9.146C2.10391 9.12624 2.0657 9.09356 2.03918 9.05209C2.01266 9.01062 1.99902 8.96222 2 8.913V7.046C1.99983 7.00376 2.0105 6.96218 2.03098 6.92524C2.05147 6.8883 2.08108 6.85723 2.117 6.835L5.368 4.791C5.40564 4.76735 5.4489 4.75416 5.49333 4.7528C5.53776 4.75143 5.58175 4.76193 5.62077 4.78323C5.65979 4.80452 5.69242 4.83583 5.71531 4.87393C5.73821 4.91203 5.75052 4.95555 5.751 5V10.351C5.75131 10.3927 5.74113 10.4339 5.7214 10.4706C5.70166 10.5074 5.67301 10.5386 5.63806 10.5614C5.60312 10.5842 5.563 10.5978 5.52141 10.6011C5.47981 10.6043 5.43806 10.5971 5.4 10.58L2.149 9.146Z" fill="#9FB9C6"/>
</g>
<defs>
<clipPath id="clip0_255_2100">
<rect width="24" height="24" fill="white"/>
</clipPath>
</defs>
</svg>
