<svg width="40" height="43" viewBox="0 0 40 43" fill="none" xmlns="http://www.w3.org/2000/svg">
<g clip-path="url(#clip0_265_6323)">
<path d="M36.859 11.6007V11.6007C37.2131 11.6007 37.4253 11.8987 37.4253 12.2032C37.4253 12.3586 37.3726 12.5036 37.2659 12.6102C37.1592 12.7168 37.0143 12.7694 36.859 12.7694C36.859 12.7694 36.859 12.7694 36.859 12.7694L32.4605 12.7697C32.3684 13.1874 31.9946 13.5019 31.55 13.5019H30.3508C30.6851 14.5661 31.8179 15.1666 32.8856 14.8674C33.549 14.6678 34.0456 14.1733 34.2478 13.5114C34.3112 13.1803 34.6447 13.0061 34.9356 13.1084C35.2664 13.176 35.4377 13.5145 35.3277 13.8059C35.0129 14.8581 34.1932 15.6353 33.1833 15.9461L33.1731 15.9492L33.173 15.9489C32.8669 16.0255 32.5943 16.0647 32.2825 16.0647C30.9169 16.0647 29.6266 15.1686 29.2343 13.7961L29.2343 13.7961C28.9994 12.9737 29.118 12.1154 29.5061 11.3781L36.859 11.6007ZM36.859 11.6007H35.1612C34.5305 10.1923 32.9027 9.43377 31.3874 9.8505L31.3874 9.85049L31.3855 9.85103C30.5635 10.0858 29.8973 10.6345 29.5061 11.3781L36.859 11.6007ZM30.7417 11.5639C31 11.2788 31.3396 11.0572 31.7192 10.9299C32.5275 10.7006 33.3329 10.969 33.8375 11.5639H30.7417Z" fill="#4D666F" stroke="#4D666F" stroke-width="0.4"/>
<path d="M28.4215 22.7125L28.4212 22.7123C28.363 22.7999 28.2808 22.8661 28.1986 22.9104C28.1173 22.9541 28.0207 22.9847 27.9252 22.9847L28.4215 22.7125ZM28.4215 22.7125L28.4273 22.7025M28.4215 22.7125L28.4273 22.7025M28.4273 22.7025L29.5618 20.7629M28.4273 22.7025L29.5618 20.7629M29.5618 20.7629C29.7362 20.4706 29.6081 20.1343 29.3462 19.977L29.3461 19.977C29.0536 19.8016 28.7167 19.9298 28.5592 20.1919L28.5592 20.1919L28.5581 20.1939L27.4236 22.1335C27.2491 22.4258 27.3773 22.7621 27.6391 22.9194L27.6456 22.9233L27.6524 22.9267C27.702 22.9516 27.7487 22.9686 27.8006 22.9773C27.8449 22.9847 27.8874 22.9847 27.9195 22.9847C27.9215 22.9847 27.9234 22.9847 27.9252 22.9847L29.5618 20.7629Z" fill="#4D666F" stroke="#4D666F" stroke-width="0.4"/>
<path d="M34.0205 17.0242C34.4291 17.3736 34.7358 17.8748 34.8573 18.4208L34.8573 18.4209C35.0126 19.1202 34.9375 19.8329 34.5779 20.433C34.5777 20.4334 34.5774 20.4339 34.5771 20.4343L31.4665 25.8137L31.4649 25.8164C30.9906 26.6071 30.1209 27.1218 29.1698 27.1218L22.7326 27.1215L19.5317 32.6962L19.531 32.6974C19.2377 33.1999 18.6951 33.4923 18.15 33.4923C17.8913 33.4923 17.6041 33.4077 17.3648 33.2881L17.3536 33.2824L17.3538 33.2821L14.2052 31.4515L14.2051 31.4514L10.1046 29.0718L10.1031 29.0709C8.34675 28.0316 6.44721 27.239 4.47352 26.6591V26.7022C4.47352 29.7568 6.27654 32.4933 9.07448 33.7149L18.1496 33.7141C18.6117 33.7141 19.0433 33.5499 19.4131 33.2478C20.4427 32.3777 21.9466 32.4185 22.9349 33.3277L22.9366 33.3292C23.4795 33.8403 24.3868 33.8459 24.9722 33.3264C25.9637 32.4157 27.5438 32.4157 28.5353 33.3264C28.8267 33.5848 29.1812 33.7142 29.573 33.7142C29.7284 33.7142 29.8734 33.7668 29.98 33.8735C30.0866 33.9802 30.1392 34.1252 30.1392 34.2804C30.1392 34.4358 30.0865 34.5808 29.9799 34.6874C29.8732 34.794 29.7282 34.8466 29.573 34.8466C28.8956 34.8466 28.2626 34.5682 27.7903 34.1351L27.7884 34.1333C27.2455 33.6223 26.3383 33.6167 25.7529 34.1361C24.7609 35.0474 23.1798 35.047 22.1884 34.1349L22.1867 34.1334C21.6431 33.6219 20.7693 33.6161 20.1828 34.104C19.6355 34.5726 18.9313 34.8469 18.1866 34.8469H8.96017H8.95798C8.93959 34.8469 8.89823 34.847 8.8542 34.8396C8.82095 34.8341 8.76379 34.8211 8.71001 34.7834C5.42933 33.3555 3.3415 30.1785 3.3415 26.6288V26.4091C3.3415 26.3364 3.36057 26.2818 3.374 26.2482L3.37802 26.2383V26.2304L3.38824 26.1997C3.47599 25.9359 3.65412 25.7105 3.92107 25.5748C4.15004 25.44 4.4622 25.3957 4.73675 25.4863C6.79993 26.1128 8.79004 26.9607 10.6697 28.0294L10.6715 28.0304L10.6715 28.0305L13.8283 29.869C14.0301 29.5748 14.3646 29.3579 14.7448 29.3579H15.7334C15.8888 29.3579 16.0338 29.4106 16.1404 29.5173C16.247 29.6239 16.2996 29.7689 16.2996 29.9241C16.2996 30.0795 16.2469 30.2245 16.1402 30.3312C16.0336 30.4378 15.8886 30.4904 15.7334 30.4904H14.9102L17.9191 32.2397C18.0375 32.305 18.162 32.3149 18.2698 32.2789C18.3769 32.2433 18.483 32.1571 18.5537 32.0017L18.5576 31.993L18.5624 31.9848L21.9308 26.1266L21.9373 26.1153L21.9376 26.1155C22.0415 25.9594 22.2097 25.8432 22.4336 25.8432H29.1338C29.6497 25.8432 30.1682 25.5504 30.4245 25.1019L30.425 25.101L33.5372 19.7189L33.5416 19.7114L33.5465 19.7043C33.7605 19.3987 33.7996 18.9868 33.6995 18.586C33.6039 18.2037 33.3485 17.8822 32.9923 17.6879L32.9888 17.686L32.9888 17.686C32.7645 17.5578 32.5061 17.4927 32.246 17.4927H28.1087L28.103 17.4927C28.0708 17.4927 28.0284 17.4927 27.9843 17.4854C27.9325 17.4768 27.8859 17.4599 27.8363 17.4352L27.8248 17.4294L27.825 17.429L24.237 15.342L24.2269 15.3361L24.2175 15.329C24.1434 15.2735 24.0379 15.2599 23.8822 15.2884C23.7349 15.3503 23.6429 15.4312 23.601 15.5148L23.593 15.5309L23.5822 15.5453C23.5266 15.6193 23.513 15.7249 23.5416 15.8805C23.6035 16.0279 23.6843 16.1199 23.7679 16.1617L23.7787 16.1671L23.7785 16.1674L27.5002 18.32C27.6809 18.3919 27.827 18.4467 27.9986 18.4467H31.1838C31.3392 18.4467 31.4842 18.4994 31.5909 18.6061C31.6975 18.7128 31.7501 18.8577 31.7501 19.013C31.7501 19.1684 31.6974 19.3134 31.5907 19.42C31.484 19.5266 31.339 19.5792 31.1838 19.5792H27.9986C27.6405 19.5792 27.2735 19.4996 26.9433 19.294L23.2498 17.1364C22.8713 16.9254 22.6214 16.5883 22.4984 16.1781L22.4957 16.1691L22.4938 16.1599C22.4128 15.7554 22.4516 15.3394 22.6615 14.9618C22.8725 14.5823 23.2099 14.3318 23.6209 14.2085L23.6299 14.2058L23.6391 14.204C24.044 14.123 24.4599 14.1621 24.8374 14.3719L24.841 14.3739L24.841 14.374L28.309 16.397H32.319C32.7553 16.397 33.2305 16.5153 33.6301 16.7549L34.0205 17.0242ZM34.0205 17.0242L34.0635 17.0149L33.7949 16.8538C33.7413 16.8183 33.6863 16.7853 33.6303 16.755L34.0205 17.0242Z" fill="#4D666F" stroke="#4D666F" stroke-width="0.4"/>
<path d="M22.6265 12.0665L14.2125 26.6157V18.8668C14.2125 18.7116 14.1599 18.5666 14.0533 18.46C13.9467 18.3533 13.8017 18.3006 13.6463 18.3006C13.491 18.3006 13.3461 18.3532 13.2394 18.4598C13.1327 18.5664 13.08 18.7114 13.08 18.8668V28.7523C13.08 29.0405 13.2636 29.2058 13.447 29.2974L13.4892 29.3186H13.5364H13.6463C13.8701 29.3186 14.0384 29.2024 14.1422 29.0462L14.1426 29.0464L14.1489 29.0354L23.5951 12.6694L23.5954 12.6696L23.6007 12.6591C23.7544 12.3523 23.6554 12.0278 23.4323 11.8604L23.4081 11.8422L23.3962 11.838C23.1082 11.6789 22.7822 11.8072 22.6281 12.0637L22.6281 12.0637L22.6265 12.0665Z" fill="#4D666F" stroke="#4D666F" stroke-width="0.4"/>
<path d="M22.109 17.3711L22.2061 17.4682L22.1039 17.3764C21.6423 17.8734 21.1073 18.3024 20.5307 18.6991C20.243 18.8759 20.202 19.2223 20.3581 19.4825L20.3579 19.4826L20.3632 19.4907C20.4838 19.6714 20.6667 19.726 20.8225 19.726C20.9448 19.726 21.0564 19.6696 21.1207 19.6371C21.1246 19.6351 21.1283 19.6332 21.1318 19.6314L21.1452 19.6247L21.1575 19.6161C21.786 19.1725 22.3826 18.6883 22.907 18.1271C23.1288 17.9025 23.1279 17.5579 22.9044 17.3343L22.8943 17.3243L22.883 17.3158C22.6629 17.1506 22.331 17.149 22.109 17.3711Z" fill="#4D666F" stroke="#4D666F" stroke-width="0.4"/>
<path d="M13.6469 13.7218L13.647 13.7216C13.725 13.7215 13.7989 13.7083 13.8695 13.677C13.9393 13.646 13.9957 13.6017 14.0443 13.5532L25.7016 1.93227H28.0761C28.0134 2.55362 27.8121 3.14502 27.4969 3.68114L27.4961 3.68236L24.1285 9.50251C23.9544 9.79467 24.0826 10.1308 24.3442 10.2879L24.3443 10.288C24.6368 10.4634 24.9738 10.3352 25.1312 10.0731L25.1313 10.0731L25.1329 10.0703L28.5013 4.24892L28.5013 4.24892L28.5023 4.24718C28.9951 3.37547 29.2604 2.38954 29.2604 1.36623C29.2604 1.211 29.2078 1.06604 29.1012 0.959367C28.9945 0.852679 28.8495 0.8 28.6941 0.8H25.5089C25.4307 0.8 25.3565 0.813234 25.2858 0.84462C25.216 0.8756 25.1596 0.919817 25.1112 0.968272C25.1111 0.968314 25.1111 0.968356 25.111 0.968398L13.2495 12.7573L13.2495 12.7573L13.2491 12.7578C13.0247 12.9822 13.0246 13.3287 13.2491 13.5532C13.3622 13.6663 13.5239 13.7218 13.6469 13.7218Z" fill="#4D666F" stroke="#4D666F" stroke-width="0.4"/>
<path d="M16.8017 31.084L16.8085 31.0881L16.8155 31.0916C16.8651 31.1163 16.9117 31.1332 16.9635 31.1418C17.0076 31.1492 17.05 31.1491 17.0821 31.1491C17.0841 31.1491 17.086 31.1491 17.0878 31.1491C17.1833 31.1491 17.2799 31.1186 17.3612 31.0748C17.4434 31.0305 17.5256 30.9643 17.5838 30.8767L17.5841 30.877L17.5904 30.8661L20.849 25.2278L20.8495 25.227C21.1058 24.7785 21.6243 24.4857 22.1402 24.4857H28.6573C28.8126 24.4857 28.9575 24.4331 29.0642 24.3265C29.1709 24.2199 29.2236 24.0749 29.2236 23.9195C29.2236 23.7642 29.171 23.6193 29.0644 23.5126C28.9577 23.4059 28.8127 23.3532 28.6573 23.3532L22.1445 23.3535C21.1878 23.3153 20.3165 23.8345 19.8433 24.6625L19.8424 24.664L16.5859 30.2987C16.4119 30.5908 16.5401 30.9269 16.8017 31.084Z" fill="#4D666F" stroke="#4D666F" stroke-width="0.4"/>
<path d="M11.1893 22.6788C11.1961 22.6857 11.2031 22.6923 11.2102 22.6986L11.0421 22.8382H11.596C11.7512 22.8382 11.8962 22.7856 12.0028 22.679C12.0677 22.6141 12.1127 22.5351 12.1379 22.4481L12.1501 22.438H12.1407C12.1551 22.385 12.1622 22.3292 12.1622 22.272C12.162 16.3053 17.0148 11.4515 23.0193 11.4515C23.1367 11.4515 23.2592 11.4809 23.4098 11.5188L23.4101 11.5188C23.7923 11.6144 24.1138 11.8698 24.3082 12.226C24.5067 12.59 24.5691 12.9781 24.4728 13.3634L24.4726 13.3633L24.4707 13.3727C24.4424 13.5147 24.4711 13.6634 24.5379 13.7836C24.605 13.9043 24.7219 14.0149 24.8842 14.0473C25.0261 14.0756 25.1748 14.0469 25.2951 13.9801C25.4148 13.9135 25.5246 13.7979 25.5579 13.6376C25.7141 12.9704 25.6358 12.2606 25.2804 11.6294L25.2805 11.6294L25.2776 11.6246C24.9237 11.0348 24.3727 10.6009 23.6686 10.4027C23.452 10.3191 23.205 10.3192 23.0336 10.3193L23.0193 10.3193C16.3922 10.3193 11.03 15.6808 11.03 22.272C11.03 22.4273 11.0826 22.5722 11.1893 22.6788Z" fill="#4D666F" stroke="#4D666F" stroke-width="0.4"/>
</g>
<defs>
<clipPath id="clip0_265_6323">
<rect width="40" height="42" fill="white" transform="translate(0 0.364746)"/>
</clipPath>
</defs>
</svg>
