<svg id="Calque_1" data-name="Calque 1" xmlns="http://www.w3.org/2000/svg" viewBox="0 0 633.13965 282.45117"><defs><style>.cls-1{fill:#9FB9C6;}</style></defs><title>logo-witsill-light</title><path class="cls-1" d="M214.019,304.11084h8.65674l2.88574,14.42822q8.6565,0,8.65674-8.65674H237.104l5.771,5.771-2.88574,17.314H242.875l-2.88574,2.88574v2.88525L242.875,341.624v2.88575h-2.88574l2.88574,2.88574v2.88525l-2.88574,95.22559v2.88574H242.875l8.65674-28.85645h5.77148L237.104,474.36279h5.771l34.62744-98.11133h-5.771L260.189,413.76465h-5.77148v-2.88574L274.6167,364.709h2.88574v5.77149l23.085-5.77149q11.54151,4.24512,11.54248,8.65674l2.88574-2.88525h8.65674l11.54248,69.25488h2.88575q0-12.89794,45.49072-148.69433h2.88574l2.88574,8.65673h2.88575v-5.77148h2.88525q21.38745,0,23.085,8.65723v5.771l-5.771,8.65674V319.897h5.771l2.88574-20.19922H426.876l5.771,5.771v2.88574L366.95654,534.96094l-8.65674,2.88574V532.0752l-2.88574,2.88574h-2.88525l-2.88574-2.88574q0,11.5415-8.65674,11.542-23.08668-2.03613-23.085-8.65625h2.88525q-2.88794-14.42579-11.54248-20.19922l-11.54248-63.48389q-4.9248.17066-34.62744,80.79737l-14.42774,14.42773h-2.88574l-2.88574-11.542q44.13208-72.98732,46.16992-112.53955-7.63842,7.63842-37.51318,86.56884-3.56471,0-11.54248,34.627H214.019l-2.88574-11.542-2.88574,2.88574h-2.88574q0-15.61524-8.65674-23.08545V500.333l11.54248,8.65722-5.771-49.05566,2.88526-2.88574-2.88526-2.88574,2.88526-2.88526h-2.88526l2.88526-2.88574V407.99316l2.88574-14.42773h-2.88574l2.88574-2.88574V315.65332l-2.88574-2.88525v-2.88575Zm169.57227,1.35791q-42.60791,132.57056-42.605,148.69434v2.88574h2.88525l45.49121-151.58008ZM361.18555,485.90527l-5.77149,25.97022v5.771h2.88574l5.77149-28.856v-2.88526ZM378.499,416.65039l-5.771,25.97022v2.88574h2.88574l5.771-25.97071v-2.88525Z" transform="translate(-196.70508 -291.04102)"/><path class="cls-1" d="M486.625,311.40967q-.67968,8.65722,10.86377,8.65722l5.26221,11.54249-3.05567,2.88525h2.88574q-20.71141,61.10742-25.2915,141.39551l-1.01855,17.314,2.88574,2.88526-.16992,2.88574-3.05518,2.88574h2.88525l-3.05517,2.88574,1.69726,20.19873-.33935,5.77149q-15.44751,18.67089-16.12549,28.85644H449.45166l-13.91895-5.77148,4.07374-20.19922-11.03321-11.542,5.26221-43.28467,2.88574-51.94141,6.28027-8.65674.67872-11.54248-2.71582-2.88574.16992-2.88525h5.771l.16993-2.88574-2.71582-2.88575,11.7124-54.82666H453.186l3.05517-2.88574.84863-17.31348-2.71582-2.88574.16993-2.88574ZM445.37793,533.60254l-.84863,14.42871,5.94091-5.77148.67872-8.65723Zm.50928-115.42481-.84864,17.314h2.88526l.84863-17.314Zm4.41308-25.9707-1.01855,17.314h2.88574l1.01856-17.314Zm4.41358-28.856-1.01856,20.19922h2.88574l1.01807-20.19922Z" transform="translate(-196.70508 -291.04102)"/><path class="cls-1" d="M679.1123,305.12939l8.65821,2.88575v5.771H679.1123l5.77149,8.65723q-6.28125,14.42945-46.16992,14.42773l-20.19922,2.88575-2.88477,8.65673h2.88477q-8.65724,20.54-34.62695,184.68018l8.65625,37.5127h-2.88477q-6.45409,0-11.543-28.85645l2.88477-28.856V510.0083h-2.88477v5.771q-8.65722,0-8.65625,5.77148v2.88574l5.77149,46.16993v2.88574H569.46L557.917,564.835l-2.88476,2.88574h-2.88672q-11.5459-24.95214-11.543-43.28418l2.88672,2.88575H546.374l-5.77148-20.19922,8.6582-2.88575V489.80908h-5.77148v-2.88574q8.65722,0,8.65625-5.771V478.2666H546.374q0-23.08227,8.65821-23.085V417.66846q4.582-4.07373,11.541-60.59766L546.374,359.95605l-40.39843-2.88525v-2.88574l14.42871-2.88574v2.88574l2.88574-2.88574h43.2832v-8.65674l-46.16894,5.771-2.88575-2.88525h-2.88574l-17.314,2.88525-8.65674-5.771,2.88574-14.42822-2.88574-2.88575q0-14.42505,34.62793-14.42773ZM555.03223,475.38086l-5.77149,63.4834h5.77149l-2.88672-14.42774V518.665l5.77148-8.65674h-2.88476l2.88476-2.88525V504.2373l-2.88476-2.88574v-2.88574l5.76953-11.54248L557.917,475.38086ZM661.7998,313.78613v2.88575h11.541v-2.88575Z" transform="translate(-196.70508 -291.04102)"/><path class="cls-1" d="M751.59375,306.148q7.6377,5.77221,48.5459,5.771l-.16992,2.88574H779.77051l-.16992,2.88574q36.15527,0,45.15136,17.31348l-.33886,5.77148H809.98438l-.16895,2.88574,20.0293,2.88526-.16993,2.88574H812.36133l-.16992,2.88574q8.65722,0,8.31738,5.771-51.43214,0-91.83106,37.51318l-.16894,2.88574q55.84276,14.93848,88.43555,66.36914l-.16993,2.88575Q806.24806,505.0874,757.874,536.99707l-17.65332,2.88574-.16992,2.88574h5.77149q-.34278,7.80616-52.96,17.31348l.33985-5.77051h14.42773l.33985-2.88574q-18.50391,0-33.43946-20.19922-12.90234-6.62109-12.90039-25.292,0-1.69482.16992-3.56445l8.9961-5.77149,8.31738,5.77149h5.77149q81.47607-12.731,84.02246-51.94141-34.11768-17.31372-45.15137-17.31348l-.16992,2.88575L695.23926,424.4585l2.71582,2.88525-.16992,5.77148q-35.98829-26.48-35.13672-40.39892l22.57617-40.39844,15.10644-11.54248-.33886,5.771ZM711.19434,545.6543l-.16895,2.88574h11.542L737.165,545.6543v-2.88575H734.2793Zm1.01855-161.59473-.16992,2.88574,50.92285-31.7417,23.4248-5.77148.33985-5.771H780.959Q735.29541,360.63648,712.21289,384.05957ZM728.169,502.37012h2.88574l6.11035-5.77149H734.2793Zm15.78613,23.085v2.88574h2.88574l12.05176-8.65723Zm36.15527-23.085-12.3916,14.42773h2.88574l12.3916-14.42773Z" transform="translate(-196.70508 -291.04102)"/></svg>
