<svg id="logo_wits" data-name="Logo_wits" xmlns="http://www.w3.org/2000/svg" viewBox="0 0 815 457.9"><defs><style>.cls-1{fill:#fff;}</style></defs><title>logo wits</title><path class="logo-wits" d="M214,304.11h8.66l2.88,14.43q8.66,0,8.66-8.66h2.88l5.78,5.77L240,333h2.89L240,335.85v2.89l2.89,2.88v2.89H240l2.89,2.89v2.88L240,445.51v2.88h2.89l8.65-28.85h5.77l-20.2,54.82h5.78l34.62-98.11h-5.77l-11.54,37.51h-5.77v-2.88l20.2-46.17h2.88v5.77l23.09-5.77q11.54,4.25,11.54,8.66l2.89-2.89h8.65l11.54,69.26h2.89q0-12.9,45.49-148.7h2.89l2.88,8.66h2.89v-5.77h2.88q21.39,0,23.09,8.65v5.77L412.45,317v2.89h5.77l2.88-20.2h5.78l5.77,5.77v2.88L367,535l-8.66,2.89v-5.77L355.41,535h-2.88l-2.89-2.88q0,11.53-8.65,11.54-23.08-2-23.09-8.66h2.89q-2.9-14.43-11.55-20.2L297.7,451.28q-4.92.17-34.63,80.8L248.65,546.5h-2.89L242.88,535Q287,462,289,422.42q-7.64,7.63-37.51,86.57Q248,509,240,543.62H214l-2.89-11.54L208.25,535h-2.89q0-15.62-8.65-23.08V500.33L208.25,509l-5.77-49.06,2.88-2.88-2.88-2.89,2.88-2.88h-2.88l2.88-2.89V408l2.89-14.42h-2.89l2.89-2.89v-75l-2.89-2.88v-2.89Zm169.57,1.36Q341,438,341,454.16v2.89h2.88l45.49-151.58Zm-22.4,180.44-5.78,26v5.77h2.89l5.77-28.86v-2.88Zm17.31-69.26-5.77,26v2.89h2.88l5.77-26v-2.89Z" transform="translate(-104.16 -207.06)"/><path class="cls-1" d="M486.62,311.41q-.67,8.65,10.87,8.66l5.26,11.54-3.05,2.88h2.88q-20.71,61.11-25.29,141.4l-1,17.31,2.89,2.89L479,499l-3.06,2.88h2.89l-3.06,2.89,1.7,20.2-.34,5.77Q461.67,549.38,461,559.57H449.45l-13.92-5.77,4.08-20.2-11-11.54,5.27-43.28,2.88-51.95,6.28-8.65.68-11.54L441,403.75l.17-2.89h5.78l.17-2.88-2.72-2.89,11.71-54.82h-2.88l3.05-2.89.85-17.31-2.72-2.89.17-2.88ZM445.38,533.6,444.53,548l5.94-5.77.68-8.66Zm.51-115.42L445,435.49h2.88l.85-17.31Zm4.41-26-1,17.31h2.89l1-17.31Zm4.41-28.86-1,20.2h2.88l1-20.2Z" transform="translate(-104.16 -207.06)"/><path class="cls-1" d="M679.11,305.13l8.66,2.89v5.77h-8.66l5.77,8.65q-6.27,14.43-46.17,14.43l-20.2,2.89-2.88,8.65h2.88Q609.86,369,583.89,533.09l8.65,37.52h-2.88q-6.45,0-11.54-28.86L581,512.89V510h-2.88v5.77q-8.67,0-8.66,5.77v2.89l5.77,46.17v2.88h-5.77l-11.54-8.66L555,567.72h-2.88q-11.55-24.94-11.55-43.28l2.89,2.88h2.88l-5.77-20.2,8.66-2.88V489.81h-5.77v-2.89q8.65,0,8.66-5.77v-2.88h-5.78q0-23.08,8.66-23.09V417.67q4.59-4.08,11.54-60.6L546.37,360,506,357.07v-2.88l14.42-2.89v2.89l2.89-2.89h43.28v-8.66l-46.17,5.77-2.88-2.88h-2.89l-17.31,2.88-8.66-5.77,2.89-14.43-2.89-2.88q0-14.43,34.63-14.43ZM555,475.38l-5.77,63.48H555l-2.88-14.42v-5.77l5.77-8.66H555l2.89-2.89v-2.88L555,501.35v-2.88l5.77-11.55-2.88-11.54ZM661.8,313.79v2.88h11.54v-2.88Z" transform="translate(-104.16 -207.06)"/><path class="cls-1" d="M751.59,306.15q7.63,5.78,48.55,5.77L800,314.8h-20.2l-.17,2.89q36.15,0,45.15,17.31l-.34,5.78H810l-.17,2.88,20,2.89-.17,2.88H812.36l-.17,2.89q8.65,0,8.32,5.77-51.43,0-91.83,37.51l-.17,2.89q55.85,14.94,88.43,66.37l-.17,2.88q-10.51,37.35-58.9,69.26l-17.65,2.88-.17,2.89h5.77q-.35,7.8-53,17.31l.34-5.77h14.43l.34-2.88q-18.51,0-33.44-20.2-12.9-6.63-12.9-25.3c0-1.13,0-2.31.17-3.56l9-5.77,8.32,5.77h5.77q81.48-12.74,84-51.94-34.12-17.31-45.16-17.31l-.17,2.88-28.34-11.54,2.71,2.88-.17,5.78q-36-26.49-35.13-40.4l22.57-40.4,15.11-11.54-.34,5.77Zm-40.4,239.5-.17,2.89h11.55l14.59-2.89v-2.88h-2.88Zm1-161.59L712,387,763,355.2l23.43-5.77.34-5.77H781Q735.3,360.64,712.21,384.06Zm16,118.31h2.88l6.11-5.77h-2.88ZM744,525.46v2.88h2.89l12-8.66Zm36.16-23.09L767.72,516.8h2.88L783,502.37Z" transform="translate(-104.16 -207.06)"/><path class="cls-1" d="M250.3,664.43l-11.14-53.22h8.91l4.46,24.71,2.26,15.2,2.19-15.2,4.45-24.71h8.91l4.45,24.71,2.2,15.2,2.26-15.2,4.45-24.71h8.91l-11.13,53.22h-8.91l-4.46-24.71-2.22-15.21-2.23,15.21-4.45,24.71Z" transform="translate(-104.16 -207.06)"/><path class="cls-1" d="M297.45,664.43V611.21h8.9V634h15.59V611.21h8.91v53.22h-8.91V639.72H306.35v24.71Z" transform="translate(-104.16 -207.06)"/><path class="cls-1" d="M339.76,664.43V611.21h24.49v5.7H348.66V634H359.8v5.7H348.66v19h15.59v5.7Z" transform="translate(-104.16 -207.06)"/><path class="cls-1" d="M369.72,664.43V611.21h11.13q9.94,0,15,3.29t5,11a14.87,14.87,0,0,1-2,8,10.07,10.07,0,0,1-5.81,4.4l10,26.61h-8.84l-9-24.71h-6.68v24.71Zm8.9-30.41h2.23q5.56,0,8.35-2c1.86-1.33,2.78-3.52,2.78-6.55s-.92-5.21-2.78-6.54-4.64-2-8.35-2h-2.23Z" transform="translate(-104.16 -207.06)"/><path class="cls-1" d="M408.27,664.43V611.21h24.49v5.7H417.18V634h11.13v5.7H417.18v19h15.58v5.7Z" transform="translate(-104.16 -207.06)"/><path class="cls-1" d="M453.12,664.43V611.21H462v53.22Z" transform="translate(-104.16 -207.06)"/><path class="cls-1" d="M487.81,665q-8.42,0-12.86-4.21c-2.95-2.81-4.61-6.66-4.95-11.53l8.9-1.9q.66,11.41,8.91,11.41,6.68,0,6.68-5.7a8.89,8.89,0,0,0-.54-3.14,8,8,0,0,0-1.65-2.64,19.2,19.2,0,0,0-2-1.93c-.6-.49-1.43-1.09-2.47-1.8l-11.13-7.6a15.51,15.51,0,0,1-4.89-5.21A14.13,14.13,0,0,1,470,623.5a11.41,11.41,0,0,1,4.28-9.35q4.27-3.48,11.34-3.48,7.59,0,12.06,3.17a13.37,13.37,0,0,1,5.51,8.95c.07.42.16,1,.25,1.72l-8.91,1.9c0-.33-.08-.84-.17-1.51a10.77,10.77,0,0,0-2.67-5.81,8,8,0,0,0-6.07-2.18,7.25,7.25,0,0,0-4.94,1.53,5.38,5.38,0,0,0-1.74,4.26q0,4.49,4.46,7.52l11.13,7.6q8.91,6.15,8.91,14.7a11,11,0,0,1-4.23,9.15Q494.94,665,487.81,665Z" transform="translate(-104.16 -207.06)"/><path class="cls-1" d="M531,664.43V618H519.89v-6.77h31.18V618H539.93v46.45Z" transform="translate(-104.16 -207.06)"/><path class="cls-1" d="M555.49,664.43V611.21h8.9V634H580V611.21h8.91v53.22H580V639.72H564.39v24.71Z" transform="translate(-104.16 -207.06)"/><path class="cls-1" d="M597.8,664.43V611.21h24.49v5.7H606.7V634h11.14v5.7H606.7v19h15.59v5.7Z" transform="translate(-104.16 -207.06)"/><path class="cls-1" d="M658.48,665q-8.41,0-12.86-4.21t-5-11.53l8.91-1.9q.66,11.41,8.91,11.41,6.67,0,6.68-5.7a8.89,8.89,0,0,0-.54-3.14,8,8,0,0,0-1.65-2.64,19.2,19.2,0,0,0-2-1.93c-.6-.49-1.43-1.09-2.47-1.8l-11.14-7.6a15.58,15.58,0,0,1-4.88-5.21,14.13,14.13,0,0,1-1.83-7.21,11.41,11.41,0,0,1,4.28-9.35q4.27-3.48,11.34-3.48,7.59,0,12.06,3.17a13.37,13.37,0,0,1,5.51,8.95c.07.42.15,1,.25,1.72l-8.91,1.9c0-.33-.08-.84-.17-1.51a10.77,10.77,0,0,0-2.67-5.81,8,8,0,0,0-6.07-2.18,7.25,7.25,0,0,0-4.94,1.53,5.38,5.38,0,0,0-1.74,4.26q0,4.49,4.46,7.52l11.13,7.6q8.91,6.15,8.91,14.7a11,11,0,0,1-4.23,9.15Q665.61,665,658.48,665Z" transform="translate(-104.16 -207.06)"/><path class="cls-1" d="M680.57,664.43V611.21h15.59q15.58,0,15.59,15.2,0,6.51-4,9.91t-11.57,3.4h-6.68v24.71ZM689.48,634h2.23a33.42,33.42,0,0,0,5-.3,10.44,10.44,0,0,0,3.41-1.11,4.75,4.75,0,0,0,2.12-2.33,10,10,0,0,0,.64-3.87,18,18,0,0,0-.48-4.61,5.79,5.79,0,0,0-1.8-2.9,7.37,7.37,0,0,0-3.37-1.56,27.75,27.75,0,0,0-5.48-.43h-2.23Z" transform="translate(-104.16 -207.06)"/><path class="cls-1" d="M732.87,665a23.69,23.69,0,0,1-8-1.21,12.32,12.32,0,0,1-5.35-3.57,14.59,14.59,0,0,1-2.88-5.51,26.47,26.47,0,0,1-.91-7.35V628a26.12,26.12,0,0,1,.91-7.31,14.28,14.28,0,0,1,2.88-5.42,12.14,12.14,0,0,1,5.35-3.46,24.8,24.8,0,0,1,8-1.16q9.12,0,13.15,4.46t4,12.89v19.3a26.33,26.33,0,0,1-.92,7.3,15.22,15.22,0,0,1-2.91,5.52,12.35,12.35,0,0,1-5.34,3.59A23.36,23.36,0,0,1,732.87,665Zm-6.49-8.64q1.8,2.41,6.49,2.41c3.13,0,5.3-.8,6.49-2.41s1.79-4,1.79-7.1v-23.1q0-4.64-1.77-6.92c-1.19-1.53-3.35-2.29-6.51-2.29s-5.32.76-6.51,2.29-1.77,3.83-1.77,6.92v23.1Q724.59,653.92,726.38,656.32Z" transform="translate(-104.16 -207.06)"/><path class="cls-1" d="M764.5,664.43V618H753.37v-6.77h31.17V618H773.41v46.45Z" transform="translate(-104.16 -207.06)"/><polygon class="cls-1" points="0 0 0 430 101.73 430 101.73 427.5 2.5 427.5 2.5 2.5 812.5 2.5 812.5 427.5 713.27 427.5 713.27 430 815 430 815 0 0 0"/></svg>
